G04 EAGLE Gerber X2 export*
%TF.Part,Single*%
%TF.FileFunction,Copper,L2,Bot,Mixed*%
%TF.FilePolarity,Positive*%
%TF.GenerationSoftware,Autodesk,EAGLE,9.1.0*%
%TF.CreationDate,2018-08-06T08:45:10Z*%
G75*
%MOMM*%
%FSLAX34Y34*%
%LPD*%
%AMOC8*
5,1,8,0,0,1.08239X$1,22.5*%
G01*
%ADD10R,1.600000X2.700000*%
%ADD11R,1.000000X1.100000*%
%ADD12R,1.100000X1.000000*%
%ADD13R,1.800000X1.600000*%
%ADD14R,1.500000X1.300000*%
%ADD15R,2.200000X1.600000*%
%ADD16P,1.649562X8X292.500000*%
%ADD17P,1.649562X8X22.500000*%
%ADD18P,1.649562X8X202.500000*%
%ADD19R,0.300000X0.900000*%
%ADD20R,0.300000X1.000000*%
%ADD21R,0.300000X0.950000*%
%ADD22R,0.700000X0.300000*%
%ADD23R,1.300000X1.500000*%
%ADD24R,0.809800X0.250000*%
%ADD25R,0.250000X0.809800*%
%ADD26R,1.500000X1.550000*%
%ADD27R,0.956400X0.472500*%
%ADD28C,1.524000*%
%ADD29C,2.540000*%
%ADD30C,3.175000*%
%ADD31C,0.304800*%
%ADD32C,0.756400*%
%ADD33C,0.200000*%
%ADD34C,0.152400*%
%ADD35C,0.406400*%
%ADD36C,0.254000*%

G36*
X375573Y323222D02*
X375573Y323222D01*
X375600Y323225D01*
X375627Y323223D01*
X375773Y323245D01*
X375920Y323262D01*
X375945Y323271D01*
X375972Y323275D01*
X376109Y323330D01*
X376248Y323380D01*
X376271Y323395D01*
X376296Y323405D01*
X376417Y323489D01*
X376541Y323569D01*
X376559Y323588D01*
X376582Y323604D01*
X376681Y323714D01*
X376783Y323819D01*
X376797Y323843D01*
X376815Y323863D01*
X376886Y323992D01*
X376962Y324119D01*
X376970Y324144D01*
X376983Y324168D01*
X377023Y324310D01*
X377068Y324451D01*
X377070Y324477D01*
X377077Y324504D01*
X377097Y324747D01*
X376897Y501541D01*
X376885Y501640D01*
X376884Y501739D01*
X376865Y501812D01*
X376857Y501887D01*
X376823Y501981D01*
X376799Y502077D01*
X376764Y502144D01*
X376739Y502215D01*
X376685Y502299D01*
X376639Y502387D01*
X376590Y502445D01*
X376550Y502508D01*
X376478Y502577D01*
X376413Y502653D01*
X376353Y502697D01*
X376299Y502750D01*
X376213Y502801D01*
X376133Y502860D01*
X376064Y502890D01*
X375999Y502928D01*
X375904Y502958D01*
X375813Y502998D01*
X375739Y503011D01*
X375667Y503034D01*
X375568Y503042D01*
X375470Y503059D01*
X375395Y503056D01*
X375320Y503062D01*
X375221Y503047D01*
X375122Y503042D01*
X375050Y503021D01*
X374975Y503009D01*
X374883Y502973D01*
X374787Y502945D01*
X374721Y502908D01*
X374652Y502880D01*
X374570Y502824D01*
X374483Y502775D01*
X374405Y502709D01*
X374366Y502681D01*
X374342Y502655D01*
X374297Y502616D01*
X371589Y499908D01*
X364013Y499908D01*
X358656Y505265D01*
X358656Y506176D01*
X358653Y506202D01*
X358655Y506228D01*
X358633Y506375D01*
X358616Y506522D01*
X358607Y506547D01*
X358603Y506573D01*
X358549Y506710D01*
X358499Y506850D01*
X358484Y506872D01*
X358475Y506896D01*
X358390Y507018D01*
X358310Y507143D01*
X358291Y507161D01*
X358276Y507183D01*
X358166Y507282D01*
X358059Y507385D01*
X358036Y507398D01*
X358017Y507416D01*
X357887Y507488D01*
X357760Y507564D01*
X357735Y507572D01*
X357712Y507585D01*
X357569Y507625D01*
X357428Y507670D01*
X357402Y507672D01*
X357377Y507679D01*
X357133Y507699D01*
X328507Y507699D01*
X328382Y507684D01*
X328255Y507678D01*
X328209Y507665D01*
X328161Y507659D01*
X328042Y507616D01*
X327921Y507581D01*
X327878Y507558D01*
X327833Y507542D01*
X327727Y507473D01*
X327705Y507461D01*
X321792Y507461D01*
X321766Y507458D01*
X321740Y507460D01*
X321593Y507438D01*
X321446Y507421D01*
X321421Y507412D01*
X321395Y507408D01*
X321257Y507354D01*
X321117Y507304D01*
X321095Y507289D01*
X321071Y507280D01*
X320949Y507195D01*
X320825Y507115D01*
X320806Y507096D01*
X320785Y507081D01*
X320686Y506971D01*
X320582Y506864D01*
X320569Y506841D01*
X320551Y506822D01*
X320480Y506692D01*
X320404Y506565D01*
X320396Y506540D01*
X320383Y506517D01*
X320343Y506374D01*
X320297Y506233D01*
X320295Y506207D01*
X320288Y506181D01*
X320269Y505938D01*
X320269Y500492D01*
X319375Y499598D01*
X313939Y499598D01*
X313814Y499584D01*
X313688Y499577D01*
X313641Y499564D01*
X313593Y499559D01*
X313474Y499516D01*
X313353Y499481D01*
X313311Y499457D01*
X313265Y499441D01*
X313159Y499372D01*
X313049Y499311D01*
X313002Y499271D01*
X312972Y499252D01*
X312939Y499217D01*
X312862Y499152D01*
X311659Y497948D01*
X311627Y497909D01*
X311590Y497875D01*
X311519Y497773D01*
X311442Y497675D01*
X311420Y497630D01*
X311392Y497588D01*
X311346Y497473D01*
X311293Y497360D01*
X311282Y497311D01*
X311264Y497264D01*
X311246Y497141D01*
X311220Y497020D01*
X311220Y496969D01*
X311213Y496919D01*
X311223Y496795D01*
X311226Y496671D01*
X311238Y496622D01*
X311242Y496572D01*
X311280Y496454D01*
X311311Y496333D01*
X311334Y496288D01*
X311349Y496240D01*
X311413Y496134D01*
X311470Y496023D01*
X311503Y495985D01*
X311529Y495942D01*
X311616Y495853D01*
X311696Y495758D01*
X311737Y495728D01*
X311772Y495692D01*
X311877Y495625D01*
X311976Y495551D01*
X312023Y495531D01*
X312065Y495504D01*
X312182Y495462D01*
X312296Y495413D01*
X312346Y495404D01*
X312394Y495387D01*
X312517Y495373D01*
X312639Y495351D01*
X312690Y495354D01*
X312740Y495348D01*
X312863Y495363D01*
X312907Y495365D01*
X312911Y495365D01*
X312913Y495365D01*
X312987Y495369D01*
X313036Y495383D01*
X313086Y495389D01*
X313143Y495407D01*
X313151Y495409D01*
X315580Y496060D01*
X316133Y496132D01*
X316133Y481006D01*
X301007Y481006D01*
X301079Y481559D01*
X301730Y483988D01*
X301738Y484042D01*
X301771Y484155D01*
X301773Y484206D01*
X301784Y484255D01*
X301782Y484379D01*
X301788Y484503D01*
X301779Y484553D01*
X301778Y484604D01*
X301747Y484724D01*
X301725Y484846D01*
X301705Y484893D01*
X301693Y484942D01*
X301636Y485052D01*
X301586Y485166D01*
X301556Y485206D01*
X301533Y485251D01*
X301453Y485346D01*
X301379Y485446D01*
X301340Y485478D01*
X301307Y485517D01*
X301207Y485591D01*
X301113Y485671D01*
X301068Y485694D01*
X301027Y485724D01*
X300913Y485773D01*
X300802Y485830D01*
X300753Y485842D01*
X300707Y485862D01*
X300585Y485884D01*
X300464Y485914D01*
X300414Y485915D01*
X300364Y485924D01*
X300240Y485917D01*
X300116Y485919D01*
X300066Y485908D01*
X300016Y485906D01*
X299897Y485871D01*
X299775Y485845D01*
X299730Y485823D01*
X299681Y485809D01*
X299573Y485749D01*
X299461Y485695D01*
X299421Y485664D01*
X299377Y485639D01*
X299191Y485481D01*
X299188Y485478D01*
X295277Y481567D01*
X295261Y481546D01*
X295241Y481529D01*
X295152Y481410D01*
X295060Y481294D01*
X295049Y481270D01*
X295033Y481249D01*
X294975Y481113D01*
X294911Y480979D01*
X294906Y480953D01*
X294895Y480929D01*
X294869Y480783D01*
X294838Y480638D01*
X294838Y480612D01*
X294834Y480586D01*
X294841Y480437D01*
X294844Y480290D01*
X294850Y480264D01*
X294852Y480238D01*
X294893Y480096D01*
X294929Y479952D01*
X294941Y479928D01*
X294948Y479903D01*
X295021Y479774D01*
X295089Y479642D01*
X295106Y479622D01*
X295118Y479599D01*
X295277Y479413D01*
X299332Y475358D01*
X299431Y475279D01*
X299524Y475195D01*
X299567Y475171D01*
X299605Y475141D01*
X299719Y475087D01*
X299829Y475026D01*
X299876Y475013D01*
X299920Y474992D01*
X300043Y474966D01*
X300165Y474931D01*
X300226Y474926D01*
X300260Y474919D01*
X300308Y474920D01*
X300409Y474912D01*
X316133Y474912D01*
X316133Y459188D01*
X316147Y459062D01*
X316154Y458936D01*
X316167Y458889D01*
X316173Y458841D01*
X316215Y458722D01*
X316250Y458601D01*
X316274Y458559D01*
X316290Y458513D01*
X316359Y458407D01*
X316421Y458297D01*
X316460Y458250D01*
X316479Y458220D01*
X316514Y458187D01*
X316579Y458110D01*
X336543Y438147D01*
X336642Y438068D01*
X336735Y437984D01*
X336778Y437960D01*
X336816Y437930D01*
X336930Y437876D01*
X337041Y437815D01*
X337087Y437802D01*
X337131Y437781D01*
X337254Y437755D01*
X337376Y437720D01*
X337437Y437715D01*
X337471Y437708D01*
X337519Y437709D01*
X337620Y437701D01*
X340707Y437701D01*
X340783Y437709D01*
X340860Y437708D01*
X340956Y437729D01*
X341054Y437741D01*
X341125Y437766D01*
X341200Y437783D01*
X341289Y437825D01*
X341382Y437858D01*
X341446Y437900D01*
X341515Y437932D01*
X341592Y437994D01*
X341674Y438047D01*
X341728Y438102D01*
X341787Y438150D01*
X341848Y438227D01*
X341917Y438298D01*
X341956Y438363D01*
X342003Y438423D01*
X342071Y438556D01*
X342095Y438597D01*
X342101Y438615D01*
X342115Y438641D01*
X342924Y440594D01*
X345496Y443166D01*
X348857Y444559D01*
X352495Y444559D01*
X355856Y443166D01*
X358429Y440594D01*
X359821Y437233D01*
X359821Y433595D01*
X358429Y430234D01*
X355856Y427661D01*
X352495Y426269D01*
X348857Y426269D01*
X345496Y427661D01*
X342924Y430234D01*
X342115Y432187D01*
X342077Y432254D01*
X342049Y432325D01*
X341993Y432405D01*
X341945Y432492D01*
X341894Y432548D01*
X341850Y432611D01*
X341777Y432677D01*
X341711Y432750D01*
X341648Y432793D01*
X341592Y432844D01*
X341505Y432892D01*
X341424Y432948D01*
X341353Y432976D01*
X341287Y433013D01*
X341192Y433040D01*
X341100Y433076D01*
X341025Y433087D01*
X340951Y433108D01*
X340802Y433120D01*
X340755Y433126D01*
X340736Y433125D01*
X340707Y433127D01*
X335094Y433127D01*
X292270Y475951D01*
X292171Y476030D01*
X292078Y476114D01*
X292035Y476138D01*
X291997Y476168D01*
X291883Y476222D01*
X291773Y476283D01*
X291726Y476296D01*
X291682Y476317D01*
X291559Y476343D01*
X291437Y476378D01*
X291376Y476383D01*
X291342Y476390D01*
X291294Y476389D01*
X291193Y476397D01*
X273484Y476397D01*
X273458Y476394D01*
X273432Y476396D01*
X273285Y476374D01*
X273138Y476357D01*
X273113Y476349D01*
X273087Y476345D01*
X272949Y476290D01*
X272809Y476240D01*
X272787Y476226D01*
X272763Y476216D01*
X272642Y476131D01*
X272517Y476051D01*
X272498Y476032D01*
X272477Y476017D01*
X272378Y475907D01*
X272274Y475800D01*
X272261Y475778D01*
X272243Y475758D01*
X272172Y475628D01*
X272096Y475501D01*
X272088Y475476D01*
X272075Y475453D01*
X272035Y475310D01*
X271989Y475169D01*
X271987Y475143D01*
X271980Y475118D01*
X271961Y474874D01*
X271961Y472552D01*
X271067Y471659D01*
X259804Y471659D01*
X258911Y472552D01*
X258911Y475381D01*
X258908Y475407D01*
X258910Y475433D01*
X258888Y475580D01*
X258871Y475727D01*
X258862Y475752D01*
X258858Y475778D01*
X258804Y475916D01*
X258754Y476055D01*
X258739Y476077D01*
X258730Y476102D01*
X258645Y476223D01*
X258565Y476348D01*
X258546Y476366D01*
X258531Y476388D01*
X258421Y476487D01*
X258314Y476590D01*
X258291Y476604D01*
X258272Y476621D01*
X258142Y476693D01*
X258015Y476769D01*
X257990Y476777D01*
X257967Y476790D01*
X257824Y476830D01*
X257683Y476875D01*
X257657Y476878D01*
X257632Y476885D01*
X257388Y476904D01*
X243540Y476904D01*
X243514Y476901D01*
X243488Y476903D01*
X243341Y476881D01*
X243194Y476864D01*
X243170Y476856D01*
X243144Y476852D01*
X243006Y476797D01*
X242866Y476747D01*
X242844Y476733D01*
X242820Y476723D01*
X242698Y476638D01*
X242573Y476558D01*
X242555Y476539D01*
X242533Y476524D01*
X242434Y476414D01*
X242331Y476307D01*
X242318Y476285D01*
X242300Y476265D01*
X242228Y476135D01*
X242152Y476008D01*
X242144Y475983D01*
X242132Y475960D01*
X242091Y475817D01*
X242046Y475676D01*
X242044Y475650D01*
X242037Y475625D01*
X242017Y475381D01*
X242017Y473559D01*
X241124Y472666D01*
X228861Y472666D01*
X227968Y473559D01*
X227968Y475381D01*
X227965Y475407D01*
X227967Y475433D01*
X227945Y475580D01*
X227928Y475727D01*
X227919Y475752D01*
X227915Y475778D01*
X227860Y475916D01*
X227810Y476055D01*
X227796Y476077D01*
X227786Y476102D01*
X227702Y476223D01*
X227621Y476348D01*
X227602Y476366D01*
X227587Y476388D01*
X227478Y476487D01*
X227371Y476590D01*
X227348Y476604D01*
X227329Y476621D01*
X227199Y476693D01*
X227072Y476769D01*
X227047Y476777D01*
X227024Y476790D01*
X226881Y476830D01*
X226740Y476875D01*
X226713Y476878D01*
X226688Y476885D01*
X226444Y476904D01*
X208665Y476904D01*
X208565Y476893D01*
X208464Y476891D01*
X208392Y476873D01*
X208318Y476864D01*
X208224Y476831D01*
X208126Y476806D01*
X208060Y476772D01*
X207990Y476747D01*
X207906Y476692D01*
X207817Y476646D01*
X207760Y476598D01*
X207698Y476558D01*
X207628Y476486D01*
X207551Y476421D01*
X207507Y476361D01*
X207455Y476307D01*
X207404Y476221D01*
X207344Y476140D01*
X207315Y476072D01*
X207276Y476008D01*
X207246Y475913D01*
X207206Y475820D01*
X207193Y475747D01*
X207170Y475676D01*
X207162Y475576D01*
X207144Y475477D01*
X207148Y475403D01*
X207142Y475329D01*
X207157Y475230D01*
X207162Y475129D01*
X207183Y475058D01*
X207194Y474984D01*
X207231Y474891D01*
X207259Y474794D01*
X207295Y474729D01*
X207323Y474660D01*
X207380Y474578D01*
X207429Y474490D01*
X207494Y474414D01*
X207522Y474374D01*
X207548Y474350D01*
X207588Y474304D01*
X208821Y473070D01*
X208821Y456823D01*
X208839Y456675D01*
X208851Y456524D01*
X208859Y456501D01*
X208861Y456477D01*
X208912Y456336D01*
X208958Y456193D01*
X208971Y456172D01*
X208979Y456149D01*
X209061Y456022D01*
X209138Y455894D01*
X209155Y455877D01*
X209168Y455856D01*
X209276Y455752D01*
X209381Y455644D01*
X209401Y455631D01*
X209418Y455614D01*
X209548Y455537D01*
X209674Y455456D01*
X209697Y455448D01*
X209718Y455435D01*
X209861Y455390D01*
X210002Y455339D01*
X210026Y455336D01*
X210049Y455329D01*
X210199Y455317D01*
X210349Y455300D01*
X210373Y455303D01*
X210397Y455301D01*
X210546Y455323D01*
X210695Y455341D01*
X210723Y455350D01*
X210742Y455353D01*
X210786Y455370D01*
X210928Y455416D01*
X212754Y456173D01*
X214865Y456173D01*
X216815Y455365D01*
X218308Y453872D01*
X219116Y451921D01*
X219116Y449810D01*
X218308Y447860D01*
X217304Y446856D01*
X217226Y446757D01*
X217141Y446663D01*
X217118Y446621D01*
X217088Y446583D01*
X217034Y446469D01*
X216973Y446358D01*
X216959Y446311D01*
X216939Y446268D01*
X216912Y446144D01*
X216878Y446023D01*
X216873Y445962D01*
X216865Y445927D01*
X216866Y445879D01*
X216858Y445779D01*
X216858Y413243D01*
X216873Y413117D01*
X216879Y412991D01*
X216892Y412944D01*
X216898Y412896D01*
X216941Y412777D01*
X216976Y412656D01*
X216999Y412614D01*
X217015Y412568D01*
X217084Y412462D01*
X217146Y412352D01*
X217185Y412306D01*
X217205Y412276D01*
X217239Y412242D01*
X217304Y412166D01*
X246961Y382508D01*
X246961Y367498D01*
X221501Y342038D01*
X115169Y342038D01*
X101422Y355784D01*
X101402Y355801D01*
X101385Y355821D01*
X101265Y355909D01*
X101149Y356001D01*
X101126Y356012D01*
X101105Y356028D01*
X100968Y356087D01*
X100834Y356150D01*
X100809Y356155D01*
X100785Y356166D01*
X100638Y356192D01*
X100494Y356223D01*
X100468Y356223D01*
X100442Y356228D01*
X100293Y356220D01*
X100145Y356217D01*
X100120Y356211D01*
X100094Y356210D01*
X99951Y356169D01*
X99807Y356132D01*
X99784Y356120D01*
X99759Y356113D01*
X99629Y356041D01*
X99497Y355973D01*
X99477Y355956D01*
X99455Y355943D01*
X99268Y355784D01*
X94666Y351182D01*
X87090Y351182D01*
X81730Y356543D01*
X81719Y356639D01*
X81713Y356765D01*
X81699Y356811D01*
X81694Y356859D01*
X81651Y356978D01*
X81616Y357100D01*
X81593Y357142D01*
X81576Y357187D01*
X81508Y357293D01*
X81446Y357404D01*
X81407Y357450D01*
X81387Y357480D01*
X81352Y357514D01*
X81287Y357590D01*
X62198Y376679D01*
X62099Y376758D01*
X62005Y376842D01*
X61963Y376866D01*
X61925Y376896D01*
X61811Y376950D01*
X61700Y377011D01*
X61654Y377024D01*
X61610Y377045D01*
X61487Y377071D01*
X61365Y377106D01*
X61304Y377111D01*
X61269Y377118D01*
X61221Y377117D01*
X61121Y377125D01*
X58960Y377125D01*
X57010Y377933D01*
X55517Y379426D01*
X54709Y381377D01*
X54709Y383488D01*
X55517Y385438D01*
X57010Y386931D01*
X58960Y387739D01*
X61121Y387739D01*
X61247Y387753D01*
X61373Y387760D01*
X61419Y387773D01*
X61467Y387779D01*
X61586Y387821D01*
X61708Y387856D01*
X61750Y387880D01*
X61795Y387896D01*
X61902Y387965D01*
X62012Y388027D01*
X62058Y388066D01*
X62088Y388085D01*
X62122Y388120D01*
X62198Y388185D01*
X62265Y388252D01*
X80210Y388252D01*
X80236Y388255D01*
X80263Y388253D01*
X80409Y388275D01*
X80557Y388292D01*
X80581Y388301D01*
X80607Y388304D01*
X80745Y388359D01*
X80885Y388409D01*
X80907Y388423D01*
X80931Y388433D01*
X81053Y388518D01*
X81177Y388598D01*
X81196Y388617D01*
X81217Y388632D01*
X81316Y388742D01*
X81420Y388849D01*
X81433Y388871D01*
X81451Y388891D01*
X81522Y389021D01*
X81598Y389148D01*
X81606Y389173D01*
X81619Y389196D01*
X81660Y389339D01*
X81705Y389480D01*
X81705Y389487D01*
X87090Y394872D01*
X94666Y394872D01*
X100023Y389515D01*
X100023Y381939D01*
X94666Y376582D01*
X87090Y376582D01*
X81700Y381973D01*
X81694Y382025D01*
X81685Y382050D01*
X81681Y382076D01*
X81626Y382214D01*
X81576Y382353D01*
X81562Y382376D01*
X81552Y382400D01*
X81468Y382521D01*
X81387Y382646D01*
X81368Y382665D01*
X81353Y382686D01*
X81243Y382785D01*
X81137Y382888D01*
X81114Y382902D01*
X81095Y382919D01*
X80965Y382991D01*
X80837Y383067D01*
X80813Y383075D01*
X80790Y383088D01*
X80647Y383128D01*
X80506Y383173D01*
X80479Y383176D01*
X80454Y383183D01*
X80210Y383202D01*
X66846Y383202D01*
X66820Y383199D01*
X66794Y383201D01*
X66647Y383179D01*
X66500Y383162D01*
X66475Y383154D01*
X66449Y383150D01*
X66311Y383095D01*
X66172Y383045D01*
X66149Y383031D01*
X66125Y383021D01*
X66004Y382937D01*
X65879Y382856D01*
X65860Y382837D01*
X65839Y382822D01*
X65740Y382712D01*
X65637Y382605D01*
X65623Y382583D01*
X65605Y382563D01*
X65533Y382433D01*
X65458Y382306D01*
X65450Y382281D01*
X65437Y382258D01*
X65397Y382115D01*
X65351Y381974D01*
X65349Y381948D01*
X65342Y381923D01*
X65323Y381679D01*
X65323Y381327D01*
X65337Y381201D01*
X65344Y381075D01*
X65357Y381029D01*
X65362Y380981D01*
X65405Y380862D01*
X65440Y380740D01*
X65464Y380698D01*
X65480Y380653D01*
X65549Y380546D01*
X65610Y380436D01*
X65650Y380390D01*
X65669Y380360D01*
X65704Y380326D01*
X65769Y380250D01*
X80741Y365277D01*
X80762Y365261D01*
X80779Y365241D01*
X80898Y365152D01*
X81014Y365060D01*
X81038Y365049D01*
X81059Y365034D01*
X81195Y364975D01*
X81330Y364911D01*
X81355Y364906D01*
X81379Y364896D01*
X81526Y364869D01*
X81670Y364838D01*
X81696Y364839D01*
X81722Y364834D01*
X81871Y364842D01*
X82019Y364844D01*
X82044Y364850D01*
X82070Y364852D01*
X82213Y364893D01*
X82357Y364929D01*
X82380Y364941D01*
X82405Y364948D01*
X82535Y365021D01*
X82667Y365089D01*
X82687Y365106D01*
X82709Y365119D01*
X82896Y365277D01*
X87090Y369472D01*
X94666Y369472D01*
X100316Y363822D01*
X100415Y363743D01*
X100509Y363659D01*
X100551Y363635D01*
X100589Y363605D01*
X100703Y363551D01*
X100814Y363490D01*
X100860Y363477D01*
X100904Y363456D01*
X101028Y363430D01*
X101149Y363395D01*
X101210Y363391D01*
X101245Y363383D01*
X101293Y363384D01*
X101393Y363376D01*
X102454Y363376D01*
X103517Y362313D01*
X103596Y362250D01*
X103668Y362181D01*
X103732Y362142D01*
X103790Y362096D01*
X103881Y362053D01*
X103967Y362002D01*
X104038Y361979D01*
X104105Y361947D01*
X104203Y361926D01*
X104299Y361895D01*
X104373Y361890D01*
X104446Y361874D01*
X104546Y361876D01*
X104647Y361868D01*
X104720Y361879D01*
X104794Y361880D01*
X104892Y361904D01*
X104991Y361919D01*
X105060Y361947D01*
X105132Y361965D01*
X105222Y362011D01*
X105315Y362048D01*
X105376Y362090D01*
X105442Y362124D01*
X105519Y362190D01*
X105601Y362247D01*
X105651Y362302D01*
X105708Y362350D01*
X105767Y362431D01*
X105835Y362506D01*
X105871Y362571D01*
X105915Y362631D01*
X105955Y362723D01*
X106003Y362811D01*
X106023Y362882D01*
X106053Y362951D01*
X106071Y363049D01*
X106098Y363146D01*
X106106Y363246D01*
X106115Y363294D01*
X106113Y363329D01*
X106118Y363390D01*
X106118Y364536D01*
X112070Y370488D01*
X113739Y370488D01*
X113739Y361343D01*
X113742Y361317D01*
X113740Y361291D01*
X113762Y361144D01*
X113779Y360997D01*
X113788Y360972D01*
X113792Y360946D01*
X113846Y360809D01*
X113896Y360669D01*
X113911Y360647D01*
X113920Y360623D01*
X114005Y360501D01*
X114085Y360376D01*
X114104Y360358D01*
X114119Y360336D01*
X114229Y360237D01*
X114336Y360134D01*
X114359Y360121D01*
X114378Y360103D01*
X114508Y360031D01*
X114635Y359955D01*
X114660Y359947D01*
X114683Y359934D01*
X114826Y359894D01*
X114967Y359849D01*
X114993Y359847D01*
X115018Y359840D01*
X115262Y359820D01*
X115771Y359820D01*
X115771Y359311D01*
X115774Y359285D01*
X115772Y359259D01*
X115794Y359112D01*
X115811Y358965D01*
X115820Y358940D01*
X115824Y358914D01*
X115879Y358776D01*
X115929Y358637D01*
X115943Y358615D01*
X115953Y358590D01*
X116037Y358469D01*
X116118Y358344D01*
X116137Y358326D01*
X116152Y358304D01*
X116261Y358205D01*
X116368Y358102D01*
X116391Y358088D01*
X116410Y358071D01*
X116540Y357999D01*
X116667Y357923D01*
X116692Y357915D01*
X116715Y357902D01*
X116858Y357862D01*
X116999Y357817D01*
X117025Y357815D01*
X117051Y357807D01*
X117295Y357788D01*
X126439Y357788D01*
X126439Y356118D01*
X121057Y350736D01*
X120994Y350658D01*
X120925Y350585D01*
X120886Y350521D01*
X120840Y350463D01*
X120797Y350372D01*
X120746Y350286D01*
X120723Y350215D01*
X120691Y350148D01*
X120670Y350050D01*
X120639Y349954D01*
X120633Y349880D01*
X120618Y349807D01*
X120620Y349707D01*
X120611Y349607D01*
X120623Y349533D01*
X120624Y349459D01*
X120648Y349362D01*
X120663Y349262D01*
X120691Y349193D01*
X120709Y349121D01*
X120755Y349031D01*
X120792Y348938D01*
X120834Y348877D01*
X120868Y348811D01*
X120934Y348734D01*
X120991Y348652D01*
X121046Y348602D01*
X121094Y348546D01*
X121175Y348486D01*
X121250Y348419D01*
X121315Y348383D01*
X121375Y348338D01*
X121467Y348299D01*
X121555Y348250D01*
X121626Y348230D01*
X121695Y348200D01*
X121793Y348183D01*
X121890Y348155D01*
X121990Y348147D01*
X122038Y348139D01*
X122073Y348141D01*
X122134Y348136D01*
X181594Y348136D01*
X181694Y348147D01*
X181794Y348149D01*
X181866Y348167D01*
X181940Y348176D01*
X182034Y348209D01*
X182132Y348234D01*
X182198Y348268D01*
X182268Y348293D01*
X182352Y348348D01*
X182442Y348394D01*
X182498Y348442D01*
X182561Y348482D01*
X182631Y348554D01*
X182707Y348619D01*
X182751Y348679D01*
X182803Y348733D01*
X182855Y348819D01*
X182914Y348900D01*
X182944Y348968D01*
X182982Y349032D01*
X183012Y349128D01*
X183052Y349220D01*
X183065Y349293D01*
X183088Y349364D01*
X183096Y349464D01*
X183114Y349563D01*
X183110Y349637D01*
X183116Y349711D01*
X183101Y349811D01*
X183096Y349911D01*
X183075Y349982D01*
X183064Y350056D01*
X183027Y350149D01*
X182999Y350246D01*
X182963Y350311D01*
X182936Y350380D01*
X182878Y350462D01*
X182829Y350550D01*
X182764Y350626D01*
X182737Y350666D01*
X182710Y350690D01*
X182671Y350736D01*
X180994Y352413D01*
X180993Y352413D01*
X178762Y354645D01*
X178762Y355400D01*
X178750Y355500D01*
X178748Y355600D01*
X178730Y355673D01*
X178722Y355746D01*
X178688Y355841D01*
X178663Y355938D01*
X178629Y356005D01*
X178604Y356075D01*
X178550Y356159D01*
X178504Y356248D01*
X178455Y356305D01*
X178415Y356367D01*
X178343Y356437D01*
X178278Y356514D01*
X178218Y356558D01*
X178164Y356610D01*
X178078Y356661D01*
X177998Y356721D01*
X177929Y356750D01*
X177865Y356788D01*
X177770Y356819D01*
X177678Y356859D01*
X177604Y356872D01*
X177533Y356895D01*
X177433Y356903D01*
X177335Y356920D01*
X177260Y356917D01*
X177186Y356923D01*
X177087Y356908D01*
X176986Y356903D01*
X176915Y356882D01*
X176841Y356871D01*
X176748Y356834D01*
X176652Y356806D01*
X176587Y356770D01*
X176518Y356742D01*
X176435Y356685D01*
X176347Y356636D01*
X176271Y356571D01*
X176231Y356543D01*
X176208Y356517D01*
X176161Y356477D01*
X170866Y351182D01*
X163290Y351182D01*
X157934Y356539D01*
X157934Y364115D01*
X163229Y369410D01*
X163291Y369488D01*
X163361Y369561D01*
X163399Y369625D01*
X163445Y369683D01*
X163488Y369774D01*
X163540Y369860D01*
X163562Y369931D01*
X163594Y369998D01*
X163615Y370096D01*
X163646Y370192D01*
X163652Y370266D01*
X163667Y370339D01*
X163666Y370439D01*
X163674Y370539D01*
X163663Y370613D01*
X163661Y370687D01*
X163637Y370784D01*
X163622Y370884D01*
X163595Y370953D01*
X163576Y371025D01*
X163530Y371115D01*
X163493Y371208D01*
X163451Y371269D01*
X163417Y371335D01*
X163352Y371412D01*
X163294Y371494D01*
X163239Y371544D01*
X163191Y371600D01*
X163110Y371660D01*
X163036Y371727D01*
X162971Y371763D01*
X162911Y371808D01*
X162819Y371847D01*
X162731Y371896D01*
X162659Y371916D01*
X162591Y371946D01*
X162492Y371963D01*
X162395Y371991D01*
X162295Y371999D01*
X162248Y372007D01*
X162212Y372005D01*
X162151Y372010D01*
X161397Y372010D01*
X153362Y380045D01*
X153362Y380800D01*
X153350Y380900D01*
X153348Y381000D01*
X153330Y381073D01*
X153322Y381146D01*
X153288Y381241D01*
X153263Y381338D01*
X153229Y381405D01*
X153204Y381475D01*
X153150Y381559D01*
X153104Y381648D01*
X153055Y381705D01*
X153015Y381767D01*
X152943Y381837D01*
X152878Y381914D01*
X152818Y381958D01*
X152764Y382010D01*
X152678Y382061D01*
X152598Y382121D01*
X152529Y382150D01*
X152465Y382188D01*
X152370Y382219D01*
X152278Y382259D01*
X152204Y382272D01*
X152133Y382295D01*
X152033Y382303D01*
X151935Y382320D01*
X151860Y382317D01*
X151786Y382323D01*
X151687Y382308D01*
X151586Y382303D01*
X151515Y382282D01*
X151441Y382271D01*
X151348Y382234D01*
X151252Y382206D01*
X151187Y382170D01*
X151118Y382142D01*
X151035Y382085D01*
X150947Y382036D01*
X150871Y381971D01*
X150831Y381943D01*
X150808Y381917D01*
X150761Y381877D01*
X145466Y376582D01*
X137890Y376582D01*
X132595Y381877D01*
X132517Y381940D01*
X132445Y382010D01*
X132381Y382048D01*
X132322Y382094D01*
X132232Y382137D01*
X132145Y382188D01*
X132075Y382211D01*
X132007Y382243D01*
X131909Y382264D01*
X131814Y382295D01*
X131739Y382301D01*
X131667Y382316D01*
X131566Y382315D01*
X131466Y382323D01*
X131393Y382312D01*
X131318Y382310D01*
X131221Y382286D01*
X131122Y382271D01*
X131052Y382243D01*
X130980Y382225D01*
X130891Y382179D01*
X130798Y382142D01*
X130737Y382100D01*
X130670Y382066D01*
X130594Y382000D01*
X130511Y381943D01*
X130462Y381888D01*
X130405Y381840D01*
X130345Y381759D01*
X130278Y381684D01*
X130242Y381619D01*
X130198Y381560D01*
X130158Y381467D01*
X130110Y381379D01*
X130089Y381308D01*
X130060Y381240D01*
X130042Y381141D01*
X130015Y381044D01*
X130007Y380944D01*
X129998Y380897D01*
X130000Y380861D01*
X129995Y380800D01*
X129995Y376953D01*
X130010Y376827D01*
X130016Y376701D01*
X130029Y376655D01*
X130035Y376607D01*
X130078Y376488D01*
X130113Y376366D01*
X130136Y376324D01*
X130152Y376278D01*
X130221Y376172D01*
X130283Y376062D01*
X130322Y376016D01*
X130342Y375986D01*
X130376Y375952D01*
X130441Y375876D01*
X136399Y369918D01*
X136498Y369839D01*
X136592Y369755D01*
X136634Y369731D01*
X136672Y369701D01*
X136786Y369647D01*
X136897Y369586D01*
X136943Y369573D01*
X136987Y369552D01*
X137110Y369526D01*
X137232Y369491D01*
X137293Y369487D01*
X137328Y369479D01*
X137376Y369480D01*
X137476Y369472D01*
X145466Y369472D01*
X150823Y364115D01*
X150823Y356539D01*
X145466Y351182D01*
X137890Y351182D01*
X132534Y356539D01*
X132534Y364529D01*
X132519Y364655D01*
X132513Y364781D01*
X132499Y364828D01*
X132494Y364876D01*
X132451Y364995D01*
X132416Y365116D01*
X132393Y365158D01*
X132376Y365204D01*
X132308Y365310D01*
X132246Y365420D01*
X132207Y365466D01*
X132187Y365496D01*
X132152Y365530D01*
X132087Y365606D01*
X126130Y371564D01*
X123898Y373796D01*
X123898Y375300D01*
X123886Y375399D01*
X123884Y375500D01*
X123866Y375572D01*
X123858Y375646D01*
X123824Y375740D01*
X123799Y375838D01*
X123765Y375904D01*
X123740Y375974D01*
X123686Y376058D01*
X123640Y376148D01*
X123592Y376204D01*
X123551Y376267D01*
X123479Y376336D01*
X123414Y376413D01*
X123354Y376457D01*
X123301Y376509D01*
X123214Y376560D01*
X123134Y376620D01*
X123065Y376650D01*
X123002Y376688D01*
X122906Y376718D01*
X122814Y376758D01*
X122740Y376771D01*
X122670Y376794D01*
X122570Y376802D01*
X122471Y376820D01*
X122396Y376816D01*
X122322Y376822D01*
X122223Y376807D01*
X122123Y376802D01*
X122051Y376781D01*
X121978Y376770D01*
X121884Y376733D01*
X121788Y376705D01*
X121723Y376669D01*
X121654Y376641D01*
X121571Y376584D01*
X121484Y376535D01*
X121407Y376470D01*
X121368Y376443D01*
X121344Y376416D01*
X121297Y376377D01*
X120487Y375566D01*
X118818Y375566D01*
X118818Y384711D01*
X118815Y384737D01*
X118817Y384763D01*
X118795Y384910D01*
X118778Y385057D01*
X118769Y385082D01*
X118765Y385108D01*
X118710Y385246D01*
X118660Y385385D01*
X118646Y385407D01*
X118636Y385432D01*
X118552Y385553D01*
X118471Y385678D01*
X118452Y385696D01*
X118437Y385718D01*
X118327Y385817D01*
X118221Y385920D01*
X118198Y385934D01*
X118179Y385951D01*
X118049Y386023D01*
X117921Y386099D01*
X117897Y386107D01*
X117874Y386120D01*
X117731Y386160D01*
X117590Y386205D01*
X117563Y386207D01*
X117538Y386215D01*
X117294Y386234D01*
X116785Y386234D01*
X116785Y386743D01*
X116782Y386769D01*
X116784Y386795D01*
X116762Y386942D01*
X116745Y387089D01*
X116737Y387114D01*
X116733Y387140D01*
X116678Y387278D01*
X116628Y387417D01*
X116614Y387440D01*
X116604Y387464D01*
X116520Y387585D01*
X116439Y387710D01*
X116420Y387729D01*
X116405Y387750D01*
X116295Y387849D01*
X116188Y387952D01*
X116166Y387966D01*
X116146Y387983D01*
X116016Y388055D01*
X115889Y388131D01*
X115864Y388139D01*
X115841Y388152D01*
X115698Y388192D01*
X115557Y388237D01*
X115531Y388240D01*
X115506Y388247D01*
X115262Y388266D01*
X106118Y388266D01*
X106118Y389936D01*
X106928Y390746D01*
X106990Y390825D01*
X107060Y390897D01*
X107098Y390961D01*
X107144Y391019D01*
X107187Y391110D01*
X107239Y391196D01*
X107262Y391267D01*
X107293Y391334D01*
X107314Y391432D01*
X107345Y391528D01*
X107351Y391602D01*
X107367Y391675D01*
X107365Y391775D01*
X107373Y391875D01*
X107362Y391949D01*
X107361Y392023D01*
X107336Y392121D01*
X107321Y392220D01*
X107294Y392289D01*
X107276Y392361D01*
X107230Y392451D01*
X107193Y392544D01*
X107150Y392605D01*
X107116Y392671D01*
X107051Y392748D01*
X106994Y392830D01*
X106939Y392880D01*
X106890Y392937D01*
X106809Y392996D01*
X106735Y393063D01*
X106670Y393099D01*
X106610Y393144D01*
X106518Y393183D01*
X106430Y393232D01*
X106358Y393252D01*
X106290Y393282D01*
X106191Y393299D01*
X106095Y393327D01*
X105995Y393335D01*
X105947Y393343D01*
X105911Y393342D01*
X105851Y393346D01*
X104347Y393346D01*
X102116Y395578D01*
X102115Y395578D01*
X77602Y420091D01*
X77582Y420107D01*
X77566Y420127D01*
X77446Y420216D01*
X77329Y420308D01*
X77306Y420319D01*
X77286Y420334D01*
X77149Y420393D01*
X77014Y420457D01*
X76989Y420462D01*
X76966Y420473D01*
X76819Y420499D01*
X76674Y420530D01*
X76648Y420530D01*
X76623Y420534D01*
X76473Y420527D01*
X76325Y420524D01*
X76300Y420518D01*
X76275Y420517D01*
X76132Y420476D01*
X75987Y420439D01*
X75964Y420428D01*
X75940Y420421D01*
X75810Y420348D01*
X75677Y420280D01*
X75658Y420263D01*
X75636Y420251D01*
X75525Y420150D01*
X75412Y420054D01*
X75397Y420033D01*
X75378Y420016D01*
X75293Y419893D01*
X75205Y419774D01*
X75195Y419750D01*
X75180Y419729D01*
X75126Y419591D01*
X75067Y419454D01*
X75062Y419428D01*
X75053Y419405D01*
X75032Y419258D01*
X75005Y419111D01*
X75006Y419085D01*
X75003Y419060D01*
X75012Y418874D01*
X59881Y418874D01*
X59881Y434000D01*
X60460Y433924D01*
X60586Y433922D01*
X60711Y433912D01*
X60759Y433919D01*
X60808Y433918D01*
X60931Y433945D01*
X61056Y433963D01*
X61101Y433982D01*
X61149Y433992D01*
X61263Y434046D01*
X61380Y434092D01*
X61420Y434120D01*
X61464Y434141D01*
X61562Y434219D01*
X61666Y434291D01*
X61698Y434328D01*
X61737Y434358D01*
X61815Y434457D01*
X61899Y434550D01*
X61923Y434593D01*
X61953Y434631D01*
X62007Y434745D01*
X62068Y434855D01*
X62081Y434902D01*
X62102Y434946D01*
X62128Y435069D01*
X62162Y435190D01*
X62167Y435252D01*
X62175Y435287D01*
X62174Y435335D01*
X62182Y435434D01*
X62182Y437743D01*
X62168Y437869D01*
X62161Y437995D01*
X62148Y438041D01*
X62142Y438089D01*
X62100Y438208D01*
X62065Y438330D01*
X62041Y438372D01*
X62025Y438418D01*
X61956Y438524D01*
X61894Y438634D01*
X61855Y438680D01*
X61836Y438710D01*
X61801Y438744D01*
X61736Y438820D01*
X60732Y439824D01*
X59924Y441775D01*
X59924Y443886D01*
X60732Y445836D01*
X62225Y447329D01*
X64175Y448137D01*
X66286Y448137D01*
X68237Y447329D01*
X69730Y445836D01*
X70537Y443886D01*
X70537Y441775D01*
X69730Y439824D01*
X69188Y439283D01*
X69172Y439262D01*
X69152Y439245D01*
X69064Y439126D01*
X68972Y439010D01*
X68960Y438986D01*
X68945Y438965D01*
X68886Y438829D01*
X68823Y438695D01*
X68817Y438669D01*
X68807Y438645D01*
X68780Y438499D01*
X68749Y438354D01*
X68750Y438328D01*
X68745Y438302D01*
X68753Y438154D01*
X68755Y438006D01*
X68762Y437980D01*
X68763Y437954D01*
X68804Y437812D01*
X68840Y437668D01*
X68852Y437644D01*
X68860Y437619D01*
X68932Y437490D01*
X69000Y437358D01*
X69017Y437338D01*
X69030Y437315D01*
X69188Y437129D01*
X106427Y399890D01*
X106526Y399811D01*
X106620Y399727D01*
X106662Y399703D01*
X106700Y399673D01*
X106814Y399619D01*
X106925Y399558D01*
X106971Y399545D01*
X107015Y399524D01*
X107138Y399498D01*
X107260Y399463D01*
X107321Y399459D01*
X107356Y399451D01*
X107404Y399452D01*
X107504Y399444D01*
X121960Y399444D01*
X124192Y397212D01*
X127763Y393641D01*
X129995Y391409D01*
X129995Y390654D01*
X130007Y390554D01*
X130008Y390454D01*
X130026Y390382D01*
X130035Y390308D01*
X130069Y390213D01*
X130093Y390116D01*
X130127Y390050D01*
X130152Y389980D01*
X130207Y389895D01*
X130253Y389806D01*
X130301Y389749D01*
X130342Y389687D01*
X130414Y389617D01*
X130479Y389541D01*
X130539Y389496D01*
X130592Y389445D01*
X130678Y389393D01*
X130759Y389333D01*
X130827Y389304D01*
X130891Y389266D01*
X130987Y389235D01*
X131079Y389195D01*
X131152Y389182D01*
X131223Y389160D01*
X131323Y389151D01*
X131422Y389134D01*
X131497Y389138D01*
X131571Y389132D01*
X131670Y389146D01*
X131770Y389152D01*
X131842Y389172D01*
X131915Y389183D01*
X132008Y389220D01*
X132105Y389248D01*
X132170Y389285D01*
X132239Y389312D01*
X132321Y389369D01*
X132409Y389418D01*
X132486Y389483D01*
X132525Y389511D01*
X132549Y389537D01*
X132595Y389577D01*
X137890Y394872D01*
X143479Y394872D01*
X143579Y394883D01*
X143679Y394885D01*
X143751Y394903D01*
X143825Y394912D01*
X143919Y394946D01*
X144017Y394970D01*
X144083Y395004D01*
X144153Y395029D01*
X144237Y395084D01*
X144327Y395130D01*
X144383Y395178D01*
X144446Y395218D01*
X144516Y395290D01*
X144592Y395356D01*
X144636Y395415D01*
X144688Y395469D01*
X144740Y395555D01*
X144799Y395636D01*
X144829Y395704D01*
X144867Y395768D01*
X144897Y395864D01*
X144937Y395956D01*
X144950Y396029D01*
X144973Y396100D01*
X144981Y396200D01*
X144999Y396299D01*
X144995Y396373D01*
X145001Y396447D01*
X144986Y396547D01*
X144981Y396647D01*
X144960Y396718D01*
X144949Y396792D01*
X144912Y396885D01*
X144884Y396982D01*
X144848Y397047D01*
X144821Y397116D01*
X144763Y397198D01*
X144714Y397286D01*
X144649Y397362D01*
X144622Y397402D01*
X144595Y397426D01*
X144556Y397472D01*
X98620Y443408D01*
X98620Y445934D01*
X98697Y446012D01*
X98776Y446111D01*
X98861Y446205D01*
X98884Y446247D01*
X98914Y446285D01*
X98968Y446399D01*
X99029Y446510D01*
X99042Y446556D01*
X99063Y446600D01*
X99089Y446723D01*
X99124Y446845D01*
X99129Y446906D01*
X99136Y446941D01*
X99135Y446989D01*
X99144Y447089D01*
X99144Y480177D01*
X99129Y480303D01*
X99123Y480429D01*
X99109Y480476D01*
X99104Y480524D01*
X99061Y480643D01*
X99026Y480764D01*
X99002Y480806D01*
X98986Y480852D01*
X98918Y480958D01*
X98894Y481001D01*
X98894Y488392D01*
X98891Y488418D01*
X98893Y488444D01*
X98871Y488591D01*
X98854Y488738D01*
X98845Y488763D01*
X98841Y488789D01*
X98786Y488927D01*
X98736Y489066D01*
X98722Y489088D01*
X98712Y489113D01*
X98628Y489234D01*
X98547Y489359D01*
X98528Y489377D01*
X98513Y489399D01*
X98403Y489498D01*
X98296Y489601D01*
X98274Y489615D01*
X98254Y489632D01*
X98125Y489704D01*
X97997Y489780D01*
X97972Y489788D01*
X97949Y489801D01*
X97807Y489841D01*
X97665Y489886D01*
X97639Y489888D01*
X97614Y489895D01*
X97370Y489915D01*
X96144Y489915D01*
X96018Y489901D01*
X95892Y489894D01*
X95846Y489881D01*
X95798Y489875D01*
X95679Y489833D01*
X95557Y489798D01*
X95515Y489774D01*
X95470Y489758D01*
X95363Y489689D01*
X95253Y489627D01*
X95207Y489588D01*
X95177Y489569D01*
X95143Y489534D01*
X95067Y489469D01*
X61445Y455847D01*
X35208Y455847D01*
X35132Y455838D01*
X35056Y455839D01*
X34960Y455818D01*
X34862Y455807D01*
X34790Y455781D01*
X34715Y455765D01*
X34627Y455723D01*
X34534Y455690D01*
X34469Y455648D01*
X34401Y455615D01*
X34324Y455554D01*
X34241Y455501D01*
X34188Y455446D01*
X34128Y455398D01*
X34067Y455321D01*
X33999Y455250D01*
X33960Y455184D01*
X33912Y455124D01*
X33844Y454991D01*
X33820Y454951D01*
X33814Y454933D01*
X33801Y454907D01*
X33090Y453192D01*
X30518Y450619D01*
X27157Y449227D01*
X23519Y449227D01*
X20158Y450619D01*
X17585Y453192D01*
X16193Y456553D01*
X16193Y460191D01*
X17585Y463552D01*
X20158Y466124D01*
X23519Y467516D01*
X27157Y467516D01*
X30518Y466124D01*
X33090Y463552D01*
X33801Y461837D01*
X33838Y461770D01*
X33866Y461699D01*
X33922Y461618D01*
X33970Y461532D01*
X34022Y461475D01*
X34065Y461413D01*
X34138Y461347D01*
X34204Y461274D01*
X34267Y461230D01*
X34324Y461179D01*
X34410Y461132D01*
X34491Y461076D01*
X34562Y461048D01*
X34629Y461011D01*
X34724Y460984D01*
X34815Y460948D01*
X34891Y460937D01*
X34964Y460916D01*
X35113Y460904D01*
X35160Y460897D01*
X35179Y460899D01*
X35208Y460896D01*
X58722Y460896D01*
X58848Y460911D01*
X58974Y460917D01*
X59021Y460931D01*
X59069Y460936D01*
X59188Y460979D01*
X59309Y461014D01*
X59351Y461037D01*
X59397Y461054D01*
X59503Y461122D01*
X59613Y461184D01*
X59659Y461223D01*
X59689Y461243D01*
X59723Y461278D01*
X59799Y461343D01*
X88697Y490240D01*
X88776Y490339D01*
X88861Y490433D01*
X88884Y490476D01*
X88914Y490513D01*
X88968Y490628D01*
X89029Y490738D01*
X89042Y490785D01*
X89063Y490829D01*
X89089Y490952D01*
X89124Y491074D01*
X89129Y491135D01*
X89136Y491169D01*
X89135Y491217D01*
X89144Y491318D01*
X89144Y493642D01*
X89141Y493668D01*
X89143Y493694D01*
X89121Y493841D01*
X89104Y493988D01*
X89095Y494013D01*
X89091Y494039D01*
X89036Y494177D01*
X88986Y494316D01*
X88972Y494338D01*
X88962Y494363D01*
X88878Y494484D01*
X88797Y494609D01*
X88778Y494627D01*
X88763Y494649D01*
X88653Y494748D01*
X88546Y494851D01*
X88524Y494865D01*
X88504Y494882D01*
X88375Y494954D01*
X88247Y495030D01*
X88222Y495038D01*
X88199Y495051D01*
X88057Y495091D01*
X87915Y495136D01*
X87889Y495138D01*
X87864Y495145D01*
X87620Y495165D01*
X75402Y495165D01*
X75327Y495156D01*
X75250Y495157D01*
X75154Y495136D01*
X75056Y495125D01*
X74984Y495099D01*
X74910Y495083D01*
X74821Y495041D01*
X74728Y495008D01*
X74664Y494966D01*
X74595Y494933D01*
X74518Y494872D01*
X74435Y494819D01*
X74382Y494764D01*
X74322Y494716D01*
X74261Y494639D01*
X74193Y494568D01*
X74154Y494502D01*
X74107Y494442D01*
X74038Y494309D01*
X74014Y494269D01*
X74008Y494251D01*
X73995Y494225D01*
X73386Y492754D01*
X72179Y490663D01*
X71796Y490165D01*
X70709Y488748D01*
X69002Y487041D01*
X67087Y485572D01*
X64996Y484365D01*
X62766Y483441D01*
X60434Y482816D01*
X59881Y482743D01*
X59881Y499393D01*
X59878Y499419D01*
X59880Y499445D01*
X59858Y499591D01*
X59841Y499739D01*
X59832Y499763D01*
X59829Y499789D01*
X59774Y499927D01*
X59724Y500067D01*
X59710Y500089D01*
X59700Y500113D01*
X59615Y500235D01*
X59535Y500360D01*
X59516Y500378D01*
X59501Y500399D01*
X59391Y500498D01*
X59284Y500602D01*
X59262Y500615D01*
X59242Y500633D01*
X59112Y500705D01*
X58985Y500781D01*
X58960Y500789D01*
X58937Y500801D01*
X58794Y500842D01*
X58653Y500887D01*
X58627Y500889D01*
X58602Y500896D01*
X58358Y500916D01*
X56833Y500916D01*
X56833Y500918D01*
X58358Y500918D01*
X58384Y500921D01*
X58410Y500918D01*
X58557Y500940D01*
X58704Y500957D01*
X58729Y500966D01*
X58755Y500970D01*
X58893Y501025D01*
X59032Y501075D01*
X59054Y501089D01*
X59079Y501099D01*
X59200Y501183D01*
X59325Y501264D01*
X59343Y501283D01*
X59365Y501298D01*
X59464Y501408D01*
X59567Y501515D01*
X59581Y501537D01*
X59598Y501557D01*
X59670Y501686D01*
X59746Y501814D01*
X59754Y501839D01*
X59767Y501862D01*
X59807Y502005D01*
X59852Y502146D01*
X59854Y502172D01*
X59862Y502197D01*
X59881Y502441D01*
X59881Y517514D01*
X59867Y517639D01*
X59860Y517764D01*
X59847Y517811D01*
X59841Y517860D01*
X59799Y517978D01*
X59764Y518099D01*
X59740Y518142D01*
X59724Y518188D01*
X59656Y518293D01*
X59594Y518403D01*
X59561Y518440D01*
X59535Y518481D01*
X59460Y518553D01*
X59460Y535844D01*
X59457Y535871D01*
X59459Y535897D01*
X59437Y536043D01*
X59420Y536191D01*
X59411Y536215D01*
X59408Y536241D01*
X59353Y536379D01*
X59303Y536519D01*
X59289Y536541D01*
X59279Y536565D01*
X59194Y536687D01*
X59114Y536812D01*
X59095Y536830D01*
X59080Y536851D01*
X58970Y536950D01*
X58863Y537054D01*
X58841Y537067D01*
X58821Y537085D01*
X58691Y537157D01*
X58564Y537233D01*
X58539Y537241D01*
X58516Y537253D01*
X58373Y537294D01*
X58232Y537339D01*
X58206Y537341D01*
X58181Y537348D01*
X57937Y537368D01*
X56412Y537368D01*
X56412Y538893D01*
X56409Y538919D01*
X56411Y538945D01*
X56389Y539091D01*
X56372Y539239D01*
X56363Y539263D01*
X56359Y539289D01*
X56305Y539427D01*
X56255Y539567D01*
X56240Y539589D01*
X56231Y539613D01*
X56146Y539735D01*
X56066Y539860D01*
X56047Y539878D01*
X56032Y539899D01*
X55922Y539998D01*
X55815Y540102D01*
X55792Y540115D01*
X55773Y540133D01*
X55643Y540205D01*
X55516Y540281D01*
X55491Y540289D01*
X55468Y540301D01*
X55325Y540342D01*
X55184Y540387D01*
X55158Y540389D01*
X55133Y540396D01*
X54889Y540416D01*
X27964Y540416D01*
X27964Y552330D01*
X29826Y551831D01*
X31672Y551067D01*
X33402Y550068D01*
X34988Y548852D01*
X36400Y547439D01*
X37616Y545855D01*
X37720Y545747D01*
X37821Y545635D01*
X37841Y545622D01*
X37858Y545604D01*
X37984Y545523D01*
X38108Y545438D01*
X38131Y545429D01*
X38151Y545416D01*
X38293Y545365D01*
X38433Y545310D01*
X38456Y545306D01*
X38479Y545298D01*
X38629Y545281D01*
X38777Y545259D01*
X38802Y545262D01*
X38826Y545259D01*
X38975Y545276D01*
X39125Y545289D01*
X39148Y545296D01*
X39172Y545299D01*
X39313Y545350D01*
X39456Y545396D01*
X39477Y545409D01*
X39500Y545417D01*
X39626Y545498D01*
X39755Y545576D01*
X39772Y545593D01*
X39792Y545606D01*
X39896Y545714D01*
X40005Y545819D01*
X40021Y545843D01*
X40034Y545857D01*
X40058Y545897D01*
X40143Y546020D01*
X41068Y547622D01*
X42312Y549242D01*
X42312Y549243D01*
X42538Y549537D01*
X44245Y551244D01*
X46132Y552692D01*
X46223Y552780D01*
X46318Y552861D01*
X46347Y552901D01*
X46383Y552935D01*
X46451Y553040D01*
X46525Y553142D01*
X46545Y553187D01*
X46571Y553228D01*
X46614Y553346D01*
X46663Y553462D01*
X46672Y553510D01*
X46689Y553556D01*
X46703Y553681D01*
X46725Y553805D01*
X46723Y553854D01*
X46728Y553902D01*
X46714Y554027D01*
X46707Y554153D01*
X46694Y554200D01*
X46688Y554248D01*
X46646Y554367D01*
X46611Y554488D01*
X46587Y554530D01*
X46570Y554576D01*
X46502Y554682D01*
X46441Y554792D01*
X46401Y554839D01*
X46381Y554869D01*
X46346Y554902D01*
X46282Y554978D01*
X30111Y571149D01*
X30051Y571197D01*
X29998Y571251D01*
X29915Y571304D01*
X29838Y571366D01*
X29769Y571398D01*
X29705Y571440D01*
X29612Y571473D01*
X29523Y571515D01*
X29448Y571531D01*
X29376Y571556D01*
X29278Y571567D01*
X29182Y571588D01*
X29106Y571587D01*
X29030Y571595D01*
X28932Y571584D01*
X28834Y571582D01*
X28760Y571563D01*
X28684Y571554D01*
X28542Y571509D01*
X28496Y571497D01*
X28479Y571488D01*
X28451Y571479D01*
X26736Y570769D01*
X23098Y570769D01*
X19737Y572161D01*
X17164Y574733D01*
X15772Y578095D01*
X15772Y581733D01*
X17164Y585094D01*
X19737Y587666D01*
X23098Y589058D01*
X26736Y589058D01*
X30097Y587666D01*
X32669Y585094D01*
X34062Y581733D01*
X34062Y578095D01*
X33351Y576380D01*
X33330Y576306D01*
X33300Y576236D01*
X33283Y576139D01*
X33256Y576044D01*
X33252Y575968D01*
X33238Y575893D01*
X33243Y575795D01*
X33239Y575696D01*
X33252Y575621D01*
X33256Y575545D01*
X33284Y575450D01*
X33301Y575353D01*
X33332Y575283D01*
X33353Y575210D01*
X33401Y575124D01*
X33440Y575034D01*
X33486Y574973D01*
X33523Y574906D01*
X33620Y574792D01*
X33648Y574754D01*
X33663Y574742D01*
X33682Y574720D01*
X49663Y558739D01*
X49762Y558660D01*
X49855Y558575D01*
X49898Y558552D01*
X49936Y558522D01*
X50050Y558468D01*
X50160Y558407D01*
X50207Y558394D01*
X50251Y558373D01*
X50374Y558346D01*
X50496Y558312D01*
X50557Y558307D01*
X50591Y558300D01*
X50639Y558300D01*
X50740Y558292D01*
X65080Y558292D01*
X78836Y544536D01*
X78836Y532165D01*
X78848Y532065D01*
X78849Y531965D01*
X78867Y531893D01*
X78876Y531819D01*
X78910Y531724D01*
X78934Y531627D01*
X78968Y531561D01*
X78993Y531491D01*
X79048Y531406D01*
X79094Y531317D01*
X79142Y531260D01*
X79182Y531198D01*
X79255Y531128D01*
X79320Y531052D01*
X79380Y531007D01*
X79433Y530956D01*
X79519Y530904D01*
X79600Y530844D01*
X79668Y530815D01*
X79732Y530777D01*
X79828Y530746D01*
X79920Y530706D01*
X79993Y530693D01*
X80064Y530671D01*
X80164Y530663D01*
X80263Y530645D01*
X80337Y530649D01*
X80412Y530643D01*
X80511Y530658D01*
X80611Y530663D01*
X80682Y530683D01*
X80756Y530694D01*
X80850Y530732D01*
X80946Y530759D01*
X81011Y530796D01*
X81080Y530823D01*
X81162Y530880D01*
X81250Y530929D01*
X81327Y530995D01*
X81366Y531022D01*
X81390Y531048D01*
X81436Y531088D01*
X82226Y531877D01*
X84176Y532685D01*
X86287Y532685D01*
X88238Y531877D01*
X89730Y530384D01*
X90538Y528434D01*
X90538Y526223D01*
X90534Y526209D01*
X90531Y526133D01*
X90517Y526057D01*
X90522Y525959D01*
X90517Y525861D01*
X90531Y525786D01*
X90535Y525709D01*
X90562Y525615D01*
X90580Y525518D01*
X90610Y525448D01*
X90632Y525374D01*
X90679Y525289D01*
X90719Y525198D01*
X90764Y525137D01*
X90802Y525070D01*
X90898Y524957D01*
X90926Y524919D01*
X90941Y524906D01*
X90960Y524884D01*
X96631Y519213D01*
X96651Y519197D01*
X96668Y519177D01*
X96788Y519088D01*
X96904Y518996D01*
X96928Y518985D01*
X96949Y518970D01*
X97085Y518911D01*
X97219Y518848D01*
X97245Y518842D01*
X97269Y518832D01*
X97415Y518805D01*
X97560Y518774D01*
X97586Y518775D01*
X97612Y518770D01*
X97760Y518778D01*
X97908Y518780D01*
X97934Y518787D01*
X97960Y518788D01*
X98102Y518829D01*
X98246Y518865D01*
X98270Y518877D01*
X98295Y518884D01*
X98424Y518957D01*
X98556Y519025D01*
X98576Y519042D01*
X98599Y519055D01*
X98785Y519213D01*
X99787Y520215D01*
X112620Y520215D01*
X112646Y520218D01*
X112672Y520215D01*
X112819Y520237D01*
X112966Y520254D01*
X112991Y520263D01*
X113017Y520267D01*
X113155Y520322D01*
X113295Y520372D01*
X113317Y520386D01*
X113341Y520396D01*
X113463Y520480D01*
X113587Y520561D01*
X113606Y520580D01*
X113627Y520595D01*
X113726Y520705D01*
X113830Y520812D01*
X113843Y520834D01*
X113861Y520854D01*
X113932Y520984D01*
X114008Y521111D01*
X114016Y521136D01*
X114029Y521159D01*
X114069Y521301D01*
X114115Y521443D01*
X114117Y521469D01*
X114124Y521494D01*
X114144Y521738D01*
X114144Y538140D01*
X114129Y538266D01*
X114123Y538392D01*
X114109Y538438D01*
X114104Y538487D01*
X114061Y538606D01*
X114026Y538727D01*
X114002Y538769D01*
X113986Y538815D01*
X113918Y538921D01*
X113856Y539031D01*
X113816Y539077D01*
X113797Y539107D01*
X113762Y539141D01*
X113697Y539217D01*
X113286Y539629D01*
X113286Y567892D01*
X114179Y568785D01*
X131763Y568785D01*
X131830Y568773D01*
X131975Y568742D01*
X132001Y568742D01*
X132027Y568738D01*
X132176Y568745D01*
X132323Y568748D01*
X132349Y568754D01*
X132376Y568755D01*
X132518Y568797D01*
X132661Y568833D01*
X132685Y568845D01*
X132710Y568852D01*
X132840Y568924D01*
X132971Y568992D01*
X132991Y569009D01*
X133015Y569022D01*
X133201Y569181D01*
X143901Y579880D01*
X181385Y579880D01*
X181411Y579883D01*
X181437Y579881D01*
X181584Y579903D01*
X181731Y579920D01*
X181756Y579929D01*
X181782Y579933D01*
X181920Y579988D01*
X182060Y580038D01*
X182082Y580052D01*
X182106Y580062D01*
X182228Y580146D01*
X182352Y580227D01*
X182371Y580246D01*
X182392Y580261D01*
X182491Y580370D01*
X182595Y580477D01*
X182608Y580500D01*
X182626Y580519D01*
X182697Y580649D01*
X182773Y580777D01*
X182781Y580801D01*
X182794Y580824D01*
X182835Y580967D01*
X182880Y581108D01*
X182882Y581135D01*
X182889Y581160D01*
X182909Y581404D01*
X182909Y584955D01*
X183802Y585848D01*
X184174Y585848D01*
X184274Y585860D01*
X184374Y585862D01*
X184447Y585880D01*
X184520Y585888D01*
X184615Y585922D01*
X184712Y585947D01*
X184779Y585981D01*
X184849Y586006D01*
X184933Y586060D01*
X185022Y586106D01*
X185079Y586154D01*
X185141Y586195D01*
X185211Y586267D01*
X185288Y586332D01*
X185332Y586392D01*
X185384Y586445D01*
X185435Y586532D01*
X185495Y586612D01*
X185524Y586681D01*
X185562Y586745D01*
X185593Y586840D01*
X185633Y586932D01*
X185646Y587006D01*
X185669Y587076D01*
X185677Y587176D01*
X185694Y587275D01*
X185691Y587350D01*
X185697Y587424D01*
X185682Y587523D01*
X185677Y587623D01*
X185656Y587695D01*
X185645Y587768D01*
X185608Y587862D01*
X185580Y587958D01*
X185544Y588023D01*
X185516Y588092D01*
X185459Y588175D01*
X185410Y588262D01*
X185345Y588339D01*
X185317Y588379D01*
X185291Y588402D01*
X185251Y588449D01*
X172306Y601394D01*
X172207Y601472D01*
X172114Y601557D01*
X172071Y601580D01*
X172033Y601610D01*
X171919Y601664D01*
X171809Y601725D01*
X171762Y601738D01*
X171718Y601759D01*
X171595Y601786D01*
X171473Y601820D01*
X171412Y601825D01*
X171378Y601832D01*
X171330Y601832D01*
X171229Y601840D01*
X163366Y601840D01*
X163340Y601837D01*
X163314Y601839D01*
X163167Y601817D01*
X163020Y601800D01*
X162995Y601791D01*
X162969Y601787D01*
X162831Y601732D01*
X162691Y601682D01*
X162669Y601668D01*
X162645Y601658D01*
X162524Y601574D01*
X162399Y601493D01*
X162386Y601481D01*
X162340Y601526D01*
X162317Y601539D01*
X162298Y601557D01*
X162168Y601629D01*
X162041Y601705D01*
X162016Y601713D01*
X161993Y601725D01*
X161850Y601766D01*
X161709Y601811D01*
X161682Y601813D01*
X161657Y601820D01*
X161413Y601840D01*
X154849Y601840D01*
X154849Y605175D01*
X155022Y605821D01*
X155357Y606401D01*
X155830Y606874D01*
X156247Y607115D01*
X156288Y607145D01*
X156334Y607169D01*
X156428Y607249D01*
X156527Y607322D01*
X156560Y607361D01*
X156599Y607394D01*
X156673Y607494D01*
X156753Y607588D01*
X156776Y607634D01*
X156806Y607675D01*
X156855Y607788D01*
X156912Y607898D01*
X156924Y607948D01*
X156944Y607995D01*
X156966Y608117D01*
X156996Y608236D01*
X156997Y608287D01*
X157006Y608338D01*
X157000Y608461D01*
X157001Y608585D01*
X156991Y608635D01*
X156988Y608686D01*
X156954Y608805D01*
X156927Y608925D01*
X156906Y608972D01*
X156891Y609021D01*
X156831Y609129D01*
X156778Y609240D01*
X156746Y609280D01*
X156721Y609325D01*
X156563Y609511D01*
X156103Y609971D01*
X156004Y610049D01*
X155910Y610134D01*
X155868Y610157D01*
X155830Y610187D01*
X155716Y610241D01*
X155605Y610302D01*
X155559Y610316D01*
X155515Y610336D01*
X155391Y610363D01*
X155270Y610397D01*
X155209Y610402D01*
X155174Y610410D01*
X155126Y610409D01*
X155026Y610417D01*
X137920Y610417D01*
X137894Y610414D01*
X137868Y610416D01*
X137721Y610394D01*
X137574Y610377D01*
X137549Y610368D01*
X137523Y610364D01*
X137385Y610309D01*
X137246Y610259D01*
X137224Y610245D01*
X137199Y610236D01*
X137078Y610151D01*
X136953Y610070D01*
X136935Y610052D01*
X136913Y610037D01*
X136814Y609927D01*
X136711Y609820D01*
X136697Y609797D01*
X136680Y609778D01*
X136608Y609648D01*
X136532Y609521D01*
X136524Y609496D01*
X136511Y609473D01*
X136471Y609330D01*
X136426Y609189D01*
X136424Y609163D01*
X136416Y609137D01*
X136397Y608894D01*
X136397Y606842D01*
X135699Y606144D01*
X135667Y606104D01*
X135629Y606070D01*
X135559Y605968D01*
X135482Y605871D01*
X135460Y605825D01*
X135432Y605783D01*
X135386Y605668D01*
X135333Y605556D01*
X135323Y605506D01*
X135304Y605459D01*
X135286Y605336D01*
X135260Y605215D01*
X135261Y605164D01*
X135253Y605114D01*
X135264Y604990D01*
X135266Y604867D01*
X135278Y604817D01*
X135283Y604767D01*
X135321Y604649D01*
X135351Y604529D01*
X135374Y604484D01*
X135390Y604435D01*
X135454Y604329D01*
X135511Y604219D01*
X135544Y604180D01*
X135570Y604137D01*
X135656Y604048D01*
X135736Y603954D01*
X135777Y603923D01*
X135813Y603887D01*
X136014Y603748D01*
X136432Y603507D01*
X136905Y603034D01*
X137240Y602454D01*
X137413Y601808D01*
X137413Y598021D01*
X128896Y598021D01*
X128870Y598018D01*
X128844Y598020D01*
X128697Y597998D01*
X128550Y597981D01*
X128525Y597972D01*
X128499Y597968D01*
X128362Y597913D01*
X128222Y597863D01*
X128200Y597849D01*
X128175Y597839D01*
X128054Y597755D01*
X127929Y597674D01*
X127911Y597655D01*
X127889Y597641D01*
X127790Y597531D01*
X127687Y597424D01*
X127673Y597401D01*
X127656Y597382D01*
X127584Y597252D01*
X127508Y597125D01*
X127500Y597100D01*
X127487Y597077D01*
X127447Y596934D01*
X127402Y596793D01*
X127400Y596767D01*
X127393Y596741D01*
X127373Y596498D01*
X127373Y594973D01*
X127371Y594973D01*
X127371Y596498D01*
X127368Y596524D01*
X127370Y596550D01*
X127348Y596696D01*
X127331Y596844D01*
X127323Y596868D01*
X127319Y596894D01*
X127264Y597032D01*
X127214Y597172D01*
X127200Y597194D01*
X127190Y597218D01*
X127105Y597340D01*
X127025Y597465D01*
X127006Y597483D01*
X126991Y597504D01*
X126881Y597603D01*
X126774Y597707D01*
X126752Y597720D01*
X126732Y597738D01*
X126602Y597810D01*
X126475Y597886D01*
X126450Y597894D01*
X126427Y597906D01*
X126284Y597947D01*
X126143Y597992D01*
X126117Y597994D01*
X126092Y598001D01*
X125848Y598021D01*
X117331Y598021D01*
X117331Y601808D01*
X117504Y602454D01*
X117839Y603034D01*
X118312Y603507D01*
X118730Y603748D01*
X118771Y603778D01*
X118816Y603802D01*
X118910Y603882D01*
X119010Y603956D01*
X119043Y603994D01*
X119082Y604028D01*
X119155Y604127D01*
X119235Y604221D01*
X119258Y604267D01*
X119289Y604308D01*
X119338Y604421D01*
X119394Y604531D01*
X119407Y604581D01*
X119427Y604628D01*
X119449Y604749D01*
X119479Y604870D01*
X119479Y604921D01*
X119488Y604971D01*
X119482Y605094D01*
X119484Y605218D01*
X119473Y605268D01*
X119470Y605319D01*
X119436Y605438D01*
X119410Y605559D01*
X119388Y605605D01*
X119374Y605654D01*
X119314Y605762D01*
X119260Y605873D01*
X119229Y605913D01*
X119204Y605958D01*
X119045Y606144D01*
X118347Y606842D01*
X118347Y608894D01*
X118344Y608920D01*
X118346Y608946D01*
X118324Y609093D01*
X118307Y609240D01*
X118299Y609264D01*
X118295Y609290D01*
X118240Y609428D01*
X118190Y609568D01*
X118176Y609590D01*
X118166Y609614D01*
X118082Y609736D01*
X118001Y609861D01*
X117982Y609879D01*
X117967Y609900D01*
X117857Y610000D01*
X117750Y610103D01*
X117728Y610116D01*
X117708Y610134D01*
X117578Y610206D01*
X117451Y610282D01*
X117426Y610290D01*
X117403Y610302D01*
X117260Y610343D01*
X117119Y610388D01*
X117093Y610390D01*
X117068Y610397D01*
X116824Y610417D01*
X95552Y610417D01*
X95526Y610414D01*
X95500Y610416D01*
X95353Y610394D01*
X95206Y610377D01*
X95181Y610368D01*
X95155Y610364D01*
X95018Y610309D01*
X94878Y610259D01*
X94856Y610245D01*
X94831Y610236D01*
X94710Y610151D01*
X94585Y610070D01*
X94567Y610052D01*
X94545Y610037D01*
X94446Y609927D01*
X94343Y609820D01*
X94329Y609797D01*
X94312Y609778D01*
X94240Y609648D01*
X94164Y609521D01*
X94156Y609496D01*
X94143Y609473D01*
X94103Y609330D01*
X94058Y609189D01*
X94056Y609163D01*
X94049Y609137D01*
X94029Y608894D01*
X94029Y604026D01*
X93136Y603133D01*
X73873Y603133D01*
X72980Y604026D01*
X72980Y609310D01*
X72977Y609336D01*
X72979Y609362D01*
X72957Y609509D01*
X72940Y609656D01*
X72931Y609681D01*
X72927Y609706D01*
X72872Y609844D01*
X72822Y609984D01*
X72808Y610006D01*
X72799Y610030D01*
X72714Y610152D01*
X72633Y610277D01*
X72614Y610295D01*
X72600Y610316D01*
X72489Y610416D01*
X72382Y610519D01*
X72360Y610533D01*
X72341Y610550D01*
X72211Y610622D01*
X72083Y610698D01*
X72059Y610706D01*
X72036Y610719D01*
X71893Y610759D01*
X71751Y610804D01*
X71726Y610807D01*
X71701Y610814D01*
X71552Y610820D01*
X71404Y610832D01*
X71378Y610829D01*
X71353Y610830D01*
X71206Y610803D01*
X71059Y610781D01*
X71035Y610771D01*
X71010Y610766D01*
X70874Y610707D01*
X70736Y610652D01*
X70714Y610637D01*
X70691Y610627D01*
X70571Y610538D01*
X70449Y610453D01*
X70432Y610434D01*
X70411Y610418D01*
X70360Y610362D01*
X70359Y610361D01*
X68581Y608583D01*
X66666Y607114D01*
X64575Y605907D01*
X62345Y604983D01*
X60013Y604358D01*
X59460Y604285D01*
X59460Y619411D01*
X71456Y619411D01*
X71482Y619414D01*
X71508Y619412D01*
X71655Y619434D01*
X71802Y619451D01*
X71827Y619460D01*
X71853Y619464D01*
X71991Y619519D01*
X72131Y619569D01*
X72153Y619583D01*
X72177Y619593D01*
X72299Y619677D01*
X72423Y619758D01*
X72442Y619777D01*
X72463Y619792D01*
X72562Y619901D01*
X72666Y620008D01*
X72679Y620031D01*
X72697Y620050D01*
X72768Y620180D01*
X72844Y620307D01*
X72852Y620332D01*
X72865Y620355D01*
X72906Y620498D01*
X72951Y620639D01*
X72953Y620666D01*
X72960Y620691D01*
X72980Y620935D01*
X72980Y621289D01*
X73873Y622182D01*
X93136Y622182D01*
X94029Y621289D01*
X94029Y619054D01*
X94032Y619027D01*
X94030Y619001D01*
X94052Y618855D01*
X94069Y618707D01*
X94078Y618683D01*
X94082Y618657D01*
X94136Y618519D01*
X94186Y618379D01*
X94201Y618357D01*
X94210Y618333D01*
X94295Y618211D01*
X94375Y618086D01*
X94394Y618068D01*
X94409Y618047D01*
X94519Y617948D01*
X94626Y617844D01*
X94649Y617831D01*
X94668Y617813D01*
X94798Y617741D01*
X94925Y617665D01*
X94950Y617657D01*
X94973Y617645D01*
X95116Y617604D01*
X95257Y617559D01*
X95283Y617557D01*
X95308Y617550D01*
X95552Y617530D01*
X116824Y617530D01*
X116850Y617533D01*
X116876Y617531D01*
X117023Y617553D01*
X117170Y617570D01*
X117195Y617579D01*
X117221Y617583D01*
X117359Y617638D01*
X117498Y617688D01*
X117521Y617702D01*
X117545Y617712D01*
X117666Y617796D01*
X117791Y617877D01*
X117810Y617896D01*
X117831Y617911D01*
X117930Y618020D01*
X118033Y618127D01*
X118047Y618150D01*
X118064Y618169D01*
X118136Y618299D01*
X118212Y618426D01*
X118220Y618451D01*
X118233Y618474D01*
X118273Y618617D01*
X118318Y618758D01*
X118321Y618785D01*
X118328Y618810D01*
X118347Y619054D01*
X118347Y621105D01*
X119241Y621998D01*
X135504Y621998D01*
X136397Y621105D01*
X136397Y619054D01*
X136400Y619027D01*
X136398Y619001D01*
X136420Y618855D01*
X136437Y618707D01*
X136446Y618683D01*
X136449Y618657D01*
X136504Y618519D01*
X136554Y618379D01*
X136568Y618357D01*
X136578Y618333D01*
X136663Y618211D01*
X136743Y618086D01*
X136762Y618068D01*
X136777Y618047D01*
X136887Y617948D01*
X136994Y617844D01*
X137016Y617831D01*
X137036Y617813D01*
X137166Y617741D01*
X137293Y617665D01*
X137318Y617657D01*
X137341Y617645D01*
X137484Y617604D01*
X137625Y617559D01*
X137651Y617557D01*
X137676Y617550D01*
X137920Y617530D01*
X154342Y617530D01*
X154368Y617533D01*
X154394Y617531D01*
X154541Y617553D01*
X154688Y617570D01*
X154712Y617579D01*
X154738Y617583D01*
X154876Y617638D01*
X155016Y617688D01*
X155038Y617702D01*
X155062Y617712D01*
X155184Y617796D01*
X155309Y617877D01*
X155327Y617896D01*
X155348Y617911D01*
X155448Y618020D01*
X155551Y618127D01*
X155564Y618150D01*
X155582Y618169D01*
X155654Y618299D01*
X155730Y618426D01*
X155738Y618451D01*
X155750Y618474D01*
X155791Y618617D01*
X155836Y618758D01*
X155838Y618785D01*
X155845Y618810D01*
X155865Y619054D01*
X155865Y622472D01*
X156758Y623365D01*
X163753Y623365D01*
X163879Y623380D01*
X164005Y623386D01*
X164052Y623400D01*
X164100Y623405D01*
X164219Y623448D01*
X164340Y623483D01*
X164382Y623506D01*
X164428Y623523D01*
X164534Y623591D01*
X164644Y623653D01*
X164690Y623692D01*
X164721Y623712D01*
X164754Y623746D01*
X164830Y623811D01*
X179306Y638287D01*
X179367Y638364D01*
X179436Y638435D01*
X179475Y638500D01*
X179522Y638560D01*
X179565Y638649D01*
X179616Y638734D01*
X179639Y638806D01*
X179671Y638875D01*
X179692Y638972D01*
X179722Y639066D01*
X179729Y639141D01*
X179745Y639215D01*
X179743Y639314D01*
X179751Y639413D01*
X179740Y639488D01*
X179739Y639564D01*
X179714Y639660D01*
X179700Y639758D01*
X179672Y639828D01*
X179654Y639902D01*
X179608Y639990D01*
X179572Y640082D01*
X179529Y640144D01*
X179494Y640212D01*
X179430Y640287D01*
X179373Y640369D01*
X179317Y640419D01*
X179268Y640477D01*
X179188Y640536D01*
X179115Y640603D01*
X179049Y640639D01*
X178988Y640684D01*
X178897Y640723D01*
X178810Y640772D01*
X178737Y640792D01*
X178668Y640822D01*
X178570Y640840D01*
X178475Y640867D01*
X178373Y640875D01*
X178325Y640884D01*
X178290Y640882D01*
X178231Y640887D01*
X66694Y641071D01*
X66569Y641057D01*
X66443Y641050D01*
X66396Y641037D01*
X66348Y641031D01*
X66229Y640989D01*
X66108Y640954D01*
X66065Y640931D01*
X66020Y640914D01*
X65914Y640846D01*
X65803Y640785D01*
X65767Y640752D01*
X65727Y640726D01*
X65639Y640635D01*
X65545Y640550D01*
X65518Y640510D01*
X65484Y640476D01*
X65419Y640367D01*
X65347Y640263D01*
X65330Y640218D01*
X65305Y640177D01*
X65266Y640057D01*
X65220Y639939D01*
X65213Y639891D01*
X65198Y639845D01*
X65188Y639719D01*
X65169Y639594D01*
X65173Y639546D01*
X65170Y639498D01*
X65188Y639373D01*
X65199Y639247D01*
X65214Y639201D01*
X65221Y639153D01*
X65267Y639036D01*
X65306Y638915D01*
X65331Y638874D01*
X65349Y638829D01*
X65421Y638725D01*
X65486Y638617D01*
X65520Y638582D01*
X65547Y638543D01*
X65641Y638458D01*
X65729Y638367D01*
X65779Y638333D01*
X65806Y638309D01*
X65848Y638285D01*
X65930Y638228D01*
X66666Y637804D01*
X68581Y636334D01*
X70288Y634627D01*
X71758Y632712D01*
X72965Y630621D01*
X73889Y628391D01*
X74514Y626059D01*
X74586Y625506D01*
X57937Y625506D01*
X57911Y625503D01*
X57885Y625505D01*
X57738Y625483D01*
X57591Y625466D01*
X57566Y625457D01*
X57540Y625453D01*
X57402Y625398D01*
X57263Y625348D01*
X57241Y625334D01*
X57216Y625324D01*
X57095Y625240D01*
X56970Y625159D01*
X56952Y625140D01*
X56930Y625126D01*
X56831Y625016D01*
X56728Y624909D01*
X56714Y624886D01*
X56697Y624867D01*
X56625Y624737D01*
X56549Y624610D01*
X56541Y624585D01*
X56528Y624562D01*
X56488Y624419D01*
X56443Y624278D01*
X56441Y624252D01*
X56433Y624226D01*
X56414Y623983D01*
X56414Y622458D01*
X56412Y622458D01*
X56412Y623983D01*
X56409Y624009D01*
X56411Y624035D01*
X56389Y624181D01*
X56372Y624329D01*
X56363Y624353D01*
X56359Y624379D01*
X56305Y624517D01*
X56255Y624657D01*
X56240Y624679D01*
X56231Y624703D01*
X56146Y624825D01*
X56066Y624950D01*
X56047Y624968D01*
X56032Y624989D01*
X55922Y625088D01*
X55815Y625192D01*
X55792Y625205D01*
X55773Y625223D01*
X55643Y625295D01*
X55516Y625371D01*
X55491Y625379D01*
X55468Y625391D01*
X55325Y625432D01*
X55184Y625477D01*
X55158Y625479D01*
X55133Y625486D01*
X54889Y625506D01*
X27964Y625506D01*
X27964Y637420D01*
X29826Y636921D01*
X31672Y636157D01*
X33402Y635158D01*
X34988Y633942D01*
X36400Y632529D01*
X37616Y630945D01*
X37720Y630837D01*
X37821Y630725D01*
X37841Y630712D01*
X37858Y630694D01*
X37985Y630613D01*
X38108Y630528D01*
X38131Y630519D01*
X38151Y630506D01*
X38293Y630455D01*
X38433Y630400D01*
X38457Y630396D01*
X38479Y630388D01*
X38629Y630371D01*
X38778Y630349D01*
X38802Y630352D01*
X38826Y630349D01*
X38975Y630366D01*
X39125Y630379D01*
X39148Y630386D01*
X39172Y630389D01*
X39313Y630440D01*
X39456Y630486D01*
X39477Y630499D01*
X39500Y630507D01*
X39626Y630588D01*
X39755Y630666D01*
X39772Y630683D01*
X39792Y630696D01*
X39897Y630804D01*
X40005Y630909D01*
X40021Y630933D01*
X40034Y630947D01*
X40059Y630987D01*
X40143Y631110D01*
X41068Y632712D01*
X41305Y633021D01*
X41306Y633021D01*
X42538Y634627D01*
X44245Y636334D01*
X46160Y637804D01*
X46954Y638262D01*
X47054Y638336D01*
X47158Y638403D01*
X47193Y638439D01*
X47234Y638470D01*
X47314Y638564D01*
X47400Y638653D01*
X47426Y638697D01*
X47459Y638736D01*
X47516Y638846D01*
X47580Y638952D01*
X47595Y639000D01*
X47618Y639046D01*
X47648Y639166D01*
X47686Y639284D01*
X47691Y639334D01*
X47703Y639384D01*
X47705Y639508D01*
X47715Y639631D01*
X47707Y639681D01*
X47708Y639732D01*
X47682Y639854D01*
X47664Y639976D01*
X47645Y640023D01*
X47634Y640073D01*
X47581Y640185D01*
X47536Y640300D01*
X47507Y640342D01*
X47485Y640388D01*
X47408Y640485D01*
X47337Y640586D01*
X47300Y640620D01*
X47268Y640660D01*
X47171Y640737D01*
X47079Y640820D01*
X47034Y640845D01*
X46994Y640876D01*
X46882Y640929D01*
X46774Y640989D01*
X46725Y641003D01*
X46679Y641025D01*
X46558Y641051D01*
X46439Y641085D01*
X46375Y641090D01*
X46338Y641098D01*
X46291Y641097D01*
X46195Y641105D01*
X12623Y641160D01*
X12596Y641157D01*
X12569Y641159D01*
X12423Y641137D01*
X12277Y641121D01*
X12251Y641111D01*
X12224Y641107D01*
X12087Y641053D01*
X11949Y641004D01*
X11926Y640989D01*
X11900Y640979D01*
X11779Y640895D01*
X11655Y640815D01*
X11636Y640796D01*
X11614Y640780D01*
X11515Y640671D01*
X11413Y640565D01*
X11399Y640541D01*
X11381Y640521D01*
X11309Y640392D01*
X11233Y640266D01*
X11225Y640240D01*
X11212Y640216D01*
X11172Y640074D01*
X11127Y639934D01*
X11124Y639907D01*
X11117Y639881D01*
X11097Y639637D01*
X11096Y633869D01*
X11107Y633769D01*
X11109Y633668D01*
X11127Y633596D01*
X11135Y633523D01*
X11169Y633428D01*
X11194Y633330D01*
X11228Y633264D01*
X11253Y633194D01*
X11307Y633110D01*
X11354Y633020D01*
X11402Y632964D01*
X11442Y632902D01*
X11514Y632832D01*
X11579Y632755D01*
X11639Y632711D01*
X11692Y632659D01*
X11779Y632608D01*
X11860Y632548D01*
X11928Y632519D01*
X11991Y632480D01*
X12087Y632450D01*
X12180Y632410D01*
X12253Y632397D01*
X12323Y632374D01*
X12424Y632366D01*
X12523Y632348D01*
X12597Y632352D01*
X12671Y632346D01*
X12770Y632361D01*
X12871Y632366D01*
X12942Y632387D01*
X13015Y632398D01*
X13109Y632435D01*
X13206Y632463D01*
X13270Y632499D01*
X13339Y632526D01*
X13422Y632584D01*
X13510Y632633D01*
X13586Y632698D01*
X13625Y632725D01*
X13650Y632752D01*
X13696Y632791D01*
X14847Y633942D01*
X16432Y635158D01*
X18162Y636157D01*
X20008Y636921D01*
X21870Y637420D01*
X21870Y623983D01*
X21873Y623957D01*
X21871Y623930D01*
X21893Y623784D01*
X21910Y623636D01*
X21918Y623612D01*
X21922Y623586D01*
X21977Y623448D01*
X22027Y623308D01*
X22041Y623286D01*
X22051Y623262D01*
X22136Y623140D01*
X22216Y623016D01*
X22235Y622997D01*
X22250Y622976D01*
X22360Y622877D01*
X22467Y622773D01*
X22489Y622760D01*
X22509Y622742D01*
X22639Y622671D01*
X22766Y622595D01*
X22791Y622587D01*
X22814Y622574D01*
X22957Y622533D01*
X23098Y622488D01*
X23124Y622486D01*
X23149Y622479D01*
X23393Y622459D01*
X24918Y622459D01*
X24918Y622458D01*
X23393Y622458D01*
X23367Y622455D01*
X23341Y622457D01*
X23194Y622435D01*
X23047Y622418D01*
X23022Y622409D01*
X22996Y622405D01*
X22858Y622350D01*
X22719Y622300D01*
X22697Y622286D01*
X22672Y622276D01*
X22551Y622192D01*
X22426Y622111D01*
X22408Y622092D01*
X22386Y622077D01*
X22287Y621968D01*
X22184Y621861D01*
X22170Y621838D01*
X22153Y621819D01*
X22081Y621689D01*
X22005Y621562D01*
X21997Y621537D01*
X21984Y621514D01*
X21944Y621371D01*
X21899Y621230D01*
X21897Y621203D01*
X21889Y621178D01*
X21870Y620934D01*
X21870Y607497D01*
X20008Y607996D01*
X18162Y608760D01*
X16432Y609759D01*
X14846Y610975D01*
X13689Y612133D01*
X13611Y612195D01*
X13539Y612265D01*
X13475Y612303D01*
X13416Y612349D01*
X13326Y612392D01*
X13240Y612443D01*
X13169Y612466D01*
X13101Y612498D01*
X13003Y612519D01*
X12908Y612550D01*
X12833Y612556D01*
X12760Y612571D01*
X12660Y612570D01*
X12560Y612578D01*
X12487Y612567D01*
X12412Y612566D01*
X12315Y612541D01*
X12216Y612526D01*
X12146Y612499D01*
X12074Y612481D01*
X11985Y612435D01*
X11892Y612398D01*
X11831Y612355D01*
X11764Y612321D01*
X11688Y612256D01*
X11606Y612199D01*
X11556Y612143D01*
X11499Y612095D01*
X11439Y612014D01*
X11372Y611940D01*
X11336Y611875D01*
X11292Y611815D01*
X11252Y611723D01*
X11203Y611635D01*
X11183Y611563D01*
X11154Y611495D01*
X11136Y611396D01*
X11109Y611300D01*
X11101Y611199D01*
X11092Y611152D01*
X11094Y611116D01*
X11089Y611056D01*
X11071Y548754D01*
X11082Y548654D01*
X11084Y548553D01*
X11102Y548481D01*
X11110Y548407D01*
X11144Y548313D01*
X11169Y548215D01*
X11203Y548149D01*
X11228Y548079D01*
X11282Y547995D01*
X11328Y547905D01*
X11376Y547849D01*
X11417Y547786D01*
X11489Y547716D01*
X11554Y547640D01*
X11614Y547596D01*
X11667Y547544D01*
X11754Y547492D01*
X11835Y547433D01*
X11902Y547403D01*
X11966Y547365D01*
X12062Y547334D01*
X12155Y547295D01*
X12227Y547282D01*
X12298Y547259D01*
X12398Y547251D01*
X12498Y547233D01*
X12572Y547237D01*
X12646Y547231D01*
X12745Y547246D01*
X12846Y547251D01*
X12917Y547271D01*
X12990Y547282D01*
X13084Y547320D01*
X13180Y547347D01*
X13245Y547384D01*
X13314Y547411D01*
X13397Y547468D01*
X13485Y547518D01*
X13561Y547582D01*
X13600Y547610D01*
X13624Y547637D01*
X13671Y547676D01*
X14847Y548852D01*
X16432Y550068D01*
X18162Y551067D01*
X20008Y551831D01*
X21870Y552330D01*
X21870Y538893D01*
X21873Y538867D01*
X21871Y538840D01*
X21893Y538694D01*
X21910Y538546D01*
X21918Y538522D01*
X21922Y538496D01*
X21977Y538358D01*
X22027Y538218D01*
X22041Y538196D01*
X22051Y538172D01*
X22136Y538050D01*
X22216Y537926D01*
X22235Y537907D01*
X22250Y537886D01*
X22360Y537787D01*
X22467Y537683D01*
X22489Y537670D01*
X22509Y537652D01*
X22639Y537581D01*
X22766Y537505D01*
X22791Y537497D01*
X22814Y537484D01*
X22957Y537443D01*
X23098Y537398D01*
X23124Y537396D01*
X23149Y537389D01*
X23393Y537369D01*
X24918Y537369D01*
X24918Y537368D01*
X23393Y537368D01*
X23367Y537365D01*
X23341Y537367D01*
X23194Y537345D01*
X23047Y537328D01*
X23022Y537319D01*
X22996Y537315D01*
X22858Y537260D01*
X22719Y537210D01*
X22697Y537196D01*
X22672Y537186D01*
X22551Y537102D01*
X22426Y537021D01*
X22408Y537002D01*
X22386Y536987D01*
X22287Y536878D01*
X22184Y536771D01*
X22170Y536748D01*
X22153Y536729D01*
X22081Y536599D01*
X22005Y536472D01*
X21997Y536447D01*
X21984Y536424D01*
X21944Y536281D01*
X21899Y536140D01*
X21897Y536113D01*
X21889Y536088D01*
X21870Y535844D01*
X21870Y522407D01*
X20008Y522906D01*
X18162Y523670D01*
X16432Y524669D01*
X14847Y525885D01*
X13664Y527068D01*
X13586Y527130D01*
X13514Y527200D01*
X13450Y527238D01*
X13391Y527284D01*
X13301Y527327D01*
X13215Y527379D01*
X13143Y527401D01*
X13076Y527433D01*
X12978Y527454D01*
X12883Y527485D01*
X12808Y527491D01*
X12735Y527507D01*
X12635Y527505D01*
X12535Y527513D01*
X12461Y527502D01*
X12387Y527501D01*
X12290Y527476D01*
X12191Y527461D01*
X12121Y527434D01*
X12049Y527416D01*
X11960Y527370D01*
X11867Y527333D01*
X11805Y527290D01*
X11739Y527256D01*
X11663Y527191D01*
X11581Y527134D01*
X11530Y527078D01*
X11474Y527030D01*
X11414Y526950D01*
X11347Y526875D01*
X11311Y526810D01*
X11267Y526750D01*
X11227Y526658D01*
X11178Y526570D01*
X11158Y526498D01*
X11129Y526430D01*
X11111Y526331D01*
X11084Y526235D01*
X11075Y526135D01*
X11067Y526087D01*
X11069Y526051D01*
X11064Y525991D01*
X11060Y511832D01*
X11063Y511807D01*
X11060Y511781D01*
X11082Y511633D01*
X11099Y511486D01*
X11108Y511462D01*
X11112Y511436D01*
X11167Y511298D01*
X11217Y511158D01*
X11231Y511136D01*
X11240Y511112D01*
X11325Y510990D01*
X11406Y510865D01*
X11424Y510847D01*
X11439Y510826D01*
X11549Y510726D01*
X11656Y510623D01*
X11679Y510609D01*
X11698Y510592D01*
X11828Y510520D01*
X11955Y510444D01*
X11980Y510436D01*
X12003Y510423D01*
X12146Y510383D01*
X12287Y510338D01*
X12313Y510335D01*
X12338Y510328D01*
X12487Y510321D01*
X12635Y510309D01*
X12660Y510313D01*
X12686Y510312D01*
X12832Y510339D01*
X12979Y510361D01*
X13003Y510371D01*
X13029Y510375D01*
X13165Y510435D01*
X13303Y510490D01*
X13324Y510504D01*
X13348Y510515D01*
X13467Y510604D01*
X13589Y510688D01*
X13607Y510708D01*
X13628Y510723D01*
X13791Y510905D01*
X13855Y510987D01*
X15267Y512400D01*
X16853Y513616D01*
X18583Y514615D01*
X20428Y515380D01*
X22291Y515879D01*
X22291Y502441D01*
X22294Y502415D01*
X22292Y502389D01*
X22314Y502242D01*
X22331Y502095D01*
X22339Y502070D01*
X22343Y502044D01*
X22398Y501906D01*
X22448Y501766D01*
X22462Y501744D01*
X22472Y501720D01*
X22557Y501599D01*
X22637Y501474D01*
X22656Y501455D01*
X22671Y501434D01*
X22781Y501335D01*
X22888Y501231D01*
X22910Y501218D01*
X22930Y501200D01*
X23060Y501129D01*
X23187Y501053D01*
X23212Y501045D01*
X23235Y501032D01*
X23378Y500992D01*
X23519Y500946D01*
X23545Y500944D01*
X23570Y500937D01*
X23814Y500918D01*
X25339Y500918D01*
X25339Y500916D01*
X23814Y500916D01*
X23788Y500913D01*
X23762Y500915D01*
X23615Y500893D01*
X23468Y500876D01*
X23443Y500867D01*
X23417Y500863D01*
X23279Y500808D01*
X23140Y500758D01*
X23118Y500744D01*
X23093Y500734D01*
X22972Y500650D01*
X22847Y500569D01*
X22829Y500550D01*
X22807Y500536D01*
X22708Y500426D01*
X22605Y500319D01*
X22591Y500296D01*
X22574Y500277D01*
X22502Y500147D01*
X22426Y500020D01*
X22418Y499995D01*
X22405Y499972D01*
X22365Y499829D01*
X22320Y499688D01*
X22317Y499662D01*
X22310Y499636D01*
X22291Y499393D01*
X22291Y485955D01*
X20428Y486454D01*
X18583Y487218D01*
X16853Y488217D01*
X15267Y489434D01*
X13855Y490846D01*
X13785Y490937D01*
X13767Y490955D01*
X13754Y490977D01*
X13646Y491081D01*
X13543Y491188D01*
X13521Y491201D01*
X13503Y491219D01*
X13375Y491296D01*
X13250Y491376D01*
X13226Y491385D01*
X13204Y491398D01*
X13062Y491444D01*
X12921Y491494D01*
X12896Y491496D01*
X12872Y491504D01*
X12723Y491516D01*
X12575Y491533D01*
X12550Y491530D01*
X12525Y491532D01*
X12377Y491510D01*
X12229Y491493D01*
X12205Y491484D01*
X12180Y491481D01*
X12042Y491426D01*
X11901Y491375D01*
X11880Y491361D01*
X11856Y491352D01*
X11734Y491267D01*
X11608Y491186D01*
X11591Y491168D01*
X11570Y491153D01*
X11470Y491043D01*
X11366Y490935D01*
X11353Y490913D01*
X11336Y490894D01*
X11264Y490764D01*
X11188Y490636D01*
X11180Y490612D01*
X11168Y490589D01*
X11127Y490446D01*
X11082Y490304D01*
X11080Y490278D01*
X11073Y490254D01*
X11053Y490010D01*
X11035Y426710D01*
X11037Y426684D01*
X11035Y426658D01*
X11057Y426511D01*
X11074Y426363D01*
X11083Y426339D01*
X11087Y426313D01*
X11142Y426175D01*
X11192Y426035D01*
X11206Y426013D01*
X11215Y425989D01*
X11300Y425867D01*
X11381Y425742D01*
X11399Y425724D01*
X11414Y425703D01*
X11524Y425604D01*
X11631Y425500D01*
X11653Y425487D01*
X11672Y425469D01*
X11802Y425398D01*
X11930Y425321D01*
X11955Y425313D01*
X11977Y425301D01*
X12120Y425260D01*
X12262Y425215D01*
X12288Y425213D01*
X12313Y425206D01*
X12461Y425199D01*
X12610Y425187D01*
X12635Y425191D01*
X12661Y425189D01*
X12807Y425216D01*
X12954Y425238D01*
X12978Y425248D01*
X13004Y425253D01*
X13140Y425312D01*
X13278Y425367D01*
X13299Y425382D01*
X13323Y425392D01*
X13442Y425481D01*
X13564Y425566D01*
X13582Y425585D01*
X13602Y425600D01*
X13766Y425782D01*
X13825Y425859D01*
X13826Y425859D01*
X13855Y425897D01*
X15267Y427310D01*
X16853Y428526D01*
X18583Y429525D01*
X20428Y430290D01*
X22291Y430789D01*
X22291Y417351D01*
X22294Y417325D01*
X22292Y417299D01*
X22314Y417152D01*
X22331Y417005D01*
X22339Y416980D01*
X22343Y416954D01*
X22398Y416816D01*
X22448Y416676D01*
X22462Y416654D01*
X22472Y416630D01*
X22557Y416509D01*
X22637Y416384D01*
X22656Y416365D01*
X22671Y416344D01*
X22781Y416245D01*
X22888Y416141D01*
X22910Y416128D01*
X22930Y416110D01*
X23060Y416039D01*
X23187Y415963D01*
X23212Y415955D01*
X23235Y415942D01*
X23378Y415902D01*
X23519Y415856D01*
X23545Y415854D01*
X23570Y415847D01*
X23814Y415828D01*
X25339Y415828D01*
X25339Y415826D01*
X23814Y415826D01*
X23788Y415823D01*
X23762Y415825D01*
X23615Y415803D01*
X23468Y415786D01*
X23443Y415777D01*
X23417Y415773D01*
X23279Y415718D01*
X23140Y415668D01*
X23118Y415654D01*
X23093Y415644D01*
X22972Y415560D01*
X22847Y415479D01*
X22829Y415460D01*
X22807Y415446D01*
X22708Y415336D01*
X22605Y415229D01*
X22591Y415206D01*
X22574Y415187D01*
X22502Y415057D01*
X22426Y414930D01*
X22418Y414905D01*
X22405Y414882D01*
X22365Y414739D01*
X22320Y414598D01*
X22317Y414572D01*
X22310Y414546D01*
X22291Y414303D01*
X22291Y400865D01*
X20428Y401364D01*
X18583Y402128D01*
X16853Y403127D01*
X15267Y404344D01*
X13855Y405756D01*
X13760Y405880D01*
X13742Y405898D01*
X13728Y405919D01*
X13621Y406023D01*
X13518Y406130D01*
X13496Y406144D01*
X13478Y406162D01*
X13350Y406238D01*
X13225Y406319D01*
X13201Y406328D01*
X13179Y406341D01*
X13037Y406386D01*
X12896Y406436D01*
X12871Y406439D01*
X12847Y406447D01*
X12698Y406459D01*
X12550Y406476D01*
X12525Y406473D01*
X12500Y406475D01*
X12352Y406453D01*
X12204Y406436D01*
X12180Y406427D01*
X12155Y406423D01*
X12017Y406368D01*
X11876Y406318D01*
X11855Y406304D01*
X11831Y406295D01*
X11709Y406210D01*
X11583Y406129D01*
X11566Y406110D01*
X11545Y406096D01*
X11445Y405985D01*
X11341Y405878D01*
X11328Y405856D01*
X11311Y405837D01*
X11239Y405707D01*
X11163Y405579D01*
X11155Y405555D01*
X11143Y405532D01*
X11102Y405388D01*
X11057Y405247D01*
X11055Y405221D01*
X11048Y405197D01*
X11028Y404953D01*
X11004Y324728D01*
X11007Y324702D01*
X11005Y324675D01*
X11027Y324529D01*
X11044Y324382D01*
X11053Y324357D01*
X11057Y324331D01*
X11112Y324193D01*
X11162Y324054D01*
X11176Y324032D01*
X11186Y324007D01*
X11270Y323885D01*
X11351Y323761D01*
X11370Y323742D01*
X11385Y323721D01*
X11495Y323622D01*
X11601Y323519D01*
X11624Y323505D01*
X11643Y323487D01*
X11773Y323416D01*
X11900Y323340D01*
X11925Y323332D01*
X11949Y323319D01*
X12091Y323279D01*
X12232Y323233D01*
X12258Y323231D01*
X12284Y323224D01*
X12528Y323204D01*
X375573Y323222D01*
G37*
G36*
X122655Y510479D02*
X122655Y510479D01*
X122781Y510486D01*
X122827Y510499D01*
X122875Y510504D01*
X122994Y510547D01*
X123116Y510582D01*
X123158Y510606D01*
X123203Y510622D01*
X123310Y510691D01*
X123420Y510752D01*
X123466Y510792D01*
X123496Y510811D01*
X123530Y510846D01*
X123606Y510911D01*
X135096Y522401D01*
X136882Y524186D01*
X182248Y524186D01*
X182274Y524189D01*
X182300Y524187D01*
X182447Y524209D01*
X182594Y524226D01*
X182619Y524235D01*
X182645Y524239D01*
X182782Y524294D01*
X182922Y524344D01*
X182944Y524358D01*
X182969Y524368D01*
X183090Y524452D01*
X183215Y524533D01*
X183233Y524552D01*
X183255Y524566D01*
X183353Y524676D01*
X183457Y524783D01*
X183471Y524806D01*
X183488Y524825D01*
X183560Y524955D01*
X183636Y525082D01*
X183644Y525107D01*
X183657Y525130D01*
X183697Y525273D01*
X183742Y525414D01*
X183744Y525440D01*
X183751Y525466D01*
X183771Y525709D01*
X183771Y527531D01*
X184664Y528424D01*
X189223Y528424D01*
X189348Y528439D01*
X189475Y528445D01*
X189521Y528459D01*
X189569Y528464D01*
X189688Y528507D01*
X189809Y528542D01*
X189852Y528565D01*
X189897Y528582D01*
X190003Y528650D01*
X190114Y528712D01*
X190160Y528751D01*
X190190Y528771D01*
X190223Y528805D01*
X190300Y528870D01*
X201800Y540371D01*
X225952Y540371D01*
X225979Y540374D01*
X226005Y540372D01*
X226151Y540394D01*
X226299Y540411D01*
X226323Y540420D01*
X226349Y540424D01*
X226487Y540478D01*
X226627Y540528D01*
X226649Y540543D01*
X226673Y540552D01*
X226795Y540637D01*
X226920Y540717D01*
X226938Y540736D01*
X226959Y540751D01*
X227058Y540861D01*
X227162Y540968D01*
X227175Y540991D01*
X227193Y541010D01*
X227265Y541140D01*
X227341Y541267D01*
X227349Y541292D01*
X227361Y541315D01*
X227402Y541458D01*
X227447Y541599D01*
X227449Y541625D01*
X227456Y541651D01*
X227476Y541894D01*
X227476Y544216D01*
X228369Y545109D01*
X239632Y545109D01*
X240525Y544216D01*
X240525Y541894D01*
X240528Y541868D01*
X240526Y541842D01*
X240548Y541695D01*
X240565Y541548D01*
X240574Y541523D01*
X240578Y541497D01*
X240633Y541360D01*
X240683Y541220D01*
X240697Y541198D01*
X240707Y541174D01*
X240791Y541052D01*
X240872Y540927D01*
X240891Y540909D01*
X240905Y540887D01*
X241015Y540788D01*
X241122Y540685D01*
X241145Y540672D01*
X241164Y540654D01*
X241294Y540582D01*
X241421Y540506D01*
X241446Y540498D01*
X241469Y540485D01*
X241612Y540445D01*
X241753Y540400D01*
X241779Y540398D01*
X241805Y540391D01*
X242048Y540371D01*
X257145Y540371D01*
X257171Y540374D01*
X257197Y540372D01*
X257344Y540394D01*
X257491Y540411D01*
X257516Y540420D01*
X257542Y540424D01*
X257680Y540478D01*
X257819Y540528D01*
X257841Y540543D01*
X257866Y540552D01*
X257987Y540637D01*
X258112Y540717D01*
X258130Y540736D01*
X258152Y540751D01*
X258251Y540861D01*
X258354Y540968D01*
X258368Y540991D01*
X258385Y541010D01*
X258457Y541140D01*
X258533Y541267D01*
X258541Y541292D01*
X258554Y541315D01*
X258594Y541458D01*
X258639Y541599D01*
X258641Y541625D01*
X258648Y541651D01*
X258668Y541894D01*
X258668Y544246D01*
X259561Y545139D01*
X271824Y545139D01*
X272718Y544246D01*
X272718Y542425D01*
X272721Y542398D01*
X272718Y542372D01*
X272740Y542226D01*
X272757Y542078D01*
X272766Y542054D01*
X272770Y542028D01*
X272825Y541890D01*
X272875Y541750D01*
X272889Y541728D01*
X272899Y541704D01*
X272983Y541582D01*
X273064Y541457D01*
X273083Y541439D01*
X273098Y541418D01*
X273208Y541319D01*
X273315Y541215D01*
X273337Y541202D01*
X273357Y541184D01*
X273487Y541112D01*
X273614Y541036D01*
X273639Y541028D01*
X273662Y541016D01*
X273805Y540975D01*
X273946Y540930D01*
X273972Y540928D01*
X273997Y540921D01*
X274241Y540901D01*
X282742Y540901D01*
X282841Y540913D01*
X282942Y540914D01*
X283014Y540933D01*
X283088Y540941D01*
X283182Y540975D01*
X283280Y540999D01*
X283346Y541034D01*
X283416Y541059D01*
X283500Y541113D01*
X283590Y541159D01*
X283646Y541207D01*
X283709Y541248D01*
X283779Y541320D01*
X283855Y541385D01*
X283899Y541445D01*
X283951Y541498D01*
X284002Y541585D01*
X284062Y541665D01*
X284092Y541734D01*
X284130Y541797D01*
X284160Y541893D01*
X284200Y541985D01*
X284213Y542058D01*
X284236Y542129D01*
X284244Y542229D01*
X284262Y542328D01*
X284258Y542403D01*
X284264Y542477D01*
X284249Y542576D01*
X284244Y542676D01*
X284223Y542748D01*
X284212Y542821D01*
X284175Y542915D01*
X284147Y543011D01*
X284111Y543076D01*
X284084Y543145D01*
X284026Y543228D01*
X283977Y543315D01*
X283912Y543392D01*
X283885Y543431D01*
X283858Y543455D01*
X283819Y543502D01*
X282147Y545173D01*
X281339Y547124D01*
X281339Y549335D01*
X281343Y549349D01*
X281347Y549425D01*
X281360Y549501D01*
X281355Y549599D01*
X281360Y549697D01*
X281346Y549772D01*
X281342Y549849D01*
X281315Y549943D01*
X281298Y550040D01*
X281267Y550110D01*
X281246Y550184D01*
X281198Y550269D01*
X281159Y550359D01*
X281113Y550421D01*
X281076Y550488D01*
X280979Y550601D01*
X280951Y550639D01*
X280936Y550652D01*
X280917Y550674D01*
X270989Y560602D01*
X270890Y560681D01*
X270796Y560766D01*
X270754Y560789D01*
X270716Y560819D01*
X270602Y560873D01*
X270491Y560934D01*
X270444Y560947D01*
X270401Y560968D01*
X270277Y560995D01*
X270155Y561029D01*
X270095Y561034D01*
X270060Y561041D01*
X270012Y561041D01*
X269912Y561049D01*
X260899Y561049D01*
X260006Y561942D01*
X260006Y564263D01*
X260003Y564290D01*
X260005Y564316D01*
X259983Y564462D01*
X259966Y564610D01*
X259957Y564634D01*
X259953Y564660D01*
X259898Y564798D01*
X259848Y564938D01*
X259834Y564960D01*
X259824Y564984D01*
X259740Y565106D01*
X259659Y565231D01*
X259640Y565249D01*
X259625Y565270D01*
X259516Y565369D01*
X259409Y565473D01*
X259386Y565486D01*
X259367Y565504D01*
X259237Y565575D01*
X259110Y565652D01*
X259085Y565660D01*
X259062Y565672D01*
X258919Y565713D01*
X258778Y565758D01*
X258751Y565760D01*
X258726Y565767D01*
X258482Y565787D01*
X248787Y565787D01*
X248761Y565784D01*
X248735Y565786D01*
X248588Y565764D01*
X248441Y565747D01*
X248416Y565738D01*
X248390Y565734D01*
X248252Y565679D01*
X248113Y565629D01*
X248091Y565615D01*
X248066Y565605D01*
X247945Y565521D01*
X247820Y565440D01*
X247802Y565421D01*
X247780Y565406D01*
X247681Y565297D01*
X247578Y565190D01*
X247564Y565167D01*
X247547Y565148D01*
X247475Y565018D01*
X247399Y564891D01*
X247391Y564866D01*
X247378Y564843D01*
X247338Y564700D01*
X247293Y564559D01*
X247291Y564532D01*
X247283Y564507D01*
X247264Y564263D01*
X247264Y562168D01*
X246371Y561275D01*
X235107Y561275D01*
X234166Y562216D01*
X234124Y562334D01*
X234078Y562476D01*
X234065Y562497D01*
X234057Y562521D01*
X233976Y562647D01*
X233899Y562775D01*
X233881Y562793D01*
X233868Y562814D01*
X233760Y562918D01*
X233656Y563025D01*
X233635Y563038D01*
X233617Y563056D01*
X233489Y563133D01*
X233363Y563214D01*
X233339Y563222D01*
X233318Y563235D01*
X233176Y563280D01*
X233035Y563330D01*
X233010Y563333D01*
X232986Y563341D01*
X232837Y563353D01*
X232688Y563370D01*
X232664Y563367D01*
X232639Y563369D01*
X232491Y563347D01*
X232342Y563329D01*
X232319Y563321D01*
X232294Y563317D01*
X232155Y563262D01*
X232014Y563211D01*
X231993Y563198D01*
X231970Y563188D01*
X231848Y563103D01*
X231722Y563022D01*
X231705Y563004D01*
X231684Y562989D01*
X231584Y562878D01*
X231480Y562770D01*
X231467Y562749D01*
X231451Y562731D01*
X231378Y562600D01*
X231302Y562471D01*
X231292Y562443D01*
X231282Y562426D01*
X231269Y562380D01*
X231220Y562241D01*
X231107Y561819D01*
X230772Y561239D01*
X230299Y560766D01*
X229720Y560432D01*
X229074Y560259D01*
X226238Y560259D01*
X226238Y567323D01*
X226235Y567349D01*
X226237Y567375D01*
X226215Y567522D01*
X226198Y567669D01*
X226190Y567694D01*
X226186Y567720D01*
X226131Y567858D01*
X226081Y567997D01*
X226067Y568020D01*
X226057Y568044D01*
X225973Y568165D01*
X225892Y568290D01*
X225879Y568303D01*
X225924Y568349D01*
X225938Y568372D01*
X225955Y568391D01*
X226027Y568521D01*
X226103Y568648D01*
X226111Y568673D01*
X226124Y568696D01*
X226164Y568839D01*
X226209Y568980D01*
X226212Y569006D01*
X226219Y569032D01*
X226238Y569276D01*
X226238Y576340D01*
X229074Y576340D01*
X229720Y576167D01*
X230299Y575832D01*
X230772Y575359D01*
X231107Y574780D01*
X231220Y574358D01*
X231275Y574219D01*
X231325Y574078D01*
X231339Y574057D01*
X231348Y574034D01*
X231433Y573911D01*
X231514Y573785D01*
X231532Y573768D01*
X231546Y573747D01*
X231657Y573647D01*
X231765Y573543D01*
X231786Y573530D01*
X231805Y573514D01*
X231935Y573441D01*
X232064Y573364D01*
X232088Y573357D01*
X232109Y573344D01*
X232253Y573303D01*
X232396Y573258D01*
X232421Y573256D01*
X232445Y573249D01*
X232594Y573242D01*
X232743Y573230D01*
X232768Y573234D01*
X232793Y573232D01*
X232940Y573259D01*
X233088Y573282D01*
X233111Y573291D01*
X233135Y573295D01*
X233273Y573355D01*
X233412Y573410D01*
X233432Y573424D01*
X233455Y573434D01*
X233575Y573524D01*
X233698Y573609D01*
X233715Y573628D01*
X233735Y573643D01*
X233831Y573757D01*
X233931Y573868D01*
X233943Y573890D01*
X233959Y573909D01*
X234027Y574042D01*
X234100Y574173D01*
X234107Y574197D01*
X234118Y574219D01*
X234154Y574364D01*
X234156Y574373D01*
X235107Y575324D01*
X236929Y575324D01*
X236955Y575327D01*
X236981Y575325D01*
X237128Y575347D01*
X237275Y575364D01*
X237300Y575373D01*
X237326Y575377D01*
X237464Y575431D01*
X237603Y575481D01*
X237625Y575496D01*
X237650Y575505D01*
X237771Y575590D01*
X237896Y575670D01*
X237914Y575689D01*
X237936Y575704D01*
X238035Y575814D01*
X238138Y575921D01*
X238152Y575944D01*
X238169Y575963D01*
X238241Y576093D01*
X238317Y576220D01*
X238325Y576245D01*
X238338Y576268D01*
X238378Y576411D01*
X238423Y576552D01*
X238426Y576578D01*
X238433Y576604D01*
X238452Y576847D01*
X238452Y596014D01*
X238449Y596041D01*
X238451Y596067D01*
X238429Y596213D01*
X238412Y596361D01*
X238404Y596385D01*
X238400Y596411D01*
X238345Y596549D01*
X238295Y596689D01*
X238281Y596711D01*
X238271Y596735D01*
X238187Y596857D01*
X238106Y596982D01*
X238087Y597000D01*
X238072Y597021D01*
X237962Y597120D01*
X237855Y597224D01*
X237833Y597237D01*
X237813Y597255D01*
X237684Y597326D01*
X237556Y597403D01*
X237531Y597411D01*
X237508Y597423D01*
X237365Y597464D01*
X237224Y597509D01*
X237198Y597511D01*
X237173Y597518D01*
X236929Y597538D01*
X234574Y597538D01*
X233876Y598236D01*
X233836Y598267D01*
X233802Y598305D01*
X233700Y598375D01*
X233603Y598452D01*
X233557Y598474D01*
X233515Y598503D01*
X233400Y598548D01*
X233288Y598601D01*
X233238Y598612D01*
X233191Y598631D01*
X233068Y598648D01*
X232947Y598675D01*
X232896Y598674D01*
X232846Y598681D01*
X232722Y598671D01*
X232599Y598669D01*
X232549Y598656D01*
X232499Y598652D01*
X232381Y598614D01*
X232261Y598584D01*
X232215Y598560D01*
X232167Y598544D01*
X232061Y598481D01*
X231951Y598424D01*
X231912Y598391D01*
X231868Y598365D01*
X231780Y598278D01*
X231686Y598198D01*
X231655Y598157D01*
X231619Y598121D01*
X231480Y597920D01*
X231239Y597502D01*
X230766Y597029D01*
X230186Y596695D01*
X229540Y596522D01*
X226205Y596522D01*
X226205Y603086D01*
X226202Y603112D01*
X226204Y603138D01*
X226182Y603285D01*
X226165Y603432D01*
X226156Y603457D01*
X226152Y603483D01*
X226097Y603621D01*
X226047Y603761D01*
X226033Y603783D01*
X226023Y603807D01*
X225939Y603929D01*
X225858Y604053D01*
X225846Y604066D01*
X225891Y604112D01*
X225904Y604135D01*
X225922Y604154D01*
X225994Y604284D01*
X226070Y604412D01*
X226078Y604436D01*
X226090Y604459D01*
X226131Y604602D01*
X226176Y604743D01*
X226178Y604770D01*
X226185Y604795D01*
X226205Y605039D01*
X226205Y611603D01*
X229540Y611603D01*
X230186Y611430D01*
X230766Y611096D01*
X231239Y610622D01*
X231480Y610205D01*
X231510Y610164D01*
X231534Y610118D01*
X231614Y610024D01*
X231687Y609925D01*
X231726Y609892D01*
X231759Y609853D01*
X231859Y609779D01*
X231953Y609699D01*
X231999Y609676D01*
X232040Y609646D01*
X232153Y609597D01*
X232263Y609540D01*
X232313Y609528D01*
X232360Y609508D01*
X232481Y609486D01*
X232602Y609456D01*
X232653Y609455D01*
X232703Y609446D01*
X232826Y609453D01*
X232950Y609451D01*
X233000Y609461D01*
X233051Y609464D01*
X233170Y609498D01*
X233291Y609525D01*
X233337Y609547D01*
X233386Y609561D01*
X233494Y609621D01*
X233605Y609674D01*
X233645Y609706D01*
X233690Y609731D01*
X233876Y609889D01*
X234574Y610587D01*
X246837Y610587D01*
X247730Y609694D01*
X247730Y607872D01*
X247733Y607846D01*
X247731Y607820D01*
X247753Y607673D01*
X247770Y607526D01*
X247779Y607502D01*
X247783Y607476D01*
X247838Y607337D01*
X247888Y607198D01*
X247902Y607176D01*
X247912Y607152D01*
X247996Y607030D01*
X248077Y606905D01*
X248096Y606887D01*
X248111Y606866D01*
X248220Y606766D01*
X248327Y606663D01*
X248350Y606650D01*
X248369Y606632D01*
X248499Y606560D01*
X248626Y606484D01*
X248651Y606476D01*
X248674Y606464D01*
X248817Y606423D01*
X248958Y606378D01*
X248984Y606376D01*
X249010Y606369D01*
X249254Y606349D01*
X263775Y606349D01*
X263801Y606352D01*
X263827Y606350D01*
X263974Y606372D01*
X264121Y606389D01*
X264146Y606398D01*
X264172Y606402D01*
X264310Y606457D01*
X264449Y606507D01*
X264471Y606521D01*
X264496Y606530D01*
X264617Y606615D01*
X264742Y606696D01*
X264760Y606714D01*
X264782Y606729D01*
X264881Y606839D01*
X264984Y606946D01*
X264998Y606969D01*
X265015Y606988D01*
X265087Y607118D01*
X265163Y607245D01*
X265171Y607270D01*
X265184Y607293D01*
X265224Y607436D01*
X265269Y607577D01*
X265271Y607603D01*
X265279Y607629D01*
X265298Y607872D01*
X265298Y607942D01*
X270655Y613299D01*
X278231Y613299D01*
X283588Y607942D01*
X283588Y600366D01*
X278231Y595010D01*
X270655Y595010D01*
X265286Y600378D01*
X265275Y600451D01*
X265258Y600599D01*
X265250Y600623D01*
X265246Y600649D01*
X265191Y600787D01*
X265141Y600927D01*
X265127Y600949D01*
X265117Y600973D01*
X265032Y601095D01*
X264952Y601220D01*
X264933Y601238D01*
X264918Y601259D01*
X264808Y601358D01*
X264701Y601462D01*
X264679Y601475D01*
X264659Y601493D01*
X264529Y601565D01*
X264402Y601641D01*
X264377Y601649D01*
X264354Y601661D01*
X264211Y601702D01*
X264070Y601747D01*
X264044Y601749D01*
X264019Y601756D01*
X263775Y601776D01*
X249254Y601776D01*
X249227Y601773D01*
X249201Y601775D01*
X249055Y601753D01*
X248907Y601736D01*
X248883Y601727D01*
X248857Y601723D01*
X248719Y601668D01*
X248579Y601618D01*
X248557Y601604D01*
X248533Y601594D01*
X248411Y601510D01*
X248286Y601429D01*
X248268Y601410D01*
X248247Y601395D01*
X248148Y601286D01*
X248044Y601179D01*
X248031Y601156D01*
X248013Y601137D01*
X247941Y601007D01*
X247865Y600880D01*
X247857Y600855D01*
X247845Y600832D01*
X247804Y600689D01*
X247759Y600548D01*
X247757Y600522D01*
X247750Y600496D01*
X247730Y600252D01*
X247730Y598431D01*
X246837Y597538D01*
X244549Y597538D01*
X244523Y597535D01*
X244497Y597537D01*
X244350Y597515D01*
X244203Y597498D01*
X244178Y597489D01*
X244152Y597485D01*
X244014Y597430D01*
X243875Y597380D01*
X243853Y597366D01*
X243828Y597356D01*
X243707Y597272D01*
X243582Y597191D01*
X243564Y597172D01*
X243542Y597157D01*
X243443Y597048D01*
X243340Y596941D01*
X243326Y596918D01*
X243309Y596899D01*
X243237Y596769D01*
X243161Y596642D01*
X243153Y596617D01*
X243140Y596594D01*
X243100Y596451D01*
X243055Y596310D01*
X243053Y596284D01*
X243045Y596258D01*
X243026Y596014D01*
X243026Y576847D01*
X243029Y576821D01*
X243027Y576795D01*
X243049Y576648D01*
X243066Y576501D01*
X243074Y576476D01*
X243078Y576450D01*
X243133Y576313D01*
X243183Y576173D01*
X243197Y576151D01*
X243207Y576127D01*
X243292Y576005D01*
X243372Y575880D01*
X243391Y575862D01*
X243406Y575840D01*
X243516Y575741D01*
X243623Y575638D01*
X243645Y575625D01*
X243665Y575607D01*
X243795Y575535D01*
X243922Y575459D01*
X243947Y575451D01*
X243970Y575438D01*
X244113Y575398D01*
X244254Y575353D01*
X244280Y575351D01*
X244305Y575344D01*
X244549Y575324D01*
X246371Y575324D01*
X247264Y574431D01*
X247264Y571883D01*
X247267Y571857D01*
X247265Y571831D01*
X247287Y571684D01*
X247304Y571537D01*
X247312Y571513D01*
X247316Y571487D01*
X247371Y571348D01*
X247421Y571209D01*
X247435Y571187D01*
X247445Y571163D01*
X247530Y571041D01*
X247610Y570916D01*
X247629Y570898D01*
X247644Y570876D01*
X247754Y570777D01*
X247861Y570674D01*
X247883Y570661D01*
X247903Y570643D01*
X248033Y570571D01*
X248160Y570495D01*
X248185Y570487D01*
X248208Y570475D01*
X248351Y570434D01*
X248492Y570389D01*
X248518Y570387D01*
X248543Y570380D01*
X248787Y570360D01*
X258482Y570360D01*
X258509Y570363D01*
X258535Y570361D01*
X258681Y570383D01*
X258829Y570400D01*
X258853Y570409D01*
X258879Y570413D01*
X259017Y570467D01*
X259157Y570517D01*
X259179Y570532D01*
X259203Y570541D01*
X259325Y570626D01*
X259450Y570707D01*
X259468Y570725D01*
X259489Y570740D01*
X259588Y570850D01*
X259692Y570957D01*
X259705Y570980D01*
X259723Y570999D01*
X259794Y571129D01*
X259871Y571256D01*
X259879Y571281D01*
X259891Y571304D01*
X259932Y571447D01*
X259977Y571588D01*
X259979Y571614D01*
X259986Y571640D01*
X260006Y571883D01*
X260006Y574205D01*
X260899Y575098D01*
X272162Y575098D01*
X273055Y574205D01*
X273055Y565635D01*
X273070Y565509D01*
X273076Y565383D01*
X273089Y565337D01*
X273095Y565289D01*
X273138Y565170D01*
X273173Y565048D01*
X273196Y565006D01*
X273212Y564961D01*
X273281Y564854D01*
X273343Y564744D01*
X273382Y564698D01*
X273402Y564668D01*
X273436Y564634D01*
X273501Y564558D01*
X274405Y563654D01*
X274484Y563591D01*
X274556Y563522D01*
X274620Y563483D01*
X274678Y563437D01*
X274769Y563394D01*
X274855Y563343D01*
X274926Y563320D01*
X274993Y563288D01*
X275092Y563267D01*
X275187Y563237D01*
X275261Y563231D01*
X275334Y563215D01*
X275434Y563217D01*
X275535Y563209D01*
X275608Y563220D01*
X275683Y563221D01*
X275780Y563245D01*
X275879Y563260D01*
X275948Y563288D01*
X276021Y563306D01*
X276110Y563352D01*
X276203Y563389D01*
X276264Y563431D01*
X276330Y563465D01*
X276407Y563531D01*
X276489Y563588D01*
X276539Y563643D01*
X276596Y563691D01*
X276655Y563772D01*
X276723Y563847D01*
X276759Y563912D01*
X276803Y563972D01*
X276843Y564064D01*
X276891Y564152D01*
X276911Y564223D01*
X276941Y564292D01*
X276959Y564390D01*
X276986Y564487D01*
X276994Y564587D01*
X277003Y564635D01*
X277001Y564670D01*
X277006Y564731D01*
X277006Y574205D01*
X277899Y575098D01*
X284894Y575098D01*
X285020Y575113D01*
X285146Y575119D01*
X285192Y575132D01*
X285240Y575138D01*
X285359Y575181D01*
X285481Y575216D01*
X285523Y575239D01*
X285568Y575255D01*
X285675Y575324D01*
X285785Y575386D01*
X285831Y575425D01*
X285861Y575445D01*
X285895Y575479D01*
X285971Y575544D01*
X294304Y583877D01*
X294383Y583976D01*
X294468Y584070D01*
X294491Y584113D01*
X294521Y584150D01*
X294575Y584265D01*
X294636Y584375D01*
X294649Y584422D01*
X294670Y584466D01*
X294697Y584589D01*
X294731Y584711D01*
X294736Y584772D01*
X294743Y584806D01*
X294743Y584854D01*
X294751Y584955D01*
X294751Y612841D01*
X294736Y612966D01*
X294730Y613092D01*
X294716Y613139D01*
X294711Y613187D01*
X294668Y613306D01*
X294633Y613427D01*
X294610Y613469D01*
X294593Y613515D01*
X294525Y613621D01*
X294463Y613731D01*
X294424Y613778D01*
X294404Y613808D01*
X294370Y613841D01*
X294304Y613918D01*
X273669Y634553D01*
X273570Y634631D01*
X273476Y634716D01*
X273434Y634740D01*
X273396Y634770D01*
X273282Y634823D01*
X273171Y634885D01*
X273125Y634898D01*
X273081Y634918D01*
X272958Y634945D01*
X272836Y634979D01*
X272775Y634984D01*
X272741Y634992D01*
X272693Y634991D01*
X272592Y634999D01*
X258514Y634999D01*
X258365Y634982D01*
X258214Y634969D01*
X258191Y634962D01*
X258167Y634959D01*
X258026Y634909D01*
X257883Y634862D01*
X257862Y634850D01*
X257839Y634842D01*
X257713Y634760D01*
X257584Y634683D01*
X257567Y634666D01*
X257546Y634653D01*
X257442Y634544D01*
X257334Y634440D01*
X257321Y634419D01*
X257304Y634402D01*
X257227Y634273D01*
X257146Y634146D01*
X257138Y634124D01*
X257125Y634103D01*
X257080Y633960D01*
X257029Y633818D01*
X257026Y633794D01*
X257019Y633771D01*
X257007Y633622D01*
X256990Y633472D01*
X256993Y633448D01*
X256991Y633424D01*
X257013Y633275D01*
X257031Y633126D01*
X257040Y633098D01*
X257043Y633079D01*
X257060Y633035D01*
X257106Y632893D01*
X257856Y631083D01*
X257856Y628972D01*
X257048Y627021D01*
X255555Y625528D01*
X253605Y624721D01*
X251494Y624721D01*
X249543Y625528D01*
X248050Y627021D01*
X247243Y628972D01*
X247243Y631083D01*
X247992Y632893D01*
X248034Y633037D01*
X248079Y633181D01*
X248081Y633205D01*
X248088Y633228D01*
X248095Y633378D01*
X248107Y633528D01*
X248104Y633552D01*
X248105Y633576D01*
X248078Y633724D01*
X248056Y633873D01*
X248047Y633895D01*
X248042Y633919D01*
X247982Y634057D01*
X247927Y634197D01*
X247913Y634216D01*
X247903Y634239D01*
X247814Y634359D01*
X247728Y634483D01*
X247710Y634499D01*
X247696Y634518D01*
X247581Y634616D01*
X247469Y634716D01*
X247448Y634728D01*
X247430Y634743D01*
X247296Y634812D01*
X247164Y634885D01*
X247141Y634891D01*
X247119Y634902D01*
X246974Y634938D01*
X246829Y634979D01*
X246800Y634982D01*
X246781Y634986D01*
X246734Y634987D01*
X246585Y634999D01*
X186709Y634999D01*
X186584Y634985D01*
X186457Y634978D01*
X186411Y634965D01*
X186363Y634959D01*
X186244Y634917D01*
X186122Y634882D01*
X186080Y634858D01*
X186035Y634842D01*
X185929Y634773D01*
X185818Y634711D01*
X185772Y634672D01*
X185742Y634653D01*
X185708Y634618D01*
X185632Y634553D01*
X169360Y618281D01*
X169282Y618182D01*
X169197Y618088D01*
X169174Y618046D01*
X169144Y618008D01*
X169090Y617894D01*
X169029Y617783D01*
X169016Y617737D01*
X168995Y617693D01*
X168968Y617570D01*
X168958Y617533D01*
X168943Y617487D01*
X168943Y617478D01*
X168934Y617448D01*
X168929Y617387D01*
X168922Y617353D01*
X168922Y617305D01*
X168914Y617204D01*
X168914Y615477D01*
X168929Y615351D01*
X168935Y615225D01*
X168949Y615178D01*
X168954Y615130D01*
X168997Y615011D01*
X169032Y614890D01*
X169055Y614848D01*
X169072Y614802D01*
X169140Y614696D01*
X169202Y614586D01*
X169241Y614540D01*
X169261Y614510D01*
X169295Y614476D01*
X169360Y614400D01*
X197466Y586295D01*
X197565Y586216D01*
X197658Y586131D01*
X197701Y586108D01*
X197739Y586078D01*
X197853Y586024D01*
X197963Y585963D01*
X198010Y585950D01*
X198054Y585929D01*
X198177Y585902D01*
X198299Y585868D01*
X198360Y585863D01*
X198394Y585856D01*
X198442Y585856D01*
X198543Y585848D01*
X207065Y585848D01*
X207958Y584955D01*
X207958Y567692D01*
X207065Y566799D01*
X191569Y566799D01*
X191444Y566784D01*
X191318Y566778D01*
X191271Y566765D01*
X191223Y566759D01*
X191104Y566716D01*
X190983Y566681D01*
X190941Y566658D01*
X190895Y566642D01*
X190789Y566573D01*
X190679Y566511D01*
X190632Y566472D01*
X190602Y566453D01*
X190569Y566418D01*
X190492Y566353D01*
X176499Y552360D01*
X176004Y552360D01*
X175978Y552357D01*
X175952Y552359D01*
X175805Y552337D01*
X175658Y552320D01*
X175633Y552311D01*
X175607Y552307D01*
X175469Y552252D01*
X175330Y552202D01*
X175308Y552188D01*
X175283Y552178D01*
X175162Y552094D01*
X175037Y552013D01*
X175019Y551994D01*
X174997Y551979D01*
X174898Y551870D01*
X174795Y551763D01*
X174781Y551740D01*
X174764Y551721D01*
X174692Y551590D01*
X174616Y551464D01*
X174608Y551439D01*
X174595Y551416D01*
X174555Y551273D01*
X174510Y551132D01*
X174507Y551106D01*
X174500Y551080D01*
X174481Y550836D01*
X174481Y550285D01*
X173588Y549392D01*
X161324Y549392D01*
X160627Y550090D01*
X160586Y550121D01*
X160552Y550159D01*
X160451Y550229D01*
X160354Y550306D01*
X160307Y550328D01*
X160265Y550357D01*
X160150Y550402D01*
X160038Y550455D01*
X159988Y550466D01*
X159941Y550485D01*
X159819Y550502D01*
X159698Y550529D01*
X159647Y550528D01*
X159596Y550535D01*
X159473Y550525D01*
X159349Y550523D01*
X159300Y550510D01*
X159249Y550506D01*
X159131Y550468D01*
X159011Y550438D01*
X158966Y550414D01*
X158917Y550398D01*
X158811Y550335D01*
X158701Y550278D01*
X158663Y550245D01*
X158619Y550219D01*
X158530Y550132D01*
X158436Y550052D01*
X158406Y550011D01*
X158369Y549975D01*
X158230Y549774D01*
X157989Y549356D01*
X157516Y548883D01*
X156937Y548549D01*
X156290Y548376D01*
X152955Y548376D01*
X152955Y554940D01*
X152952Y554966D01*
X152954Y554992D01*
X152932Y555139D01*
X152915Y555286D01*
X152907Y555311D01*
X152903Y555337D01*
X152848Y555475D01*
X152798Y555615D01*
X152784Y555637D01*
X152774Y555661D01*
X152689Y555783D01*
X152609Y555907D01*
X152596Y555920D01*
X152641Y555966D01*
X152655Y555989D01*
X152672Y556008D01*
X152744Y556138D01*
X152820Y556266D01*
X152828Y556290D01*
X152841Y556313D01*
X152881Y556456D01*
X152926Y556597D01*
X152928Y556624D01*
X152936Y556649D01*
X152955Y556893D01*
X152955Y563457D01*
X156290Y563457D01*
X156937Y563284D01*
X157516Y562950D01*
X157989Y562476D01*
X158230Y562059D01*
X158261Y562018D01*
X158284Y561972D01*
X158364Y561878D01*
X158438Y561779D01*
X158477Y561746D01*
X158510Y561707D01*
X158609Y561633D01*
X158704Y561553D01*
X158749Y561530D01*
X158790Y561500D01*
X158904Y561451D01*
X159014Y561394D01*
X159063Y561382D01*
X159110Y561362D01*
X159232Y561340D01*
X159352Y561310D01*
X159403Y561309D01*
X159453Y561300D01*
X159577Y561307D01*
X159700Y561305D01*
X159750Y561315D01*
X159801Y561318D01*
X159920Y561352D01*
X160041Y561379D01*
X160087Y561401D01*
X160136Y561415D01*
X160244Y561475D01*
X160356Y561528D01*
X160396Y561560D01*
X160440Y561585D01*
X160627Y561743D01*
X161324Y562441D01*
X173587Y562441D01*
X173977Y562052D01*
X173998Y562035D01*
X174015Y562015D01*
X174134Y561927D01*
X174250Y561835D01*
X174274Y561824D01*
X174295Y561808D01*
X174431Y561750D01*
X174565Y561686D01*
X174591Y561681D01*
X174615Y561670D01*
X174761Y561644D01*
X174906Y561613D01*
X174932Y561613D01*
X174958Y561608D01*
X175106Y561616D01*
X175254Y561619D01*
X175280Y561625D01*
X175306Y561626D01*
X175449Y561668D01*
X175592Y561704D01*
X175616Y561716D01*
X175641Y561723D01*
X175770Y561795D01*
X175902Y561863D01*
X175922Y561880D01*
X175945Y561893D01*
X176131Y562052D01*
X182462Y568383D01*
X182541Y568482D01*
X182626Y568576D01*
X182649Y568618D01*
X182679Y568656D01*
X182733Y568770D01*
X182794Y568881D01*
X182807Y568927D01*
X182828Y568971D01*
X182854Y569094D01*
X182889Y569216D01*
X182894Y569277D01*
X182901Y569312D01*
X182900Y569360D01*
X182909Y569460D01*
X182909Y571244D01*
X182906Y571270D01*
X182908Y571296D01*
X182886Y571443D01*
X182869Y571590D01*
X182860Y571615D01*
X182856Y571641D01*
X182801Y571778D01*
X182751Y571918D01*
X182737Y571940D01*
X182727Y571964D01*
X182643Y572086D01*
X182562Y572211D01*
X182543Y572229D01*
X182528Y572251D01*
X182418Y572350D01*
X182311Y572453D01*
X182289Y572466D01*
X182269Y572484D01*
X182140Y572556D01*
X182012Y572632D01*
X181987Y572640D01*
X181964Y572653D01*
X181822Y572693D01*
X181680Y572738D01*
X181654Y572740D01*
X181629Y572747D01*
X181385Y572767D01*
X147478Y572767D01*
X147352Y572752D01*
X147226Y572746D01*
X147180Y572733D01*
X147132Y572727D01*
X147013Y572684D01*
X146891Y572649D01*
X146849Y572626D01*
X146804Y572610D01*
X146697Y572541D01*
X146587Y572479D01*
X146541Y572440D01*
X146511Y572421D01*
X146477Y572386D01*
X146401Y572321D01*
X132781Y558701D01*
X132703Y558602D01*
X132618Y558508D01*
X132595Y558466D01*
X132565Y558428D01*
X132511Y558314D01*
X132450Y558203D01*
X132437Y558157D01*
X132416Y558113D01*
X132389Y557990D01*
X132355Y557868D01*
X132350Y557807D01*
X132343Y557773D01*
X132343Y557725D01*
X132335Y557624D01*
X132335Y549211D01*
X132350Y549086D01*
X132356Y548960D01*
X132370Y548913D01*
X132375Y548865D01*
X132418Y548746D01*
X132453Y548625D01*
X132476Y548583D01*
X132493Y548537D01*
X132561Y548431D01*
X132623Y548321D01*
X132662Y548274D01*
X132682Y548244D01*
X132716Y548211D01*
X132781Y548134D01*
X139275Y541641D01*
X139374Y541562D01*
X139468Y541478D01*
X139510Y541454D01*
X139548Y541424D01*
X139662Y541370D01*
X139773Y541309D01*
X139819Y541296D01*
X139863Y541275D01*
X139986Y541249D01*
X140108Y541214D01*
X140169Y541210D01*
X140204Y541202D01*
X140252Y541203D01*
X140352Y541195D01*
X142513Y541195D01*
X144463Y540387D01*
X145956Y538894D01*
X146764Y536944D01*
X146764Y534833D01*
X145956Y532882D01*
X144463Y531389D01*
X142513Y530581D01*
X140402Y530581D01*
X138451Y531389D01*
X136958Y532882D01*
X136150Y534833D01*
X136150Y536993D01*
X136136Y537119D01*
X136129Y537245D01*
X136116Y537292D01*
X136111Y537340D01*
X136068Y537459D01*
X136033Y537580D01*
X136009Y537622D01*
X135993Y537668D01*
X135924Y537774D01*
X135863Y537884D01*
X135823Y537930D01*
X135804Y537960D01*
X135769Y537994D01*
X135704Y538070D01*
X134318Y539457D01*
X134297Y539473D01*
X134280Y539493D01*
X134161Y539582D01*
X134045Y539674D01*
X134021Y539685D01*
X134000Y539700D01*
X133864Y539759D01*
X133730Y539823D01*
X133704Y539828D01*
X133680Y539838D01*
X133534Y539865D01*
X133389Y539896D01*
X133363Y539896D01*
X133337Y539900D01*
X133188Y539893D01*
X133040Y539890D01*
X133015Y539884D01*
X132989Y539882D01*
X132847Y539841D01*
X132702Y539805D01*
X132679Y539793D01*
X132654Y539786D01*
X132525Y539713D01*
X132393Y539645D01*
X132373Y539628D01*
X132350Y539616D01*
X132163Y539457D01*
X131442Y538736D01*
X120716Y538736D01*
X120690Y538733D01*
X120664Y538735D01*
X120517Y538713D01*
X120370Y538696D01*
X120345Y538687D01*
X120319Y538683D01*
X120182Y538628D01*
X120042Y538578D01*
X120020Y538564D01*
X119995Y538554D01*
X119874Y538470D01*
X119749Y538389D01*
X119731Y538370D01*
X119709Y538355D01*
X119610Y538246D01*
X119507Y538139D01*
X119493Y538116D01*
X119476Y538097D01*
X119404Y537967D01*
X119328Y537840D01*
X119320Y537815D01*
X119307Y537792D01*
X119267Y537649D01*
X119222Y537508D01*
X119220Y537482D01*
X119213Y537456D01*
X119193Y537212D01*
X119193Y520202D01*
X119207Y520077D01*
X119214Y519950D01*
X119227Y519904D01*
X119233Y519856D01*
X119275Y519737D01*
X119311Y519616D01*
X119334Y519573D01*
X119350Y519528D01*
X119419Y519422D01*
X119443Y519379D01*
X119443Y516449D01*
X119457Y516324D01*
X119463Y516216D01*
X119463Y513077D01*
X119463Y513076D01*
X119458Y513015D01*
X119450Y512981D01*
X119451Y512933D01*
X119443Y512832D01*
X119443Y511988D01*
X119446Y511962D01*
X119444Y511936D01*
X119466Y511789D01*
X119483Y511642D01*
X119492Y511617D01*
X119496Y511591D01*
X119550Y511453D01*
X119600Y511314D01*
X119615Y511291D01*
X119624Y511267D01*
X119709Y511146D01*
X119789Y511021D01*
X119808Y511002D01*
X119823Y510981D01*
X119933Y510882D01*
X120040Y510779D01*
X120063Y510765D01*
X120082Y510747D01*
X120212Y510676D01*
X120339Y510600D01*
X120364Y510592D01*
X120387Y510579D01*
X120530Y510539D01*
X120671Y510493D01*
X120697Y510491D01*
X120722Y510484D01*
X120966Y510465D01*
X122529Y510465D01*
X122655Y510479D01*
G37*
G36*
X357582Y512287D02*
X357582Y512287D01*
X357708Y512293D01*
X357755Y512307D01*
X357803Y512312D01*
X357922Y512355D01*
X358043Y512390D01*
X358085Y512413D01*
X358131Y512430D01*
X358237Y512498D01*
X358347Y512560D01*
X358394Y512599D01*
X358424Y512619D01*
X358457Y512654D01*
X358534Y512719D01*
X364013Y518198D01*
X371589Y518198D01*
X374280Y515507D01*
X374359Y515444D01*
X374432Y515374D01*
X374495Y515336D01*
X374553Y515290D01*
X374644Y515247D01*
X374731Y515195D01*
X374801Y515173D01*
X374868Y515141D01*
X374967Y515120D01*
X375063Y515089D01*
X375137Y515083D01*
X375209Y515068D01*
X375310Y515070D01*
X375411Y515062D01*
X375483Y515073D01*
X375557Y515074D01*
X375655Y515099D01*
X375755Y515114D01*
X375824Y515141D01*
X375895Y515159D01*
X375985Y515205D01*
X376079Y515243D01*
X376139Y515285D01*
X376205Y515319D01*
X376282Y515384D01*
X376365Y515442D01*
X376414Y515497D01*
X376470Y515544D01*
X376530Y515626D01*
X376598Y515701D01*
X376634Y515766D01*
X376677Y515825D01*
X376717Y515918D01*
X376766Y516006D01*
X376786Y516077D01*
X376815Y516145D01*
X376833Y516244D01*
X376861Y516342D01*
X376868Y516440D01*
X376877Y516488D01*
X376875Y516524D01*
X376880Y516586D01*
X376742Y639041D01*
X376739Y639065D01*
X376741Y639089D01*
X376719Y639237D01*
X376702Y639387D01*
X376693Y639410D01*
X376690Y639433D01*
X376635Y639573D01*
X376584Y639715D01*
X376570Y639735D01*
X376562Y639757D01*
X376476Y639881D01*
X376394Y640007D01*
X376377Y640024D01*
X376363Y640044D01*
X376251Y640145D01*
X376143Y640249D01*
X376123Y640262D01*
X376105Y640278D01*
X375973Y640351D01*
X375844Y640428D01*
X375821Y640435D01*
X375800Y640447D01*
X375655Y640488D01*
X375512Y640534D01*
X375488Y640536D01*
X375465Y640542D01*
X375221Y640562D01*
X359858Y640587D01*
X359732Y640573D01*
X359606Y640567D01*
X359559Y640554D01*
X359511Y640548D01*
X359392Y640506D01*
X359271Y640471D01*
X359228Y640447D01*
X359183Y640431D01*
X359077Y640363D01*
X358966Y640301D01*
X358931Y640269D01*
X358890Y640243D01*
X358802Y640152D01*
X358708Y640067D01*
X358681Y640027D01*
X358647Y639992D01*
X358582Y639884D01*
X358511Y639780D01*
X358493Y639735D01*
X358468Y639694D01*
X358429Y639573D01*
X358383Y639456D01*
X358376Y639408D01*
X358361Y639362D01*
X358351Y639236D01*
X358332Y639111D01*
X358337Y639063D01*
X358333Y639015D01*
X358351Y638890D01*
X358362Y638764D01*
X358377Y638718D01*
X358384Y638670D01*
X358430Y638553D01*
X358469Y638432D01*
X358494Y638391D01*
X358512Y638346D01*
X358584Y638242D01*
X358649Y638134D01*
X358683Y638099D01*
X358710Y638059D01*
X358804Y637975D01*
X358892Y637884D01*
X358942Y637849D01*
X358969Y637825D01*
X359011Y637802D01*
X359093Y637745D01*
X360149Y637136D01*
X361734Y635919D01*
X363146Y634507D01*
X364363Y632922D01*
X365362Y631192D01*
X366126Y629346D01*
X366625Y627484D01*
X353187Y627484D01*
X353161Y627481D01*
X353135Y627483D01*
X352988Y627461D01*
X352841Y627444D01*
X352817Y627435D01*
X352791Y627431D01*
X352653Y627376D01*
X352513Y627326D01*
X352491Y627312D01*
X352467Y627302D01*
X352345Y627218D01*
X352220Y627137D01*
X352202Y627118D01*
X352181Y627103D01*
X352081Y626993D01*
X351978Y626887D01*
X351965Y626864D01*
X351947Y626845D01*
X351875Y626715D01*
X351799Y626587D01*
X351791Y626563D01*
X351779Y626540D01*
X351738Y626397D01*
X351693Y626256D01*
X351691Y626229D01*
X351684Y626204D01*
X351664Y625960D01*
X351664Y624435D01*
X351662Y624435D01*
X351662Y625960D01*
X351659Y625986D01*
X351661Y626013D01*
X351639Y626159D01*
X351623Y626307D01*
X351614Y626331D01*
X351610Y626357D01*
X351555Y626495D01*
X351505Y626635D01*
X351491Y626657D01*
X351481Y626681D01*
X351397Y626803D01*
X351316Y626927D01*
X351297Y626946D01*
X351282Y626967D01*
X351172Y627066D01*
X351065Y627170D01*
X351043Y627183D01*
X351023Y627201D01*
X350893Y627272D01*
X350766Y627348D01*
X350741Y627356D01*
X350718Y627369D01*
X350575Y627410D01*
X350434Y627455D01*
X350408Y627457D01*
X350383Y627464D01*
X350139Y627484D01*
X321691Y627484D01*
X321665Y627481D01*
X321639Y627483D01*
X321492Y627461D01*
X321345Y627444D01*
X321321Y627435D01*
X321295Y627431D01*
X321157Y627376D01*
X321017Y627326D01*
X320995Y627312D01*
X320971Y627302D01*
X320849Y627218D01*
X320724Y627137D01*
X320706Y627118D01*
X320685Y627103D01*
X320585Y626993D01*
X320482Y626887D01*
X320469Y626864D01*
X320451Y626845D01*
X320379Y626715D01*
X320303Y626587D01*
X320295Y626563D01*
X320283Y626540D01*
X320242Y626397D01*
X320197Y626256D01*
X320195Y626229D01*
X320188Y626204D01*
X320168Y625960D01*
X320168Y624435D01*
X320166Y624435D01*
X320166Y625960D01*
X320163Y625986D01*
X320165Y626013D01*
X320143Y626159D01*
X320127Y626307D01*
X320118Y626331D01*
X320114Y626357D01*
X320059Y626495D01*
X320009Y626635D01*
X319995Y626657D01*
X319985Y626681D01*
X319901Y626803D01*
X319820Y626927D01*
X319801Y626946D01*
X319786Y626967D01*
X319676Y627066D01*
X319569Y627170D01*
X319547Y627183D01*
X319527Y627201D01*
X319397Y627272D01*
X319270Y627348D01*
X319245Y627356D01*
X319222Y627369D01*
X319079Y627410D01*
X318938Y627455D01*
X318912Y627457D01*
X318887Y627464D01*
X318643Y627484D01*
X301994Y627484D01*
X302067Y628037D01*
X302691Y630369D01*
X303615Y632599D01*
X304822Y634690D01*
X305880Y636068D01*
X306292Y636605D01*
X307762Y638075D01*
X307824Y638152D01*
X307893Y638224D01*
X307932Y638289D01*
X307979Y638348D01*
X308021Y638437D01*
X308072Y638522D01*
X308095Y638594D01*
X308127Y638663D01*
X308148Y638760D01*
X308179Y638854D01*
X308185Y638930D01*
X308201Y639004D01*
X308199Y639103D01*
X308207Y639202D01*
X308196Y639276D01*
X308195Y639352D01*
X308171Y639448D01*
X308156Y639546D01*
X308128Y639617D01*
X308110Y639690D01*
X308064Y639778D01*
X308028Y639870D01*
X307985Y639933D01*
X307950Y640000D01*
X307886Y640075D01*
X307830Y640157D01*
X307773Y640208D01*
X307724Y640265D01*
X307645Y640324D01*
X307571Y640391D01*
X307505Y640427D01*
X307444Y640472D01*
X307353Y640512D01*
X307266Y640560D01*
X307194Y640580D01*
X307124Y640610D01*
X307027Y640628D01*
X306931Y640655D01*
X306829Y640664D01*
X306781Y640672D01*
X306746Y640670D01*
X306687Y640675D01*
X281245Y640717D01*
X281144Y640706D01*
X281042Y640704D01*
X280971Y640686D01*
X280899Y640678D01*
X280803Y640644D01*
X280704Y640619D01*
X280639Y640585D01*
X280570Y640561D01*
X280485Y640506D01*
X280395Y640459D01*
X280339Y640412D01*
X280277Y640372D01*
X280207Y640299D01*
X280129Y640233D01*
X280086Y640175D01*
X280035Y640122D01*
X279982Y640035D01*
X279922Y639953D01*
X279893Y639886D01*
X279855Y639823D01*
X279824Y639726D01*
X279784Y639633D01*
X279771Y639561D01*
X279749Y639491D01*
X279740Y639390D01*
X279722Y639290D01*
X279726Y639217D01*
X279720Y639144D01*
X279735Y639044D01*
X279740Y638942D01*
X279761Y638872D01*
X279771Y638799D01*
X279809Y638705D01*
X279837Y638607D01*
X279873Y638543D01*
X279899Y638475D01*
X279957Y638392D01*
X280007Y638303D01*
X280071Y638228D01*
X280098Y638189D01*
X280125Y638164D01*
X280165Y638117D01*
X299738Y618544D01*
X299836Y618466D01*
X299929Y618382D01*
X299972Y618358D01*
X300011Y618328D01*
X300124Y618274D01*
X300233Y618213D01*
X300281Y618200D01*
X300326Y618179D01*
X300448Y618152D01*
X300569Y618118D01*
X300618Y618116D01*
X300667Y618105D01*
X300792Y618107D01*
X300917Y618101D01*
X300966Y618110D01*
X301015Y618111D01*
X301137Y618142D01*
X301260Y618164D01*
X301305Y618184D01*
X301353Y618196D01*
X301465Y618254D01*
X301579Y618303D01*
X301619Y618333D01*
X301663Y618356D01*
X301759Y618437D01*
X301859Y618512D01*
X301891Y618549D01*
X301929Y618582D01*
X302003Y618682D01*
X302084Y618778D01*
X302106Y618822D01*
X302136Y618862D01*
X302185Y618977D01*
X302242Y619088D01*
X302254Y619136D01*
X302274Y619182D01*
X302296Y619305D01*
X302326Y619426D01*
X302327Y619476D01*
X302335Y619525D01*
X302329Y619650D01*
X302331Y619775D01*
X302319Y619837D01*
X302317Y619873D01*
X302304Y619919D01*
X302286Y620015D01*
X302067Y620836D01*
X301994Y621389D01*
X317120Y621389D01*
X317120Y606263D01*
X316567Y606336D01*
X314235Y606961D01*
X312005Y607884D01*
X309914Y609091D01*
X307999Y610561D01*
X306292Y612268D01*
X304822Y614183D01*
X304707Y614384D01*
X304632Y614484D01*
X304564Y614589D01*
X304529Y614624D01*
X304499Y614664D01*
X304404Y614744D01*
X304314Y614831D01*
X304271Y614857D01*
X304233Y614889D01*
X304122Y614946D01*
X304014Y615010D01*
X303967Y615025D01*
X303923Y615048D01*
X303802Y615078D01*
X303683Y615116D01*
X303633Y615120D01*
X303585Y615132D01*
X303460Y615134D01*
X303335Y615144D01*
X303286Y615137D01*
X303236Y615138D01*
X303114Y615111D01*
X302991Y615093D01*
X302944Y615074D01*
X302896Y615064D01*
X302783Y615010D01*
X302667Y614964D01*
X302626Y614936D01*
X302581Y614914D01*
X302483Y614836D01*
X302380Y614765D01*
X302347Y614728D01*
X302308Y614697D01*
X302231Y614599D01*
X302147Y614506D01*
X302123Y614463D01*
X302092Y614424D01*
X302039Y614311D01*
X301979Y614201D01*
X301965Y614154D01*
X301944Y614109D01*
X301918Y613986D01*
X301884Y613866D01*
X301879Y613803D01*
X301871Y613768D01*
X301872Y613720D01*
X301864Y613622D01*
X301864Y581377D01*
X290501Y570014D01*
X290423Y569915D01*
X290338Y569821D01*
X290315Y569779D01*
X290285Y569741D01*
X290231Y569627D01*
X290170Y569516D01*
X290156Y569470D01*
X290136Y569426D01*
X290109Y569303D01*
X290075Y569181D01*
X290070Y569120D01*
X290062Y569085D01*
X290063Y569037D01*
X290055Y568937D01*
X290055Y561942D01*
X289162Y561049D01*
X280688Y561049D01*
X280588Y561037D01*
X280488Y561035D01*
X280416Y561017D01*
X280342Y561009D01*
X280247Y560975D01*
X280150Y560950D01*
X280084Y560916D01*
X280014Y560891D01*
X279929Y560837D01*
X279840Y560791D01*
X279783Y560743D01*
X279721Y560702D01*
X279651Y560630D01*
X279575Y560565D01*
X279530Y560505D01*
X279479Y560452D01*
X279427Y560365D01*
X279367Y560285D01*
X279338Y560216D01*
X279300Y560153D01*
X279269Y560057D01*
X279229Y559965D01*
X279216Y559891D01*
X279194Y559821D01*
X279185Y559721D01*
X279168Y559622D01*
X279172Y559547D01*
X279166Y559473D01*
X279180Y559374D01*
X279186Y559274D01*
X279206Y559202D01*
X279217Y559129D01*
X279254Y559035D01*
X279282Y558939D01*
X279318Y558874D01*
X279346Y558805D01*
X279403Y558722D01*
X279452Y558635D01*
X279517Y558558D01*
X279545Y558519D01*
X279571Y558495D01*
X279611Y558448D01*
X284151Y553908D01*
X284211Y553860D01*
X284265Y553805D01*
X284347Y553752D01*
X284424Y553691D01*
X284493Y553659D01*
X284558Y553617D01*
X284650Y553584D01*
X284739Y553542D01*
X284814Y553526D01*
X284886Y553501D01*
X284984Y553490D01*
X285080Y553469D01*
X285156Y553470D01*
X285233Y553462D01*
X285330Y553473D01*
X285428Y553475D01*
X285473Y553486D01*
X287701Y553486D01*
X289652Y552678D01*
X291144Y551186D01*
X291952Y549235D01*
X291952Y547124D01*
X291144Y545173D01*
X289473Y543502D01*
X289410Y543423D01*
X289340Y543351D01*
X289302Y543287D01*
X289256Y543229D01*
X289213Y543138D01*
X289161Y543052D01*
X289139Y542981D01*
X289107Y542914D01*
X289086Y542815D01*
X289055Y542720D01*
X289049Y542645D01*
X289034Y542573D01*
X289035Y542472D01*
X289027Y542372D01*
X289038Y542299D01*
X289040Y542224D01*
X289064Y542127D01*
X289079Y542028D01*
X289106Y541958D01*
X289125Y541886D01*
X289171Y541797D01*
X289208Y541704D01*
X289250Y541643D01*
X289284Y541577D01*
X289349Y541500D01*
X289407Y541418D01*
X289462Y541368D01*
X289510Y541311D01*
X289591Y541251D01*
X289665Y541184D01*
X289731Y541148D01*
X289790Y541104D01*
X289883Y541064D01*
X289970Y541016D01*
X290042Y540995D01*
X290110Y540966D01*
X290209Y540948D01*
X290306Y540921D01*
X290406Y540913D01*
X290453Y540904D01*
X290489Y540906D01*
X290550Y540901D01*
X292174Y540901D01*
X292299Y540916D01*
X292425Y540922D01*
X292472Y540936D01*
X292520Y540941D01*
X292639Y540984D01*
X292760Y541019D01*
X292802Y541042D01*
X292848Y541059D01*
X292954Y541127D01*
X293065Y541189D01*
X293111Y541228D01*
X293141Y541248D01*
X293174Y541282D01*
X293251Y541347D01*
X336081Y584178D01*
X341694Y584178D01*
X341770Y584187D01*
X341847Y584186D01*
X341943Y584207D01*
X342041Y584218D01*
X342113Y584244D01*
X342187Y584260D01*
X342276Y584302D01*
X342369Y584335D01*
X342433Y584377D01*
X342502Y584410D01*
X342579Y584471D01*
X342662Y584525D01*
X342715Y584580D01*
X342774Y584627D01*
X342835Y584704D01*
X342904Y584775D01*
X342943Y584841D01*
X342990Y584901D01*
X343058Y585034D01*
X343083Y585074D01*
X343088Y585092D01*
X343102Y585118D01*
X343911Y587071D01*
X346483Y589644D01*
X349844Y591036D01*
X353482Y591036D01*
X356843Y589644D01*
X359416Y587072D01*
X360808Y583710D01*
X360808Y580072D01*
X359416Y576711D01*
X356843Y574139D01*
X353482Y572747D01*
X349844Y572747D01*
X346483Y574139D01*
X343911Y576711D01*
X343102Y578664D01*
X343065Y578731D01*
X343036Y578802D01*
X342980Y578883D01*
X342932Y578969D01*
X342881Y579026D01*
X342837Y579088D01*
X342765Y579154D01*
X342698Y579227D01*
X342635Y579271D01*
X342579Y579322D01*
X342493Y579369D01*
X342412Y579425D01*
X342341Y579453D01*
X342274Y579490D01*
X342179Y579517D01*
X342087Y579553D01*
X342012Y579564D01*
X341938Y579585D01*
X341789Y579597D01*
X341743Y579604D01*
X341724Y579602D01*
X341694Y579605D01*
X338607Y579605D01*
X338481Y579590D01*
X338355Y579584D01*
X338309Y579570D01*
X338261Y579565D01*
X338142Y579522D01*
X338020Y579487D01*
X337978Y579464D01*
X337933Y579447D01*
X337826Y579379D01*
X337716Y579317D01*
X337670Y579278D01*
X337640Y579258D01*
X337606Y579224D01*
X337530Y579158D01*
X317566Y559195D01*
X317488Y559096D01*
X317403Y559002D01*
X317380Y558960D01*
X317350Y558922D01*
X317296Y558808D01*
X317234Y558697D01*
X317221Y558650D01*
X317201Y558607D01*
X317174Y558483D01*
X317140Y558362D01*
X317135Y558301D01*
X317127Y558266D01*
X317128Y558218D01*
X317120Y558118D01*
X317120Y542394D01*
X301396Y542394D01*
X301270Y542379D01*
X301144Y542373D01*
X301098Y542359D01*
X301050Y542354D01*
X300931Y542311D01*
X300809Y542276D01*
X300767Y542253D01*
X300721Y542236D01*
X300615Y542168D01*
X300505Y542106D01*
X300459Y542067D01*
X300429Y542047D01*
X300395Y542012D01*
X300319Y541947D01*
X296990Y538619D01*
X296974Y538598D01*
X296954Y538581D01*
X296865Y538462D01*
X296773Y538346D01*
X296762Y538322D01*
X296746Y538301D01*
X296688Y538165D01*
X296624Y538031D01*
X296619Y538005D01*
X296608Y537981D01*
X296582Y537835D01*
X296551Y537690D01*
X296551Y537664D01*
X296547Y537638D01*
X296554Y537489D01*
X296557Y537341D01*
X296563Y537316D01*
X296565Y537290D01*
X296606Y537147D01*
X296642Y537003D01*
X296654Y536980D01*
X296661Y536955D01*
X296734Y536826D01*
X296802Y536694D01*
X296819Y536674D01*
X296831Y536651D01*
X296990Y536464D01*
X299642Y533812D01*
X299740Y533735D01*
X299833Y533651D01*
X299876Y533626D01*
X299915Y533596D01*
X300028Y533542D01*
X300138Y533481D01*
X300185Y533468D01*
X300230Y533447D01*
X300352Y533420D01*
X300473Y533386D01*
X300522Y533384D01*
X300571Y533373D01*
X300696Y533375D01*
X300821Y533369D01*
X300870Y533378D01*
X300919Y533379D01*
X301041Y533410D01*
X301164Y533432D01*
X301209Y533452D01*
X301257Y533464D01*
X301369Y533522D01*
X301483Y533571D01*
X301523Y533601D01*
X301567Y533624D01*
X301662Y533705D01*
X301763Y533780D01*
X301795Y533818D01*
X301833Y533850D01*
X301907Y533950D01*
X301988Y534046D01*
X302010Y534090D01*
X302040Y534130D01*
X302089Y534245D01*
X302146Y534356D01*
X302158Y534404D01*
X302178Y534450D01*
X302200Y534573D01*
X302230Y534695D01*
X302231Y534744D01*
X302239Y534793D01*
X302233Y534918D01*
X302235Y535043D01*
X302223Y535105D01*
X302221Y535141D01*
X302208Y535187D01*
X302191Y535284D01*
X302067Y535746D01*
X301994Y536299D01*
X318643Y536299D01*
X318669Y536302D01*
X318695Y536300D01*
X318842Y536322D01*
X318989Y536339D01*
X319014Y536348D01*
X319040Y536352D01*
X319178Y536407D01*
X319317Y536457D01*
X319340Y536471D01*
X319364Y536480D01*
X319485Y536565D01*
X319610Y536646D01*
X319629Y536664D01*
X319650Y536679D01*
X319749Y536789D01*
X319852Y536896D01*
X319866Y536919D01*
X319883Y536938D01*
X319955Y537068D01*
X320031Y537195D01*
X320039Y537220D01*
X320052Y537243D01*
X320092Y537386D01*
X320138Y537527D01*
X320140Y537553D01*
X320147Y537579D01*
X320166Y537822D01*
X320166Y539347D01*
X320168Y539347D01*
X320168Y537822D01*
X320171Y537796D01*
X320169Y537770D01*
X320191Y537623D01*
X320208Y537476D01*
X320217Y537452D01*
X320221Y537426D01*
X320276Y537288D01*
X320326Y537148D01*
X320340Y537126D01*
X320349Y537102D01*
X320434Y536980D01*
X320515Y536855D01*
X320533Y536837D01*
X320548Y536816D01*
X320658Y536716D01*
X320765Y536613D01*
X320788Y536600D01*
X320807Y536582D01*
X320937Y536510D01*
X321064Y536434D01*
X321089Y536426D01*
X321112Y536414D01*
X321255Y536373D01*
X321396Y536328D01*
X321422Y536326D01*
X321448Y536319D01*
X321691Y536299D01*
X348616Y536299D01*
X348616Y524385D01*
X346754Y524883D01*
X344908Y525648D01*
X343178Y526647D01*
X341593Y527863D01*
X340180Y529276D01*
X338964Y530860D01*
X338860Y530968D01*
X338759Y531080D01*
X338739Y531093D01*
X338722Y531111D01*
X338596Y531192D01*
X338472Y531277D01*
X338449Y531286D01*
X338429Y531299D01*
X338287Y531350D01*
X338148Y531405D01*
X338124Y531408D01*
X338101Y531417D01*
X337951Y531434D01*
X337803Y531455D01*
X337779Y531453D01*
X337755Y531456D01*
X337605Y531439D01*
X337455Y531426D01*
X337433Y531419D01*
X337408Y531416D01*
X337267Y531365D01*
X337124Y531319D01*
X337103Y531306D01*
X337080Y531298D01*
X336955Y531217D01*
X336825Y531139D01*
X336808Y531122D01*
X336788Y531109D01*
X336684Y531001D01*
X336576Y530896D01*
X336559Y530872D01*
X336546Y530858D01*
X336522Y530818D01*
X336437Y530695D01*
X335512Y529093D01*
X334862Y528246D01*
X334043Y527178D01*
X332336Y525471D01*
X330421Y524001D01*
X328330Y522794D01*
X326099Y521871D01*
X323768Y521246D01*
X321593Y520959D01*
X321495Y520935D01*
X321395Y520920D01*
X321326Y520893D01*
X321255Y520875D01*
X321165Y520828D01*
X321071Y520791D01*
X321011Y520749D01*
X320945Y520715D01*
X320868Y520650D01*
X320785Y520592D01*
X320736Y520538D01*
X320679Y520490D01*
X320619Y520408D01*
X320551Y520333D01*
X320516Y520269D01*
X320472Y520210D01*
X320432Y520117D01*
X320383Y520028D01*
X320363Y519957D01*
X320334Y519890D01*
X320316Y519790D01*
X320288Y519693D01*
X320280Y519594D01*
X320272Y519547D01*
X320273Y519511D01*
X320269Y519449D01*
X320269Y514034D01*
X320272Y514008D01*
X320269Y513981D01*
X320291Y513835D01*
X320308Y513687D01*
X320317Y513663D01*
X320321Y513637D01*
X320376Y513499D01*
X320426Y513359D01*
X320440Y513337D01*
X320450Y513313D01*
X320534Y513191D01*
X320615Y513067D01*
X320634Y513048D01*
X320649Y513027D01*
X320759Y512928D01*
X320866Y512824D01*
X320888Y512811D01*
X320908Y512793D01*
X321037Y512722D01*
X321165Y512645D01*
X321190Y512638D01*
X321213Y512625D01*
X321356Y512584D01*
X321497Y512539D01*
X321523Y512537D01*
X321548Y512530D01*
X321792Y512510D01*
X327692Y512510D01*
X327703Y512502D01*
X327817Y512448D01*
X327928Y512387D01*
X327975Y512374D01*
X328018Y512353D01*
X328142Y512326D01*
X328263Y512292D01*
X328324Y512287D01*
X328359Y512280D01*
X328407Y512280D01*
X328507Y512272D01*
X357457Y512272D01*
X357582Y512287D01*
G37*
G36*
X232377Y362033D02*
X232377Y362033D01*
X232478Y362038D01*
X232549Y362058D01*
X232623Y362070D01*
X232716Y362107D01*
X232813Y362134D01*
X232878Y362171D01*
X232947Y362198D01*
X233029Y362255D01*
X233117Y362305D01*
X233193Y362370D01*
X233233Y362397D01*
X233257Y362424D01*
X233303Y362463D01*
X235190Y364350D01*
X235284Y364468D01*
X235381Y364583D01*
X235392Y364605D01*
X235407Y364623D01*
X235471Y364759D01*
X235540Y364893D01*
X235546Y364917D01*
X235556Y364939D01*
X235587Y365085D01*
X235624Y365231D01*
X235624Y365256D01*
X235629Y365279D01*
X235627Y365429D01*
X235629Y365580D01*
X235624Y365604D01*
X235623Y365628D01*
X235587Y365774D01*
X235555Y365920D01*
X235544Y365942D01*
X235538Y365966D01*
X235469Y366100D01*
X235405Y366235D01*
X235390Y366254D01*
X235379Y366276D01*
X235281Y366390D01*
X235187Y366508D01*
X235168Y366523D01*
X235153Y366541D01*
X235032Y366630D01*
X234914Y366723D01*
X234888Y366737D01*
X234872Y366748D01*
X234829Y366767D01*
X234696Y366835D01*
X234076Y367092D01*
X232584Y368584D01*
X231776Y370535D01*
X231776Y371955D01*
X231773Y371978D01*
X231775Y372001D01*
X231760Y372097D01*
X231755Y372206D01*
X231741Y372253D01*
X231736Y372301D01*
X231726Y372330D01*
X231723Y372345D01*
X231693Y372423D01*
X231658Y372541D01*
X231635Y372583D01*
X231618Y372629D01*
X231598Y372661D01*
X231594Y372669D01*
X231565Y372712D01*
X231550Y372735D01*
X231488Y372845D01*
X231449Y372892D01*
X231429Y372922D01*
X231398Y372952D01*
X231396Y372955D01*
X231391Y372959D01*
X231330Y373032D01*
X227730Y376632D01*
X225800Y378562D01*
X225779Y378578D01*
X225762Y378598D01*
X225643Y378686D01*
X225527Y378778D01*
X225503Y378789D01*
X225482Y378805D01*
X225346Y378864D01*
X225212Y378927D01*
X225186Y378933D01*
X225162Y378943D01*
X225016Y378969D01*
X224871Y379001D01*
X224845Y379000D01*
X224819Y379005D01*
X224670Y378997D01*
X224522Y378995D01*
X224497Y378988D01*
X224471Y378987D01*
X224328Y378946D01*
X224184Y378910D01*
X224161Y378898D01*
X224136Y378890D01*
X224006Y378818D01*
X223875Y378750D01*
X223855Y378733D01*
X223832Y378720D01*
X223645Y378562D01*
X221666Y376582D01*
X214090Y376582D01*
X208734Y381939D01*
X208734Y389515D01*
X210713Y391494D01*
X210729Y391515D01*
X210749Y391532D01*
X210837Y391651D01*
X210929Y391767D01*
X210941Y391791D01*
X210956Y391812D01*
X211015Y391948D01*
X211078Y392082D01*
X211084Y392108D01*
X211094Y392132D01*
X211121Y392278D01*
X211152Y392423D01*
X211151Y392449D01*
X211156Y392475D01*
X211148Y392624D01*
X211146Y392771D01*
X211139Y392797D01*
X211138Y392823D01*
X211097Y392966D01*
X211061Y393109D01*
X211049Y393133D01*
X211042Y393158D01*
X210969Y393288D01*
X210901Y393419D01*
X210884Y393439D01*
X210871Y393462D01*
X210713Y393648D01*
X208783Y395578D01*
X178373Y425989D01*
X178373Y440965D01*
X178358Y441091D01*
X178352Y441217D01*
X178338Y441264D01*
X178333Y441312D01*
X178290Y441431D01*
X178255Y441552D01*
X178232Y441594D01*
X178215Y441640D01*
X178147Y441746D01*
X178085Y441856D01*
X178046Y441902D01*
X178026Y441932D01*
X177991Y441966D01*
X177926Y442042D01*
X176923Y443046D01*
X176115Y444997D01*
X176115Y447108D01*
X176923Y449059D01*
X178415Y450551D01*
X180366Y451359D01*
X182527Y451359D01*
X182652Y451374D01*
X182778Y451380D01*
X182825Y451394D01*
X182873Y451399D01*
X182992Y451442D01*
X183113Y451477D01*
X183155Y451500D01*
X183201Y451517D01*
X183307Y451585D01*
X183417Y451647D01*
X183464Y451686D01*
X183494Y451706D01*
X183527Y451740D01*
X183604Y451805D01*
X185112Y453313D01*
X185174Y453392D01*
X185244Y453464D01*
X185282Y453528D01*
X185328Y453586D01*
X185371Y453677D01*
X185423Y453763D01*
X185446Y453834D01*
X185477Y453902D01*
X185498Y454000D01*
X185529Y454095D01*
X185535Y454170D01*
X185551Y454242D01*
X185549Y454343D01*
X185557Y454443D01*
X185546Y454516D01*
X185545Y454591D01*
X185520Y454688D01*
X185505Y454787D01*
X185478Y454857D01*
X185460Y454929D01*
X185414Y455018D01*
X185377Y455111D01*
X185334Y455172D01*
X185300Y455238D01*
X185235Y455315D01*
X185178Y455397D01*
X185123Y455447D01*
X185074Y455504D01*
X184993Y455564D01*
X184919Y455631D01*
X184854Y455667D01*
X184794Y455711D01*
X184702Y455751D01*
X184614Y455799D01*
X184542Y455820D01*
X184474Y455849D01*
X184375Y455867D01*
X184279Y455894D01*
X184179Y455902D01*
X184131Y455911D01*
X184095Y455909D01*
X184035Y455914D01*
X174665Y455914D01*
X173772Y456807D01*
X173772Y459703D01*
X173755Y459852D01*
X173742Y460002D01*
X173735Y460026D01*
X173732Y460049D01*
X173682Y460190D01*
X173635Y460334D01*
X173623Y460355D01*
X173615Y460378D01*
X173533Y460504D01*
X173456Y460633D01*
X173439Y460650D01*
X173426Y460670D01*
X173317Y460775D01*
X173213Y460883D01*
X173192Y460896D01*
X173175Y460913D01*
X173046Y460990D01*
X172919Y461071D01*
X172897Y461079D01*
X172876Y461091D01*
X172733Y461137D01*
X172591Y461188D01*
X172567Y461190D01*
X172544Y461198D01*
X172394Y461210D01*
X172245Y461226D01*
X172221Y461224D01*
X172196Y461226D01*
X172048Y461203D01*
X171899Y461186D01*
X171871Y461177D01*
X171852Y461174D01*
X171808Y461156D01*
X171666Y461110D01*
X170240Y460520D01*
X168129Y460520D01*
X166178Y461328D01*
X164685Y462820D01*
X163878Y464771D01*
X163878Y466882D01*
X164685Y468833D01*
X166178Y470325D01*
X168000Y471080D01*
X168041Y471103D01*
X168081Y471117D01*
X168157Y471166D01*
X168265Y471222D01*
X168284Y471238D01*
X168305Y471249D01*
X168351Y471292D01*
X168374Y471306D01*
X168418Y471352D01*
X168531Y471448D01*
X168545Y471467D01*
X168563Y471483D01*
X168607Y471548D01*
X168616Y471557D01*
X168631Y471582D01*
X168649Y471607D01*
X168738Y471728D01*
X168747Y471750D01*
X168761Y471770D01*
X168816Y471910D01*
X168876Y472048D01*
X168880Y472072D01*
X168889Y472094D01*
X168911Y472243D01*
X168937Y472391D01*
X168936Y472415D01*
X168940Y472439D01*
X168927Y472589D01*
X168919Y472739D01*
X168913Y472762D01*
X168911Y472786D01*
X168864Y472930D01*
X168823Y473074D01*
X168811Y473095D01*
X168804Y473118D01*
X168726Y473247D01*
X168653Y473378D01*
X168634Y473400D01*
X168624Y473417D01*
X168591Y473451D01*
X168494Y473564D01*
X167696Y474363D01*
X166073Y475985D01*
X165974Y476064D01*
X165880Y476149D01*
X165838Y476172D01*
X165800Y476202D01*
X165686Y476256D01*
X165575Y476317D01*
X165529Y476330D01*
X165485Y476351D01*
X165362Y476378D01*
X165240Y476412D01*
X165179Y476417D01*
X165144Y476424D01*
X165096Y476424D01*
X164996Y476432D01*
X162786Y476432D01*
X162660Y476417D01*
X162534Y476411D01*
X162487Y476397D01*
X162439Y476392D01*
X162320Y476349D01*
X162199Y476314D01*
X162157Y476291D01*
X162111Y476274D01*
X162005Y476206D01*
X161895Y476144D01*
X161849Y476105D01*
X161818Y476085D01*
X161785Y476050D01*
X161708Y475985D01*
X158041Y472318D01*
X158024Y472297D01*
X158004Y472280D01*
X157916Y472161D01*
X157824Y472045D01*
X157813Y472021D01*
X157797Y472000D01*
X157739Y471864D01*
X157675Y471730D01*
X157670Y471704D01*
X157659Y471680D01*
X157633Y471534D01*
X157602Y471389D01*
X157602Y471363D01*
X157598Y471337D01*
X157605Y471188D01*
X157608Y471041D01*
X157614Y471015D01*
X157616Y470989D01*
X157657Y470846D01*
X157693Y470703D01*
X157705Y470679D01*
X157712Y470654D01*
X157735Y470614D01*
X157735Y459207D01*
X156841Y458313D01*
X144578Y458313D01*
X143880Y459011D01*
X143840Y459043D01*
X143806Y459081D01*
X143705Y459151D01*
X143607Y459228D01*
X143561Y459250D01*
X143519Y459279D01*
X143404Y459324D01*
X143292Y459377D01*
X143242Y459388D01*
X143195Y459406D01*
X143072Y459424D01*
X142952Y459450D01*
X142901Y459449D01*
X142850Y459457D01*
X142727Y459446D01*
X142603Y459444D01*
X142554Y459432D01*
X142503Y459428D01*
X142385Y459389D01*
X142265Y459359D01*
X142220Y459336D01*
X142171Y459320D01*
X142065Y459256D01*
X141955Y459200D01*
X141916Y459167D01*
X141873Y459140D01*
X141784Y459054D01*
X141690Y458974D01*
X141660Y458933D01*
X141623Y458897D01*
X141484Y458696D01*
X141243Y458278D01*
X140770Y457805D01*
X140190Y457471D01*
X139544Y457297D01*
X136209Y457297D01*
X136209Y463862D01*
X136206Y463888D01*
X136208Y463914D01*
X136186Y464061D01*
X136169Y464208D01*
X136160Y464233D01*
X136156Y464259D01*
X136102Y464397D01*
X136052Y464536D01*
X136037Y464558D01*
X136028Y464583D01*
X135943Y464704D01*
X135863Y464829D01*
X135850Y464841D01*
X135895Y464888D01*
X135909Y464911D01*
X135926Y464930D01*
X135998Y465060D01*
X136074Y465187D01*
X136082Y465212D01*
X136095Y465235D01*
X136135Y465378D01*
X136180Y465519D01*
X136182Y465545D01*
X136189Y465571D01*
X136209Y465814D01*
X136209Y472379D01*
X139544Y472379D01*
X140190Y472206D01*
X140770Y471871D01*
X141243Y471398D01*
X141484Y470980D01*
X141514Y470940D01*
X141538Y470894D01*
X141618Y470800D01*
X141692Y470701D01*
X141731Y470668D01*
X141764Y470629D01*
X141863Y470555D01*
X141958Y470475D01*
X142003Y470452D01*
X142044Y470422D01*
X142157Y470373D01*
X142268Y470316D01*
X142317Y470304D01*
X142364Y470284D01*
X142486Y470262D01*
X142606Y470232D01*
X142657Y470231D01*
X142707Y470222D01*
X142831Y470228D01*
X142954Y470226D01*
X143004Y470237D01*
X143055Y470240D01*
X143174Y470274D01*
X143295Y470300D01*
X143341Y470322D01*
X143390Y470336D01*
X143498Y470397D01*
X143610Y470450D01*
X143650Y470482D01*
X143694Y470507D01*
X143880Y470665D01*
X144578Y471363D01*
X149314Y471363D01*
X149440Y471377D01*
X149566Y471384D01*
X149612Y471397D01*
X149660Y471403D01*
X149779Y471445D01*
X149901Y471480D01*
X149943Y471504D01*
X149988Y471520D01*
X150094Y471589D01*
X150205Y471651D01*
X150251Y471690D01*
X150281Y471709D01*
X150315Y471744D01*
X150391Y471809D01*
X158138Y479556D01*
X158216Y479655D01*
X158301Y479749D01*
X158325Y479791D01*
X158355Y479829D01*
X158409Y479943D01*
X158470Y480054D01*
X158483Y480100D01*
X158503Y480144D01*
X158530Y480267D01*
X158564Y480389D01*
X158569Y480450D01*
X158577Y480485D01*
X158576Y480533D01*
X158584Y480633D01*
X158584Y482894D01*
X158588Y482908D01*
X158592Y482984D01*
X158605Y483060D01*
X158600Y483158D01*
X158601Y483165D01*
X158603Y483198D01*
X158603Y483203D01*
X158605Y483256D01*
X158591Y483331D01*
X158588Y483408D01*
X158560Y483502D01*
X158543Y483599D01*
X158512Y483669D01*
X158491Y483743D01*
X158443Y483828D01*
X158404Y483918D01*
X158358Y483980D01*
X158321Y484047D01*
X158224Y484160D01*
X158196Y484198D01*
X158182Y484210D01*
X158162Y484233D01*
X157042Y485353D01*
X157042Y487247D01*
X157807Y488012D01*
X157870Y488091D01*
X157940Y488163D01*
X157978Y488227D01*
X158024Y488285D01*
X158067Y488376D01*
X158118Y488462D01*
X158141Y488533D01*
X158173Y488601D01*
X158194Y488699D01*
X158225Y488794D01*
X158231Y488869D01*
X158246Y488941D01*
X158244Y489042D01*
X158253Y489142D01*
X158242Y489215D01*
X158240Y489290D01*
X158216Y489387D01*
X158201Y489486D01*
X158173Y489556D01*
X158155Y489628D01*
X158109Y489717D01*
X158072Y489810D01*
X158030Y489871D01*
X157996Y489937D01*
X157931Y490014D01*
X157873Y490096D01*
X157818Y490146D01*
X157770Y490203D01*
X157689Y490263D01*
X157614Y490330D01*
X157549Y490366D01*
X157490Y490410D01*
X157397Y490450D01*
X157309Y490498D01*
X157238Y490519D01*
X157169Y490548D01*
X157071Y490566D01*
X156974Y490593D01*
X156874Y490601D01*
X156826Y490610D01*
X156791Y490608D01*
X156730Y490613D01*
X149663Y490613D01*
X149514Y490596D01*
X149364Y490583D01*
X149341Y490576D01*
X149317Y490573D01*
X149176Y490522D01*
X149032Y490476D01*
X149012Y490464D01*
X148989Y490455D01*
X148862Y490374D01*
X148734Y490296D01*
X148716Y490280D01*
X148696Y490266D01*
X148591Y490158D01*
X148484Y490053D01*
X148471Y490033D01*
X148454Y490016D01*
X148376Y489886D01*
X148296Y489760D01*
X148287Y489737D01*
X148275Y489717D01*
X148229Y489574D01*
X148179Y489432D01*
X148176Y489408D01*
X148169Y489385D01*
X148157Y489235D01*
X148140Y489085D01*
X148143Y489061D01*
X148141Y489037D01*
X148163Y488888D01*
X148181Y488739D01*
X148190Y488712D01*
X148193Y488693D01*
X148210Y488649D01*
X148256Y488507D01*
X148513Y487887D01*
X148513Y485776D01*
X147705Y483825D01*
X146212Y482333D01*
X144261Y481525D01*
X142150Y481525D01*
X140200Y482333D01*
X138711Y483822D01*
X138612Y483900D01*
X138518Y483985D01*
X138475Y484008D01*
X138438Y484038D01*
X138323Y484092D01*
X138213Y484153D01*
X138166Y484167D01*
X138123Y484187D01*
X137999Y484214D01*
X137877Y484248D01*
X137817Y484253D01*
X137782Y484261D01*
X137734Y484260D01*
X137634Y484268D01*
X136835Y484268D01*
X136709Y484253D01*
X136583Y484247D01*
X136536Y484234D01*
X136488Y484228D01*
X136369Y484185D01*
X136248Y484150D01*
X136206Y484127D01*
X136160Y484111D01*
X136054Y484042D01*
X135944Y483980D01*
X135898Y483941D01*
X135868Y483921D01*
X135834Y483887D01*
X135758Y483822D01*
X135741Y483806D01*
X134421Y483806D01*
X134395Y483803D01*
X134369Y483805D01*
X134222Y483783D01*
X134075Y483766D01*
X134050Y483757D01*
X134024Y483753D01*
X133886Y483698D01*
X133747Y483648D01*
X133725Y483634D01*
X133700Y483624D01*
X133579Y483540D01*
X133454Y483459D01*
X133436Y483440D01*
X133414Y483425D01*
X133315Y483315D01*
X133212Y483209D01*
X133198Y483186D01*
X133181Y483167D01*
X133109Y483037D01*
X133033Y482909D01*
X133025Y482885D01*
X133012Y482862D01*
X132972Y482719D01*
X132927Y482578D01*
X132925Y482551D01*
X132917Y482526D01*
X132898Y482282D01*
X132898Y476906D01*
X131112Y475120D01*
X130971Y474979D01*
X130909Y474901D01*
X130839Y474828D01*
X130801Y474765D01*
X130754Y474706D01*
X130712Y474616D01*
X130660Y474529D01*
X130637Y474459D01*
X130606Y474391D01*
X130584Y474293D01*
X130554Y474197D01*
X130548Y474123D01*
X130532Y474051D01*
X130534Y473950D01*
X130526Y473850D01*
X130537Y473777D01*
X130538Y473702D01*
X130563Y473605D01*
X130577Y473505D01*
X130605Y473436D01*
X130623Y473364D01*
X130669Y473275D01*
X130706Y473181D01*
X130749Y473120D01*
X130783Y473054D01*
X130848Y472978D01*
X130905Y472895D01*
X130960Y472846D01*
X131008Y472789D01*
X131089Y472729D01*
X131164Y472662D01*
X131210Y472636D01*
X131210Y467337D01*
X125542Y467337D01*
X125512Y467423D01*
X125497Y467445D01*
X125488Y467470D01*
X125403Y467591D01*
X125323Y467716D01*
X125304Y467734D01*
X125289Y467756D01*
X125179Y467855D01*
X125072Y467958D01*
X125049Y467972D01*
X125030Y467989D01*
X124900Y468061D01*
X124773Y468137D01*
X124748Y468145D01*
X124725Y468158D01*
X124582Y468198D01*
X124441Y468243D01*
X124415Y468245D01*
X124390Y468252D01*
X124146Y468272D01*
X122369Y468272D01*
X120584Y470057D01*
X120584Y470058D01*
X112631Y478010D01*
X112317Y478324D01*
X112239Y478386D01*
X112166Y478456D01*
X112103Y478494D01*
X112044Y478541D01*
X111954Y478584D01*
X111867Y478635D01*
X111797Y478658D01*
X111729Y478689D01*
X111631Y478711D01*
X111535Y478741D01*
X111461Y478747D01*
X111389Y478763D01*
X111288Y478761D01*
X111188Y478769D01*
X111115Y478758D01*
X111040Y478757D01*
X110943Y478732D01*
X110843Y478718D01*
X110774Y478690D01*
X110702Y478672D01*
X110613Y478626D01*
X110519Y478589D01*
X110458Y478546D01*
X110392Y478512D01*
X110316Y478447D01*
X110233Y478390D01*
X110184Y478335D01*
X110127Y478286D01*
X110067Y478206D01*
X110000Y478131D01*
X109964Y478066D01*
X109920Y478006D01*
X109880Y477914D01*
X109831Y477826D01*
X109811Y477755D01*
X109782Y477686D01*
X109764Y477587D01*
X109737Y477491D01*
X109729Y477390D01*
X109720Y477343D01*
X109722Y477308D01*
X109717Y477247D01*
X109717Y448031D01*
X109731Y447905D01*
X109738Y447779D01*
X109751Y447733D01*
X109757Y447685D01*
X109799Y447566D01*
X109834Y447444D01*
X109858Y447402D01*
X109874Y447357D01*
X109943Y447250D01*
X110005Y447140D01*
X110044Y447094D01*
X110063Y447064D01*
X110098Y447030D01*
X110163Y446954D01*
X157227Y399890D01*
X157326Y399811D01*
X157420Y399727D01*
X157462Y399703D01*
X157500Y399673D01*
X157614Y399619D01*
X157725Y399558D01*
X157771Y399545D01*
X157815Y399524D01*
X157938Y399498D01*
X158060Y399463D01*
X158121Y399459D01*
X158156Y399451D01*
X158204Y399452D01*
X158304Y399444D01*
X173021Y399444D01*
X173170Y399461D01*
X173321Y399474D01*
X173344Y399481D01*
X173367Y399484D01*
X173509Y399534D01*
X173652Y399581D01*
X173673Y399593D01*
X173696Y399601D01*
X173822Y399683D01*
X173951Y399760D01*
X173968Y399777D01*
X173988Y399790D01*
X174093Y399898D01*
X174201Y400003D01*
X174214Y400024D01*
X174231Y400041D01*
X174307Y400169D01*
X174389Y400297D01*
X174397Y400319D01*
X174409Y400340D01*
X174455Y400483D01*
X174506Y400625D01*
X174508Y400649D01*
X174516Y400672D01*
X174528Y400822D01*
X174544Y400971D01*
X174542Y400995D01*
X174544Y401019D01*
X174521Y401168D01*
X174504Y401317D01*
X174495Y401345D01*
X174492Y401364D01*
X174474Y401408D01*
X174430Y401546D01*
X174430Y403658D01*
X175238Y405609D01*
X176730Y407101D01*
X178681Y407909D01*
X180792Y407909D01*
X182743Y407101D01*
X184235Y405609D01*
X185043Y403658D01*
X185043Y401497D01*
X185058Y401372D01*
X185064Y401246D01*
X185078Y401199D01*
X185083Y401151D01*
X185126Y401032D01*
X185161Y400911D01*
X185184Y400869D01*
X185201Y400823D01*
X185269Y400717D01*
X185331Y400607D01*
X185370Y400560D01*
X185390Y400530D01*
X185424Y400497D01*
X185489Y400420D01*
X187068Y398842D01*
X187167Y398763D01*
X187260Y398679D01*
X187303Y398655D01*
X187341Y398625D01*
X187455Y398571D01*
X187566Y398510D01*
X187612Y398497D01*
X187656Y398476D01*
X187779Y398450D01*
X187901Y398415D01*
X187962Y398411D01*
X187996Y398403D01*
X188044Y398404D01*
X188145Y398396D01*
X197726Y398396D01*
X205147Y390975D01*
X205147Y381393D01*
X205162Y381268D01*
X205168Y381142D01*
X205181Y381095D01*
X205187Y381047D01*
X205230Y380928D01*
X205265Y380807D01*
X205288Y380765D01*
X205304Y380719D01*
X205373Y380613D01*
X205435Y380503D01*
X205474Y380456D01*
X205494Y380426D01*
X205528Y380393D01*
X205593Y380316D01*
X212468Y373442D01*
X212567Y373363D01*
X212660Y373279D01*
X212703Y373255D01*
X212741Y373225D01*
X212855Y373171D01*
X212966Y373110D01*
X213012Y373097D01*
X213056Y373076D01*
X213179Y373050D01*
X213301Y373015D01*
X213362Y373011D01*
X213396Y373003D01*
X213444Y373004D01*
X213545Y372996D01*
X223126Y372996D01*
X230703Y365419D01*
X230703Y363540D01*
X230714Y363440D01*
X230716Y363340D01*
X230734Y363268D01*
X230742Y363194D01*
X230776Y363100D01*
X230801Y363002D01*
X230835Y362936D01*
X230860Y362866D01*
X230914Y362781D01*
X230960Y362692D01*
X231009Y362636D01*
X231049Y362573D01*
X231121Y362503D01*
X231186Y362427D01*
X231246Y362383D01*
X231300Y362331D01*
X231386Y362279D01*
X231467Y362220D01*
X231535Y362190D01*
X231599Y362152D01*
X231694Y362121D01*
X231787Y362082D01*
X231860Y362068D01*
X231931Y362046D01*
X232031Y362038D01*
X232130Y362020D01*
X232204Y362024D01*
X232278Y362018D01*
X232377Y362033D01*
G37*
G36*
X217825Y399455D02*
X217825Y399455D01*
X217926Y399457D01*
X217998Y399475D01*
X218072Y399484D01*
X218166Y399518D01*
X218264Y399542D01*
X218330Y399576D01*
X218400Y399601D01*
X218484Y399656D01*
X218573Y399702D01*
X218630Y399750D01*
X218692Y399790D01*
X218762Y399862D01*
X218839Y399928D01*
X218883Y399987D01*
X218935Y400041D01*
X218986Y400127D01*
X219046Y400208D01*
X219075Y400276D01*
X219114Y400340D01*
X219144Y400436D01*
X219184Y400528D01*
X219197Y400601D01*
X219220Y400672D01*
X219228Y400772D01*
X219246Y400871D01*
X219242Y400945D01*
X219248Y401019D01*
X219233Y401119D01*
X219228Y401219D01*
X219207Y401290D01*
X219196Y401364D01*
X219159Y401457D01*
X219131Y401554D01*
X219095Y401619D01*
X219067Y401688D01*
X219010Y401770D01*
X218961Y401858D01*
X218896Y401934D01*
X218868Y401974D01*
X218842Y401998D01*
X218802Y402044D01*
X210761Y410086D01*
X210761Y445779D01*
X210746Y445904D01*
X210740Y446031D01*
X210726Y446077D01*
X210721Y446125D01*
X210678Y446244D01*
X210643Y446365D01*
X210620Y446408D01*
X210603Y446453D01*
X210535Y446559D01*
X210473Y446670D01*
X210434Y446716D01*
X210414Y446746D01*
X210380Y446779D01*
X210314Y446856D01*
X209311Y447860D01*
X208503Y449810D01*
X208503Y451921D01*
X209284Y453808D01*
X209325Y453952D01*
X209371Y454095D01*
X209373Y454119D01*
X209380Y454143D01*
X209387Y454293D01*
X209399Y454443D01*
X209395Y454467D01*
X209397Y454491D01*
X209370Y454639D01*
X209347Y454787D01*
X209338Y454810D01*
X209334Y454834D01*
X209274Y454972D01*
X209219Y455111D01*
X209205Y455131D01*
X209195Y455153D01*
X209105Y455274D01*
X209020Y455397D01*
X209002Y455414D01*
X208987Y455433D01*
X208872Y455530D01*
X208761Y455631D01*
X208740Y455643D01*
X208721Y455658D01*
X208588Y455727D01*
X208456Y455799D01*
X208433Y455806D01*
X208411Y455817D01*
X208265Y455853D01*
X208120Y455894D01*
X208091Y455897D01*
X208073Y455901D01*
X208026Y455902D01*
X207877Y455914D01*
X195484Y455914D01*
X195359Y455899D01*
X195232Y455893D01*
X195186Y455879D01*
X195138Y455874D01*
X195019Y455831D01*
X194897Y455796D01*
X194855Y455773D01*
X194810Y455756D01*
X194704Y455688D01*
X194593Y455626D01*
X194547Y455587D01*
X194517Y455567D01*
X194483Y455533D01*
X194407Y455468D01*
X187174Y448235D01*
X187096Y448136D01*
X187011Y448042D01*
X186988Y448000D01*
X186958Y447962D01*
X186904Y447848D01*
X186842Y447737D01*
X186829Y447690D01*
X186809Y447647D01*
X186782Y447523D01*
X186748Y447401D01*
X186743Y447341D01*
X186735Y447306D01*
X186736Y447258D01*
X186728Y447158D01*
X186728Y444997D01*
X185920Y443046D01*
X184916Y442042D01*
X184838Y441943D01*
X184753Y441850D01*
X184730Y441807D01*
X184700Y441769D01*
X184646Y441655D01*
X184584Y441545D01*
X184571Y441498D01*
X184551Y441454D01*
X184524Y441331D01*
X184490Y441209D01*
X184485Y441148D01*
X184477Y441114D01*
X184478Y441066D01*
X184470Y440965D01*
X184470Y429145D01*
X184485Y429020D01*
X184491Y428894D01*
X184504Y428847D01*
X184510Y428799D01*
X184553Y428680D01*
X184588Y428559D01*
X184611Y428517D01*
X184627Y428471D01*
X184696Y428365D01*
X184758Y428254D01*
X184797Y428208D01*
X184816Y428178D01*
X184851Y428145D01*
X184916Y428068D01*
X213094Y399890D01*
X213193Y399811D01*
X213287Y399727D01*
X213330Y399703D01*
X213367Y399673D01*
X213482Y399619D01*
X213592Y399558D01*
X213639Y399545D01*
X213683Y399524D01*
X213806Y399498D01*
X213928Y399463D01*
X213988Y399459D01*
X214023Y399451D01*
X214071Y399452D01*
X214172Y399444D01*
X217725Y399444D01*
X217825Y399455D01*
G37*
G36*
X175838Y495198D02*
X175838Y495198D01*
X175939Y495199D01*
X176011Y495218D01*
X176085Y495226D01*
X176179Y495260D01*
X176277Y495284D01*
X176343Y495319D01*
X176413Y495344D01*
X176497Y495398D01*
X176586Y495444D01*
X176643Y495492D01*
X176706Y495533D01*
X176775Y495605D01*
X176852Y495670D01*
X176896Y495730D01*
X176948Y495783D01*
X176999Y495870D01*
X177059Y495950D01*
X177088Y496019D01*
X177127Y496082D01*
X177157Y496178D01*
X177197Y496270D01*
X177210Y496344D01*
X177233Y496414D01*
X177241Y496514D01*
X177259Y496613D01*
X177255Y496688D01*
X177261Y496762D01*
X177246Y496861D01*
X177241Y496961D01*
X177220Y497033D01*
X177209Y497106D01*
X177172Y497200D01*
X177144Y497296D01*
X177108Y497361D01*
X177080Y497430D01*
X177023Y497513D01*
X176974Y497600D01*
X176909Y497677D01*
X176881Y497716D01*
X176855Y497740D01*
X176816Y497787D01*
X176263Y498339D01*
X175928Y498919D01*
X175755Y499565D01*
X175755Y499876D01*
X181795Y499876D01*
X181796Y499876D01*
X186923Y499876D01*
X186996Y499884D01*
X187070Y499883D01*
X187169Y499904D01*
X187270Y499916D01*
X187339Y499941D01*
X187411Y499956D01*
X187502Y499999D01*
X187598Y500033D01*
X187660Y500073D01*
X187726Y500105D01*
X187806Y500168D01*
X187891Y500222D01*
X187942Y500275D01*
X187999Y500321D01*
X188062Y500400D01*
X188133Y500473D01*
X188170Y500536D01*
X188216Y500594D01*
X188260Y500685D01*
X188312Y500772D01*
X188334Y500842D01*
X188365Y500909D01*
X188387Y501008D01*
X188418Y501104D01*
X188424Y501178D01*
X188439Y501249D01*
X188438Y501351D01*
X188446Y501452D01*
X188435Y501524D01*
X188434Y501598D01*
X188401Y501751D01*
X188394Y501796D01*
X188388Y501812D01*
X188382Y501837D01*
X188322Y501978D01*
X188265Y502120D01*
X188253Y502138D01*
X188245Y502158D01*
X188153Y502281D01*
X188066Y502407D01*
X188051Y502421D01*
X188038Y502438D01*
X187921Y502538D01*
X187808Y502640D01*
X187789Y502650D01*
X187773Y502664D01*
X187637Y502734D01*
X187502Y502808D01*
X187482Y502814D01*
X187463Y502824D01*
X187315Y502861D01*
X187167Y502903D01*
X187141Y502905D01*
X187125Y502909D01*
X187080Y502910D01*
X186923Y502923D01*
X181796Y502923D01*
X181795Y502923D01*
X175755Y502923D01*
X175755Y503255D01*
X175768Y503294D01*
X175778Y503418D01*
X175796Y503540D01*
X175792Y503591D01*
X175796Y503642D01*
X175777Y503764D01*
X175767Y503887D01*
X175752Y503936D01*
X175744Y503986D01*
X175698Y504101D01*
X175660Y504219D01*
X175634Y504263D01*
X175615Y504310D01*
X175545Y504412D01*
X175481Y504518D01*
X175445Y504555D01*
X175416Y504596D01*
X175325Y504679D01*
X175238Y504768D01*
X175195Y504796D01*
X175158Y504830D01*
X175049Y504890D01*
X174945Y504957D01*
X174897Y504974D01*
X174852Y504998D01*
X174733Y505032D01*
X174617Y505073D01*
X174566Y505079D01*
X174517Y505093D01*
X174273Y505113D01*
X166517Y505113D01*
X163373Y508257D01*
X163274Y508335D01*
X163180Y508420D01*
X163138Y508443D01*
X163100Y508473D01*
X162986Y508527D01*
X162875Y508589D01*
X162828Y508602D01*
X162785Y508622D01*
X162661Y508649D01*
X162540Y508683D01*
X162479Y508688D01*
X162444Y508696D01*
X162396Y508695D01*
X162296Y508703D01*
X148382Y508703D01*
X148233Y508686D01*
X148083Y508673D01*
X148060Y508666D01*
X148036Y508663D01*
X147894Y508612D01*
X147751Y508566D01*
X147730Y508554D01*
X147708Y508546D01*
X147581Y508464D01*
X147452Y508386D01*
X147435Y508370D01*
X147415Y508357D01*
X147310Y508248D01*
X147202Y508144D01*
X147189Y508123D01*
X147173Y508106D01*
X147095Y507977D01*
X147014Y507850D01*
X147006Y507828D01*
X146994Y507807D01*
X146948Y507664D01*
X146898Y507522D01*
X146895Y507498D01*
X146888Y507475D01*
X146876Y507325D01*
X146859Y507175D01*
X146862Y507151D01*
X146860Y507128D01*
X146866Y507083D01*
X146866Y504747D01*
X146058Y502797D01*
X144566Y501304D01*
X142615Y500496D01*
X140504Y500496D01*
X138554Y501304D01*
X137061Y502797D01*
X136253Y504747D01*
X136253Y506858D01*
X137061Y508809D01*
X138554Y510302D01*
X140504Y511110D01*
X142715Y511110D01*
X142729Y511106D01*
X142805Y511102D01*
X142881Y511088D01*
X142979Y511093D01*
X143077Y511089D01*
X143152Y511102D01*
X143229Y511106D01*
X143323Y511133D01*
X143420Y511151D01*
X143490Y511182D01*
X143564Y511203D01*
X143649Y511251D01*
X143739Y511290D01*
X143801Y511336D01*
X143868Y511373D01*
X143981Y511469D01*
X144019Y511498D01*
X144032Y511512D01*
X144054Y511531D01*
X145799Y513276D01*
X164821Y513276D01*
X167965Y510132D01*
X168064Y510054D01*
X168158Y509969D01*
X168200Y509946D01*
X168238Y509916D01*
X168352Y509862D01*
X168463Y509801D01*
X168510Y509787D01*
X168553Y509767D01*
X168677Y509740D01*
X168799Y509706D01*
X168859Y509701D01*
X168894Y509693D01*
X168942Y509694D01*
X169042Y509686D01*
X174273Y509686D01*
X174324Y509692D01*
X174375Y509690D01*
X174497Y509712D01*
X174620Y509726D01*
X174668Y509743D01*
X174718Y509753D01*
X174831Y509802D01*
X174948Y509844D01*
X174991Y509871D01*
X175037Y509892D01*
X175136Y509966D01*
X175240Y510033D01*
X175276Y510069D01*
X175317Y510100D01*
X175397Y510194D01*
X175483Y510283D01*
X175509Y510327D01*
X175542Y510366D01*
X175598Y510476D01*
X175661Y510582D01*
X175677Y510631D01*
X175700Y510676D01*
X175730Y510796D01*
X175768Y510914D01*
X175772Y510965D01*
X175784Y511015D01*
X175786Y511139D01*
X175796Y511262D01*
X175788Y511312D01*
X175789Y511363D01*
X175755Y511547D01*
X175755Y511876D01*
X181795Y511876D01*
X181822Y511879D01*
X181848Y511877D01*
X181994Y511899D01*
X182142Y511916D01*
X182166Y511925D01*
X182192Y511929D01*
X182330Y511983D01*
X182470Y512033D01*
X182492Y512048D01*
X182516Y512057D01*
X182638Y512142D01*
X182763Y512222D01*
X182781Y512241D01*
X182802Y512256D01*
X182901Y512366D01*
X183005Y512473D01*
X183018Y512496D01*
X183036Y512515D01*
X183108Y512645D01*
X183184Y512772D01*
X183192Y512797D01*
X183204Y512820D01*
X183245Y512963D01*
X183290Y513104D01*
X183292Y513130D01*
X183299Y513156D01*
X183319Y513399D01*
X183319Y513400D01*
X183316Y513426D01*
X183318Y513452D01*
X183296Y513599D01*
X183279Y513746D01*
X183270Y513770D01*
X183266Y513796D01*
X183211Y513934D01*
X183161Y514074D01*
X183147Y514096D01*
X183137Y514120D01*
X183053Y514242D01*
X182972Y514367D01*
X182953Y514385D01*
X182938Y514407D01*
X182829Y514506D01*
X182722Y514609D01*
X182699Y514622D01*
X182680Y514640D01*
X182550Y514712D01*
X182423Y514788D01*
X182398Y514796D01*
X182375Y514808D01*
X182232Y514849D01*
X182091Y514894D01*
X182064Y514896D01*
X182039Y514903D01*
X181795Y514923D01*
X175755Y514923D01*
X175755Y515234D01*
X175928Y515880D01*
X176263Y516460D01*
X176816Y517012D01*
X176878Y517091D01*
X176948Y517163D01*
X176986Y517227D01*
X177032Y517285D01*
X177075Y517376D01*
X177127Y517462D01*
X177149Y517533D01*
X177181Y517600D01*
X177202Y517699D01*
X177233Y517794D01*
X177239Y517868D01*
X177254Y517941D01*
X177253Y518042D01*
X177261Y518142D01*
X177250Y518215D01*
X177248Y518290D01*
X177224Y518387D01*
X177209Y518486D01*
X177182Y518556D01*
X177163Y518628D01*
X177117Y518717D01*
X177080Y518810D01*
X177038Y518871D01*
X177004Y518937D01*
X176939Y519014D01*
X176881Y519096D01*
X176826Y519146D01*
X176778Y519203D01*
X176697Y519263D01*
X176623Y519330D01*
X176558Y519366D01*
X176498Y519410D01*
X176406Y519450D01*
X176318Y519498D01*
X176246Y519519D01*
X176178Y519548D01*
X176079Y519566D01*
X175982Y519593D01*
X175882Y519601D01*
X175835Y519610D01*
X175799Y519608D01*
X175738Y519613D01*
X139407Y519613D01*
X139281Y519598D01*
X139155Y519592D01*
X139109Y519578D01*
X139061Y519573D01*
X138942Y519530D01*
X138820Y519495D01*
X138778Y519472D01*
X138733Y519455D01*
X138626Y519387D01*
X138516Y519325D01*
X138470Y519286D01*
X138440Y519266D01*
X138406Y519232D01*
X138330Y519167D01*
X129639Y510476D01*
X129561Y510377D01*
X129476Y510283D01*
X129453Y510241D01*
X129423Y510203D01*
X129369Y510089D01*
X129307Y509978D01*
X129294Y509931D01*
X129274Y509888D01*
X129247Y509764D01*
X129213Y509642D01*
X129208Y509582D01*
X129200Y509547D01*
X129201Y509499D01*
X129193Y509399D01*
X129193Y496709D01*
X129196Y496683D01*
X129194Y496657D01*
X129216Y496511D01*
X129233Y496363D01*
X129242Y496339D01*
X129246Y496313D01*
X129300Y496175D01*
X129350Y496035D01*
X129365Y496013D01*
X129374Y495989D01*
X129459Y495867D01*
X129539Y495742D01*
X129558Y495724D01*
X129573Y495703D01*
X129683Y495604D01*
X129790Y495500D01*
X129813Y495487D01*
X129832Y495469D01*
X129962Y495397D01*
X130089Y495321D01*
X130114Y495313D01*
X130137Y495301D01*
X130280Y495260D01*
X130421Y495215D01*
X130447Y495213D01*
X130472Y495206D01*
X130716Y495186D01*
X175738Y495186D01*
X175838Y495198D01*
G37*
%LPC*%
G36*
X28385Y503964D02*
X28385Y503964D01*
X28385Y515879D01*
X30247Y515380D01*
X32093Y514615D01*
X33823Y513616D01*
X35409Y512400D01*
X36821Y510987D01*
X38037Y509403D01*
X38141Y509295D01*
X38242Y509184D01*
X38262Y509170D01*
X38279Y509152D01*
X38405Y509071D01*
X38529Y508986D01*
X38552Y508977D01*
X38572Y508964D01*
X38714Y508913D01*
X38854Y508858D01*
X38877Y508855D01*
X38900Y508846D01*
X39050Y508829D01*
X39198Y508808D01*
X39223Y508810D01*
X39247Y508807D01*
X39396Y508824D01*
X39546Y508837D01*
X39569Y508844D01*
X39593Y508847D01*
X39734Y508898D01*
X39877Y508944D01*
X39898Y508957D01*
X39921Y508965D01*
X40047Y509046D01*
X40176Y509124D01*
X40193Y509141D01*
X40213Y509154D01*
X40317Y509262D01*
X40426Y509367D01*
X40442Y509391D01*
X40455Y509405D01*
X40479Y509445D01*
X40564Y509568D01*
X41489Y511170D01*
X42651Y512684D01*
X42651Y512685D01*
X42959Y513085D01*
X44665Y514792D01*
X46581Y516262D01*
X48671Y517469D01*
X49105Y517648D01*
X49192Y517697D01*
X49285Y517737D01*
X49344Y517781D01*
X49409Y517817D01*
X49484Y517885D01*
X49564Y517945D01*
X49612Y518002D01*
X49667Y518052D01*
X49725Y518134D01*
X49789Y518211D01*
X49823Y518277D01*
X49866Y518338D01*
X49902Y518432D01*
X49948Y518521D01*
X49966Y518593D01*
X49993Y518662D01*
X50008Y518762D01*
X50032Y518859D01*
X50033Y518934D01*
X50044Y519007D01*
X50036Y519107D01*
X50037Y519208D01*
X50021Y519280D01*
X50015Y519355D01*
X49984Y519450D01*
X49963Y519548D01*
X49931Y519615D01*
X49908Y519686D01*
X49856Y519772D01*
X49813Y519863D01*
X49767Y519921D01*
X49729Y519985D01*
X49659Y520057D01*
X49596Y520135D01*
X49538Y520181D01*
X49486Y520235D01*
X49401Y520289D01*
X49322Y520351D01*
X49233Y520397D01*
X49192Y520423D01*
X49159Y520435D01*
X49105Y520463D01*
X48250Y520817D01*
X46160Y522024D01*
X44245Y523493D01*
X42538Y525200D01*
X41068Y527115D01*
X40143Y528717D01*
X40054Y528838D01*
X39968Y528961D01*
X39950Y528977D01*
X39936Y528997D01*
X39821Y529094D01*
X39710Y529195D01*
X39688Y529206D01*
X39670Y529222D01*
X39537Y529290D01*
X39405Y529363D01*
X39381Y529370D01*
X39360Y529381D01*
X39214Y529418D01*
X39069Y529459D01*
X39045Y529460D01*
X39022Y529466D01*
X38871Y529468D01*
X38721Y529475D01*
X38698Y529470D01*
X38673Y529471D01*
X38526Y529439D01*
X38379Y529412D01*
X38356Y529402D01*
X38333Y529397D01*
X38196Y529332D01*
X38059Y529272D01*
X38040Y529258D01*
X38018Y529247D01*
X37900Y529154D01*
X37780Y529064D01*
X37760Y529042D01*
X37745Y529030D01*
X37716Y528993D01*
X37616Y528882D01*
X37128Y528246D01*
X36400Y527298D01*
X34988Y525885D01*
X33402Y524669D01*
X31672Y523670D01*
X29826Y522906D01*
X27964Y522407D01*
X27964Y534321D01*
X53366Y534321D01*
X53366Y520772D01*
X53380Y520647D01*
X53386Y520521D01*
X53400Y520474D01*
X53406Y520425D01*
X53448Y520307D01*
X53483Y520186D01*
X53507Y520143D01*
X53523Y520097D01*
X53591Y519992D01*
X53653Y519882D01*
X53686Y519846D01*
X53712Y519804D01*
X53787Y519732D01*
X53787Y503964D01*
X28385Y503964D01*
G37*
%LPD*%
%LPC*%
G36*
X322227Y481006D02*
X322227Y481006D01*
X322227Y496132D01*
X322781Y496060D01*
X325112Y495435D01*
X327343Y494511D01*
X329433Y493304D01*
X331349Y491834D01*
X333055Y490127D01*
X334525Y488212D01*
X335450Y486611D01*
X335539Y486490D01*
X335625Y486367D01*
X335643Y486350D01*
X335657Y486331D01*
X335772Y486234D01*
X335884Y486133D01*
X335905Y486121D01*
X335923Y486106D01*
X336057Y486037D01*
X336188Y485964D01*
X336212Y485957D01*
X336233Y485946D01*
X336379Y485910D01*
X336524Y485869D01*
X336548Y485868D01*
X336571Y485862D01*
X336722Y485860D01*
X336872Y485853D01*
X336896Y485857D01*
X336920Y485857D01*
X337067Y485889D01*
X337215Y485916D01*
X337237Y485926D01*
X337260Y485931D01*
X337396Y485995D01*
X337534Y486055D01*
X337553Y486070D01*
X337575Y486080D01*
X337693Y486174D01*
X337813Y486264D01*
X337833Y486285D01*
X337848Y486297D01*
X337877Y486334D01*
X337977Y486445D01*
X338241Y486789D01*
X339193Y488029D01*
X340606Y489442D01*
X342191Y490658D01*
X343921Y491657D01*
X345767Y492422D01*
X347629Y492921D01*
X347629Y481006D01*
X322227Y481006D01*
G37*
%LPD*%
%LPC*%
G36*
X322227Y395916D02*
X322227Y395916D01*
X322227Y411042D01*
X322781Y410970D01*
X325112Y410345D01*
X327343Y409421D01*
X329433Y408214D01*
X331349Y406744D01*
X333055Y405037D01*
X334525Y403122D01*
X335450Y401521D01*
X335539Y401400D01*
X335625Y401277D01*
X335643Y401260D01*
X335657Y401241D01*
X335772Y401144D01*
X335884Y401043D01*
X335905Y401031D01*
X335923Y401016D01*
X336057Y400947D01*
X336188Y400874D01*
X336212Y400867D01*
X336233Y400856D01*
X336379Y400820D01*
X336524Y400779D01*
X336548Y400778D01*
X336571Y400772D01*
X336722Y400770D01*
X336872Y400763D01*
X336896Y400767D01*
X336920Y400767D01*
X337067Y400799D01*
X337215Y400826D01*
X337237Y400836D01*
X337260Y400841D01*
X337396Y400905D01*
X337534Y400965D01*
X337553Y400980D01*
X337575Y400990D01*
X337693Y401084D01*
X337813Y401174D01*
X337833Y401195D01*
X337848Y401207D01*
X337877Y401244D01*
X337977Y401355D01*
X338078Y401487D01*
X338079Y401487D01*
X339193Y402939D01*
X340606Y404352D01*
X342191Y405568D01*
X343921Y406567D01*
X345767Y407332D01*
X347629Y407831D01*
X347629Y395916D01*
X322227Y395916D01*
G37*
%LPD*%
%LPC*%
G36*
X323214Y542394D02*
X323214Y542394D01*
X323214Y557520D01*
X323768Y557447D01*
X326099Y556822D01*
X328330Y555898D01*
X330421Y554691D01*
X332336Y553222D01*
X334043Y551515D01*
X335512Y549600D01*
X336437Y547998D01*
X336526Y547877D01*
X336612Y547754D01*
X336630Y547738D01*
X336644Y547718D01*
X336759Y547621D01*
X336871Y547520D01*
X336892Y547509D01*
X336910Y547493D01*
X337044Y547424D01*
X337176Y547351D01*
X337199Y547345D01*
X337220Y547334D01*
X337366Y547297D01*
X337511Y547256D01*
X337535Y547255D01*
X337558Y547249D01*
X337709Y547247D01*
X337859Y547240D01*
X337883Y547244D01*
X337907Y547244D01*
X338054Y547276D01*
X338202Y547303D01*
X338224Y547313D01*
X338248Y547318D01*
X338383Y547383D01*
X338521Y547443D01*
X338540Y547457D01*
X338562Y547468D01*
X338680Y547561D01*
X338800Y547651D01*
X338820Y547673D01*
X338835Y547685D01*
X338864Y547722D01*
X338964Y547833D01*
X340046Y549242D01*
X340046Y549243D01*
X340180Y549417D01*
X341593Y550829D01*
X343178Y552046D01*
X344908Y553045D01*
X346754Y553809D01*
X348616Y554308D01*
X348616Y542394D01*
X323214Y542394D01*
G37*
%LPD*%
%LPC*%
G36*
X28385Y418874D02*
X28385Y418874D01*
X28385Y430789D01*
X30247Y430290D01*
X32093Y429525D01*
X33823Y428526D01*
X35409Y427310D01*
X36821Y425897D01*
X38037Y424313D01*
X38067Y424281D01*
X38085Y424255D01*
X38141Y424205D01*
X38242Y424094D01*
X38262Y424080D01*
X38279Y424062D01*
X38405Y423981D01*
X38529Y423896D01*
X38552Y423887D01*
X38572Y423874D01*
X38714Y423823D01*
X38854Y423768D01*
X38877Y423765D01*
X38900Y423756D01*
X39050Y423739D01*
X39198Y423718D01*
X39223Y423720D01*
X39247Y423717D01*
X39396Y423734D01*
X39546Y423747D01*
X39569Y423754D01*
X39593Y423757D01*
X39734Y423808D01*
X39877Y423854D01*
X39898Y423867D01*
X39921Y423875D01*
X40047Y423956D01*
X40176Y424034D01*
X40193Y424051D01*
X40213Y424064D01*
X40317Y424172D01*
X40426Y424277D01*
X40442Y424301D01*
X40455Y424315D01*
X40479Y424355D01*
X40564Y424478D01*
X41489Y426080D01*
X42488Y427382D01*
X42489Y427382D01*
X42489Y427383D01*
X42959Y427995D01*
X44665Y429702D01*
X46581Y431172D01*
X48671Y432379D01*
X50902Y433302D01*
X53233Y433927D01*
X53787Y434000D01*
X53787Y418874D01*
X28385Y418874D01*
G37*
%LPD*%
%LPC*%
G36*
X323214Y621389D02*
X323214Y621389D01*
X348616Y621389D01*
X348616Y609475D01*
X346754Y609973D01*
X344908Y610738D01*
X343178Y611737D01*
X341593Y612953D01*
X340180Y614366D01*
X338964Y615950D01*
X338860Y616058D01*
X338759Y616170D01*
X338739Y616183D01*
X338722Y616201D01*
X338596Y616282D01*
X338472Y616367D01*
X338449Y616376D01*
X338429Y616389D01*
X338287Y616440D01*
X338148Y616495D01*
X338124Y616498D01*
X338101Y616507D01*
X337951Y616524D01*
X337803Y616545D01*
X337779Y616543D01*
X337755Y616546D01*
X337605Y616529D01*
X337455Y616516D01*
X337433Y616509D01*
X337408Y616506D01*
X337267Y616455D01*
X337124Y616409D01*
X337103Y616396D01*
X337080Y616388D01*
X336955Y616307D01*
X336825Y616229D01*
X336808Y616212D01*
X336788Y616199D01*
X336684Y616091D01*
X336576Y615986D01*
X336559Y615962D01*
X336546Y615948D01*
X336522Y615908D01*
X336437Y615785D01*
X335512Y614183D01*
X335025Y613548D01*
X334043Y612268D01*
X332336Y610561D01*
X330421Y609091D01*
X328330Y607884D01*
X326099Y606961D01*
X323768Y606336D01*
X323214Y606263D01*
X323214Y621389D01*
G37*
%LPD*%
%LPC*%
G36*
X322227Y474912D02*
X322227Y474912D01*
X347629Y474912D01*
X347629Y462997D01*
X345767Y463496D01*
X343921Y464261D01*
X342191Y465259D01*
X340606Y466476D01*
X339193Y467888D01*
X337977Y469473D01*
X337873Y469581D01*
X337772Y469692D01*
X337752Y469706D01*
X337735Y469723D01*
X337609Y469805D01*
X337485Y469890D01*
X337462Y469899D01*
X337442Y469912D01*
X337300Y469963D01*
X337160Y470018D01*
X337137Y470021D01*
X337114Y470029D01*
X336964Y470046D01*
X336816Y470068D01*
X336792Y470066D01*
X336768Y470069D01*
X336618Y470051D01*
X336468Y470039D01*
X336445Y470031D01*
X336421Y470029D01*
X336280Y469978D01*
X336137Y469931D01*
X336116Y469919D01*
X336093Y469911D01*
X335967Y469829D01*
X335838Y469752D01*
X335821Y469735D01*
X335801Y469722D01*
X335697Y469614D01*
X335589Y469508D01*
X335572Y469484D01*
X335559Y469471D01*
X335535Y469430D01*
X335450Y469307D01*
X334525Y467706D01*
X334226Y467316D01*
X333055Y465791D01*
X331349Y464084D01*
X329433Y462614D01*
X327343Y461407D01*
X325112Y460483D01*
X322781Y459858D01*
X322227Y459785D01*
X322227Y474912D01*
G37*
%LPD*%
%LPC*%
G36*
X322227Y389822D02*
X322227Y389822D01*
X347629Y389822D01*
X347629Y377907D01*
X345767Y378406D01*
X343921Y379171D01*
X342191Y380169D01*
X340606Y381386D01*
X339193Y382798D01*
X337977Y384383D01*
X337873Y384491D01*
X337772Y384602D01*
X337752Y384616D01*
X337735Y384633D01*
X337609Y384715D01*
X337485Y384800D01*
X337462Y384809D01*
X337442Y384822D01*
X337300Y384873D01*
X337160Y384928D01*
X337137Y384931D01*
X337114Y384939D01*
X336964Y384956D01*
X336816Y384978D01*
X336792Y384976D01*
X336768Y384979D01*
X336618Y384961D01*
X336468Y384949D01*
X336445Y384941D01*
X336421Y384939D01*
X336280Y384888D01*
X336137Y384841D01*
X336116Y384829D01*
X336093Y384821D01*
X335967Y384739D01*
X335838Y384662D01*
X335821Y384645D01*
X335801Y384632D01*
X335697Y384524D01*
X335589Y384418D01*
X335572Y384394D01*
X335559Y384381D01*
X335535Y384340D01*
X335450Y384217D01*
X334525Y382616D01*
X334064Y382014D01*
X334063Y382014D01*
X333055Y380701D01*
X331349Y378994D01*
X329433Y377524D01*
X327343Y376317D01*
X325112Y375393D01*
X322781Y374768D01*
X322227Y374695D01*
X322227Y389822D01*
G37*
%LPD*%
%LPC*%
G36*
X53233Y482816D02*
X53233Y482816D01*
X50902Y483441D01*
X48671Y484365D01*
X46581Y485572D01*
X44665Y487041D01*
X42959Y488748D01*
X41489Y490663D01*
X40564Y492265D01*
X40475Y492386D01*
X40389Y492509D01*
X40371Y492525D01*
X40357Y492545D01*
X40242Y492642D01*
X40131Y492743D01*
X40109Y492754D01*
X40091Y492770D01*
X39957Y492839D01*
X39826Y492912D01*
X39802Y492918D01*
X39781Y492929D01*
X39635Y492966D01*
X39490Y493007D01*
X39466Y493008D01*
X39443Y493014D01*
X39292Y493016D01*
X39142Y493023D01*
X39119Y493019D01*
X39094Y493019D01*
X38947Y492987D01*
X38800Y492960D01*
X38777Y492950D01*
X38754Y492945D01*
X38617Y492880D01*
X38480Y492820D01*
X38461Y492806D01*
X38439Y492796D01*
X38321Y492702D01*
X38201Y492612D01*
X38181Y492590D01*
X38166Y492578D01*
X38137Y492541D01*
X38037Y492430D01*
X37467Y491688D01*
X36821Y490846D01*
X35409Y489434D01*
X33823Y488217D01*
X32093Y487218D01*
X30247Y486454D01*
X28385Y485955D01*
X28385Y497869D01*
X53787Y497869D01*
X53787Y482743D01*
X53233Y482816D01*
G37*
%LPD*%
%LPC*%
G36*
X52812Y604358D02*
X52812Y604358D01*
X50481Y604983D01*
X48250Y605907D01*
X46160Y607114D01*
X44245Y608583D01*
X42538Y610290D01*
X41068Y612205D01*
X40143Y613807D01*
X40054Y613928D01*
X39968Y614051D01*
X39950Y614067D01*
X39936Y614087D01*
X39821Y614184D01*
X39710Y614285D01*
X39688Y614296D01*
X39670Y614312D01*
X39536Y614381D01*
X39405Y614453D01*
X39381Y614460D01*
X39360Y614471D01*
X39214Y614508D01*
X39069Y614549D01*
X39045Y614550D01*
X39022Y614556D01*
X38871Y614558D01*
X38721Y614565D01*
X38698Y614560D01*
X38673Y614561D01*
X38526Y614529D01*
X38379Y614502D01*
X38356Y614492D01*
X38333Y614487D01*
X38196Y614422D01*
X38059Y614362D01*
X38040Y614348D01*
X38018Y614337D01*
X37900Y614244D01*
X37780Y614154D01*
X37760Y614132D01*
X37745Y614120D01*
X37716Y614083D01*
X37616Y613972D01*
X36400Y612388D01*
X34988Y610975D01*
X33402Y609759D01*
X31672Y608760D01*
X29826Y607996D01*
X27964Y607497D01*
X27964Y619411D01*
X53366Y619411D01*
X53366Y604285D01*
X52812Y604358D01*
G37*
%LPD*%
%LPC*%
G36*
X53233Y397726D02*
X53233Y397726D01*
X50902Y398351D01*
X48671Y399275D01*
X46581Y400482D01*
X44665Y401951D01*
X42959Y403658D01*
X41489Y405573D01*
X40564Y407175D01*
X40475Y407296D01*
X40389Y407419D01*
X40371Y407435D01*
X40357Y407455D01*
X40242Y407552D01*
X40131Y407653D01*
X40109Y407664D01*
X40091Y407680D01*
X39957Y407749D01*
X39826Y407822D01*
X39802Y407828D01*
X39781Y407839D01*
X39635Y407876D01*
X39490Y407917D01*
X39466Y407918D01*
X39443Y407924D01*
X39292Y407926D01*
X39142Y407933D01*
X39118Y407929D01*
X39094Y407929D01*
X38947Y407897D01*
X38799Y407870D01*
X38777Y407860D01*
X38754Y407855D01*
X38618Y407790D01*
X38480Y407730D01*
X38461Y407716D01*
X38439Y407706D01*
X38321Y407612D01*
X38201Y407522D01*
X38181Y407500D01*
X38166Y407488D01*
X38137Y407451D01*
X38037Y407340D01*
X37305Y406386D01*
X37304Y406386D01*
X36821Y405756D01*
X35409Y404344D01*
X33823Y403127D01*
X32093Y402128D01*
X30247Y401364D01*
X28385Y400865D01*
X28385Y412779D01*
X53787Y412779D01*
X53787Y397653D01*
X53233Y397726D01*
G37*
%LPD*%
%LPC*%
G36*
X59881Y412779D02*
X59881Y412779D01*
X75007Y412779D01*
X74935Y412226D01*
X74310Y409894D01*
X73386Y407664D01*
X72179Y405573D01*
X71634Y404863D01*
X70709Y403658D01*
X69002Y401951D01*
X67087Y400482D01*
X64996Y399275D01*
X62766Y398351D01*
X60434Y397726D01*
X59881Y397653D01*
X59881Y412779D01*
G37*
%LPD*%
%LPC*%
G36*
X301007Y395916D02*
X301007Y395916D01*
X301079Y396469D01*
X301704Y398801D01*
X302628Y401031D01*
X303835Y403122D01*
X304918Y404534D01*
X305305Y405037D01*
X307012Y406744D01*
X308927Y408214D01*
X311018Y409421D01*
X313248Y410345D01*
X315580Y410970D01*
X316133Y411042D01*
X316133Y395916D01*
X301007Y395916D01*
G37*
%LPD*%
%LPC*%
G36*
X315580Y374768D02*
X315580Y374768D01*
X313248Y375393D01*
X311018Y376317D01*
X308927Y377524D01*
X307012Y378994D01*
X305305Y380701D01*
X303835Y382616D01*
X302628Y384706D01*
X301704Y386937D01*
X301079Y389268D01*
X301007Y389822D01*
X316133Y389822D01*
X316133Y374695D01*
X315580Y374768D01*
G37*
%LPD*%
G36*
X123369Y474434D02*
X123369Y474434D01*
X123517Y474437D01*
X123542Y474443D01*
X123568Y474445D01*
X123711Y474486D01*
X123855Y474522D01*
X123878Y474534D01*
X123903Y474541D01*
X124033Y474614D01*
X124164Y474681D01*
X124184Y474698D01*
X124207Y474711D01*
X124394Y474870D01*
X127878Y478354D01*
X127957Y478453D01*
X128041Y478547D01*
X128065Y478590D01*
X128095Y478627D01*
X128149Y478742D01*
X128210Y478852D01*
X128223Y478899D01*
X128244Y478942D01*
X128270Y479066D01*
X128305Y479188D01*
X128310Y479248D01*
X128317Y479283D01*
X128316Y479331D01*
X128324Y479431D01*
X128324Y485425D01*
X129493Y486593D01*
X130912Y488012D01*
X130974Y488091D01*
X131044Y488163D01*
X131082Y488227D01*
X131129Y488285D01*
X131172Y488376D01*
X131223Y488462D01*
X131246Y488533D01*
X131278Y488601D01*
X131299Y488699D01*
X131329Y488794D01*
X131335Y488869D01*
X131351Y488941D01*
X131349Y489042D01*
X131357Y489142D01*
X131346Y489215D01*
X131345Y489290D01*
X131321Y489387D01*
X131306Y489486D01*
X131278Y489556D01*
X131260Y489628D01*
X131214Y489717D01*
X131177Y489810D01*
X131134Y489871D01*
X131100Y489937D01*
X131035Y490014D01*
X130978Y490096D01*
X130923Y490146D01*
X130875Y490203D01*
X130794Y490263D01*
X130719Y490330D01*
X130654Y490366D01*
X130594Y490410D01*
X130502Y490450D01*
X130414Y490498D01*
X130342Y490519D01*
X130274Y490548D01*
X130175Y490566D01*
X130079Y490593D01*
X129979Y490601D01*
X129931Y490610D01*
X129895Y490608D01*
X129835Y490613D01*
X129628Y490613D01*
X129503Y490598D01*
X129377Y490592D01*
X129330Y490578D01*
X129282Y490573D01*
X129163Y490530D01*
X129042Y490495D01*
X129000Y490472D01*
X128954Y490455D01*
X128848Y490387D01*
X128738Y490325D01*
X128691Y490286D01*
X128661Y490266D01*
X128628Y490232D01*
X128551Y490167D01*
X128300Y489915D01*
X121982Y489915D01*
X121956Y489912D01*
X121930Y489914D01*
X121783Y489892D01*
X121636Y489875D01*
X121611Y489866D01*
X121585Y489863D01*
X121448Y489808D01*
X121308Y489758D01*
X121286Y489743D01*
X121261Y489734D01*
X121140Y489649D01*
X121015Y489569D01*
X120997Y489550D01*
X120975Y489535D01*
X120876Y489425D01*
X120773Y489318D01*
X120759Y489296D01*
X120742Y489276D01*
X120670Y489146D01*
X120594Y489019D01*
X120586Y488994D01*
X120573Y488971D01*
X120533Y488828D01*
X120488Y488687D01*
X120486Y488661D01*
X120479Y488636D01*
X120459Y488392D01*
X120459Y487262D01*
X116942Y487262D01*
X116916Y487259D01*
X116890Y487261D01*
X116743Y487239D01*
X116596Y487222D01*
X116571Y487214D01*
X116545Y487210D01*
X116408Y487155D01*
X116268Y487105D01*
X116246Y487091D01*
X116222Y487081D01*
X116100Y486996D01*
X115975Y486916D01*
X115957Y486897D01*
X115935Y486882D01*
X115836Y486772D01*
X115733Y486665D01*
X115719Y486643D01*
X115702Y486623D01*
X115630Y486493D01*
X115554Y486366D01*
X115546Y486341D01*
X115533Y486318D01*
X115493Y486175D01*
X115448Y486034D01*
X115446Y486008D01*
X115439Y485983D01*
X115419Y485739D01*
X115422Y485713D01*
X115420Y485687D01*
X115420Y485686D01*
X115442Y485540D01*
X115459Y485392D01*
X115468Y485368D01*
X115472Y485342D01*
X115526Y485204D01*
X115576Y485064D01*
X115591Y485042D01*
X115600Y485018D01*
X115685Y484896D01*
X115765Y484772D01*
X115784Y484753D01*
X115799Y484732D01*
X115909Y484633D01*
X116016Y484529D01*
X116039Y484516D01*
X116058Y484498D01*
X116188Y484427D01*
X116315Y484351D01*
X116340Y484343D01*
X116363Y484330D01*
X116506Y484289D01*
X116647Y484244D01*
X116673Y484242D01*
X116698Y484235D01*
X116942Y484215D01*
X120459Y484215D01*
X120459Y481355D01*
X120286Y480709D01*
X119951Y480130D01*
X119542Y479721D01*
X119526Y479700D01*
X119506Y479683D01*
X119418Y479564D01*
X119326Y479448D01*
X119315Y479424D01*
X119299Y479403D01*
X119240Y479267D01*
X119177Y479133D01*
X119171Y479107D01*
X119161Y479083D01*
X119135Y478937D01*
X119104Y478792D01*
X119104Y478766D01*
X119099Y478740D01*
X119107Y478592D01*
X119109Y478444D01*
X119116Y478418D01*
X119117Y478392D01*
X119158Y478250D01*
X119195Y478106D01*
X119207Y478082D01*
X119214Y478057D01*
X119286Y477928D01*
X119354Y477796D01*
X119371Y477776D01*
X119384Y477753D01*
X119542Y477567D01*
X122239Y474870D01*
X122260Y474853D01*
X122277Y474833D01*
X122396Y474745D01*
X122512Y474653D01*
X122536Y474642D01*
X122557Y474626D01*
X122693Y474568D01*
X122828Y474504D01*
X122853Y474499D01*
X122877Y474488D01*
X123024Y474462D01*
X123168Y474431D01*
X123194Y474431D01*
X123220Y474427D01*
X123369Y474434D01*
G37*
%LPC*%
G36*
X354710Y542394D02*
X354710Y542394D01*
X354710Y554308D01*
X356573Y553809D01*
X358419Y553045D01*
X360149Y552046D01*
X361734Y550829D01*
X363146Y549417D01*
X364363Y547832D01*
X365362Y546102D01*
X366126Y544256D01*
X366625Y542394D01*
X354710Y542394D01*
G37*
%LPD*%
%LPC*%
G36*
X353723Y395916D02*
X353723Y395916D01*
X353723Y407831D01*
X355586Y407332D01*
X357432Y406567D01*
X359161Y405568D01*
X360747Y404352D01*
X362159Y402940D01*
X363376Y401354D01*
X364374Y399624D01*
X365139Y397778D01*
X365638Y395916D01*
X353723Y395916D01*
G37*
%LPD*%
%LPC*%
G36*
X353723Y481006D02*
X353723Y481006D01*
X353723Y492921D01*
X355586Y492422D01*
X357432Y491657D01*
X359161Y490658D01*
X360747Y489442D01*
X362159Y488030D01*
X363376Y486444D01*
X364374Y484714D01*
X365139Y482868D01*
X365638Y481006D01*
X353723Y481006D01*
G37*
%LPD*%
%LPC*%
G36*
X354710Y621389D02*
X354710Y621389D01*
X366625Y621389D01*
X366126Y619527D01*
X365362Y617681D01*
X364363Y615951D01*
X363688Y615072D01*
X363688Y615071D01*
X363146Y614366D01*
X361734Y612953D01*
X360149Y611737D01*
X358419Y610738D01*
X356573Y609973D01*
X354710Y609475D01*
X354710Y621389D01*
G37*
%LPD*%
%LPC*%
G36*
X353723Y474912D02*
X353723Y474912D01*
X365638Y474912D01*
X365139Y473050D01*
X364374Y471204D01*
X363376Y469474D01*
X362159Y467888D01*
X360747Y466476D01*
X359161Y465259D01*
X357432Y464261D01*
X355586Y463496D01*
X353723Y462997D01*
X353723Y474912D01*
G37*
%LPD*%
%LPC*%
G36*
X353723Y389822D02*
X353723Y389822D01*
X365638Y389822D01*
X365139Y387960D01*
X364374Y386114D01*
X363376Y384384D01*
X362159Y382798D01*
X360747Y381386D01*
X359161Y380169D01*
X357432Y379171D01*
X355586Y378406D01*
X353723Y377907D01*
X353723Y389822D01*
G37*
%LPD*%
%LPC*%
G36*
X354710Y536299D02*
X354710Y536299D01*
X366625Y536299D01*
X366126Y534437D01*
X365362Y532591D01*
X364363Y530861D01*
X363146Y529276D01*
X361734Y527863D01*
X360149Y526647D01*
X358419Y525648D01*
X356573Y524883D01*
X354710Y524385D01*
X354710Y536299D01*
G37*
%LPD*%
%LPC*%
G36*
X97858Y556808D02*
X97858Y556808D01*
X97858Y569801D01*
X103145Y569801D01*
X103791Y569628D01*
X104371Y569294D01*
X104844Y568821D01*
X105178Y568241D01*
X105351Y567595D01*
X105351Y556808D01*
X97858Y556808D01*
G37*
%LPD*%
%LPC*%
G36*
X97858Y537720D02*
X97858Y537720D01*
X97858Y550713D01*
X105351Y550713D01*
X105351Y539926D01*
X105178Y539280D01*
X104844Y538700D01*
X104371Y538227D01*
X103791Y537893D01*
X103145Y537720D01*
X97858Y537720D01*
G37*
%LPD*%
%LPC*%
G36*
X84270Y556808D02*
X84270Y556808D01*
X84270Y567595D01*
X84443Y568241D01*
X84778Y568821D01*
X85251Y569294D01*
X85830Y569628D01*
X86476Y569801D01*
X91763Y569801D01*
X91763Y556808D01*
X84270Y556808D01*
G37*
%LPD*%
%LPC*%
G36*
X86476Y537720D02*
X86476Y537720D01*
X85830Y537893D01*
X85251Y538227D01*
X84778Y538700D01*
X84443Y539280D01*
X84270Y539926D01*
X84270Y550713D01*
X91763Y550713D01*
X91763Y537720D01*
X86476Y537720D01*
G37*
%LPD*%
%LPC*%
G36*
X198480Y618371D02*
X198480Y618371D01*
X198480Y625864D01*
X206768Y625864D01*
X207414Y625691D01*
X207993Y625357D01*
X208466Y624884D01*
X208801Y624304D01*
X208974Y623658D01*
X208974Y618371D01*
X198480Y618371D01*
G37*
%LPD*%
%LPC*%
G36*
X181893Y618371D02*
X181893Y618371D01*
X181893Y623658D01*
X182066Y624304D01*
X182400Y624884D01*
X182873Y625357D01*
X183453Y625691D01*
X184099Y625864D01*
X192386Y625864D01*
X192386Y618371D01*
X181893Y618371D01*
G37*
%LPD*%
%LPC*%
G36*
X198480Y604783D02*
X198480Y604783D01*
X198480Y612276D01*
X208974Y612276D01*
X208974Y606989D01*
X208801Y606343D01*
X208466Y605764D01*
X207993Y605291D01*
X207414Y604956D01*
X206768Y604783D01*
X198480Y604783D01*
G37*
%LPD*%
%LPC*%
G36*
X184099Y604783D02*
X184099Y604783D01*
X183453Y604956D01*
X182873Y605291D01*
X182400Y605764D01*
X182066Y606343D01*
X181893Y606989D01*
X181893Y612276D01*
X192386Y612276D01*
X192386Y604783D01*
X184099Y604783D01*
G37*
%LPD*%
%LPC*%
G36*
X86551Y587705D02*
X86551Y587705D01*
X86551Y595198D01*
X92839Y595198D01*
X93485Y595025D01*
X94064Y594690D01*
X94537Y594217D01*
X94872Y593638D01*
X95045Y592992D01*
X95045Y587705D01*
X86551Y587705D01*
G37*
%LPD*%
%LPC*%
G36*
X71964Y587705D02*
X71964Y587705D01*
X71964Y592992D01*
X72137Y593638D01*
X72471Y594217D01*
X72944Y594690D01*
X73524Y595025D01*
X74170Y595198D01*
X80457Y595198D01*
X80457Y587705D01*
X71964Y587705D01*
G37*
%LPD*%
%LPC*%
G36*
X86551Y574117D02*
X86551Y574117D01*
X86551Y581610D01*
X95045Y581610D01*
X95045Y576323D01*
X94872Y575677D01*
X94537Y575097D01*
X94064Y574624D01*
X93485Y574290D01*
X92839Y574117D01*
X86551Y574117D01*
G37*
%LPD*%
%LPC*%
G36*
X74170Y574117D02*
X74170Y574117D01*
X73524Y574290D01*
X72944Y574624D01*
X72471Y575097D01*
X72137Y575677D01*
X71964Y576323D01*
X71964Y581610D01*
X80457Y581610D01*
X80457Y574117D01*
X74170Y574117D01*
G37*
%LPD*%
%LPC*%
G36*
X130419Y585933D02*
X130419Y585933D01*
X130419Y591926D01*
X137413Y591926D01*
X137413Y588139D01*
X137240Y587493D01*
X136905Y586914D01*
X136432Y586441D01*
X135853Y586106D01*
X135207Y585933D01*
X130419Y585933D01*
G37*
%LPD*%
%LPC*%
G36*
X119538Y585933D02*
X119538Y585933D01*
X118891Y586106D01*
X118312Y586441D01*
X117839Y586914D01*
X117504Y587493D01*
X117331Y588139D01*
X117331Y591926D01*
X124325Y591926D01*
X124325Y585933D01*
X119538Y585933D01*
G37*
%LPD*%
%LPC*%
G36*
X118818Y362866D02*
X118818Y362866D01*
X118818Y370488D01*
X120487Y370488D01*
X126439Y364536D01*
X126439Y362866D01*
X118818Y362866D01*
G37*
%LPD*%
%LPC*%
G36*
X112070Y375566D02*
X112070Y375566D01*
X106118Y381518D01*
X106118Y383188D01*
X113739Y383188D01*
X113739Y375566D01*
X112070Y375566D01*
G37*
%LPD*%
%LPC*%
G36*
X142415Y558416D02*
X142415Y558416D01*
X142415Y561251D01*
X142588Y561897D01*
X142923Y562477D01*
X143396Y562950D01*
X143975Y563284D01*
X144621Y563457D01*
X147957Y563457D01*
X147957Y558416D01*
X142415Y558416D01*
G37*
%LPD*%
%LPC*%
G36*
X215665Y606562D02*
X215665Y606562D01*
X215665Y609397D01*
X215838Y610043D01*
X216172Y610623D01*
X216645Y611096D01*
X217225Y611430D01*
X217871Y611603D01*
X221206Y611603D01*
X221206Y606562D01*
X215665Y606562D01*
G37*
%LPD*%
%LPC*%
G36*
X164889Y591300D02*
X164889Y591300D01*
X164889Y596841D01*
X169930Y596841D01*
X169930Y593506D01*
X169757Y592860D01*
X169423Y592280D01*
X168950Y591807D01*
X168370Y591473D01*
X167724Y591300D01*
X164889Y591300D01*
G37*
%LPD*%
%LPC*%
G36*
X216198Y570799D02*
X216198Y570799D01*
X216198Y574134D01*
X216371Y574780D01*
X216706Y575359D01*
X217179Y575832D01*
X217758Y576167D01*
X218405Y576340D01*
X221240Y576340D01*
X221240Y570799D01*
X216198Y570799D01*
G37*
%LPD*%
%LPC*%
G36*
X218405Y560259D02*
X218405Y560259D01*
X217758Y560432D01*
X217179Y560766D01*
X216706Y561239D01*
X216371Y561819D01*
X216198Y562465D01*
X216198Y565800D01*
X221240Y565800D01*
X221240Y560259D01*
X218405Y560259D01*
G37*
%LPD*%
%LPC*%
G36*
X127875Y457297D02*
X127875Y457297D01*
X127229Y457471D01*
X126650Y457805D01*
X126177Y458278D01*
X125842Y458858D01*
X125669Y459504D01*
X125669Y462339D01*
X131210Y462339D01*
X131210Y457297D01*
X127875Y457297D01*
G37*
%LPD*%
%LPC*%
G36*
X144621Y548376D02*
X144621Y548376D01*
X143975Y548549D01*
X143396Y548883D01*
X142923Y549356D01*
X142588Y549936D01*
X142415Y550582D01*
X142415Y553417D01*
X147957Y553417D01*
X147957Y548376D01*
X144621Y548376D01*
G37*
%LPD*%
%LPC*%
G36*
X157055Y591300D02*
X157055Y591300D01*
X156409Y591473D01*
X155830Y591807D01*
X155357Y592280D01*
X155022Y592860D01*
X154849Y593506D01*
X154849Y596841D01*
X159890Y596841D01*
X159890Y591300D01*
X157055Y591300D01*
G37*
%LPD*%
%LPC*%
G36*
X217871Y596522D02*
X217871Y596522D01*
X217225Y596695D01*
X216645Y597029D01*
X216172Y597502D01*
X215838Y598082D01*
X215665Y598728D01*
X215665Y601563D01*
X221206Y601563D01*
X221206Y596522D01*
X217871Y596522D01*
G37*
%LPD*%
%LPC*%
G36*
X350675Y477958D02*
X350675Y477958D01*
X350675Y477960D01*
X350677Y477960D01*
X350677Y477958D01*
X350675Y477958D01*
G37*
%LPD*%
%LPC*%
G36*
X56833Y415826D02*
X56833Y415826D01*
X56833Y415828D01*
X56835Y415828D01*
X56835Y415826D01*
X56833Y415826D01*
G37*
%LPD*%
%LPC*%
G36*
X351662Y539345D02*
X351662Y539345D01*
X351662Y539347D01*
X351664Y539347D01*
X351664Y539345D01*
X351662Y539345D01*
G37*
%LPD*%
%LPC*%
G36*
X350675Y392868D02*
X350675Y392868D01*
X350675Y392870D01*
X350677Y392870D01*
X350677Y392868D01*
X350675Y392868D01*
G37*
%LPD*%
%LPC*%
G36*
X319179Y392868D02*
X319179Y392868D01*
X319179Y392870D01*
X319181Y392870D01*
X319181Y392868D01*
X319179Y392868D01*
G37*
%LPD*%
%LPC*%
G36*
X319179Y477958D02*
X319179Y477958D01*
X319179Y477960D01*
X319181Y477960D01*
X319181Y477958D01*
X319179Y477958D01*
G37*
%LPD*%
%LPC*%
G36*
X195432Y615323D02*
X195432Y615323D01*
X195432Y615325D01*
X195434Y615325D01*
X195434Y615323D01*
X195432Y615323D01*
G37*
%LPD*%
%LPC*%
G36*
X83503Y584656D02*
X83503Y584656D01*
X83503Y584658D01*
X83505Y584658D01*
X83505Y584656D01*
X83503Y584656D01*
G37*
%LPD*%
%LPC*%
G36*
X94810Y553760D02*
X94810Y553760D01*
X94810Y553761D01*
X94811Y553761D01*
X94811Y553760D01*
X94810Y553760D01*
G37*
%LPD*%
D10*
X122811Y553760D03*
X94811Y553760D03*
D11*
X265436Y495684D03*
X265436Y478684D03*
X234000Y521084D03*
X234000Y538084D03*
X162390Y616340D03*
X162390Y599340D03*
D12*
X167456Y555916D03*
X150456Y555916D03*
X150710Y464838D03*
X133710Y464838D03*
D13*
X83504Y612657D03*
X83504Y584657D03*
D12*
X240706Y604062D03*
X223706Y604062D03*
D14*
X127372Y613974D03*
X127372Y594974D03*
D15*
X195433Y576324D03*
X195433Y615324D03*
D16*
X367801Y509053D03*
D17*
X274443Y604154D03*
D18*
X217878Y360327D03*
X192478Y360327D03*
X167078Y360327D03*
X141678Y360327D03*
X116278Y360327D03*
X90878Y360327D03*
X217878Y385727D03*
X192478Y385727D03*
X167078Y385727D03*
X141678Y385727D03*
X116278Y385727D03*
X90878Y385727D03*
D19*
X195796Y521900D03*
X195796Y492900D03*
D20*
X186796Y521900D03*
D19*
X186796Y492900D03*
D21*
X192296Y507400D03*
D22*
X181796Y507400D03*
X202796Y507400D03*
X202796Y513400D03*
X202796Y501400D03*
X181796Y501400D03*
X181796Y513400D03*
D11*
X266530Y568073D03*
X283530Y568073D03*
X223739Y568299D03*
X240739Y568299D03*
D12*
X234992Y496191D03*
X234992Y479191D03*
X265693Y521615D03*
X265693Y538615D03*
D23*
X181797Y464939D03*
X200797Y464939D03*
D24*
X94717Y492690D03*
X94717Y497690D03*
X94717Y502690D03*
X94717Y507690D03*
D25*
X101668Y514641D03*
X106668Y514641D03*
X111668Y514641D03*
X116668Y514641D03*
D24*
X123619Y507690D03*
X123619Y502690D03*
X123619Y497690D03*
X123619Y492690D03*
D25*
X116668Y485739D03*
X111668Y485739D03*
X106668Y485739D03*
X101668Y485739D03*
D26*
X109168Y500190D03*
D27*
X297234Y503486D03*
X297234Y509986D03*
X297234Y516486D03*
X313962Y516486D03*
X313962Y509986D03*
X313962Y503486D03*
D28*
X351663Y581891D03*
D29*
X351663Y624436D03*
X351663Y539346D03*
D30*
X320167Y624436D03*
X320167Y539346D03*
D28*
X25338Y458372D03*
D29*
X25338Y415827D03*
X25338Y500917D03*
D30*
X56834Y415827D03*
X56834Y500917D03*
D28*
X350676Y435414D03*
D29*
X350676Y477959D03*
X350676Y392869D03*
D30*
X319180Y477959D03*
X319180Y392869D03*
D28*
X24917Y579914D03*
D29*
X24917Y537369D03*
X24917Y622459D03*
D30*
X56413Y537369D03*
X56413Y622459D03*
D31*
X120888Y464838D02*
X133710Y464838D01*
X120888Y464838D02*
X120477Y464428D01*
X122702Y462204D01*
X122702Y458636D01*
D32*
X122702Y458636D03*
X192595Y438843D03*
D33*
X217592Y463841D01*
X221067Y463841D01*
X267590Y417318D01*
X277318Y417318D01*
X181796Y501400D02*
X165834Y501371D01*
X159962Y501353D02*
X158775Y501612D01*
D32*
X158775Y501612D03*
D33*
X159962Y501353D02*
X165834Y501371D01*
D32*
X175350Y411068D03*
D33*
X127782Y458636D01*
X122702Y458636D01*
D32*
X136723Y480157D03*
D33*
X136723Y467852D01*
D32*
X336112Y521266D03*
D33*
X351663Y536817D01*
X351663Y539346D01*
X223739Y568299D02*
X223739Y585623D01*
X226960Y588845D01*
D32*
X226960Y588845D03*
D34*
X186296Y501400D02*
X181796Y501400D01*
X186296Y501400D02*
X192296Y507400D01*
X123531Y485739D02*
X116668Y485739D01*
X123531Y485739D02*
X123702Y485910D01*
X123702Y487048D01*
X123322Y487427D01*
X121634Y485739D01*
X116668Y485739D01*
X121634Y485739D02*
X124231Y485739D01*
D33*
X136723Y467852D02*
X133710Y464838D01*
D34*
X121634Y482660D02*
X121634Y485739D01*
X121634Y482660D02*
X124189Y480106D01*
D32*
X124189Y480106D03*
D34*
X202796Y501400D02*
X214631Y502400D01*
X219281Y507050D01*
X286598Y507050D01*
X286598Y507130D01*
X286646Y507177D01*
D32*
X286646Y507177D03*
X286646Y548180D03*
D34*
X266752Y568073D01*
X266530Y568073D01*
X240965Y568073D01*
X240739Y568299D01*
X240739Y604029D01*
X240706Y604062D01*
X274351Y604062D01*
X274443Y604154D01*
X264929Y479191D02*
X234992Y479191D01*
X264929Y479191D02*
X265436Y478684D01*
X336042Y435414D02*
X350676Y435414D01*
X289160Y478684D02*
X265436Y478684D01*
X289160Y478684D02*
X313962Y503486D01*
X292772Y478684D02*
X289160Y478684D01*
X292772Y478684D02*
X336042Y435414D01*
X186796Y488439D02*
X186796Y492900D01*
X196044Y479191D02*
X234992Y479191D01*
X196044Y479191D02*
X186796Y488439D01*
X186796Y492900D02*
X123829Y492900D01*
X123619Y492690D01*
X234000Y538084D02*
X265163Y538084D01*
X291606Y538615D02*
X313735Y516486D01*
X337029Y581891D02*
X351663Y581891D01*
X265693Y538615D02*
X265163Y538084D01*
X313735Y516486D02*
X313962Y516486D01*
X291606Y538615D02*
X265693Y538615D01*
X265163Y538084D02*
X293222Y538084D01*
X337029Y581891D01*
X137829Y521900D02*
X123619Y507690D01*
X137829Y521900D02*
X186796Y521900D01*
X192010Y527114D01*
X192010Y527346D01*
X202748Y538084D01*
X234000Y538084D01*
D33*
X94717Y492690D02*
X60399Y458372D01*
X25338Y458372D01*
D35*
X297234Y509986D02*
X313962Y509986D01*
X366868Y509986D02*
X367801Y509053D01*
D33*
X326592Y509986D02*
X313962Y509986D01*
D34*
X326592Y509986D02*
X366868Y509986D01*
D32*
X213809Y450866D03*
D31*
X101191Y360327D02*
X90878Y360327D01*
X213809Y411349D02*
X213809Y450866D01*
X213809Y411349D02*
X243913Y381246D01*
X243913Y368761D01*
X228178Y353026D01*
X220238Y345087D01*
X116431Y345087D01*
X101191Y360327D01*
D32*
X60016Y382432D03*
D33*
X82121Y360327D01*
X90878Y360327D01*
X90878Y385727D02*
X63311Y385727D01*
X60016Y382432D01*
D32*
X179736Y402603D03*
D33*
X196680Y395871D02*
X202622Y389929D01*
X186468Y395871D02*
X179736Y402603D01*
X202622Y379717D02*
X211868Y370471D01*
X196680Y395871D02*
X186468Y395871D01*
X202622Y389929D02*
X202622Y379717D01*
X211868Y370471D02*
X222080Y370471D01*
X228178Y364373D01*
X228178Y353026D01*
D31*
X196897Y349659D02*
X188059Y349659D01*
X181810Y355908D01*
X181810Y364529D01*
X162659Y375059D02*
X156410Y381308D01*
X162659Y375059D02*
X171281Y375059D01*
X156410Y381308D02*
X156410Y389929D01*
X171281Y375059D02*
X181810Y364529D01*
X156410Y389929D02*
X101668Y444671D01*
X207565Y360327D02*
X217878Y360327D01*
X207565Y360327D02*
X196897Y349659D01*
D33*
X101668Y444671D02*
X101668Y485739D01*
D31*
X106668Y485739D02*
X106668Y446137D01*
X171497Y396395D02*
X177746Y390146D01*
X177746Y375059D02*
X192478Y360327D01*
X156410Y396395D02*
X106668Y446137D01*
X177746Y390146D02*
X177746Y375059D01*
X171497Y396395D02*
X156410Y396395D01*
D33*
X94717Y497690D02*
X76311Y497690D01*
X64034Y555768D02*
X49063Y555768D01*
X24917Y579914D01*
X76311Y513451D02*
X76311Y497690D01*
X76311Y513451D02*
X76311Y543490D01*
X64034Y555768D01*
D34*
X94639Y502768D02*
X94717Y502690D01*
X94639Y502768D02*
X84283Y502768D01*
D32*
X83056Y503996D03*
D34*
X84283Y502768D01*
D32*
X65231Y442830D03*
D31*
X65231Y436775D01*
X120697Y396395D02*
X126946Y390146D01*
X126946Y375059D02*
X141678Y360327D01*
X105610Y396395D02*
X65231Y436775D01*
X126946Y390146D02*
X126946Y375059D01*
X120697Y396395D02*
X105610Y396395D01*
D34*
X94717Y507690D02*
X94717Y517893D01*
X85232Y527378D01*
D32*
X85232Y527378D03*
D33*
X180909Y465827D02*
X181797Y464939D01*
X180909Y465827D02*
X169184Y465827D01*
X169107Y465904D01*
X169184Y465827D01*
D32*
X169184Y465827D03*
D36*
X116668Y514641D02*
X111668Y514641D01*
X202796Y513400D02*
X202796Y507400D01*
D35*
X84821Y613974D02*
X83504Y612657D01*
X84821Y613974D02*
X127372Y613974D01*
X160023Y613974D01*
X162390Y616340D01*
X195433Y583297D01*
X195433Y576324D01*
X175026Y555916D01*
X167456Y555916D01*
X145374Y576324D02*
X122811Y553760D01*
X145374Y576324D02*
X195433Y576324D01*
X283530Y568073D02*
X298307Y582850D01*
X298307Y614945D01*
X274696Y638556D01*
X184605Y638556D02*
X162390Y616340D01*
X250234Y638556D02*
X274696Y638556D01*
X250234Y638556D02*
X184605Y638556D01*
D33*
X116668Y547618D02*
X116668Y514641D01*
X116668Y547618D02*
X122811Y553760D01*
D32*
X141560Y505803D03*
X141457Y535888D03*
D33*
X123585Y553760D01*
X122811Y553760D01*
D32*
X237083Y371590D03*
D31*
X181421Y427252D02*
X181421Y446052D01*
X222297Y396395D02*
X228546Y390146D01*
X228546Y380126D02*
X237083Y371590D01*
X212278Y396395D02*
X181421Y427252D01*
X228546Y390146D02*
X228546Y380126D01*
X222297Y396395D02*
X212278Y396395D01*
X252549Y636241D02*
X250234Y638556D01*
X252549Y636241D02*
X252549Y630027D01*
X252549Y629796D01*
D32*
X252549Y630027D03*
X181421Y446052D03*
X163891Y481738D03*
D33*
X150710Y468557D02*
X150710Y464838D01*
X150710Y468557D02*
X163891Y481738D01*
X188581Y453212D02*
X181421Y446052D01*
X188581Y453212D02*
X200307Y464939D01*
X200797Y464939D01*
X190821Y473484D02*
X190821Y456393D01*
X190821Y473484D02*
X189342Y474963D01*
X188581Y454153D02*
X188581Y453212D01*
X170667Y474963D02*
X164267Y481362D01*
X163891Y481738D01*
X190821Y456393D02*
X188581Y454153D01*
X189342Y474963D02*
X170667Y474963D01*
D34*
X113132Y484275D02*
X111668Y485739D01*
X113132Y484275D02*
X113132Y480743D01*
X123317Y470559D01*
X159329Y486300D02*
X164267Y481362D01*
X167464Y507400D02*
X181796Y507400D01*
X167464Y507400D02*
X163874Y510990D01*
X146746Y510990D01*
X141560Y505803D01*
X202796Y513400D02*
X212418Y513400D01*
X213954Y514936D02*
X213954Y515269D01*
D32*
X213954Y515269D03*
D34*
X213954Y514936D02*
X212418Y513400D01*
X143433Y486555D02*
X135257Y486555D01*
X143433Y486555D02*
X143433Y486604D01*
X143206Y486831D01*
D32*
X143206Y486831D03*
D34*
X130611Y477853D02*
X123317Y470559D01*
X130611Y477853D02*
X130611Y484478D01*
X132226Y486092D01*
X134794Y486092D01*
X135257Y486555D01*
X234992Y496191D02*
X264929Y496191D01*
X265436Y495684D01*
X289432Y495684D01*
X297234Y503486D01*
X199087Y496191D02*
X195796Y492900D01*
X199087Y496191D02*
X234992Y496191D01*
X234000Y521084D02*
X265163Y521084D01*
X265693Y521615D02*
X292105Y521615D01*
X297234Y516486D01*
X265693Y521615D02*
X265163Y521084D01*
X233185Y521900D02*
X195796Y521900D01*
X233185Y521900D02*
X234000Y521084D01*
M02*
