G04 EAGLE Gerber X2 export*
%TF.Part,Single*%
%TF.FileFunction,Soldermask,Top,1*%
%TF.FilePolarity,Negative*%
%TF.GenerationSoftware,Autodesk,EAGLE,9.1.0*%
%TF.CreationDate,2018-08-06T08:45:11Z*%
G75*
%MOMM*%
%FSLAX34Y34*%
%LPD*%
%AMOC8*
5,1,8,0,0,1.08239X$1,22.5*%
G01*
%ADD10R,0.500300X1.753000*%
%ADD11R,1.389600X0.800300*%
%ADD12R,0.802300X2.171700*%
%ADD13R,1.303200X1.203200*%
%ADD14R,1.703200X1.503200*%
%ADD15R,2.403200X1.803200*%
%ADD16R,2.903200X1.803200*%
%ADD17R,2.803200X1.803200*%
%ADD18R,1.203200X1.303200*%
%ADD19R,2.003200X1.803200*%
%ADD20P,1.869504X8X292.500000*%
%ADD21P,1.869504X8X22.500000*%
%ADD22P,1.869504X8X202.500000*%
%ADD23R,1.503200X1.703200*%
%ADD24C,1.727200*%
%ADD25C,2.743200*%
%ADD26C,3.378200*%
%ADD27C,0.959600*%


D10*
X168420Y445857D03*
X163420Y445857D03*
X158420Y445857D03*
X153420Y445857D03*
X148420Y445857D03*
X148420Y402731D03*
X153420Y402731D03*
X158420Y402731D03*
X163420Y402731D03*
X168420Y402731D03*
D11*
X347350Y499075D03*
X347350Y508575D03*
X347350Y518075D03*
X322062Y518075D03*
X322062Y499075D03*
D12*
X239130Y417475D03*
X251830Y417475D03*
X264530Y417475D03*
X277230Y417475D03*
X277230Y466943D03*
X264530Y466943D03*
X251830Y466943D03*
X239130Y466943D03*
D13*
X138070Y465801D03*
X155070Y465801D03*
D14*
X163547Y610916D03*
X163547Y591916D03*
D15*
X232817Y613866D03*
X232817Y574866D03*
D13*
X284965Y567667D03*
X267965Y567667D03*
D16*
X87917Y612361D03*
X87917Y584361D03*
D17*
X327570Y348369D03*
X363570Y348369D03*
X260393Y348731D03*
X296393Y348731D03*
D13*
X117420Y553621D03*
X100420Y553621D03*
X89718Y434695D03*
X106718Y434695D03*
X253267Y389062D03*
X270267Y389062D03*
X89774Y465696D03*
X106774Y465696D03*
D17*
X61158Y358503D03*
X25158Y358503D03*
D18*
X124127Y425396D03*
X124127Y442396D03*
D19*
X128817Y613958D03*
X128817Y585958D03*
D13*
X150082Y555713D03*
X167082Y555713D03*
D16*
X197277Y610503D03*
X197277Y582503D03*
D20*
X367801Y509053D03*
D21*
X274443Y604154D03*
D22*
X217878Y360327D03*
X192478Y360327D03*
X167078Y360327D03*
X141678Y360327D03*
X116278Y360327D03*
X90878Y360327D03*
X217878Y385727D03*
X192478Y385727D03*
X167078Y385727D03*
X141678Y385727D03*
X116278Y385727D03*
X90878Y385727D03*
D23*
X181580Y464868D03*
X200580Y464868D03*
D14*
X202919Y426111D03*
X202919Y407111D03*
D24*
X351663Y581891D03*
D25*
X351663Y624436D03*
X351663Y539346D03*
D26*
X320167Y624436D03*
X320167Y539346D03*
D24*
X25338Y458372D03*
D25*
X25338Y415827D03*
X25338Y500917D03*
D26*
X56834Y415827D03*
X56834Y500917D03*
D24*
X350676Y435414D03*
D25*
X350676Y477959D03*
X350676Y392869D03*
D26*
X319180Y477959D03*
X319180Y392869D03*
D24*
X24917Y579914D03*
D25*
X24917Y537369D03*
X24917Y622459D03*
D26*
X56413Y537369D03*
X56413Y622459D03*
D27*
X122702Y458636D03*
X192595Y438843D03*
X158775Y501612D03*
X175350Y411068D03*
X136723Y480157D03*
X336112Y521266D03*
X226960Y588845D03*
X124189Y480106D03*
X286646Y507177D03*
X286646Y548180D03*
X213809Y450866D03*
X60016Y382432D03*
X179736Y402603D03*
X83056Y503996D03*
X65231Y442830D03*
X85232Y527378D03*
X169184Y465827D03*
X141560Y505803D03*
X141457Y535888D03*
X237083Y371590D03*
X252549Y630027D03*
X181421Y446052D03*
X163891Y481738D03*
X213954Y515269D03*
X143206Y486831D03*
M02*
