G04 EAGLE Gerber X2 export*
%TF.Part,Single*%
%TF.FileFunction,Paste,Bot*%
%TF.FilePolarity,Positive*%
%TF.GenerationSoftware,Autodesk,EAGLE,9.1.0*%
%TF.CreationDate,2018-08-06T08:45:11Z*%
G75*
%MOMM*%
%FSLAX34Y34*%
%LPD*%
%AMOC8*
5,1,8,0,0,1.08239X$1,22.5*%
G01*
%ADD10R,1.600000X2.700000*%
%ADD11R,1.000000X1.100000*%
%ADD12R,1.100000X1.000000*%
%ADD13R,1.800000X1.600000*%
%ADD14R,1.500000X1.300000*%
%ADD15R,2.200000X1.600000*%
%ADD16R,0.300000X0.900000*%
%ADD17R,0.300000X1.000000*%
%ADD18R,0.300000X0.950000*%
%ADD19R,0.700000X0.300000*%
%ADD20R,1.300000X1.500000*%
%ADD21R,0.809800X0.250000*%
%ADD22R,0.250000X0.809800*%
%ADD23R,0.956400X0.472500*%


D10*
X122811Y553760D03*
X94811Y553760D03*
D11*
X265436Y495684D03*
X265436Y478684D03*
X234000Y521084D03*
X234000Y538084D03*
X162390Y616340D03*
X162390Y599340D03*
D12*
X167456Y555916D03*
X150456Y555916D03*
X150710Y464838D03*
X133710Y464838D03*
D13*
X83504Y612657D03*
X83504Y584657D03*
D12*
X240706Y604062D03*
X223706Y604062D03*
D14*
X127372Y613974D03*
X127372Y594974D03*
D15*
X195433Y576324D03*
X195433Y615324D03*
D16*
X195796Y521900D03*
X195796Y492900D03*
D17*
X186796Y521900D03*
D16*
X186796Y492900D03*
D18*
X192296Y507400D03*
D19*
X181796Y507400D03*
X202796Y507400D03*
X202796Y513400D03*
X202796Y501400D03*
X181796Y501400D03*
X181796Y513400D03*
D11*
X266530Y568073D03*
X283530Y568073D03*
X223739Y568299D03*
X240739Y568299D03*
D12*
X234992Y496191D03*
X234992Y479191D03*
X265693Y521615D03*
X265693Y538615D03*
D20*
X181797Y464939D03*
X200797Y464939D03*
D21*
X94717Y492690D03*
X94717Y497690D03*
X94717Y502690D03*
X94717Y507690D03*
D22*
X101668Y514641D03*
X106668Y514641D03*
X111668Y514641D03*
X116668Y514641D03*
D21*
X123619Y507690D03*
X123619Y502690D03*
X123619Y497690D03*
X123619Y492690D03*
D22*
X116668Y485739D03*
X111668Y485739D03*
X106668Y485739D03*
X101668Y485739D03*
D23*
X297234Y503486D03*
X297234Y509986D03*
X297234Y516486D03*
X313962Y516486D03*
X313962Y509986D03*
X313962Y503486D03*
M02*
