G04 EAGLE Gerber X2 export*
%TF.Part,Single*%
%TF.FileFunction,Legend,Bot,1*%
%TF.FilePolarity,Positive*%
%TF.GenerationSoftware,Autodesk,EAGLE,9.1.0*%
%TF.CreationDate,2018-08-06T08:45:11Z*%
G75*
%MOMM*%
%FSLAX34Y34*%
%LPD*%
%AMOC8*
5,1,8,0,0,1.08239X$1,22.5*%
G01*
%ADD10C,0.101600*%
%ADD11C,0.127000*%
%ADD12C,0.500000*%
%ADD13C,0.120000*%


D10*
X122160Y573318D02*
X124756Y573318D01*
X124756Y573319D02*
X124855Y573321D01*
X124955Y573327D01*
X125054Y573336D01*
X125152Y573349D01*
X125250Y573366D01*
X125348Y573387D01*
X125444Y573412D01*
X125539Y573440D01*
X125633Y573472D01*
X125726Y573507D01*
X125818Y573546D01*
X125908Y573589D01*
X125996Y573634D01*
X126083Y573684D01*
X126167Y573736D01*
X126250Y573792D01*
X126330Y573850D01*
X126408Y573912D01*
X126483Y573977D01*
X126556Y574045D01*
X126626Y574115D01*
X126694Y574188D01*
X126759Y574263D01*
X126821Y574341D01*
X126879Y574421D01*
X126935Y574504D01*
X126987Y574588D01*
X127037Y574675D01*
X127082Y574763D01*
X127125Y574853D01*
X127164Y574945D01*
X127199Y575038D01*
X127231Y575132D01*
X127259Y575227D01*
X127284Y575323D01*
X127305Y575421D01*
X127322Y575519D01*
X127335Y575617D01*
X127344Y575716D01*
X127350Y575816D01*
X127352Y575915D01*
X127353Y575915D02*
X127353Y582406D01*
X127352Y582406D02*
X127350Y582505D01*
X127344Y582605D01*
X127335Y582704D01*
X127322Y582802D01*
X127305Y582900D01*
X127284Y582998D01*
X127259Y583094D01*
X127231Y583189D01*
X127199Y583283D01*
X127164Y583376D01*
X127125Y583468D01*
X127082Y583558D01*
X127037Y583646D01*
X126987Y583733D01*
X126935Y583817D01*
X126879Y583900D01*
X126821Y583980D01*
X126759Y584058D01*
X126694Y584133D01*
X126626Y584206D01*
X126556Y584276D01*
X126483Y584344D01*
X126408Y584409D01*
X126330Y584471D01*
X126250Y584529D01*
X126167Y584585D01*
X126083Y584637D01*
X125996Y584687D01*
X125908Y584732D01*
X125818Y584775D01*
X125726Y584814D01*
X125633Y584849D01*
X125539Y584881D01*
X125444Y584909D01*
X125348Y584934D01*
X125250Y584955D01*
X125152Y584972D01*
X125054Y584985D01*
X124955Y584994D01*
X124855Y585000D01*
X124756Y585002D01*
X122160Y585002D01*
X117794Y582406D02*
X114549Y585002D01*
X114549Y573318D01*
X117794Y573318D02*
X111303Y573318D01*
X269700Y512427D02*
X269700Y509831D01*
X269702Y509732D01*
X269708Y509632D01*
X269717Y509533D01*
X269730Y509435D01*
X269747Y509337D01*
X269768Y509239D01*
X269793Y509143D01*
X269821Y509048D01*
X269853Y508954D01*
X269888Y508861D01*
X269927Y508769D01*
X269970Y508679D01*
X270015Y508591D01*
X270065Y508504D01*
X270117Y508420D01*
X270173Y508337D01*
X270231Y508257D01*
X270293Y508179D01*
X270358Y508104D01*
X270426Y508031D01*
X270496Y507961D01*
X270569Y507893D01*
X270644Y507828D01*
X270722Y507766D01*
X270802Y507708D01*
X270885Y507652D01*
X270969Y507600D01*
X271056Y507550D01*
X271144Y507505D01*
X271234Y507462D01*
X271326Y507423D01*
X271419Y507388D01*
X271513Y507356D01*
X271608Y507328D01*
X271704Y507303D01*
X271802Y507282D01*
X271900Y507265D01*
X271998Y507252D01*
X272097Y507243D01*
X272197Y507237D01*
X272296Y507235D01*
X278787Y507235D01*
X278886Y507237D01*
X278986Y507243D01*
X279085Y507252D01*
X279183Y507265D01*
X279281Y507282D01*
X279379Y507303D01*
X279475Y507328D01*
X279570Y507356D01*
X279664Y507388D01*
X279757Y507423D01*
X279849Y507462D01*
X279939Y507505D01*
X280027Y507550D01*
X280114Y507600D01*
X280198Y507652D01*
X280281Y507708D01*
X280361Y507766D01*
X280439Y507828D01*
X280514Y507893D01*
X280587Y507961D01*
X280657Y508031D01*
X280725Y508104D01*
X280790Y508179D01*
X280852Y508257D01*
X280910Y508337D01*
X280966Y508420D01*
X281018Y508504D01*
X281068Y508591D01*
X281113Y508679D01*
X281156Y508769D01*
X281195Y508861D01*
X281230Y508953D01*
X281262Y509048D01*
X281290Y509143D01*
X281315Y509239D01*
X281336Y509337D01*
X281353Y509435D01*
X281366Y509533D01*
X281375Y509632D01*
X281381Y509732D01*
X281383Y509831D01*
X281384Y509831D02*
X281384Y512427D01*
X278787Y516793D02*
X281384Y520038D01*
X269700Y520038D01*
X269700Y516793D02*
X269700Y523284D01*
X272296Y528223D02*
X281384Y530819D01*
X272296Y528223D02*
X272296Y534714D01*
X274893Y532767D02*
X269700Y532767D01*
X240858Y528935D02*
X240858Y526339D01*
X240859Y526339D02*
X240861Y526240D01*
X240867Y526140D01*
X240876Y526041D01*
X240889Y525943D01*
X240906Y525845D01*
X240927Y525747D01*
X240952Y525651D01*
X240980Y525556D01*
X241012Y525462D01*
X241047Y525369D01*
X241086Y525277D01*
X241129Y525187D01*
X241174Y525099D01*
X241224Y525012D01*
X241276Y524928D01*
X241332Y524845D01*
X241390Y524765D01*
X241452Y524687D01*
X241517Y524612D01*
X241585Y524539D01*
X241655Y524469D01*
X241728Y524401D01*
X241803Y524336D01*
X241881Y524274D01*
X241961Y524216D01*
X242044Y524160D01*
X242128Y524108D01*
X242215Y524058D01*
X242303Y524013D01*
X242393Y523970D01*
X242485Y523931D01*
X242578Y523896D01*
X242672Y523864D01*
X242767Y523836D01*
X242863Y523811D01*
X242961Y523790D01*
X243059Y523773D01*
X243157Y523760D01*
X243256Y523751D01*
X243356Y523745D01*
X243455Y523743D01*
X243455Y523742D02*
X249946Y523742D01*
X249946Y523743D02*
X250045Y523745D01*
X250145Y523751D01*
X250244Y523760D01*
X250342Y523773D01*
X250440Y523790D01*
X250538Y523811D01*
X250634Y523836D01*
X250729Y523864D01*
X250823Y523896D01*
X250916Y523931D01*
X251008Y523970D01*
X251098Y524013D01*
X251186Y524058D01*
X251273Y524108D01*
X251357Y524160D01*
X251440Y524216D01*
X251520Y524274D01*
X251598Y524336D01*
X251673Y524401D01*
X251746Y524469D01*
X251816Y524539D01*
X251884Y524612D01*
X251949Y524687D01*
X252011Y524765D01*
X252069Y524845D01*
X252125Y524928D01*
X252177Y525012D01*
X252227Y525099D01*
X252272Y525187D01*
X252315Y525277D01*
X252354Y525369D01*
X252389Y525461D01*
X252421Y525556D01*
X252449Y525651D01*
X252474Y525747D01*
X252495Y525845D01*
X252512Y525943D01*
X252525Y526041D01*
X252534Y526140D01*
X252540Y526240D01*
X252542Y526339D01*
X252542Y528935D01*
X249946Y533301D02*
X252542Y536546D01*
X240858Y536546D01*
X240858Y533301D02*
X240858Y539792D01*
X240858Y544731D02*
X240858Y548625D01*
X240859Y548625D02*
X240861Y548724D01*
X240867Y548824D01*
X240876Y548923D01*
X240889Y549021D01*
X240906Y549119D01*
X240927Y549217D01*
X240952Y549313D01*
X240980Y549408D01*
X241012Y549502D01*
X241047Y549595D01*
X241086Y549687D01*
X241129Y549777D01*
X241174Y549865D01*
X241224Y549952D01*
X241276Y550036D01*
X241332Y550119D01*
X241390Y550199D01*
X241452Y550277D01*
X241517Y550352D01*
X241585Y550425D01*
X241655Y550495D01*
X241728Y550563D01*
X241803Y550628D01*
X241881Y550690D01*
X241961Y550748D01*
X242044Y550804D01*
X242128Y550856D01*
X242215Y550906D01*
X242303Y550951D01*
X242393Y550994D01*
X242485Y551033D01*
X242578Y551068D01*
X242672Y551100D01*
X242767Y551128D01*
X242863Y551153D01*
X242961Y551174D01*
X243059Y551191D01*
X243157Y551204D01*
X243256Y551213D01*
X243356Y551219D01*
X243455Y551221D01*
X243455Y551222D02*
X244753Y551222D01*
X244753Y551221D02*
X244852Y551219D01*
X244952Y551213D01*
X245051Y551204D01*
X245149Y551191D01*
X245247Y551174D01*
X245345Y551153D01*
X245441Y551128D01*
X245536Y551100D01*
X245630Y551068D01*
X245723Y551033D01*
X245815Y550994D01*
X245905Y550951D01*
X245993Y550906D01*
X246080Y550856D01*
X246164Y550804D01*
X246247Y550748D01*
X246327Y550690D01*
X246405Y550628D01*
X246480Y550563D01*
X246553Y550495D01*
X246623Y550425D01*
X246691Y550352D01*
X246756Y550277D01*
X246818Y550199D01*
X246876Y550119D01*
X246932Y550036D01*
X246984Y549952D01*
X247034Y549865D01*
X247079Y549777D01*
X247122Y549687D01*
X247161Y549595D01*
X247196Y549502D01*
X247228Y549408D01*
X247256Y549313D01*
X247281Y549217D01*
X247302Y549119D01*
X247319Y549021D01*
X247332Y548923D01*
X247341Y548824D01*
X247347Y548724D01*
X247349Y548625D01*
X247350Y548625D02*
X247350Y544731D01*
X252542Y544731D01*
X252542Y551222D01*
X143848Y588800D02*
X143848Y591396D01*
X143848Y588800D02*
X143850Y588701D01*
X143856Y588601D01*
X143865Y588502D01*
X143878Y588404D01*
X143895Y588306D01*
X143916Y588208D01*
X143941Y588112D01*
X143969Y588017D01*
X144001Y587923D01*
X144036Y587830D01*
X144075Y587738D01*
X144118Y587648D01*
X144163Y587560D01*
X144213Y587473D01*
X144265Y587389D01*
X144321Y587306D01*
X144379Y587226D01*
X144441Y587148D01*
X144506Y587073D01*
X144574Y587000D01*
X144644Y586930D01*
X144717Y586862D01*
X144792Y586797D01*
X144870Y586735D01*
X144950Y586677D01*
X145033Y586621D01*
X145117Y586569D01*
X145204Y586519D01*
X145292Y586474D01*
X145382Y586431D01*
X145474Y586392D01*
X145567Y586357D01*
X145661Y586325D01*
X145756Y586297D01*
X145852Y586272D01*
X145950Y586251D01*
X146048Y586234D01*
X146146Y586221D01*
X146245Y586212D01*
X146345Y586206D01*
X146444Y586204D01*
X146444Y586203D02*
X152935Y586203D01*
X152935Y586204D02*
X153034Y586206D01*
X153134Y586212D01*
X153233Y586221D01*
X153331Y586234D01*
X153429Y586251D01*
X153527Y586272D01*
X153623Y586297D01*
X153718Y586325D01*
X153812Y586357D01*
X153905Y586392D01*
X153997Y586431D01*
X154087Y586474D01*
X154175Y586519D01*
X154262Y586569D01*
X154346Y586621D01*
X154429Y586677D01*
X154509Y586735D01*
X154587Y586797D01*
X154662Y586862D01*
X154735Y586930D01*
X154805Y587000D01*
X154873Y587073D01*
X154938Y587148D01*
X155000Y587226D01*
X155058Y587306D01*
X155114Y587389D01*
X155166Y587473D01*
X155216Y587560D01*
X155261Y587648D01*
X155304Y587738D01*
X155343Y587830D01*
X155378Y587922D01*
X155410Y588017D01*
X155438Y588112D01*
X155463Y588208D01*
X155484Y588306D01*
X155501Y588404D01*
X155514Y588502D01*
X155523Y588601D01*
X155529Y588701D01*
X155531Y588800D01*
X155532Y588800D02*
X155532Y591396D01*
X152935Y595761D02*
X155532Y599007D01*
X143848Y599007D01*
X143848Y595761D02*
X143848Y602253D01*
X154233Y607191D02*
X155532Y607191D01*
X155532Y613682D01*
X143848Y610437D01*
X159605Y562774D02*
X162202Y562774D01*
X162202Y562775D02*
X162301Y562777D01*
X162401Y562783D01*
X162500Y562792D01*
X162598Y562805D01*
X162696Y562822D01*
X162794Y562843D01*
X162890Y562868D01*
X162985Y562896D01*
X163079Y562928D01*
X163172Y562963D01*
X163264Y563002D01*
X163354Y563045D01*
X163442Y563090D01*
X163529Y563140D01*
X163613Y563192D01*
X163696Y563248D01*
X163776Y563306D01*
X163854Y563368D01*
X163929Y563433D01*
X164002Y563501D01*
X164072Y563571D01*
X164140Y563644D01*
X164205Y563719D01*
X164267Y563797D01*
X164325Y563877D01*
X164381Y563960D01*
X164433Y564044D01*
X164483Y564131D01*
X164528Y564219D01*
X164571Y564309D01*
X164610Y564401D01*
X164645Y564494D01*
X164677Y564588D01*
X164705Y564683D01*
X164730Y564779D01*
X164751Y564877D01*
X164768Y564975D01*
X164781Y565073D01*
X164790Y565172D01*
X164796Y565272D01*
X164798Y565371D01*
X164798Y571862D01*
X164796Y571961D01*
X164790Y572061D01*
X164781Y572160D01*
X164768Y572258D01*
X164751Y572356D01*
X164730Y572454D01*
X164705Y572550D01*
X164677Y572645D01*
X164645Y572739D01*
X164610Y572832D01*
X164571Y572924D01*
X164528Y573014D01*
X164483Y573102D01*
X164433Y573189D01*
X164381Y573273D01*
X164325Y573356D01*
X164267Y573436D01*
X164205Y573514D01*
X164140Y573589D01*
X164072Y573662D01*
X164002Y573732D01*
X163929Y573800D01*
X163854Y573865D01*
X163776Y573927D01*
X163696Y573985D01*
X163613Y574041D01*
X163529Y574093D01*
X163442Y574143D01*
X163354Y574188D01*
X163264Y574231D01*
X163172Y574270D01*
X163079Y574305D01*
X162985Y574337D01*
X162890Y574365D01*
X162794Y574390D01*
X162696Y574411D01*
X162598Y574428D01*
X162500Y574441D01*
X162401Y574450D01*
X162301Y574456D01*
X162202Y574458D01*
X159605Y574458D01*
X155240Y571862D02*
X151994Y574458D01*
X151994Y562774D01*
X148749Y562774D02*
X155240Y562774D01*
X141213Y567967D02*
X137319Y567967D01*
X141213Y567968D02*
X141312Y567970D01*
X141412Y567976D01*
X141511Y567985D01*
X141609Y567998D01*
X141707Y568015D01*
X141805Y568036D01*
X141901Y568061D01*
X141996Y568089D01*
X142090Y568121D01*
X142183Y568156D01*
X142275Y568195D01*
X142365Y568238D01*
X142453Y568283D01*
X142540Y568333D01*
X142624Y568385D01*
X142707Y568441D01*
X142787Y568499D01*
X142865Y568561D01*
X142940Y568626D01*
X143013Y568694D01*
X143083Y568764D01*
X143151Y568837D01*
X143216Y568912D01*
X143278Y568990D01*
X143336Y569070D01*
X143392Y569153D01*
X143444Y569237D01*
X143494Y569324D01*
X143539Y569412D01*
X143582Y569502D01*
X143621Y569594D01*
X143656Y569687D01*
X143688Y569781D01*
X143716Y569876D01*
X143741Y569972D01*
X143762Y570070D01*
X143779Y570168D01*
X143792Y570266D01*
X143801Y570365D01*
X143807Y570465D01*
X143809Y570564D01*
X143810Y570564D02*
X143810Y571213D01*
X143808Y571326D01*
X143802Y571439D01*
X143792Y571552D01*
X143778Y571665D01*
X143761Y571777D01*
X143739Y571888D01*
X143714Y571998D01*
X143684Y572108D01*
X143651Y572216D01*
X143614Y572323D01*
X143574Y572429D01*
X143529Y572533D01*
X143481Y572636D01*
X143430Y572737D01*
X143375Y572836D01*
X143317Y572933D01*
X143255Y573028D01*
X143190Y573121D01*
X143122Y573211D01*
X143051Y573299D01*
X142976Y573385D01*
X142899Y573468D01*
X142819Y573548D01*
X142736Y573625D01*
X142650Y573700D01*
X142562Y573771D01*
X142472Y573839D01*
X142379Y573904D01*
X142284Y573966D01*
X142187Y574024D01*
X142088Y574079D01*
X141987Y574130D01*
X141884Y574178D01*
X141780Y574223D01*
X141674Y574263D01*
X141567Y574300D01*
X141459Y574333D01*
X141349Y574363D01*
X141239Y574388D01*
X141128Y574410D01*
X141016Y574427D01*
X140903Y574441D01*
X140790Y574451D01*
X140677Y574457D01*
X140564Y574459D01*
X140451Y574457D01*
X140338Y574451D01*
X140225Y574441D01*
X140112Y574427D01*
X140000Y574410D01*
X139889Y574388D01*
X139779Y574363D01*
X139669Y574333D01*
X139561Y574300D01*
X139454Y574263D01*
X139348Y574223D01*
X139244Y574178D01*
X139141Y574130D01*
X139040Y574079D01*
X138941Y574024D01*
X138844Y573966D01*
X138749Y573904D01*
X138656Y573839D01*
X138566Y573771D01*
X138478Y573700D01*
X138392Y573625D01*
X138309Y573548D01*
X138229Y573468D01*
X138152Y573385D01*
X138077Y573299D01*
X138006Y573211D01*
X137938Y573121D01*
X137873Y573028D01*
X137811Y572933D01*
X137753Y572836D01*
X137698Y572737D01*
X137647Y572636D01*
X137599Y572533D01*
X137554Y572429D01*
X137514Y572323D01*
X137477Y572216D01*
X137444Y572108D01*
X137414Y571998D01*
X137389Y571888D01*
X137367Y571777D01*
X137350Y571665D01*
X137336Y571552D01*
X137326Y571439D01*
X137320Y571326D01*
X137318Y571213D01*
X137319Y571213D02*
X137319Y567967D01*
X137321Y567824D01*
X137327Y567681D01*
X137337Y567538D01*
X137351Y567396D01*
X137368Y567254D01*
X137390Y567112D01*
X137415Y566971D01*
X137445Y566831D01*
X137478Y566692D01*
X137515Y566554D01*
X137556Y566417D01*
X137600Y566281D01*
X137649Y566146D01*
X137701Y566013D01*
X137756Y565881D01*
X137816Y565751D01*
X137879Y565622D01*
X137945Y565495D01*
X138015Y565371D01*
X138088Y565248D01*
X138165Y565127D01*
X138245Y565008D01*
X138328Y564892D01*
X138414Y564777D01*
X138503Y564666D01*
X138596Y564556D01*
X138691Y564450D01*
X138790Y564346D01*
X138891Y564245D01*
X138995Y564146D01*
X139101Y564051D01*
X139211Y563958D01*
X139322Y563869D01*
X139437Y563783D01*
X139553Y563700D01*
X139672Y563620D01*
X139793Y563543D01*
X139915Y563470D01*
X140040Y563400D01*
X140167Y563334D01*
X140296Y563271D01*
X140426Y563211D01*
X140558Y563156D01*
X140691Y563104D01*
X140826Y563055D01*
X140962Y563011D01*
X141099Y562970D01*
X141237Y562933D01*
X141376Y562900D01*
X141516Y562870D01*
X141657Y562845D01*
X141799Y562823D01*
X141941Y562806D01*
X142083Y562792D01*
X142226Y562782D01*
X142369Y562776D01*
X142512Y562774D01*
X151278Y478205D02*
X153874Y478205D01*
X153973Y478207D01*
X154073Y478213D01*
X154172Y478222D01*
X154270Y478235D01*
X154368Y478252D01*
X154466Y478273D01*
X154562Y478298D01*
X154657Y478326D01*
X154751Y478358D01*
X154844Y478393D01*
X154936Y478432D01*
X155026Y478475D01*
X155114Y478520D01*
X155201Y478570D01*
X155285Y478622D01*
X155368Y478678D01*
X155448Y478736D01*
X155526Y478798D01*
X155601Y478863D01*
X155674Y478931D01*
X155744Y479001D01*
X155812Y479074D01*
X155877Y479149D01*
X155939Y479227D01*
X155997Y479307D01*
X156053Y479390D01*
X156105Y479474D01*
X156155Y479561D01*
X156200Y479649D01*
X156243Y479739D01*
X156282Y479831D01*
X156317Y479924D01*
X156349Y480018D01*
X156377Y480113D01*
X156402Y480209D01*
X156423Y480307D01*
X156440Y480405D01*
X156453Y480503D01*
X156462Y480602D01*
X156468Y480702D01*
X156470Y480801D01*
X156470Y487292D01*
X156468Y487391D01*
X156462Y487491D01*
X156453Y487590D01*
X156440Y487688D01*
X156423Y487786D01*
X156402Y487884D01*
X156377Y487980D01*
X156349Y488075D01*
X156317Y488169D01*
X156282Y488262D01*
X156243Y488354D01*
X156200Y488444D01*
X156155Y488532D01*
X156105Y488619D01*
X156053Y488703D01*
X155997Y488786D01*
X155939Y488866D01*
X155877Y488944D01*
X155812Y489019D01*
X155744Y489092D01*
X155674Y489162D01*
X155601Y489230D01*
X155526Y489295D01*
X155448Y489357D01*
X155368Y489415D01*
X155285Y489471D01*
X155201Y489523D01*
X155114Y489573D01*
X155026Y489618D01*
X154936Y489661D01*
X154844Y489700D01*
X154751Y489735D01*
X154657Y489767D01*
X154562Y489795D01*
X154466Y489820D01*
X154368Y489841D01*
X154270Y489858D01*
X154172Y489871D01*
X154073Y489880D01*
X153973Y489886D01*
X153874Y489888D01*
X153874Y489889D02*
X151278Y489889D01*
X143342Y489889D02*
X143235Y489887D01*
X143129Y489881D01*
X143023Y489871D01*
X142917Y489858D01*
X142811Y489840D01*
X142707Y489819D01*
X142603Y489794D01*
X142500Y489765D01*
X142399Y489733D01*
X142299Y489696D01*
X142200Y489656D01*
X142102Y489613D01*
X142006Y489566D01*
X141912Y489515D01*
X141820Y489461D01*
X141730Y489404D01*
X141642Y489344D01*
X141557Y489280D01*
X141474Y489213D01*
X141393Y489143D01*
X141315Y489071D01*
X141239Y488995D01*
X141167Y488917D01*
X141097Y488836D01*
X141030Y488753D01*
X140966Y488668D01*
X140906Y488580D01*
X140849Y488490D01*
X140795Y488398D01*
X140744Y488304D01*
X140697Y488208D01*
X140654Y488110D01*
X140614Y488011D01*
X140577Y487911D01*
X140545Y487810D01*
X140516Y487707D01*
X140491Y487603D01*
X140470Y487499D01*
X140452Y487393D01*
X140439Y487287D01*
X140429Y487181D01*
X140423Y487075D01*
X140421Y486968D01*
X143342Y489889D02*
X143463Y489887D01*
X143584Y489881D01*
X143704Y489871D01*
X143825Y489858D01*
X143944Y489840D01*
X144064Y489819D01*
X144182Y489794D01*
X144299Y489765D01*
X144416Y489732D01*
X144531Y489696D01*
X144645Y489655D01*
X144758Y489612D01*
X144870Y489564D01*
X144979Y489513D01*
X145087Y489458D01*
X145194Y489400D01*
X145298Y489339D01*
X145400Y489274D01*
X145500Y489206D01*
X145598Y489135D01*
X145694Y489061D01*
X145787Y488984D01*
X145877Y488903D01*
X145965Y488820D01*
X146050Y488734D01*
X146133Y488645D01*
X146212Y488554D01*
X146289Y488460D01*
X146362Y488364D01*
X146432Y488266D01*
X146499Y488165D01*
X146563Y488062D01*
X146624Y487957D01*
X146681Y487850D01*
X146734Y487742D01*
X146784Y487632D01*
X146830Y487520D01*
X146873Y487407D01*
X146912Y487292D01*
X141396Y484696D02*
X141317Y484774D01*
X141241Y484854D01*
X141168Y484937D01*
X141098Y485023D01*
X141031Y485110D01*
X140967Y485201D01*
X140907Y485293D01*
X140849Y485387D01*
X140795Y485484D01*
X140745Y485582D01*
X140698Y485682D01*
X140654Y485783D01*
X140614Y485886D01*
X140578Y485991D01*
X140546Y486096D01*
X140517Y486203D01*
X140492Y486310D01*
X140470Y486419D01*
X140453Y486528D01*
X140439Y486637D01*
X140430Y486747D01*
X140424Y486858D01*
X140422Y486968D01*
X141395Y484696D02*
X146912Y478205D01*
X140421Y478205D01*
X135482Y480801D02*
X132886Y489889D01*
X135482Y480801D02*
X128991Y480801D01*
X130938Y483397D02*
X130938Y478205D01*
X58612Y597397D02*
X58612Y599993D01*
X58613Y597397D02*
X58615Y597298D01*
X58621Y597198D01*
X58630Y597099D01*
X58643Y597001D01*
X58660Y596903D01*
X58681Y596805D01*
X58706Y596709D01*
X58734Y596614D01*
X58766Y596520D01*
X58801Y596427D01*
X58840Y596335D01*
X58883Y596245D01*
X58928Y596157D01*
X58978Y596070D01*
X59030Y595986D01*
X59086Y595903D01*
X59144Y595823D01*
X59206Y595745D01*
X59271Y595670D01*
X59339Y595597D01*
X59409Y595527D01*
X59482Y595459D01*
X59557Y595394D01*
X59635Y595332D01*
X59715Y595274D01*
X59798Y595218D01*
X59882Y595166D01*
X59969Y595116D01*
X60057Y595071D01*
X60147Y595028D01*
X60239Y594989D01*
X60332Y594954D01*
X60426Y594922D01*
X60521Y594894D01*
X60617Y594869D01*
X60715Y594848D01*
X60813Y594831D01*
X60911Y594818D01*
X61010Y594809D01*
X61110Y594803D01*
X61209Y594801D01*
X61209Y594800D02*
X67700Y594800D01*
X67700Y594801D02*
X67799Y594803D01*
X67899Y594809D01*
X67998Y594818D01*
X68096Y594831D01*
X68194Y594848D01*
X68292Y594869D01*
X68388Y594894D01*
X68483Y594922D01*
X68577Y594954D01*
X68670Y594989D01*
X68762Y595028D01*
X68852Y595071D01*
X68940Y595116D01*
X69027Y595166D01*
X69111Y595218D01*
X69194Y595274D01*
X69274Y595332D01*
X69352Y595394D01*
X69427Y595459D01*
X69500Y595527D01*
X69570Y595597D01*
X69638Y595670D01*
X69703Y595745D01*
X69765Y595823D01*
X69823Y595903D01*
X69879Y595986D01*
X69931Y596070D01*
X69981Y596157D01*
X70026Y596245D01*
X70069Y596335D01*
X70108Y596427D01*
X70143Y596519D01*
X70175Y596614D01*
X70203Y596709D01*
X70228Y596805D01*
X70249Y596903D01*
X70266Y597001D01*
X70279Y597099D01*
X70288Y597198D01*
X70294Y597298D01*
X70296Y597397D01*
X70296Y599993D01*
X58612Y604358D02*
X58612Y607604D01*
X58614Y607717D01*
X58620Y607830D01*
X58630Y607943D01*
X58644Y608056D01*
X58661Y608168D01*
X58683Y608279D01*
X58708Y608389D01*
X58738Y608499D01*
X58771Y608607D01*
X58808Y608714D01*
X58848Y608820D01*
X58893Y608924D01*
X58941Y609027D01*
X58992Y609128D01*
X59047Y609227D01*
X59105Y609324D01*
X59167Y609419D01*
X59232Y609512D01*
X59300Y609602D01*
X59371Y609690D01*
X59446Y609776D01*
X59523Y609859D01*
X59603Y609939D01*
X59686Y610016D01*
X59772Y610091D01*
X59860Y610162D01*
X59950Y610230D01*
X60043Y610295D01*
X60138Y610357D01*
X60235Y610415D01*
X60334Y610470D01*
X60435Y610521D01*
X60538Y610569D01*
X60642Y610614D01*
X60748Y610654D01*
X60855Y610691D01*
X60963Y610724D01*
X61073Y610754D01*
X61183Y610779D01*
X61294Y610801D01*
X61406Y610818D01*
X61519Y610832D01*
X61632Y610842D01*
X61745Y610848D01*
X61858Y610850D01*
X61971Y610848D01*
X62084Y610842D01*
X62197Y610832D01*
X62310Y610818D01*
X62422Y610801D01*
X62533Y610779D01*
X62643Y610754D01*
X62753Y610724D01*
X62861Y610691D01*
X62968Y610654D01*
X63074Y610614D01*
X63178Y610569D01*
X63281Y610521D01*
X63382Y610470D01*
X63481Y610415D01*
X63578Y610357D01*
X63673Y610295D01*
X63766Y610230D01*
X63856Y610162D01*
X63944Y610091D01*
X64030Y610016D01*
X64113Y609939D01*
X64193Y609859D01*
X64270Y609776D01*
X64345Y609690D01*
X64416Y609602D01*
X64484Y609512D01*
X64549Y609419D01*
X64611Y609324D01*
X64669Y609227D01*
X64724Y609128D01*
X64775Y609027D01*
X64823Y608924D01*
X64868Y608820D01*
X64908Y608714D01*
X64945Y608607D01*
X64978Y608499D01*
X65008Y608389D01*
X65033Y608279D01*
X65055Y608168D01*
X65072Y608056D01*
X65086Y607943D01*
X65096Y607830D01*
X65102Y607717D01*
X65104Y607604D01*
X70296Y608253D02*
X70296Y604358D01*
X70296Y608253D02*
X70294Y608354D01*
X70288Y608454D01*
X70278Y608554D01*
X70265Y608654D01*
X70247Y608753D01*
X70226Y608852D01*
X70201Y608949D01*
X70172Y609046D01*
X70139Y609141D01*
X70103Y609235D01*
X70063Y609327D01*
X70020Y609418D01*
X69973Y609507D01*
X69923Y609594D01*
X69869Y609680D01*
X69812Y609763D01*
X69752Y609843D01*
X69689Y609922D01*
X69622Y609998D01*
X69553Y610071D01*
X69481Y610141D01*
X69407Y610209D01*
X69330Y610274D01*
X69250Y610335D01*
X69168Y610394D01*
X69084Y610449D01*
X68998Y610501D01*
X68910Y610550D01*
X68820Y610595D01*
X68728Y610637D01*
X68635Y610675D01*
X68540Y610709D01*
X68445Y610740D01*
X68348Y610767D01*
X68250Y610790D01*
X68151Y610810D01*
X68051Y610825D01*
X67951Y610837D01*
X67851Y610845D01*
X67750Y610849D01*
X67650Y610849D01*
X67549Y610845D01*
X67449Y610837D01*
X67349Y610825D01*
X67249Y610810D01*
X67150Y610790D01*
X67052Y610767D01*
X66955Y610740D01*
X66860Y610709D01*
X66765Y610675D01*
X66672Y610637D01*
X66580Y610595D01*
X66490Y610550D01*
X66402Y610501D01*
X66316Y610449D01*
X66232Y610394D01*
X66150Y610335D01*
X66070Y610274D01*
X65993Y610209D01*
X65919Y610141D01*
X65847Y610071D01*
X65778Y609998D01*
X65711Y609922D01*
X65648Y609843D01*
X65588Y609763D01*
X65531Y609680D01*
X65477Y609594D01*
X65427Y609507D01*
X65380Y609418D01*
X65337Y609327D01*
X65297Y609235D01*
X65261Y609141D01*
X65228Y609046D01*
X65199Y608949D01*
X65174Y608852D01*
X65153Y608753D01*
X65135Y608654D01*
X65122Y608554D01*
X65112Y608454D01*
X65106Y608354D01*
X65104Y608253D01*
X65103Y608253D02*
X65103Y605656D01*
X232855Y610920D02*
X235451Y610920D01*
X235451Y610921D02*
X235550Y610923D01*
X235650Y610929D01*
X235749Y610938D01*
X235847Y610951D01*
X235945Y610968D01*
X236043Y610989D01*
X236139Y611014D01*
X236234Y611042D01*
X236328Y611074D01*
X236421Y611109D01*
X236513Y611148D01*
X236603Y611191D01*
X236691Y611236D01*
X236778Y611286D01*
X236862Y611338D01*
X236945Y611394D01*
X237025Y611452D01*
X237103Y611514D01*
X237178Y611579D01*
X237251Y611647D01*
X237321Y611717D01*
X237389Y611790D01*
X237454Y611865D01*
X237516Y611943D01*
X237574Y612023D01*
X237630Y612106D01*
X237682Y612190D01*
X237732Y612277D01*
X237777Y612365D01*
X237820Y612455D01*
X237859Y612547D01*
X237894Y612640D01*
X237926Y612734D01*
X237954Y612829D01*
X237979Y612925D01*
X238000Y613023D01*
X238017Y613121D01*
X238030Y613219D01*
X238039Y613318D01*
X238045Y613418D01*
X238047Y613517D01*
X238048Y613517D02*
X238048Y620008D01*
X238047Y620008D02*
X238045Y620107D01*
X238039Y620207D01*
X238030Y620306D01*
X238017Y620404D01*
X238000Y620502D01*
X237979Y620600D01*
X237954Y620696D01*
X237926Y620791D01*
X237894Y620885D01*
X237859Y620978D01*
X237820Y621070D01*
X237777Y621160D01*
X237732Y621248D01*
X237682Y621335D01*
X237630Y621419D01*
X237574Y621502D01*
X237516Y621582D01*
X237454Y621660D01*
X237389Y621735D01*
X237321Y621808D01*
X237251Y621878D01*
X237178Y621946D01*
X237103Y622011D01*
X237025Y622073D01*
X236945Y622131D01*
X236862Y622187D01*
X236778Y622239D01*
X236691Y622289D01*
X236603Y622334D01*
X236513Y622377D01*
X236421Y622416D01*
X236328Y622451D01*
X236234Y622483D01*
X236139Y622511D01*
X236043Y622536D01*
X235945Y622557D01*
X235847Y622574D01*
X235749Y622587D01*
X235650Y622596D01*
X235550Y622602D01*
X235451Y622604D01*
X232855Y622604D01*
X225893Y622604D02*
X228489Y613517D01*
X221998Y613517D01*
X223946Y616113D02*
X223946Y610920D01*
X102480Y605809D02*
X102480Y603213D01*
X102481Y603213D02*
X102483Y603114D01*
X102489Y603014D01*
X102498Y602915D01*
X102511Y602817D01*
X102528Y602719D01*
X102549Y602621D01*
X102574Y602525D01*
X102602Y602430D01*
X102634Y602336D01*
X102669Y602243D01*
X102708Y602151D01*
X102751Y602061D01*
X102796Y601973D01*
X102846Y601886D01*
X102898Y601802D01*
X102954Y601719D01*
X103012Y601639D01*
X103074Y601561D01*
X103139Y601486D01*
X103207Y601413D01*
X103277Y601343D01*
X103350Y601275D01*
X103425Y601210D01*
X103503Y601148D01*
X103583Y601090D01*
X103666Y601034D01*
X103750Y600982D01*
X103837Y600932D01*
X103925Y600887D01*
X104015Y600844D01*
X104107Y600805D01*
X104200Y600770D01*
X104294Y600738D01*
X104389Y600710D01*
X104485Y600685D01*
X104583Y600664D01*
X104681Y600647D01*
X104779Y600634D01*
X104878Y600625D01*
X104978Y600619D01*
X105077Y600617D01*
X105077Y600616D02*
X111568Y600616D01*
X111568Y600617D02*
X111667Y600619D01*
X111767Y600625D01*
X111866Y600634D01*
X111964Y600647D01*
X112062Y600664D01*
X112160Y600685D01*
X112256Y600710D01*
X112351Y600738D01*
X112445Y600770D01*
X112538Y600805D01*
X112630Y600844D01*
X112720Y600887D01*
X112808Y600932D01*
X112895Y600982D01*
X112979Y601034D01*
X113062Y601090D01*
X113142Y601148D01*
X113220Y601210D01*
X113295Y601275D01*
X113368Y601343D01*
X113438Y601413D01*
X113506Y601486D01*
X113571Y601561D01*
X113633Y601639D01*
X113691Y601719D01*
X113747Y601802D01*
X113799Y601886D01*
X113849Y601973D01*
X113894Y602061D01*
X113937Y602151D01*
X113976Y602243D01*
X114011Y602335D01*
X114043Y602430D01*
X114071Y602525D01*
X114096Y602621D01*
X114117Y602719D01*
X114134Y602817D01*
X114147Y602915D01*
X114156Y603014D01*
X114162Y603114D01*
X114164Y603213D01*
X114164Y605809D01*
X108971Y610175D02*
X108971Y614069D01*
X108969Y614168D01*
X108963Y614268D01*
X108954Y614367D01*
X108941Y614465D01*
X108924Y614563D01*
X108903Y614661D01*
X108878Y614757D01*
X108850Y614852D01*
X108818Y614946D01*
X108783Y615039D01*
X108744Y615131D01*
X108701Y615221D01*
X108656Y615309D01*
X108606Y615396D01*
X108554Y615480D01*
X108498Y615563D01*
X108440Y615643D01*
X108378Y615721D01*
X108313Y615796D01*
X108245Y615869D01*
X108175Y615939D01*
X108102Y616007D01*
X108027Y616072D01*
X107949Y616134D01*
X107869Y616192D01*
X107786Y616248D01*
X107702Y616300D01*
X107615Y616350D01*
X107527Y616395D01*
X107437Y616438D01*
X107345Y616477D01*
X107252Y616512D01*
X107158Y616544D01*
X107063Y616572D01*
X106967Y616597D01*
X106869Y616618D01*
X106771Y616635D01*
X106673Y616648D01*
X106574Y616657D01*
X106474Y616663D01*
X106375Y616665D01*
X106375Y616666D02*
X105726Y616666D01*
X105613Y616664D01*
X105500Y616658D01*
X105387Y616648D01*
X105274Y616634D01*
X105162Y616617D01*
X105051Y616595D01*
X104941Y616570D01*
X104831Y616540D01*
X104723Y616507D01*
X104616Y616470D01*
X104510Y616430D01*
X104406Y616385D01*
X104303Y616337D01*
X104202Y616286D01*
X104103Y616231D01*
X104006Y616173D01*
X103911Y616111D01*
X103818Y616046D01*
X103728Y615978D01*
X103640Y615907D01*
X103554Y615832D01*
X103471Y615755D01*
X103391Y615675D01*
X103314Y615592D01*
X103239Y615506D01*
X103168Y615418D01*
X103100Y615328D01*
X103035Y615235D01*
X102973Y615140D01*
X102915Y615043D01*
X102860Y614944D01*
X102809Y614843D01*
X102761Y614740D01*
X102716Y614636D01*
X102676Y614530D01*
X102639Y614423D01*
X102606Y614315D01*
X102576Y614205D01*
X102551Y614095D01*
X102529Y613984D01*
X102512Y613872D01*
X102498Y613759D01*
X102488Y613646D01*
X102482Y613533D01*
X102480Y613420D01*
X102482Y613307D01*
X102488Y613194D01*
X102498Y613081D01*
X102512Y612968D01*
X102529Y612856D01*
X102551Y612745D01*
X102576Y612635D01*
X102606Y612525D01*
X102639Y612417D01*
X102676Y612310D01*
X102716Y612204D01*
X102761Y612100D01*
X102809Y611997D01*
X102860Y611896D01*
X102915Y611797D01*
X102973Y611700D01*
X103035Y611605D01*
X103100Y611512D01*
X103168Y611422D01*
X103239Y611334D01*
X103314Y611248D01*
X103391Y611165D01*
X103471Y611085D01*
X103554Y611008D01*
X103640Y610933D01*
X103728Y610862D01*
X103818Y610794D01*
X103911Y610729D01*
X104006Y610667D01*
X104103Y610609D01*
X104202Y610554D01*
X104303Y610503D01*
X104406Y610455D01*
X104510Y610410D01*
X104616Y610370D01*
X104723Y610333D01*
X104831Y610300D01*
X104941Y610270D01*
X105051Y610245D01*
X105162Y610223D01*
X105274Y610206D01*
X105387Y610192D01*
X105500Y610182D01*
X105613Y610176D01*
X105726Y610174D01*
X105726Y610175D02*
X108971Y610175D01*
X108971Y610174D02*
X109114Y610176D01*
X109257Y610182D01*
X109400Y610192D01*
X109542Y610206D01*
X109684Y610223D01*
X109826Y610245D01*
X109967Y610270D01*
X110107Y610300D01*
X110246Y610333D01*
X110384Y610370D01*
X110521Y610411D01*
X110657Y610455D01*
X110792Y610504D01*
X110925Y610556D01*
X111057Y610611D01*
X111187Y610671D01*
X111316Y610734D01*
X111443Y610800D01*
X111567Y610870D01*
X111690Y610943D01*
X111811Y611020D01*
X111930Y611100D01*
X112046Y611183D01*
X112161Y611269D01*
X112272Y611358D01*
X112382Y611451D01*
X112488Y611546D01*
X112592Y611645D01*
X112693Y611746D01*
X112792Y611850D01*
X112887Y611956D01*
X112980Y612066D01*
X113069Y612177D01*
X113155Y612292D01*
X113238Y612408D01*
X113318Y612527D01*
X113395Y612648D01*
X113468Y612770D01*
X113538Y612895D01*
X113604Y613022D01*
X113667Y613151D01*
X113727Y613281D01*
X113782Y613413D01*
X113834Y613546D01*
X113883Y613681D01*
X113927Y613817D01*
X113968Y613954D01*
X114005Y614092D01*
X114038Y614231D01*
X114068Y614371D01*
X114093Y614512D01*
X114115Y614654D01*
X114132Y614796D01*
X114146Y614938D01*
X114156Y615081D01*
X114162Y615224D01*
X114164Y615367D01*
X214211Y579195D02*
X214211Y576598D01*
X214212Y576598D02*
X214214Y576499D01*
X214220Y576399D01*
X214229Y576300D01*
X214242Y576202D01*
X214259Y576104D01*
X214280Y576006D01*
X214305Y575910D01*
X214333Y575815D01*
X214365Y575721D01*
X214400Y575628D01*
X214439Y575536D01*
X214482Y575446D01*
X214527Y575358D01*
X214577Y575271D01*
X214629Y575187D01*
X214685Y575104D01*
X214743Y575024D01*
X214805Y574946D01*
X214870Y574871D01*
X214938Y574798D01*
X215008Y574728D01*
X215081Y574660D01*
X215156Y574595D01*
X215234Y574533D01*
X215314Y574475D01*
X215397Y574419D01*
X215481Y574367D01*
X215568Y574317D01*
X215656Y574272D01*
X215746Y574229D01*
X215838Y574190D01*
X215931Y574155D01*
X216025Y574123D01*
X216120Y574095D01*
X216216Y574070D01*
X216314Y574049D01*
X216412Y574032D01*
X216510Y574019D01*
X216609Y574010D01*
X216709Y574004D01*
X216808Y574002D01*
X223299Y574002D01*
X223398Y574004D01*
X223498Y574010D01*
X223597Y574019D01*
X223695Y574032D01*
X223793Y574049D01*
X223891Y574070D01*
X223987Y574095D01*
X224082Y574123D01*
X224176Y574155D01*
X224269Y574190D01*
X224361Y574229D01*
X224451Y574272D01*
X224539Y574317D01*
X224626Y574367D01*
X224710Y574419D01*
X224793Y574475D01*
X224873Y574533D01*
X224951Y574595D01*
X225026Y574660D01*
X225099Y574728D01*
X225169Y574798D01*
X225237Y574871D01*
X225302Y574946D01*
X225364Y575024D01*
X225422Y575104D01*
X225478Y575187D01*
X225530Y575271D01*
X225580Y575358D01*
X225625Y575446D01*
X225668Y575536D01*
X225707Y575628D01*
X225742Y575720D01*
X225774Y575815D01*
X225802Y575910D01*
X225827Y576006D01*
X225848Y576104D01*
X225865Y576202D01*
X225878Y576300D01*
X225887Y576399D01*
X225893Y576499D01*
X225895Y576598D01*
X225895Y579195D01*
X225895Y583560D02*
X224597Y583560D01*
X225895Y583560D02*
X225895Y590051D01*
X214211Y586805D01*
D11*
X204796Y524900D02*
X179796Y524900D01*
X179796Y489900D01*
X204796Y489900D02*
X204796Y524900D01*
X204796Y489900D02*
X179796Y489900D01*
D10*
X167407Y489687D02*
X155723Y489687D01*
X155723Y494880D01*
X155723Y501673D02*
X167407Y501673D01*
X167407Y498428D02*
X167407Y504919D01*
X155723Y511659D02*
X155723Y514255D01*
X155723Y511659D02*
X155725Y511560D01*
X155731Y511460D01*
X155740Y511361D01*
X155753Y511263D01*
X155770Y511165D01*
X155791Y511067D01*
X155816Y510971D01*
X155844Y510876D01*
X155876Y510782D01*
X155911Y510689D01*
X155950Y510597D01*
X155993Y510507D01*
X156038Y510419D01*
X156088Y510332D01*
X156140Y510248D01*
X156196Y510165D01*
X156254Y510085D01*
X156316Y510007D01*
X156381Y509932D01*
X156449Y509859D01*
X156519Y509789D01*
X156592Y509721D01*
X156667Y509656D01*
X156745Y509594D01*
X156825Y509536D01*
X156908Y509480D01*
X156992Y509428D01*
X157079Y509378D01*
X157167Y509333D01*
X157257Y509290D01*
X157349Y509251D01*
X157442Y509216D01*
X157536Y509184D01*
X157631Y509156D01*
X157727Y509131D01*
X157825Y509110D01*
X157923Y509093D01*
X158021Y509080D01*
X158120Y509071D01*
X158220Y509065D01*
X158319Y509063D01*
X158319Y509062D02*
X164810Y509062D01*
X164810Y509063D02*
X164909Y509065D01*
X165009Y509071D01*
X165108Y509080D01*
X165206Y509093D01*
X165304Y509110D01*
X165402Y509131D01*
X165498Y509156D01*
X165593Y509184D01*
X165687Y509216D01*
X165780Y509251D01*
X165872Y509290D01*
X165962Y509333D01*
X166050Y509378D01*
X166137Y509428D01*
X166221Y509480D01*
X166304Y509536D01*
X166384Y509594D01*
X166462Y509656D01*
X166537Y509721D01*
X166610Y509789D01*
X166680Y509859D01*
X166748Y509932D01*
X166813Y510007D01*
X166875Y510085D01*
X166933Y510165D01*
X166989Y510248D01*
X167041Y510332D01*
X167091Y510419D01*
X167136Y510507D01*
X167179Y510597D01*
X167218Y510689D01*
X167253Y510781D01*
X167285Y510876D01*
X167313Y510971D01*
X167338Y511067D01*
X167359Y511165D01*
X167376Y511263D01*
X167389Y511361D01*
X167398Y511460D01*
X167404Y511560D01*
X167406Y511659D01*
X167407Y511659D02*
X167407Y514255D01*
X167407Y522191D02*
X167405Y522298D01*
X167399Y522404D01*
X167389Y522510D01*
X167376Y522616D01*
X167358Y522722D01*
X167337Y522826D01*
X167312Y522930D01*
X167283Y523033D01*
X167251Y523134D01*
X167214Y523234D01*
X167174Y523333D01*
X167131Y523431D01*
X167084Y523527D01*
X167033Y523621D01*
X166979Y523713D01*
X166922Y523803D01*
X166862Y523891D01*
X166798Y523976D01*
X166731Y524059D01*
X166661Y524140D01*
X166589Y524218D01*
X166513Y524294D01*
X166435Y524366D01*
X166354Y524436D01*
X166271Y524503D01*
X166186Y524567D01*
X166098Y524627D01*
X166008Y524684D01*
X165916Y524738D01*
X165822Y524789D01*
X165726Y524836D01*
X165628Y524879D01*
X165529Y524919D01*
X165429Y524956D01*
X165328Y524988D01*
X165225Y525017D01*
X165121Y525042D01*
X165017Y525063D01*
X164911Y525081D01*
X164805Y525094D01*
X164699Y525104D01*
X164593Y525110D01*
X164486Y525112D01*
X167407Y522191D02*
X167405Y522070D01*
X167399Y521949D01*
X167389Y521829D01*
X167376Y521708D01*
X167358Y521589D01*
X167337Y521469D01*
X167312Y521351D01*
X167283Y521234D01*
X167250Y521117D01*
X167214Y521002D01*
X167173Y520888D01*
X167130Y520775D01*
X167082Y520663D01*
X167031Y520554D01*
X166976Y520446D01*
X166918Y520339D01*
X166857Y520235D01*
X166792Y520133D01*
X166724Y520033D01*
X166653Y519935D01*
X166579Y519839D01*
X166502Y519746D01*
X166421Y519656D01*
X166338Y519568D01*
X166252Y519483D01*
X166163Y519400D01*
X166072Y519321D01*
X165978Y519244D01*
X165882Y519171D01*
X165784Y519101D01*
X165683Y519034D01*
X165580Y518970D01*
X165475Y518910D01*
X165368Y518853D01*
X165260Y518799D01*
X165150Y518749D01*
X165038Y518703D01*
X164925Y518660D01*
X164810Y518621D01*
X162214Y524138D02*
X162291Y524217D01*
X162372Y524293D01*
X162455Y524366D01*
X162540Y524436D01*
X162628Y524503D01*
X162718Y524567D01*
X162810Y524627D01*
X162905Y524684D01*
X163001Y524738D01*
X163099Y524789D01*
X163199Y524836D01*
X163301Y524880D01*
X163404Y524920D01*
X163508Y524956D01*
X163614Y524988D01*
X163720Y525017D01*
X163828Y525042D01*
X163936Y525064D01*
X164046Y525081D01*
X164155Y525095D01*
X164265Y525104D01*
X164376Y525110D01*
X164486Y525112D01*
X162214Y524138D02*
X155723Y518621D01*
X155723Y525112D01*
X287036Y549531D02*
X287036Y561215D01*
X283790Y561215D01*
X283790Y561216D02*
X283677Y561214D01*
X283564Y561208D01*
X283451Y561198D01*
X283338Y561184D01*
X283226Y561167D01*
X283115Y561145D01*
X283005Y561120D01*
X282895Y561090D01*
X282787Y561057D01*
X282680Y561020D01*
X282574Y560980D01*
X282470Y560935D01*
X282367Y560887D01*
X282266Y560836D01*
X282167Y560781D01*
X282070Y560723D01*
X281975Y560661D01*
X281882Y560596D01*
X281792Y560528D01*
X281704Y560457D01*
X281618Y560382D01*
X281535Y560305D01*
X281455Y560225D01*
X281378Y560142D01*
X281303Y560056D01*
X281232Y559968D01*
X281164Y559878D01*
X281099Y559785D01*
X281037Y559690D01*
X280979Y559593D01*
X280924Y559494D01*
X280873Y559393D01*
X280825Y559290D01*
X280780Y559186D01*
X280740Y559080D01*
X280703Y558973D01*
X280670Y558865D01*
X280640Y558755D01*
X280615Y558645D01*
X280593Y558534D01*
X280576Y558422D01*
X280562Y558309D01*
X280552Y558196D01*
X280546Y558083D01*
X280544Y557970D01*
X280546Y557857D01*
X280552Y557744D01*
X280562Y557631D01*
X280576Y557518D01*
X280593Y557406D01*
X280615Y557295D01*
X280640Y557185D01*
X280670Y557075D01*
X280703Y556967D01*
X280740Y556860D01*
X280780Y556754D01*
X280825Y556650D01*
X280873Y556547D01*
X280924Y556446D01*
X280979Y556347D01*
X281037Y556250D01*
X281099Y556155D01*
X281164Y556062D01*
X281232Y555972D01*
X281303Y555884D01*
X281378Y555798D01*
X281455Y555715D01*
X281535Y555635D01*
X281618Y555558D01*
X281704Y555483D01*
X281792Y555412D01*
X281882Y555344D01*
X281975Y555279D01*
X282070Y555217D01*
X282167Y555159D01*
X282266Y555104D01*
X282367Y555053D01*
X282470Y555005D01*
X282574Y554960D01*
X282680Y554920D01*
X282787Y554883D01*
X282895Y554850D01*
X283005Y554820D01*
X283115Y554795D01*
X283226Y554773D01*
X283338Y554756D01*
X283451Y554742D01*
X283564Y554732D01*
X283677Y554726D01*
X283790Y554724D01*
X287036Y554724D01*
X283141Y554724D02*
X280545Y549531D01*
X275679Y558619D02*
X272434Y561215D01*
X272434Y549531D01*
X275679Y549531D02*
X269188Y549531D01*
X244245Y549757D02*
X244245Y561441D01*
X240999Y561441D01*
X240999Y561442D02*
X240886Y561440D01*
X240773Y561434D01*
X240660Y561424D01*
X240547Y561410D01*
X240435Y561393D01*
X240324Y561371D01*
X240214Y561346D01*
X240104Y561316D01*
X239996Y561283D01*
X239889Y561246D01*
X239783Y561206D01*
X239679Y561161D01*
X239576Y561113D01*
X239475Y561062D01*
X239376Y561007D01*
X239279Y560949D01*
X239184Y560887D01*
X239091Y560822D01*
X239001Y560754D01*
X238913Y560683D01*
X238827Y560608D01*
X238744Y560531D01*
X238664Y560451D01*
X238587Y560368D01*
X238512Y560282D01*
X238441Y560194D01*
X238373Y560104D01*
X238308Y560011D01*
X238246Y559916D01*
X238188Y559819D01*
X238133Y559720D01*
X238082Y559619D01*
X238034Y559516D01*
X237989Y559412D01*
X237949Y559306D01*
X237912Y559199D01*
X237879Y559091D01*
X237849Y558981D01*
X237824Y558871D01*
X237802Y558760D01*
X237785Y558648D01*
X237771Y558535D01*
X237761Y558422D01*
X237755Y558309D01*
X237753Y558196D01*
X237755Y558083D01*
X237761Y557970D01*
X237771Y557857D01*
X237785Y557744D01*
X237802Y557632D01*
X237824Y557521D01*
X237849Y557411D01*
X237879Y557301D01*
X237912Y557193D01*
X237949Y557086D01*
X237989Y556980D01*
X238034Y556876D01*
X238082Y556773D01*
X238133Y556672D01*
X238188Y556573D01*
X238246Y556476D01*
X238308Y556381D01*
X238373Y556288D01*
X238441Y556198D01*
X238512Y556110D01*
X238587Y556024D01*
X238664Y555941D01*
X238744Y555861D01*
X238827Y555784D01*
X238913Y555709D01*
X239001Y555638D01*
X239091Y555570D01*
X239184Y555505D01*
X239279Y555443D01*
X239376Y555385D01*
X239475Y555330D01*
X239576Y555279D01*
X239679Y555231D01*
X239783Y555186D01*
X239889Y555146D01*
X239996Y555109D01*
X240104Y555076D01*
X240214Y555046D01*
X240324Y555021D01*
X240435Y554999D01*
X240547Y554982D01*
X240660Y554968D01*
X240773Y554958D01*
X240886Y554952D01*
X240999Y554950D01*
X244245Y554950D01*
X240350Y554950D02*
X237753Y549757D01*
X226397Y558520D02*
X226399Y558627D01*
X226405Y558733D01*
X226415Y558839D01*
X226428Y558945D01*
X226446Y559051D01*
X226467Y559155D01*
X226492Y559259D01*
X226521Y559362D01*
X226553Y559463D01*
X226590Y559563D01*
X226630Y559662D01*
X226673Y559760D01*
X226720Y559856D01*
X226771Y559950D01*
X226825Y560042D01*
X226882Y560132D01*
X226942Y560220D01*
X227006Y560305D01*
X227073Y560388D01*
X227143Y560469D01*
X227215Y560547D01*
X227291Y560623D01*
X227369Y560695D01*
X227450Y560765D01*
X227533Y560832D01*
X227618Y560896D01*
X227706Y560956D01*
X227796Y561013D01*
X227888Y561067D01*
X227982Y561118D01*
X228078Y561165D01*
X228176Y561208D01*
X228275Y561248D01*
X228375Y561285D01*
X228476Y561317D01*
X228579Y561346D01*
X228683Y561371D01*
X228787Y561392D01*
X228893Y561410D01*
X228999Y561423D01*
X229105Y561433D01*
X229211Y561439D01*
X229318Y561441D01*
X229318Y561442D02*
X229439Y561440D01*
X229560Y561434D01*
X229680Y561424D01*
X229801Y561411D01*
X229920Y561393D01*
X230040Y561372D01*
X230158Y561347D01*
X230275Y561318D01*
X230392Y561285D01*
X230507Y561249D01*
X230621Y561208D01*
X230734Y561165D01*
X230846Y561117D01*
X230955Y561066D01*
X231063Y561011D01*
X231170Y560953D01*
X231274Y560892D01*
X231376Y560827D01*
X231476Y560759D01*
X231574Y560688D01*
X231670Y560614D01*
X231763Y560537D01*
X231853Y560456D01*
X231941Y560373D01*
X232026Y560287D01*
X232109Y560198D01*
X232188Y560107D01*
X232265Y560013D01*
X232338Y559917D01*
X232408Y559819D01*
X232475Y559718D01*
X232539Y559615D01*
X232600Y559510D01*
X232657Y559403D01*
X232710Y559295D01*
X232760Y559185D01*
X232806Y559073D01*
X232849Y558960D01*
X232888Y558845D01*
X227372Y556248D02*
X227293Y556326D01*
X227217Y556406D01*
X227144Y556489D01*
X227074Y556575D01*
X227007Y556662D01*
X226943Y556753D01*
X226883Y556845D01*
X226825Y556939D01*
X226771Y557036D01*
X226721Y557134D01*
X226674Y557234D01*
X226630Y557335D01*
X226590Y557438D01*
X226554Y557543D01*
X226522Y557648D01*
X226493Y557755D01*
X226468Y557862D01*
X226446Y557971D01*
X226429Y558080D01*
X226415Y558189D01*
X226406Y558299D01*
X226400Y558410D01*
X226398Y558520D01*
X227371Y556248D02*
X232888Y549757D01*
X226397Y549757D01*
X241222Y473916D02*
X252906Y473916D01*
X252906Y477161D01*
X252907Y477161D02*
X252905Y477274D01*
X252899Y477387D01*
X252889Y477500D01*
X252875Y477613D01*
X252858Y477725D01*
X252836Y477836D01*
X252811Y477946D01*
X252781Y478056D01*
X252748Y478164D01*
X252711Y478271D01*
X252671Y478377D01*
X252626Y478481D01*
X252578Y478584D01*
X252527Y478685D01*
X252472Y478784D01*
X252414Y478881D01*
X252352Y478976D01*
X252287Y479069D01*
X252219Y479159D01*
X252148Y479247D01*
X252073Y479333D01*
X251996Y479416D01*
X251916Y479496D01*
X251833Y479573D01*
X251747Y479648D01*
X251659Y479719D01*
X251569Y479787D01*
X251476Y479852D01*
X251381Y479914D01*
X251284Y479972D01*
X251185Y480027D01*
X251084Y480078D01*
X250981Y480126D01*
X250877Y480171D01*
X250771Y480211D01*
X250664Y480248D01*
X250556Y480281D01*
X250446Y480311D01*
X250336Y480336D01*
X250225Y480358D01*
X250113Y480375D01*
X250000Y480389D01*
X249887Y480399D01*
X249774Y480405D01*
X249661Y480407D01*
X249548Y480405D01*
X249435Y480399D01*
X249322Y480389D01*
X249209Y480375D01*
X249097Y480358D01*
X248986Y480336D01*
X248876Y480311D01*
X248766Y480281D01*
X248658Y480248D01*
X248551Y480211D01*
X248445Y480171D01*
X248341Y480126D01*
X248238Y480078D01*
X248137Y480027D01*
X248038Y479972D01*
X247941Y479914D01*
X247846Y479852D01*
X247753Y479787D01*
X247663Y479719D01*
X247575Y479648D01*
X247489Y479573D01*
X247406Y479496D01*
X247326Y479416D01*
X247249Y479333D01*
X247174Y479247D01*
X247103Y479159D01*
X247035Y479069D01*
X246970Y478976D01*
X246908Y478881D01*
X246850Y478784D01*
X246795Y478685D01*
X246744Y478584D01*
X246696Y478481D01*
X246651Y478377D01*
X246611Y478271D01*
X246574Y478164D01*
X246541Y478056D01*
X246511Y477946D01*
X246486Y477836D01*
X246464Y477725D01*
X246447Y477613D01*
X246433Y477500D01*
X246423Y477387D01*
X246417Y477274D01*
X246415Y477161D01*
X246415Y473916D01*
X246415Y477811D02*
X241222Y480407D01*
X241222Y485272D02*
X241222Y488518D01*
X241224Y488631D01*
X241230Y488744D01*
X241240Y488857D01*
X241254Y488970D01*
X241271Y489082D01*
X241293Y489193D01*
X241318Y489303D01*
X241348Y489413D01*
X241381Y489521D01*
X241418Y489628D01*
X241458Y489734D01*
X241503Y489838D01*
X241551Y489941D01*
X241602Y490042D01*
X241657Y490141D01*
X241715Y490238D01*
X241777Y490333D01*
X241842Y490426D01*
X241910Y490516D01*
X241981Y490604D01*
X242056Y490690D01*
X242133Y490773D01*
X242213Y490853D01*
X242296Y490930D01*
X242382Y491005D01*
X242470Y491076D01*
X242560Y491144D01*
X242653Y491209D01*
X242748Y491271D01*
X242845Y491329D01*
X242944Y491384D01*
X243045Y491435D01*
X243148Y491483D01*
X243252Y491528D01*
X243358Y491568D01*
X243465Y491605D01*
X243573Y491638D01*
X243683Y491668D01*
X243793Y491693D01*
X243904Y491715D01*
X244016Y491732D01*
X244129Y491746D01*
X244242Y491756D01*
X244355Y491762D01*
X244468Y491764D01*
X244581Y491762D01*
X244694Y491756D01*
X244807Y491746D01*
X244920Y491732D01*
X245032Y491715D01*
X245143Y491693D01*
X245253Y491668D01*
X245363Y491638D01*
X245471Y491605D01*
X245578Y491568D01*
X245684Y491528D01*
X245788Y491483D01*
X245891Y491435D01*
X245992Y491384D01*
X246091Y491329D01*
X246188Y491271D01*
X246283Y491209D01*
X246376Y491144D01*
X246466Y491076D01*
X246554Y491005D01*
X246640Y490930D01*
X246723Y490853D01*
X246803Y490773D01*
X246880Y490690D01*
X246955Y490604D01*
X247026Y490516D01*
X247094Y490426D01*
X247159Y490333D01*
X247221Y490238D01*
X247279Y490141D01*
X247334Y490042D01*
X247385Y489941D01*
X247433Y489838D01*
X247478Y489734D01*
X247518Y489628D01*
X247555Y489521D01*
X247588Y489413D01*
X247618Y489303D01*
X247643Y489193D01*
X247665Y489082D01*
X247682Y488970D01*
X247696Y488857D01*
X247706Y488744D01*
X247712Y488631D01*
X247714Y488518D01*
X252906Y489167D02*
X252906Y485272D01*
X252906Y489167D02*
X252904Y489268D01*
X252898Y489368D01*
X252888Y489468D01*
X252875Y489568D01*
X252857Y489667D01*
X252836Y489766D01*
X252811Y489863D01*
X252782Y489960D01*
X252749Y490055D01*
X252713Y490149D01*
X252673Y490241D01*
X252630Y490332D01*
X252583Y490421D01*
X252533Y490508D01*
X252479Y490594D01*
X252422Y490677D01*
X252362Y490757D01*
X252299Y490836D01*
X252232Y490912D01*
X252163Y490985D01*
X252091Y491055D01*
X252017Y491123D01*
X251940Y491188D01*
X251860Y491249D01*
X251778Y491308D01*
X251694Y491363D01*
X251608Y491415D01*
X251520Y491464D01*
X251430Y491509D01*
X251338Y491551D01*
X251245Y491589D01*
X251150Y491623D01*
X251055Y491654D01*
X250958Y491681D01*
X250860Y491704D01*
X250761Y491724D01*
X250661Y491739D01*
X250561Y491751D01*
X250461Y491759D01*
X250360Y491763D01*
X250260Y491763D01*
X250159Y491759D01*
X250059Y491751D01*
X249959Y491739D01*
X249859Y491724D01*
X249760Y491704D01*
X249662Y491681D01*
X249565Y491654D01*
X249470Y491623D01*
X249375Y491589D01*
X249282Y491551D01*
X249190Y491509D01*
X249100Y491464D01*
X249012Y491415D01*
X248926Y491363D01*
X248842Y491308D01*
X248760Y491249D01*
X248680Y491188D01*
X248603Y491123D01*
X248529Y491055D01*
X248457Y490985D01*
X248388Y490912D01*
X248321Y490836D01*
X248258Y490757D01*
X248198Y490677D01*
X248141Y490594D01*
X248087Y490508D01*
X248037Y490421D01*
X247990Y490332D01*
X247947Y490241D01*
X247907Y490149D01*
X247871Y490055D01*
X247838Y489960D01*
X247809Y489863D01*
X247784Y489766D01*
X247763Y489667D01*
X247745Y489568D01*
X247732Y489468D01*
X247722Y489368D01*
X247716Y489268D01*
X247714Y489167D01*
X247713Y489167D02*
X247713Y486570D01*
X246134Y499399D02*
X257818Y499399D01*
X257818Y502645D01*
X257819Y502645D02*
X257817Y502758D01*
X257811Y502871D01*
X257801Y502984D01*
X257787Y503097D01*
X257770Y503209D01*
X257748Y503320D01*
X257723Y503430D01*
X257693Y503540D01*
X257660Y503648D01*
X257623Y503755D01*
X257583Y503861D01*
X257538Y503965D01*
X257490Y504068D01*
X257439Y504169D01*
X257384Y504268D01*
X257326Y504365D01*
X257264Y504460D01*
X257199Y504553D01*
X257131Y504643D01*
X257060Y504731D01*
X256985Y504817D01*
X256908Y504900D01*
X256828Y504980D01*
X256745Y505057D01*
X256659Y505132D01*
X256571Y505203D01*
X256481Y505271D01*
X256388Y505336D01*
X256293Y505398D01*
X256196Y505456D01*
X256097Y505511D01*
X255996Y505562D01*
X255893Y505610D01*
X255789Y505655D01*
X255683Y505695D01*
X255576Y505732D01*
X255468Y505765D01*
X255358Y505795D01*
X255248Y505820D01*
X255137Y505842D01*
X255025Y505859D01*
X254912Y505873D01*
X254799Y505883D01*
X254686Y505889D01*
X254573Y505891D01*
X254460Y505889D01*
X254347Y505883D01*
X254234Y505873D01*
X254121Y505859D01*
X254009Y505842D01*
X253898Y505820D01*
X253788Y505795D01*
X253678Y505765D01*
X253570Y505732D01*
X253463Y505695D01*
X253357Y505655D01*
X253253Y505610D01*
X253150Y505562D01*
X253049Y505511D01*
X252950Y505456D01*
X252853Y505398D01*
X252758Y505336D01*
X252665Y505271D01*
X252575Y505203D01*
X252487Y505132D01*
X252401Y505057D01*
X252318Y504980D01*
X252238Y504900D01*
X252161Y504817D01*
X252086Y504731D01*
X252015Y504643D01*
X251947Y504553D01*
X251882Y504460D01*
X251820Y504365D01*
X251762Y504268D01*
X251707Y504169D01*
X251656Y504068D01*
X251608Y503965D01*
X251563Y503861D01*
X251523Y503755D01*
X251486Y503648D01*
X251453Y503540D01*
X251423Y503430D01*
X251398Y503320D01*
X251376Y503209D01*
X251359Y503097D01*
X251345Y502984D01*
X251335Y502871D01*
X251329Y502758D01*
X251327Y502645D01*
X251327Y499399D01*
X251327Y503294D02*
X246134Y505891D01*
X248731Y510756D02*
X257818Y513352D01*
X248731Y510756D02*
X248731Y517247D01*
X251327Y515300D02*
X246134Y515300D01*
X250512Y535541D02*
X262196Y535541D01*
X262196Y538786D01*
X262197Y538786D02*
X262195Y538899D01*
X262189Y539012D01*
X262179Y539125D01*
X262165Y539238D01*
X262148Y539350D01*
X262126Y539461D01*
X262101Y539571D01*
X262071Y539681D01*
X262038Y539789D01*
X262001Y539896D01*
X261961Y540002D01*
X261916Y540106D01*
X261868Y540209D01*
X261817Y540310D01*
X261762Y540409D01*
X261704Y540506D01*
X261642Y540601D01*
X261577Y540694D01*
X261509Y540784D01*
X261438Y540872D01*
X261363Y540958D01*
X261286Y541041D01*
X261206Y541121D01*
X261123Y541198D01*
X261037Y541273D01*
X260949Y541344D01*
X260859Y541412D01*
X260766Y541477D01*
X260671Y541539D01*
X260574Y541597D01*
X260475Y541652D01*
X260374Y541703D01*
X260271Y541751D01*
X260167Y541796D01*
X260061Y541836D01*
X259954Y541873D01*
X259846Y541906D01*
X259736Y541936D01*
X259626Y541961D01*
X259515Y541983D01*
X259403Y542000D01*
X259290Y542014D01*
X259177Y542024D01*
X259064Y542030D01*
X258951Y542032D01*
X258838Y542030D01*
X258725Y542024D01*
X258612Y542014D01*
X258499Y542000D01*
X258387Y541983D01*
X258276Y541961D01*
X258166Y541936D01*
X258056Y541906D01*
X257948Y541873D01*
X257841Y541836D01*
X257735Y541796D01*
X257631Y541751D01*
X257528Y541703D01*
X257427Y541652D01*
X257328Y541597D01*
X257231Y541539D01*
X257136Y541477D01*
X257043Y541412D01*
X256953Y541344D01*
X256865Y541273D01*
X256779Y541198D01*
X256696Y541121D01*
X256616Y541041D01*
X256539Y540958D01*
X256464Y540872D01*
X256393Y540784D01*
X256325Y540694D01*
X256260Y540601D01*
X256198Y540506D01*
X256140Y540409D01*
X256085Y540310D01*
X256034Y540209D01*
X255986Y540106D01*
X255941Y540002D01*
X255901Y539896D01*
X255864Y539789D01*
X255831Y539681D01*
X255801Y539571D01*
X255776Y539461D01*
X255754Y539350D01*
X255737Y539238D01*
X255723Y539125D01*
X255713Y539012D01*
X255707Y538899D01*
X255705Y538786D01*
X255705Y535541D01*
X255705Y539436D02*
X250512Y542032D01*
X260898Y546897D02*
X262196Y546897D01*
X262196Y553388D01*
X250512Y550143D01*
D12*
X88878Y486400D03*
D13*
X93918Y484940D02*
X93918Y488900D01*
X93918Y484940D02*
X97878Y484940D01*
X124418Y484940D02*
X124418Y488900D01*
X124418Y484940D02*
X120458Y484940D01*
X124418Y511480D02*
X124418Y515440D01*
X120458Y515440D01*
X93918Y515440D02*
X93918Y511480D01*
X93918Y515440D02*
X97878Y515440D01*
D12*
X295650Y496084D03*
D13*
X298848Y497984D02*
X312348Y497984D01*
X312348Y521988D02*
X298848Y521988D01*
D10*
X319702Y486726D02*
X319702Y478287D01*
X319700Y478174D01*
X319694Y478061D01*
X319684Y477948D01*
X319670Y477835D01*
X319653Y477723D01*
X319631Y477612D01*
X319606Y477502D01*
X319576Y477392D01*
X319543Y477284D01*
X319506Y477177D01*
X319466Y477071D01*
X319421Y476967D01*
X319373Y476864D01*
X319322Y476763D01*
X319267Y476664D01*
X319209Y476567D01*
X319147Y476472D01*
X319082Y476379D01*
X319014Y476289D01*
X318943Y476201D01*
X318868Y476115D01*
X318791Y476032D01*
X318711Y475952D01*
X318628Y475875D01*
X318542Y475800D01*
X318454Y475729D01*
X318364Y475661D01*
X318271Y475596D01*
X318176Y475534D01*
X318079Y475476D01*
X317980Y475421D01*
X317879Y475370D01*
X317776Y475322D01*
X317672Y475277D01*
X317566Y475237D01*
X317459Y475200D01*
X317351Y475167D01*
X317241Y475137D01*
X317131Y475112D01*
X317020Y475090D01*
X316908Y475073D01*
X316795Y475059D01*
X316682Y475049D01*
X316569Y475043D01*
X316456Y475041D01*
X316343Y475043D01*
X316230Y475049D01*
X316117Y475059D01*
X316004Y475073D01*
X315892Y475090D01*
X315781Y475112D01*
X315671Y475137D01*
X315561Y475167D01*
X315453Y475200D01*
X315346Y475237D01*
X315240Y475277D01*
X315136Y475322D01*
X315033Y475370D01*
X314932Y475421D01*
X314833Y475476D01*
X314736Y475534D01*
X314641Y475596D01*
X314548Y475661D01*
X314458Y475729D01*
X314370Y475800D01*
X314284Y475875D01*
X314201Y475952D01*
X314121Y476032D01*
X314044Y476115D01*
X313969Y476201D01*
X313898Y476289D01*
X313830Y476379D01*
X313765Y476472D01*
X313703Y476567D01*
X313645Y476664D01*
X313590Y476763D01*
X313539Y476864D01*
X313491Y476967D01*
X313446Y477071D01*
X313406Y477177D01*
X313369Y477284D01*
X313336Y477392D01*
X313306Y477502D01*
X313281Y477612D01*
X313259Y477723D01*
X313242Y477835D01*
X313228Y477948D01*
X313218Y478061D01*
X313212Y478174D01*
X313210Y478287D01*
X313211Y478287D02*
X313211Y486726D01*
X305407Y486726D02*
X305407Y475042D01*
X305407Y480884D02*
X307030Y481857D01*
X307103Y481904D01*
X307174Y481953D01*
X307244Y482006D01*
X307310Y482062D01*
X307374Y482121D01*
X307436Y482182D01*
X307494Y482246D01*
X307550Y482313D01*
X307602Y482382D01*
X307652Y482454D01*
X307698Y482528D01*
X307741Y482603D01*
X307780Y482681D01*
X307816Y482760D01*
X307848Y482841D01*
X307877Y482923D01*
X307902Y483006D01*
X307923Y483090D01*
X307940Y483175D01*
X307954Y483261D01*
X307963Y483347D01*
X307969Y483434D01*
X307971Y483521D01*
X307969Y483608D01*
X307963Y483695D01*
X307953Y483781D01*
X307940Y483867D01*
X307922Y483952D01*
X307901Y484036D01*
X307876Y484119D01*
X307847Y484202D01*
X307815Y484282D01*
X307779Y484361D01*
X307740Y484439D01*
X307697Y484514D01*
X307650Y484588D01*
X307601Y484659D01*
X307548Y484729D01*
X307493Y484795D01*
X307434Y484859D01*
X307373Y484921D01*
X307308Y484980D01*
X307242Y485035D01*
X307173Y485088D01*
X307101Y485138D01*
X307028Y485184D01*
X306952Y485227D01*
X306875Y485266D01*
X306796Y485302D01*
X306715Y485335D01*
X306633Y485363D01*
X306550Y485389D01*
X306466Y485410D01*
X306380Y485427D01*
X306381Y485427D02*
X306241Y485451D01*
X306099Y485471D01*
X305958Y485487D01*
X305816Y485498D01*
X305673Y485506D01*
X305531Y485510D01*
X305388Y485511D01*
X305245Y485507D01*
X305103Y485499D01*
X304961Y485487D01*
X304819Y485471D01*
X304678Y485452D01*
X304537Y485428D01*
X304397Y485401D01*
X304258Y485369D01*
X304120Y485334D01*
X303982Y485295D01*
X303846Y485252D01*
X303712Y485206D01*
X303578Y485155D01*
X303446Y485102D01*
X303316Y485044D01*
X303187Y484983D01*
X303060Y484918D01*
X302934Y484850D01*
X302811Y484778D01*
X305407Y480884D02*
X303785Y479910D01*
X303784Y479910D02*
X303711Y479863D01*
X303640Y479814D01*
X303570Y479761D01*
X303504Y479705D01*
X303440Y479646D01*
X303378Y479585D01*
X303320Y479521D01*
X303264Y479454D01*
X303212Y479385D01*
X303162Y479313D01*
X303116Y479239D01*
X303073Y479164D01*
X303034Y479086D01*
X302998Y479007D01*
X302966Y478926D01*
X302937Y478844D01*
X302912Y478761D01*
X302891Y478677D01*
X302874Y478592D01*
X302860Y478506D01*
X302851Y478420D01*
X302845Y478333D01*
X302843Y478246D01*
X302845Y478159D01*
X302851Y478072D01*
X302861Y477986D01*
X302874Y477900D01*
X302892Y477815D01*
X302913Y477731D01*
X302938Y477648D01*
X302967Y477565D01*
X302999Y477485D01*
X303035Y477406D01*
X303074Y477328D01*
X303117Y477253D01*
X303164Y477179D01*
X303213Y477108D01*
X303266Y477038D01*
X303321Y476972D01*
X303380Y476908D01*
X303441Y476846D01*
X303506Y476787D01*
X303572Y476732D01*
X303641Y476679D01*
X303713Y476629D01*
X303786Y476583D01*
X303862Y476540D01*
X303939Y476501D01*
X304018Y476465D01*
X304099Y476432D01*
X304181Y476404D01*
X304264Y476378D01*
X304348Y476357D01*
X304433Y476340D01*
X304434Y476340D02*
X304574Y476316D01*
X304716Y476296D01*
X304857Y476280D01*
X304999Y476269D01*
X305142Y476261D01*
X305284Y476257D01*
X305427Y476256D01*
X305570Y476260D01*
X305712Y476268D01*
X305854Y476280D01*
X305996Y476296D01*
X306137Y476315D01*
X306278Y476339D01*
X306418Y476366D01*
X306557Y476398D01*
X306695Y476433D01*
X306833Y476472D01*
X306969Y476515D01*
X307103Y476561D01*
X307237Y476612D01*
X307369Y476665D01*
X307500Y476723D01*
X307628Y476784D01*
X307755Y476849D01*
X307881Y476917D01*
X308004Y476989D01*
X297985Y484129D02*
X294739Y486726D01*
X294739Y475042D01*
X291494Y475042D02*
X297985Y475042D01*
M02*
