G04 EAGLE Gerber X2 export*
%TF.Part,Single*%
%TF.FileFunction,Legend,Top,1*%
%TF.FilePolarity,Positive*%
%TF.GenerationSoftware,Autodesk,EAGLE,9.1.0*%
%TF.CreationDate,2018-08-06T08:45:11Z*%
G75*
%MOMM*%
%FSLAX34Y34*%
%LPD*%
%AMOC8*
5,1,8,0,0,1.08239X$1,22.5*%
G01*
%ADD10C,0.500000*%
%ADD11C,0.120000*%
%ADD12C,0.101600*%
%ADD13C,0.203200*%
%ADD14C,0.152400*%
%ADD15C,0.127000*%
%ADD16C,0.762000*%
%ADD17R,0.762000X0.508000*%
%ADD18R,0.762000X1.016000*%
%ADD19R,0.762000X0.762000*%


D10*
X174945Y446700D03*
D11*
X173920Y439794D02*
X172445Y439794D01*
X173920Y439794D02*
X173920Y408794D01*
X172445Y408794D01*
X144395Y439794D02*
X142920Y439794D01*
X142920Y408794D01*
X144395Y408794D01*
D12*
X184303Y412807D02*
X195987Y408913D01*
X195987Y416702D02*
X184303Y412807D01*
X193066Y415728D02*
X193066Y409886D01*
X195987Y421373D02*
X184303Y421373D01*
X184303Y424618D01*
X184305Y424731D01*
X184311Y424844D01*
X184321Y424957D01*
X184335Y425070D01*
X184352Y425182D01*
X184374Y425293D01*
X184399Y425403D01*
X184429Y425513D01*
X184462Y425621D01*
X184499Y425728D01*
X184539Y425834D01*
X184584Y425938D01*
X184632Y426041D01*
X184683Y426142D01*
X184738Y426241D01*
X184796Y426338D01*
X184858Y426433D01*
X184923Y426526D01*
X184991Y426616D01*
X185062Y426704D01*
X185137Y426790D01*
X185214Y426873D01*
X185294Y426953D01*
X185377Y427030D01*
X185463Y427105D01*
X185551Y427176D01*
X185641Y427244D01*
X185734Y427309D01*
X185829Y427371D01*
X185926Y427429D01*
X186025Y427484D01*
X186126Y427535D01*
X186229Y427583D01*
X186333Y427628D01*
X186439Y427668D01*
X186546Y427705D01*
X186654Y427738D01*
X186764Y427768D01*
X186874Y427793D01*
X186985Y427815D01*
X187097Y427832D01*
X187210Y427846D01*
X187323Y427856D01*
X187436Y427862D01*
X187549Y427864D01*
X192742Y427864D01*
X192855Y427862D01*
X192968Y427856D01*
X193081Y427846D01*
X193194Y427832D01*
X193306Y427815D01*
X193417Y427793D01*
X193527Y427768D01*
X193637Y427738D01*
X193745Y427705D01*
X193852Y427668D01*
X193958Y427628D01*
X194062Y427583D01*
X194165Y427535D01*
X194266Y427484D01*
X194365Y427429D01*
X194462Y427371D01*
X194557Y427309D01*
X194650Y427244D01*
X194740Y427176D01*
X194828Y427105D01*
X194914Y427030D01*
X194997Y426953D01*
X195077Y426873D01*
X195154Y426790D01*
X195229Y426704D01*
X195300Y426616D01*
X195368Y426526D01*
X195433Y426433D01*
X195495Y426338D01*
X195553Y426241D01*
X195608Y426142D01*
X195659Y426041D01*
X195707Y425938D01*
X195752Y425834D01*
X195792Y425728D01*
X195829Y425621D01*
X195862Y425513D01*
X195892Y425403D01*
X195917Y425293D01*
X195939Y425182D01*
X195956Y425070D01*
X195970Y424957D01*
X195980Y424844D01*
X195986Y424731D01*
X195988Y424618D01*
X195987Y424618D02*
X195987Y421373D01*
X186900Y433184D02*
X184303Y436429D01*
X195987Y436429D01*
X195987Y433184D02*
X195987Y439675D01*
D10*
X348244Y491050D03*
D11*
X343206Y492950D02*
X326206Y492950D01*
X326206Y524200D02*
X343206Y524200D01*
D12*
X323220Y481692D02*
X319325Y470008D01*
X327115Y470008D02*
X323220Y481692D01*
X326141Y472929D02*
X320299Y472929D01*
X331785Y470008D02*
X331785Y481692D01*
X335031Y481692D01*
X335144Y481690D01*
X335257Y481684D01*
X335370Y481674D01*
X335483Y481660D01*
X335595Y481643D01*
X335706Y481621D01*
X335816Y481596D01*
X335926Y481566D01*
X336034Y481533D01*
X336141Y481496D01*
X336247Y481456D01*
X336351Y481411D01*
X336454Y481363D01*
X336555Y481312D01*
X336654Y481257D01*
X336751Y481199D01*
X336846Y481137D01*
X336939Y481072D01*
X337029Y481004D01*
X337117Y480933D01*
X337203Y480858D01*
X337286Y480781D01*
X337366Y480701D01*
X337443Y480618D01*
X337518Y480532D01*
X337589Y480444D01*
X337657Y480354D01*
X337722Y480261D01*
X337784Y480166D01*
X337842Y480069D01*
X337897Y479970D01*
X337948Y479869D01*
X337996Y479766D01*
X338041Y479662D01*
X338081Y479556D01*
X338118Y479449D01*
X338151Y479341D01*
X338181Y479231D01*
X338206Y479121D01*
X338228Y479010D01*
X338245Y478898D01*
X338259Y478785D01*
X338269Y478672D01*
X338275Y478559D01*
X338277Y478446D01*
X338276Y478446D02*
X338276Y473253D01*
X338277Y473253D02*
X338275Y473140D01*
X338269Y473027D01*
X338259Y472914D01*
X338245Y472801D01*
X338228Y472689D01*
X338206Y472578D01*
X338181Y472468D01*
X338151Y472358D01*
X338118Y472250D01*
X338081Y472143D01*
X338041Y472037D01*
X337996Y471933D01*
X337948Y471830D01*
X337897Y471729D01*
X337842Y471630D01*
X337784Y471533D01*
X337722Y471438D01*
X337657Y471345D01*
X337589Y471255D01*
X337518Y471167D01*
X337443Y471081D01*
X337366Y470998D01*
X337286Y470918D01*
X337203Y470841D01*
X337117Y470766D01*
X337029Y470695D01*
X336939Y470627D01*
X336846Y470562D01*
X336751Y470500D01*
X336654Y470442D01*
X336555Y470387D01*
X336454Y470336D01*
X336351Y470288D01*
X336247Y470243D01*
X336141Y470203D01*
X336034Y470166D01*
X335926Y470133D01*
X335816Y470103D01*
X335706Y470078D01*
X335595Y470056D01*
X335483Y470039D01*
X335370Y470025D01*
X335257Y470015D01*
X335144Y470009D01*
X335031Y470007D01*
X335031Y470008D02*
X331785Y470008D01*
X343596Y470008D02*
X346842Y470008D01*
X346842Y470007D02*
X346955Y470009D01*
X347068Y470015D01*
X347181Y470025D01*
X347294Y470039D01*
X347406Y470056D01*
X347517Y470078D01*
X347627Y470103D01*
X347737Y470133D01*
X347845Y470166D01*
X347952Y470203D01*
X348058Y470243D01*
X348162Y470288D01*
X348265Y470336D01*
X348366Y470387D01*
X348465Y470442D01*
X348562Y470500D01*
X348657Y470562D01*
X348750Y470627D01*
X348840Y470695D01*
X348928Y470766D01*
X349014Y470841D01*
X349097Y470918D01*
X349177Y470998D01*
X349254Y471081D01*
X349329Y471167D01*
X349400Y471255D01*
X349468Y471345D01*
X349533Y471438D01*
X349595Y471533D01*
X349653Y471630D01*
X349708Y471729D01*
X349759Y471830D01*
X349807Y471933D01*
X349852Y472037D01*
X349892Y472143D01*
X349929Y472250D01*
X349962Y472358D01*
X349992Y472468D01*
X350017Y472578D01*
X350039Y472689D01*
X350056Y472801D01*
X350070Y472914D01*
X350080Y473027D01*
X350086Y473140D01*
X350088Y473253D01*
X350086Y473366D01*
X350080Y473479D01*
X350070Y473592D01*
X350056Y473705D01*
X350039Y473817D01*
X350017Y473928D01*
X349992Y474038D01*
X349962Y474148D01*
X349929Y474256D01*
X349892Y474363D01*
X349852Y474469D01*
X349807Y474573D01*
X349759Y474676D01*
X349708Y474777D01*
X349653Y474876D01*
X349595Y474973D01*
X349533Y475068D01*
X349468Y475161D01*
X349400Y475251D01*
X349329Y475339D01*
X349254Y475425D01*
X349177Y475508D01*
X349097Y475588D01*
X349014Y475665D01*
X348928Y475740D01*
X348840Y475811D01*
X348750Y475879D01*
X348657Y475944D01*
X348562Y476006D01*
X348465Y476064D01*
X348366Y476119D01*
X348265Y476170D01*
X348162Y476218D01*
X348058Y476263D01*
X347952Y476303D01*
X347845Y476340D01*
X347737Y476373D01*
X347627Y476403D01*
X347517Y476428D01*
X347406Y476450D01*
X347294Y476467D01*
X347181Y476481D01*
X347068Y476491D01*
X346955Y476497D01*
X346842Y476499D01*
X347491Y481692D02*
X343596Y481692D01*
X347491Y481691D02*
X347592Y481689D01*
X347692Y481683D01*
X347792Y481673D01*
X347892Y481660D01*
X347991Y481642D01*
X348090Y481621D01*
X348187Y481596D01*
X348284Y481567D01*
X348379Y481534D01*
X348473Y481498D01*
X348565Y481458D01*
X348656Y481415D01*
X348745Y481368D01*
X348832Y481318D01*
X348918Y481264D01*
X349001Y481207D01*
X349081Y481147D01*
X349160Y481084D01*
X349236Y481017D01*
X349309Y480948D01*
X349379Y480876D01*
X349447Y480802D01*
X349512Y480725D01*
X349573Y480645D01*
X349632Y480563D01*
X349687Y480479D01*
X349739Y480393D01*
X349788Y480305D01*
X349833Y480215D01*
X349875Y480123D01*
X349913Y480030D01*
X349947Y479935D01*
X349978Y479840D01*
X350005Y479743D01*
X350028Y479645D01*
X350048Y479546D01*
X350063Y479446D01*
X350075Y479346D01*
X350083Y479246D01*
X350087Y479145D01*
X350087Y479045D01*
X350083Y478944D01*
X350075Y478844D01*
X350063Y478744D01*
X350048Y478644D01*
X350028Y478545D01*
X350005Y478447D01*
X349978Y478350D01*
X349947Y478255D01*
X349913Y478160D01*
X349875Y478067D01*
X349833Y477975D01*
X349788Y477885D01*
X349739Y477797D01*
X349687Y477711D01*
X349632Y477627D01*
X349573Y477545D01*
X349512Y477465D01*
X349447Y477388D01*
X349379Y477314D01*
X349309Y477242D01*
X349236Y477173D01*
X349160Y477106D01*
X349081Y477043D01*
X349001Y476983D01*
X348918Y476926D01*
X348832Y476872D01*
X348745Y476822D01*
X348656Y476775D01*
X348565Y476732D01*
X348473Y476692D01*
X348379Y476656D01*
X348284Y476623D01*
X348187Y476594D01*
X348090Y476569D01*
X347991Y476548D01*
X347892Y476530D01*
X347792Y476517D01*
X347692Y476507D01*
X347592Y476501D01*
X347491Y476499D01*
X344895Y476499D01*
D10*
X231094Y414921D03*
D11*
X232994Y422209D02*
X232994Y462209D01*
X283366Y462209D02*
X283366Y422209D01*
D12*
X221736Y420922D02*
X210052Y424817D01*
X221736Y428712D01*
X218815Y427738D02*
X218815Y421896D01*
X221736Y433383D02*
X210052Y433383D01*
X210052Y436628D01*
X210054Y436741D01*
X210060Y436854D01*
X210070Y436967D01*
X210084Y437080D01*
X210101Y437192D01*
X210123Y437303D01*
X210148Y437413D01*
X210178Y437523D01*
X210211Y437631D01*
X210248Y437738D01*
X210288Y437844D01*
X210333Y437948D01*
X210381Y438051D01*
X210432Y438152D01*
X210487Y438251D01*
X210545Y438348D01*
X210607Y438443D01*
X210672Y438536D01*
X210740Y438626D01*
X210811Y438714D01*
X210886Y438800D01*
X210963Y438883D01*
X211043Y438963D01*
X211126Y439040D01*
X211212Y439115D01*
X211300Y439186D01*
X211390Y439254D01*
X211483Y439319D01*
X211578Y439381D01*
X211675Y439439D01*
X211774Y439494D01*
X211875Y439545D01*
X211978Y439593D01*
X212082Y439638D01*
X212188Y439678D01*
X212295Y439715D01*
X212403Y439748D01*
X212513Y439778D01*
X212623Y439803D01*
X212734Y439825D01*
X212846Y439842D01*
X212959Y439856D01*
X213072Y439866D01*
X213185Y439872D01*
X213298Y439874D01*
X218491Y439874D01*
X218604Y439872D01*
X218717Y439866D01*
X218830Y439856D01*
X218943Y439842D01*
X219055Y439825D01*
X219166Y439803D01*
X219276Y439778D01*
X219386Y439748D01*
X219494Y439715D01*
X219601Y439678D01*
X219707Y439638D01*
X219811Y439593D01*
X219914Y439545D01*
X220015Y439494D01*
X220114Y439439D01*
X220211Y439381D01*
X220306Y439319D01*
X220399Y439254D01*
X220489Y439186D01*
X220577Y439115D01*
X220663Y439040D01*
X220746Y438963D01*
X220826Y438883D01*
X220903Y438800D01*
X220978Y438714D01*
X221049Y438626D01*
X221117Y438536D01*
X221182Y438443D01*
X221244Y438348D01*
X221302Y438251D01*
X221357Y438152D01*
X221408Y438051D01*
X221456Y437948D01*
X221501Y437844D01*
X221541Y437738D01*
X221578Y437631D01*
X221611Y437523D01*
X221641Y437413D01*
X221666Y437303D01*
X221688Y437192D01*
X221705Y437080D01*
X221719Y436967D01*
X221729Y436854D01*
X221735Y436741D01*
X221737Y436628D01*
X221736Y436628D02*
X221736Y433383D01*
X221736Y445648D02*
X210052Y445648D01*
X210052Y448894D01*
X210054Y449007D01*
X210060Y449120D01*
X210070Y449233D01*
X210084Y449346D01*
X210101Y449458D01*
X210123Y449569D01*
X210148Y449679D01*
X210178Y449789D01*
X210211Y449897D01*
X210248Y450004D01*
X210288Y450110D01*
X210333Y450214D01*
X210381Y450317D01*
X210432Y450418D01*
X210487Y450517D01*
X210545Y450614D01*
X210607Y450709D01*
X210672Y450802D01*
X210740Y450892D01*
X210811Y450980D01*
X210886Y451066D01*
X210963Y451149D01*
X211043Y451229D01*
X211126Y451306D01*
X211212Y451381D01*
X211300Y451452D01*
X211390Y451520D01*
X211483Y451585D01*
X211578Y451647D01*
X211675Y451705D01*
X211774Y451760D01*
X211875Y451811D01*
X211978Y451859D01*
X212082Y451904D01*
X212188Y451944D01*
X212295Y451981D01*
X212403Y452014D01*
X212513Y452044D01*
X212623Y452069D01*
X212734Y452091D01*
X212846Y452108D01*
X212959Y452122D01*
X213072Y452132D01*
X213185Y452138D01*
X213298Y452140D01*
X213411Y452138D01*
X213524Y452132D01*
X213637Y452122D01*
X213750Y452108D01*
X213862Y452091D01*
X213973Y452069D01*
X214083Y452044D01*
X214193Y452014D01*
X214301Y451981D01*
X214408Y451944D01*
X214514Y451904D01*
X214618Y451859D01*
X214721Y451811D01*
X214822Y451760D01*
X214921Y451705D01*
X215018Y451647D01*
X215113Y451585D01*
X215206Y451520D01*
X215296Y451452D01*
X215384Y451381D01*
X215470Y451306D01*
X215553Y451229D01*
X215633Y451149D01*
X215710Y451066D01*
X215785Y450980D01*
X215856Y450892D01*
X215924Y450802D01*
X215989Y450709D01*
X216051Y450614D01*
X216109Y450517D01*
X216164Y450418D01*
X216215Y450317D01*
X216263Y450214D01*
X216308Y450110D01*
X216348Y450004D01*
X216385Y449897D01*
X216418Y449789D01*
X216448Y449679D01*
X216473Y449569D01*
X216495Y449458D01*
X216512Y449346D01*
X216526Y449233D01*
X216536Y449120D01*
X216542Y449007D01*
X216544Y448894D01*
X216543Y448894D02*
X216543Y445648D01*
X216543Y449543D02*
X221736Y452139D01*
X212973Y463496D02*
X212866Y463494D01*
X212760Y463488D01*
X212654Y463478D01*
X212548Y463465D01*
X212442Y463447D01*
X212338Y463426D01*
X212234Y463401D01*
X212131Y463372D01*
X212030Y463340D01*
X211930Y463303D01*
X211831Y463263D01*
X211733Y463220D01*
X211637Y463173D01*
X211543Y463122D01*
X211451Y463068D01*
X211361Y463011D01*
X211273Y462951D01*
X211188Y462887D01*
X211105Y462820D01*
X211024Y462750D01*
X210946Y462678D01*
X210870Y462602D01*
X210798Y462524D01*
X210728Y462443D01*
X210661Y462360D01*
X210597Y462275D01*
X210537Y462187D01*
X210480Y462097D01*
X210426Y462005D01*
X210375Y461911D01*
X210328Y461815D01*
X210285Y461717D01*
X210245Y461618D01*
X210208Y461518D01*
X210176Y461417D01*
X210147Y461314D01*
X210122Y461210D01*
X210101Y461106D01*
X210083Y461000D01*
X210070Y460894D01*
X210060Y460788D01*
X210054Y460682D01*
X210052Y460575D01*
X210054Y460454D01*
X210060Y460333D01*
X210070Y460213D01*
X210083Y460092D01*
X210101Y459973D01*
X210122Y459853D01*
X210147Y459735D01*
X210176Y459618D01*
X210209Y459501D01*
X210245Y459386D01*
X210286Y459272D01*
X210329Y459159D01*
X210377Y459047D01*
X210428Y458938D01*
X210483Y458830D01*
X210541Y458723D01*
X210602Y458619D01*
X210667Y458517D01*
X210735Y458417D01*
X210806Y458319D01*
X210880Y458223D01*
X210957Y458130D01*
X211038Y458040D01*
X211121Y457952D01*
X211207Y457867D01*
X211296Y457784D01*
X211387Y457705D01*
X211481Y457628D01*
X211577Y457555D01*
X211675Y457485D01*
X211776Y457418D01*
X211879Y457354D01*
X211984Y457294D01*
X212091Y457236D01*
X212199Y457183D01*
X212309Y457133D01*
X212421Y457087D01*
X212534Y457044D01*
X212649Y457005D01*
X215245Y462521D02*
X215167Y462600D01*
X215087Y462676D01*
X215004Y462749D01*
X214918Y462819D01*
X214831Y462886D01*
X214740Y462950D01*
X214648Y463010D01*
X214554Y463068D01*
X214457Y463122D01*
X214359Y463172D01*
X214259Y463219D01*
X214158Y463263D01*
X214055Y463303D01*
X213950Y463339D01*
X213845Y463371D01*
X213738Y463400D01*
X213631Y463425D01*
X213522Y463447D01*
X213413Y463464D01*
X213304Y463478D01*
X213194Y463487D01*
X213083Y463493D01*
X212973Y463495D01*
X215245Y462522D02*
X221736Y457004D01*
X221736Y463496D01*
X129092Y448314D02*
X125847Y448314D01*
X129092Y448315D02*
X129205Y448313D01*
X129318Y448307D01*
X129431Y448297D01*
X129544Y448283D01*
X129656Y448266D01*
X129767Y448244D01*
X129877Y448219D01*
X129987Y448189D01*
X130095Y448156D01*
X130202Y448119D01*
X130308Y448079D01*
X130412Y448034D01*
X130515Y447986D01*
X130616Y447935D01*
X130715Y447880D01*
X130812Y447822D01*
X130907Y447760D01*
X131000Y447695D01*
X131090Y447627D01*
X131178Y447556D01*
X131264Y447481D01*
X131347Y447404D01*
X131427Y447324D01*
X131504Y447241D01*
X131579Y447155D01*
X131650Y447067D01*
X131718Y446977D01*
X131783Y446884D01*
X131845Y446789D01*
X131903Y446692D01*
X131958Y446593D01*
X132009Y446492D01*
X132057Y446389D01*
X132102Y446285D01*
X132142Y446179D01*
X132179Y446072D01*
X132212Y445964D01*
X132242Y445854D01*
X132267Y445744D01*
X132289Y445633D01*
X132306Y445521D01*
X132320Y445408D01*
X132330Y445295D01*
X132336Y445182D01*
X132338Y445069D01*
X132336Y444956D01*
X132330Y444843D01*
X132320Y444730D01*
X132306Y444617D01*
X132289Y444505D01*
X132267Y444394D01*
X132242Y444284D01*
X132212Y444174D01*
X132179Y444066D01*
X132142Y443959D01*
X132102Y443853D01*
X132057Y443749D01*
X132009Y443646D01*
X131958Y443545D01*
X131903Y443446D01*
X131845Y443349D01*
X131783Y443254D01*
X131718Y443161D01*
X131650Y443071D01*
X131579Y442983D01*
X131504Y442897D01*
X131427Y442814D01*
X131347Y442734D01*
X131264Y442657D01*
X131178Y442582D01*
X131090Y442511D01*
X131000Y442443D01*
X130907Y442378D01*
X130812Y442316D01*
X130715Y442258D01*
X130616Y442203D01*
X130515Y442152D01*
X130412Y442104D01*
X130308Y442059D01*
X130202Y442019D01*
X130095Y441982D01*
X129987Y441949D01*
X129877Y441919D01*
X129767Y441894D01*
X129656Y441872D01*
X129544Y441855D01*
X129431Y441841D01*
X129318Y441831D01*
X129205Y441825D01*
X129092Y441823D01*
X125847Y441823D01*
X125847Y453507D01*
X129092Y453507D01*
X129193Y453505D01*
X129293Y453499D01*
X129393Y453489D01*
X129493Y453476D01*
X129592Y453458D01*
X129691Y453437D01*
X129788Y453412D01*
X129885Y453383D01*
X129980Y453350D01*
X130074Y453314D01*
X130166Y453274D01*
X130257Y453231D01*
X130346Y453184D01*
X130433Y453134D01*
X130519Y453080D01*
X130602Y453023D01*
X130682Y452963D01*
X130761Y452900D01*
X130837Y452833D01*
X130910Y452764D01*
X130980Y452692D01*
X131048Y452618D01*
X131113Y452541D01*
X131174Y452461D01*
X131233Y452379D01*
X131288Y452295D01*
X131340Y452209D01*
X131389Y452121D01*
X131434Y452031D01*
X131476Y451939D01*
X131514Y451846D01*
X131548Y451751D01*
X131579Y451656D01*
X131606Y451559D01*
X131629Y451461D01*
X131649Y451362D01*
X131664Y451262D01*
X131676Y451162D01*
X131684Y451062D01*
X131688Y450961D01*
X131688Y450861D01*
X131684Y450760D01*
X131676Y450660D01*
X131664Y450560D01*
X131649Y450460D01*
X131629Y450361D01*
X131606Y450263D01*
X131579Y450166D01*
X131548Y450071D01*
X131514Y449976D01*
X131476Y449883D01*
X131434Y449791D01*
X131389Y449701D01*
X131340Y449613D01*
X131288Y449527D01*
X131233Y449443D01*
X131174Y449361D01*
X131113Y449281D01*
X131048Y449204D01*
X130980Y449130D01*
X130910Y449058D01*
X130837Y448989D01*
X130761Y448922D01*
X130682Y448859D01*
X130602Y448799D01*
X130519Y448742D01*
X130433Y448688D01*
X130346Y448638D01*
X130257Y448591D01*
X130166Y448548D01*
X130074Y448508D01*
X129980Y448472D01*
X129885Y448439D01*
X129788Y448410D01*
X129691Y448385D01*
X129592Y448364D01*
X129493Y448346D01*
X129393Y448333D01*
X129293Y448323D01*
X129193Y448317D01*
X129092Y448315D01*
X137130Y453507D02*
X137130Y441823D01*
X142323Y441823D01*
X147126Y441823D02*
X147126Y453507D01*
X151021Y447016D01*
X154915Y453507D01*
X154915Y441823D01*
X160348Y450911D02*
X163594Y453507D01*
X163594Y441823D01*
X166839Y441823D02*
X160348Y441823D01*
X188439Y588725D02*
X188439Y591322D01*
X188439Y588725D02*
X188437Y588626D01*
X188431Y588526D01*
X188422Y588427D01*
X188409Y588329D01*
X188392Y588231D01*
X188371Y588133D01*
X188346Y588037D01*
X188318Y587942D01*
X188286Y587848D01*
X188251Y587755D01*
X188212Y587663D01*
X188169Y587573D01*
X188124Y587485D01*
X188074Y587398D01*
X188022Y587314D01*
X187966Y587231D01*
X187908Y587151D01*
X187846Y587073D01*
X187781Y586998D01*
X187713Y586925D01*
X187643Y586855D01*
X187570Y586787D01*
X187495Y586722D01*
X187417Y586660D01*
X187337Y586602D01*
X187254Y586546D01*
X187170Y586494D01*
X187083Y586444D01*
X186995Y586399D01*
X186905Y586356D01*
X186813Y586317D01*
X186720Y586282D01*
X186626Y586250D01*
X186531Y586222D01*
X186435Y586197D01*
X186337Y586176D01*
X186239Y586159D01*
X186141Y586146D01*
X186042Y586137D01*
X185942Y586131D01*
X185843Y586129D01*
X179351Y586129D01*
X179351Y586128D02*
X179252Y586130D01*
X179152Y586136D01*
X179053Y586145D01*
X178955Y586158D01*
X178857Y586176D01*
X178759Y586196D01*
X178663Y586221D01*
X178567Y586249D01*
X178473Y586281D01*
X178380Y586316D01*
X178289Y586355D01*
X178199Y586398D01*
X178110Y586443D01*
X178024Y586493D01*
X177939Y586545D01*
X177857Y586601D01*
X177777Y586660D01*
X177699Y586721D01*
X177623Y586786D01*
X177550Y586854D01*
X177480Y586924D01*
X177412Y586997D01*
X177347Y587073D01*
X177286Y587151D01*
X177227Y587231D01*
X177171Y587313D01*
X177119Y587398D01*
X177070Y587484D01*
X177024Y587573D01*
X176981Y587663D01*
X176942Y587754D01*
X176907Y587847D01*
X176875Y587941D01*
X176847Y588037D01*
X176822Y588133D01*
X176802Y588231D01*
X176784Y588329D01*
X176771Y588427D01*
X176762Y588526D01*
X176756Y588625D01*
X176754Y588725D01*
X176755Y588725D02*
X176755Y591322D01*
X179351Y595687D02*
X176755Y598933D01*
X188439Y598933D01*
X188439Y602178D02*
X188439Y595687D01*
X182597Y607117D02*
X182367Y607120D01*
X182137Y607128D01*
X181908Y607142D01*
X181679Y607161D01*
X181450Y607186D01*
X181222Y607216D01*
X180995Y607251D01*
X180769Y607292D01*
X180544Y607338D01*
X180320Y607390D01*
X180097Y607447D01*
X179876Y607509D01*
X179656Y607577D01*
X179438Y607650D01*
X179222Y607728D01*
X179008Y607811D01*
X178796Y607899D01*
X178585Y607992D01*
X178378Y608091D01*
X178288Y608124D01*
X178199Y608160D01*
X178111Y608200D01*
X178026Y608244D01*
X177942Y608291D01*
X177860Y608341D01*
X177780Y608395D01*
X177703Y608451D01*
X177627Y608511D01*
X177554Y608574D01*
X177484Y608639D01*
X177416Y608708D01*
X177352Y608779D01*
X177290Y608852D01*
X177231Y608928D01*
X177175Y609006D01*
X177122Y609087D01*
X177073Y609169D01*
X177027Y609253D01*
X176984Y609340D01*
X176945Y609427D01*
X176909Y609517D01*
X176877Y609607D01*
X176849Y609699D01*
X176824Y609792D01*
X176803Y609886D01*
X176786Y609980D01*
X176772Y610075D01*
X176763Y610171D01*
X176757Y610267D01*
X176755Y610363D01*
X176757Y610459D01*
X176763Y610555D01*
X176772Y610651D01*
X176786Y610746D01*
X176803Y610840D01*
X176824Y610934D01*
X176849Y611027D01*
X176877Y611119D01*
X176909Y611209D01*
X176945Y611299D01*
X176984Y611387D01*
X177027Y611473D01*
X177073Y611557D01*
X177122Y611639D01*
X177175Y611720D01*
X177231Y611798D01*
X177290Y611874D01*
X177352Y611947D01*
X177416Y612018D01*
X177484Y612087D01*
X177554Y612152D01*
X177627Y612215D01*
X177703Y612275D01*
X177780Y612331D01*
X177860Y612385D01*
X177942Y612435D01*
X178026Y612482D01*
X178111Y612526D01*
X178199Y612566D01*
X178288Y612602D01*
X178378Y612635D01*
X178378Y612634D02*
X178585Y612733D01*
X178796Y612826D01*
X179008Y612914D01*
X179222Y612997D01*
X179438Y613075D01*
X179656Y613148D01*
X179876Y613216D01*
X180097Y613278D01*
X180320Y613335D01*
X180544Y613387D01*
X180769Y613433D01*
X180995Y613474D01*
X181222Y613509D01*
X181450Y613539D01*
X181679Y613564D01*
X181908Y613583D01*
X182137Y613597D01*
X182367Y613605D01*
X182597Y613608D01*
X182597Y607117D02*
X182827Y607120D01*
X183057Y607128D01*
X183286Y607142D01*
X183515Y607161D01*
X183744Y607186D01*
X183972Y607216D01*
X184199Y607251D01*
X184425Y607292D01*
X184650Y607338D01*
X184874Y607390D01*
X185097Y607447D01*
X185318Y607509D01*
X185538Y607577D01*
X185756Y607650D01*
X185972Y607728D01*
X186186Y607811D01*
X186398Y607899D01*
X186609Y607992D01*
X186816Y608091D01*
X186906Y608124D01*
X186995Y608160D01*
X187083Y608201D01*
X187168Y608244D01*
X187252Y608291D01*
X187334Y608341D01*
X187414Y608395D01*
X187491Y608451D01*
X187567Y608511D01*
X187640Y608574D01*
X187710Y608639D01*
X187778Y608708D01*
X187842Y608779D01*
X187904Y608852D01*
X187963Y608928D01*
X188019Y609006D01*
X188072Y609087D01*
X188121Y609169D01*
X188167Y609253D01*
X188210Y609340D01*
X188249Y609427D01*
X188285Y609517D01*
X188317Y609607D01*
X188345Y609699D01*
X188370Y609792D01*
X188391Y609886D01*
X188408Y609980D01*
X188422Y610075D01*
X188431Y610171D01*
X188437Y610267D01*
X188439Y610363D01*
X186816Y612634D02*
X186609Y612733D01*
X186398Y612826D01*
X186186Y612914D01*
X185972Y612997D01*
X185756Y613075D01*
X185538Y613148D01*
X185318Y613216D01*
X185097Y613278D01*
X184874Y613335D01*
X184650Y613387D01*
X184425Y613433D01*
X184199Y613474D01*
X183972Y613509D01*
X183744Y613539D01*
X183515Y613564D01*
X183286Y613583D01*
X183057Y613597D01*
X182827Y613605D01*
X182597Y613608D01*
X186816Y612635D02*
X186906Y612602D01*
X186995Y612566D01*
X187083Y612526D01*
X187168Y612482D01*
X187252Y612435D01*
X187334Y612385D01*
X187414Y612331D01*
X187491Y612275D01*
X187567Y612215D01*
X187640Y612152D01*
X187710Y612087D01*
X187778Y612018D01*
X187842Y611947D01*
X187904Y611874D01*
X187963Y611798D01*
X188019Y611720D01*
X188072Y611639D01*
X188121Y611557D01*
X188167Y611473D01*
X188210Y611386D01*
X188249Y611299D01*
X188285Y611209D01*
X188317Y611119D01*
X188345Y611027D01*
X188370Y610934D01*
X188391Y610840D01*
X188408Y610746D01*
X188422Y610651D01*
X188431Y610555D01*
X188437Y610459D01*
X188439Y610363D01*
X185843Y607766D02*
X179351Y612959D01*
X263279Y593901D02*
X263279Y591305D01*
X263277Y591206D01*
X263271Y591106D01*
X263262Y591007D01*
X263249Y590909D01*
X263232Y590811D01*
X263211Y590713D01*
X263186Y590617D01*
X263158Y590522D01*
X263126Y590428D01*
X263091Y590335D01*
X263052Y590243D01*
X263009Y590153D01*
X262964Y590065D01*
X262914Y589978D01*
X262862Y589894D01*
X262806Y589811D01*
X262748Y589731D01*
X262686Y589653D01*
X262621Y589578D01*
X262553Y589505D01*
X262483Y589435D01*
X262410Y589367D01*
X262335Y589302D01*
X262257Y589240D01*
X262177Y589182D01*
X262094Y589126D01*
X262010Y589074D01*
X261923Y589024D01*
X261835Y588979D01*
X261745Y588936D01*
X261653Y588897D01*
X261560Y588862D01*
X261466Y588830D01*
X261371Y588802D01*
X261275Y588777D01*
X261177Y588756D01*
X261079Y588739D01*
X260981Y588726D01*
X260882Y588717D01*
X260782Y588711D01*
X260683Y588709D01*
X260683Y588708D02*
X254192Y588708D01*
X254093Y588710D01*
X253993Y588716D01*
X253894Y588725D01*
X253796Y588738D01*
X253698Y588756D01*
X253600Y588776D01*
X253504Y588801D01*
X253408Y588829D01*
X253314Y588861D01*
X253221Y588896D01*
X253130Y588935D01*
X253040Y588978D01*
X252951Y589023D01*
X252865Y589073D01*
X252780Y589125D01*
X252698Y589181D01*
X252618Y589240D01*
X252540Y589301D01*
X252464Y589366D01*
X252391Y589434D01*
X252321Y589504D01*
X252253Y589577D01*
X252188Y589653D01*
X252127Y589731D01*
X252068Y589811D01*
X252012Y589893D01*
X251960Y589978D01*
X251911Y590064D01*
X251865Y590153D01*
X251822Y590243D01*
X251783Y590334D01*
X251748Y590427D01*
X251716Y590521D01*
X251688Y590617D01*
X251663Y590713D01*
X251643Y590811D01*
X251625Y590909D01*
X251612Y591007D01*
X251603Y591106D01*
X251597Y591205D01*
X251595Y591305D01*
X251595Y593901D01*
X254192Y598267D02*
X251595Y601512D01*
X263279Y601512D01*
X263279Y598267D02*
X263279Y604758D01*
X254192Y609697D02*
X251595Y612942D01*
X263279Y612942D01*
X263279Y609697D02*
X263279Y616188D01*
X260020Y549125D02*
X257424Y549125D01*
X257424Y549126D02*
X257325Y549128D01*
X257225Y549134D01*
X257126Y549143D01*
X257028Y549156D01*
X256930Y549173D01*
X256832Y549194D01*
X256736Y549219D01*
X256641Y549247D01*
X256547Y549279D01*
X256454Y549314D01*
X256362Y549353D01*
X256272Y549396D01*
X256184Y549441D01*
X256097Y549491D01*
X256013Y549543D01*
X255930Y549599D01*
X255850Y549657D01*
X255772Y549719D01*
X255697Y549784D01*
X255624Y549852D01*
X255554Y549922D01*
X255486Y549995D01*
X255421Y550070D01*
X255359Y550148D01*
X255301Y550228D01*
X255245Y550311D01*
X255193Y550395D01*
X255143Y550482D01*
X255098Y550570D01*
X255055Y550660D01*
X255016Y550752D01*
X254981Y550845D01*
X254949Y550939D01*
X254921Y551034D01*
X254896Y551130D01*
X254875Y551228D01*
X254858Y551326D01*
X254845Y551424D01*
X254836Y551523D01*
X254830Y551623D01*
X254828Y551722D01*
X254827Y551722D02*
X254827Y558213D01*
X254828Y558213D02*
X254830Y558312D01*
X254836Y558412D01*
X254845Y558511D01*
X254858Y558609D01*
X254875Y558707D01*
X254896Y558805D01*
X254921Y558901D01*
X254949Y558996D01*
X254981Y559090D01*
X255016Y559183D01*
X255055Y559275D01*
X255098Y559365D01*
X255143Y559453D01*
X255193Y559540D01*
X255245Y559624D01*
X255301Y559707D01*
X255359Y559787D01*
X255421Y559865D01*
X255486Y559940D01*
X255554Y560013D01*
X255624Y560083D01*
X255697Y560151D01*
X255772Y560216D01*
X255850Y560278D01*
X255930Y560336D01*
X256013Y560392D01*
X256097Y560444D01*
X256184Y560494D01*
X256272Y560539D01*
X256362Y560582D01*
X256454Y560621D01*
X256546Y560656D01*
X256641Y560688D01*
X256736Y560716D01*
X256832Y560741D01*
X256930Y560762D01*
X257028Y560779D01*
X257126Y560792D01*
X257225Y560801D01*
X257325Y560807D01*
X257424Y560809D01*
X260020Y560809D01*
X264386Y558213D02*
X267631Y560809D01*
X267631Y549125D01*
X264386Y549125D02*
X270877Y549125D01*
X282307Y557888D02*
X282305Y557995D01*
X282299Y558101D01*
X282289Y558207D01*
X282276Y558313D01*
X282258Y558419D01*
X282237Y558523D01*
X282212Y558627D01*
X282183Y558730D01*
X282151Y558831D01*
X282114Y558931D01*
X282074Y559030D01*
X282031Y559128D01*
X281984Y559224D01*
X281933Y559318D01*
X281879Y559410D01*
X281822Y559500D01*
X281762Y559588D01*
X281698Y559673D01*
X281631Y559756D01*
X281561Y559837D01*
X281489Y559915D01*
X281413Y559991D01*
X281335Y560063D01*
X281254Y560133D01*
X281171Y560200D01*
X281086Y560264D01*
X280998Y560324D01*
X280908Y560381D01*
X280816Y560435D01*
X280722Y560486D01*
X280626Y560533D01*
X280528Y560576D01*
X280429Y560616D01*
X280329Y560653D01*
X280228Y560685D01*
X280125Y560714D01*
X280021Y560739D01*
X279917Y560760D01*
X279811Y560778D01*
X279705Y560791D01*
X279599Y560801D01*
X279493Y560807D01*
X279386Y560809D01*
X279386Y560810D02*
X279265Y560808D01*
X279144Y560802D01*
X279024Y560792D01*
X278903Y560779D01*
X278784Y560761D01*
X278664Y560740D01*
X278546Y560715D01*
X278429Y560686D01*
X278312Y560653D01*
X278197Y560617D01*
X278083Y560576D01*
X277970Y560533D01*
X277858Y560485D01*
X277749Y560434D01*
X277641Y560379D01*
X277534Y560321D01*
X277430Y560260D01*
X277328Y560195D01*
X277228Y560127D01*
X277130Y560056D01*
X277034Y559982D01*
X276941Y559905D01*
X276851Y559824D01*
X276763Y559741D01*
X276678Y559655D01*
X276595Y559566D01*
X276516Y559475D01*
X276439Y559381D01*
X276366Y559285D01*
X276296Y559187D01*
X276229Y559086D01*
X276165Y558983D01*
X276105Y558878D01*
X276048Y558771D01*
X275994Y558663D01*
X275944Y558553D01*
X275898Y558441D01*
X275855Y558328D01*
X275816Y558213D01*
X281333Y555616D02*
X281412Y555693D01*
X281488Y555774D01*
X281561Y555857D01*
X281631Y555942D01*
X281698Y556030D01*
X281762Y556120D01*
X281822Y556212D01*
X281879Y556307D01*
X281933Y556403D01*
X281984Y556501D01*
X282031Y556601D01*
X282075Y556703D01*
X282115Y556806D01*
X282151Y556910D01*
X282183Y557016D01*
X282212Y557122D01*
X282237Y557230D01*
X282259Y557338D01*
X282276Y557448D01*
X282290Y557557D01*
X282299Y557667D01*
X282305Y557778D01*
X282307Y557888D01*
X281333Y555617D02*
X275816Y549125D01*
X282307Y549125D01*
X119159Y592020D02*
X119159Y594616D01*
X119159Y592020D02*
X119157Y591921D01*
X119151Y591821D01*
X119142Y591722D01*
X119129Y591624D01*
X119112Y591526D01*
X119091Y591428D01*
X119066Y591332D01*
X119038Y591237D01*
X119006Y591143D01*
X118971Y591050D01*
X118932Y590958D01*
X118889Y590868D01*
X118844Y590780D01*
X118794Y590693D01*
X118742Y590609D01*
X118686Y590526D01*
X118628Y590446D01*
X118566Y590368D01*
X118501Y590293D01*
X118433Y590220D01*
X118363Y590150D01*
X118290Y590082D01*
X118215Y590017D01*
X118137Y589955D01*
X118057Y589897D01*
X117974Y589841D01*
X117890Y589789D01*
X117803Y589739D01*
X117715Y589694D01*
X117625Y589651D01*
X117533Y589612D01*
X117440Y589577D01*
X117346Y589545D01*
X117251Y589517D01*
X117155Y589492D01*
X117057Y589471D01*
X116959Y589454D01*
X116861Y589441D01*
X116762Y589432D01*
X116662Y589426D01*
X116563Y589424D01*
X116563Y589423D02*
X110072Y589423D01*
X109973Y589425D01*
X109873Y589431D01*
X109774Y589440D01*
X109676Y589453D01*
X109578Y589471D01*
X109480Y589491D01*
X109384Y589516D01*
X109288Y589544D01*
X109194Y589576D01*
X109101Y589611D01*
X109010Y589650D01*
X108920Y589693D01*
X108831Y589738D01*
X108745Y589788D01*
X108660Y589840D01*
X108578Y589896D01*
X108498Y589955D01*
X108420Y590016D01*
X108344Y590081D01*
X108271Y590149D01*
X108201Y590219D01*
X108133Y590292D01*
X108068Y590368D01*
X108007Y590446D01*
X107948Y590526D01*
X107892Y590608D01*
X107840Y590693D01*
X107791Y590779D01*
X107745Y590868D01*
X107702Y590958D01*
X107663Y591049D01*
X107628Y591142D01*
X107596Y591236D01*
X107568Y591332D01*
X107543Y591428D01*
X107523Y591526D01*
X107505Y591624D01*
X107492Y591722D01*
X107483Y591821D01*
X107477Y591920D01*
X107475Y592020D01*
X107475Y594616D01*
X110072Y598981D02*
X107475Y602227D01*
X119159Y602227D01*
X119159Y598981D02*
X119159Y605473D01*
X119159Y610411D02*
X119159Y613657D01*
X119160Y613657D02*
X119158Y613770D01*
X119152Y613883D01*
X119142Y613996D01*
X119128Y614109D01*
X119111Y614221D01*
X119089Y614332D01*
X119064Y614442D01*
X119034Y614552D01*
X119001Y614660D01*
X118964Y614767D01*
X118924Y614873D01*
X118879Y614977D01*
X118831Y615080D01*
X118780Y615181D01*
X118725Y615280D01*
X118667Y615377D01*
X118605Y615472D01*
X118540Y615565D01*
X118472Y615655D01*
X118401Y615743D01*
X118326Y615829D01*
X118249Y615912D01*
X118169Y615992D01*
X118086Y616069D01*
X118000Y616144D01*
X117912Y616215D01*
X117822Y616283D01*
X117729Y616348D01*
X117634Y616410D01*
X117537Y616468D01*
X117438Y616523D01*
X117337Y616574D01*
X117234Y616622D01*
X117130Y616667D01*
X117024Y616707D01*
X116917Y616744D01*
X116809Y616777D01*
X116699Y616807D01*
X116589Y616832D01*
X116478Y616854D01*
X116366Y616871D01*
X116253Y616885D01*
X116140Y616895D01*
X116027Y616901D01*
X115914Y616903D01*
X115801Y616901D01*
X115688Y616895D01*
X115575Y616885D01*
X115462Y616871D01*
X115350Y616854D01*
X115239Y616832D01*
X115129Y616807D01*
X115019Y616777D01*
X114911Y616744D01*
X114804Y616707D01*
X114698Y616667D01*
X114594Y616622D01*
X114491Y616574D01*
X114390Y616523D01*
X114291Y616468D01*
X114194Y616410D01*
X114099Y616348D01*
X114006Y616283D01*
X113916Y616215D01*
X113828Y616144D01*
X113742Y616069D01*
X113659Y615992D01*
X113579Y615912D01*
X113502Y615829D01*
X113427Y615743D01*
X113356Y615655D01*
X113288Y615565D01*
X113223Y615472D01*
X113161Y615377D01*
X113103Y615280D01*
X113048Y615181D01*
X112997Y615080D01*
X112949Y614977D01*
X112904Y614873D01*
X112864Y614767D01*
X112827Y614660D01*
X112794Y614552D01*
X112764Y614442D01*
X112739Y614332D01*
X112717Y614221D01*
X112700Y614109D01*
X112686Y613996D01*
X112676Y613883D01*
X112670Y613770D01*
X112668Y613657D01*
X107475Y614306D02*
X107475Y610411D01*
X107476Y614306D02*
X107478Y614407D01*
X107484Y614507D01*
X107494Y614607D01*
X107507Y614707D01*
X107525Y614806D01*
X107546Y614905D01*
X107571Y615002D01*
X107600Y615099D01*
X107633Y615194D01*
X107669Y615288D01*
X107709Y615380D01*
X107752Y615471D01*
X107799Y615560D01*
X107849Y615647D01*
X107903Y615733D01*
X107960Y615816D01*
X108020Y615896D01*
X108083Y615975D01*
X108150Y616051D01*
X108219Y616124D01*
X108291Y616194D01*
X108365Y616262D01*
X108442Y616327D01*
X108522Y616388D01*
X108604Y616447D01*
X108688Y616502D01*
X108774Y616554D01*
X108862Y616603D01*
X108952Y616648D01*
X109044Y616690D01*
X109137Y616728D01*
X109232Y616762D01*
X109327Y616793D01*
X109424Y616820D01*
X109522Y616843D01*
X109621Y616863D01*
X109721Y616878D01*
X109821Y616890D01*
X109921Y616898D01*
X110022Y616902D01*
X110122Y616902D01*
X110223Y616898D01*
X110323Y616890D01*
X110423Y616878D01*
X110523Y616863D01*
X110622Y616843D01*
X110720Y616820D01*
X110817Y616793D01*
X110912Y616762D01*
X111007Y616728D01*
X111100Y616690D01*
X111192Y616648D01*
X111282Y616603D01*
X111370Y616554D01*
X111456Y616502D01*
X111540Y616447D01*
X111622Y616388D01*
X111702Y616327D01*
X111779Y616262D01*
X111853Y616194D01*
X111925Y616124D01*
X111994Y616051D01*
X112061Y615975D01*
X112124Y615896D01*
X112184Y615816D01*
X112241Y615733D01*
X112295Y615647D01*
X112345Y615560D01*
X112392Y615471D01*
X112435Y615380D01*
X112475Y615288D01*
X112511Y615194D01*
X112544Y615099D01*
X112573Y615002D01*
X112598Y614905D01*
X112619Y614806D01*
X112637Y614707D01*
X112650Y614607D01*
X112660Y614507D01*
X112666Y614407D01*
X112668Y614306D01*
X112668Y611710D01*
D13*
X333070Y369869D02*
X367070Y369869D01*
X367070Y359369D01*
X367070Y337369D02*
X367070Y326869D01*
X333070Y326869D01*
X324070Y335869D02*
X324070Y337369D01*
X324070Y358869D02*
X324070Y360869D01*
X333070Y369869D01*
X324070Y335869D02*
X333070Y326869D01*
X329070Y357869D02*
X329307Y358268D01*
X329553Y358662D01*
X329809Y359049D01*
X330074Y359430D01*
X330348Y359805D01*
X330631Y360172D01*
X330924Y360533D01*
X331224Y360887D01*
X331534Y361233D01*
X331852Y361571D01*
X332178Y361901D01*
X332511Y362224D01*
X332853Y362538D01*
X333202Y362844D01*
X333559Y363141D01*
X333923Y363430D01*
X334293Y363709D01*
X334671Y363979D01*
X335054Y364240D01*
X335444Y364492D01*
X335840Y364734D01*
X336242Y364967D01*
X336650Y365189D01*
X337062Y365401D01*
X337480Y365604D01*
X337903Y365796D01*
X338330Y365978D01*
X338761Y366149D01*
X339197Y366310D01*
X339636Y366460D01*
X340079Y366599D01*
X340525Y366727D01*
X340974Y366845D01*
X341426Y366951D01*
X341880Y367047D01*
X342336Y367131D01*
X342795Y367205D01*
X343255Y367267D01*
X343716Y367318D01*
X344179Y367357D01*
X344642Y367385D01*
X345106Y367402D01*
X345570Y367408D01*
X346034Y367402D01*
X346498Y367385D01*
X346961Y367357D01*
X347424Y367318D01*
X347885Y367267D01*
X348345Y367205D01*
X348804Y367131D01*
X349260Y367047D01*
X349714Y366951D01*
X350166Y366845D01*
X350615Y366727D01*
X351061Y366599D01*
X351504Y366460D01*
X351943Y366310D01*
X352379Y366149D01*
X352810Y365978D01*
X353237Y365796D01*
X353660Y365604D01*
X354078Y365401D01*
X354490Y365189D01*
X354898Y364967D01*
X355300Y364734D01*
X355696Y364492D01*
X356086Y364240D01*
X356469Y363979D01*
X356847Y363709D01*
X357217Y363430D01*
X357581Y363141D01*
X357938Y362844D01*
X358287Y362538D01*
X358629Y362224D01*
X358962Y361901D01*
X359288Y361571D01*
X359606Y361233D01*
X359916Y360887D01*
X360216Y360533D01*
X360509Y360172D01*
X360792Y359805D01*
X361066Y359430D01*
X361331Y359049D01*
X361587Y358662D01*
X361833Y358268D01*
X362070Y357869D01*
X362070Y338869D02*
X361833Y338470D01*
X361587Y338076D01*
X361331Y337689D01*
X361066Y337308D01*
X360792Y336933D01*
X360509Y336566D01*
X360216Y336205D01*
X359916Y335851D01*
X359606Y335505D01*
X359288Y335167D01*
X358962Y334837D01*
X358629Y334514D01*
X358287Y334200D01*
X357938Y333894D01*
X357581Y333597D01*
X357217Y333308D01*
X356847Y333029D01*
X356469Y332759D01*
X356086Y332498D01*
X355696Y332246D01*
X355300Y332004D01*
X354898Y331771D01*
X354490Y331549D01*
X354078Y331337D01*
X353660Y331134D01*
X353237Y330942D01*
X352810Y330760D01*
X352379Y330589D01*
X351943Y330428D01*
X351504Y330278D01*
X351061Y330139D01*
X350615Y330011D01*
X350166Y329893D01*
X349714Y329787D01*
X349260Y329691D01*
X348804Y329607D01*
X348345Y329533D01*
X347885Y329471D01*
X347424Y329420D01*
X346961Y329381D01*
X346498Y329353D01*
X346034Y329336D01*
X345570Y329330D01*
X345106Y329336D01*
X344642Y329353D01*
X344179Y329381D01*
X343716Y329420D01*
X343255Y329471D01*
X342795Y329533D01*
X342336Y329607D01*
X341880Y329691D01*
X341426Y329787D01*
X340974Y329893D01*
X340525Y330011D01*
X340079Y330139D01*
X339636Y330278D01*
X339197Y330428D01*
X338761Y330589D01*
X338330Y330760D01*
X337903Y330942D01*
X337480Y331134D01*
X337062Y331337D01*
X336650Y331549D01*
X336242Y331771D01*
X335840Y332004D01*
X335444Y332246D01*
X335054Y332498D01*
X334671Y332759D01*
X334293Y333029D01*
X333923Y333308D01*
X333559Y333597D01*
X333202Y333894D01*
X332853Y334200D01*
X332511Y334514D01*
X332178Y334837D01*
X331852Y335167D01*
X331534Y335505D01*
X331224Y335851D01*
X330924Y336205D01*
X330631Y336566D01*
X330348Y336933D01*
X330074Y337308D01*
X329809Y337689D01*
X329553Y338076D01*
X329307Y338470D01*
X329070Y338869D01*
D12*
X342580Y311377D02*
X345176Y311377D01*
X342580Y311378D02*
X342481Y311380D01*
X342381Y311386D01*
X342282Y311395D01*
X342184Y311408D01*
X342086Y311425D01*
X341988Y311446D01*
X341892Y311471D01*
X341797Y311499D01*
X341703Y311531D01*
X341610Y311566D01*
X341518Y311605D01*
X341428Y311648D01*
X341340Y311693D01*
X341253Y311743D01*
X341169Y311795D01*
X341086Y311851D01*
X341006Y311909D01*
X340928Y311971D01*
X340853Y312036D01*
X340780Y312104D01*
X340710Y312174D01*
X340642Y312247D01*
X340577Y312322D01*
X340515Y312400D01*
X340457Y312480D01*
X340401Y312563D01*
X340349Y312647D01*
X340299Y312734D01*
X340254Y312822D01*
X340211Y312912D01*
X340172Y313004D01*
X340137Y313097D01*
X340105Y313191D01*
X340077Y313286D01*
X340052Y313382D01*
X340031Y313480D01*
X340014Y313578D01*
X340001Y313676D01*
X339992Y313775D01*
X339986Y313875D01*
X339984Y313974D01*
X339983Y313974D02*
X339983Y320465D01*
X339984Y320465D02*
X339986Y320564D01*
X339992Y320664D01*
X340001Y320763D01*
X340014Y320861D01*
X340031Y320959D01*
X340052Y321057D01*
X340077Y321153D01*
X340105Y321248D01*
X340137Y321342D01*
X340172Y321435D01*
X340211Y321527D01*
X340254Y321617D01*
X340299Y321705D01*
X340349Y321792D01*
X340401Y321876D01*
X340457Y321959D01*
X340515Y322039D01*
X340577Y322117D01*
X340642Y322192D01*
X340710Y322265D01*
X340780Y322335D01*
X340853Y322403D01*
X340928Y322468D01*
X341006Y322530D01*
X341086Y322588D01*
X341169Y322644D01*
X341253Y322696D01*
X341340Y322746D01*
X341428Y322791D01*
X341518Y322834D01*
X341610Y322873D01*
X341702Y322908D01*
X341797Y322940D01*
X341892Y322968D01*
X341988Y322993D01*
X342086Y323014D01*
X342184Y323031D01*
X342282Y323044D01*
X342381Y323053D01*
X342481Y323059D01*
X342580Y323061D01*
X345176Y323061D01*
X349541Y320465D02*
X352787Y323061D01*
X352787Y311377D01*
X356032Y311377D02*
X349541Y311377D01*
X360971Y317868D02*
X364866Y317868D01*
X364965Y317866D01*
X365065Y317860D01*
X365164Y317851D01*
X365262Y317838D01*
X365360Y317821D01*
X365458Y317800D01*
X365554Y317775D01*
X365649Y317747D01*
X365743Y317715D01*
X365836Y317680D01*
X365928Y317641D01*
X366018Y317598D01*
X366106Y317553D01*
X366193Y317503D01*
X366277Y317451D01*
X366360Y317395D01*
X366440Y317337D01*
X366518Y317275D01*
X366593Y317210D01*
X366666Y317142D01*
X366736Y317072D01*
X366804Y316999D01*
X366869Y316924D01*
X366931Y316846D01*
X366989Y316766D01*
X367045Y316683D01*
X367097Y316599D01*
X367147Y316512D01*
X367192Y316424D01*
X367235Y316334D01*
X367274Y316242D01*
X367309Y316149D01*
X367341Y316055D01*
X367369Y315960D01*
X367394Y315864D01*
X367415Y315766D01*
X367432Y315668D01*
X367445Y315570D01*
X367454Y315471D01*
X367460Y315371D01*
X367462Y315272D01*
X367462Y314623D01*
X367463Y314623D02*
X367461Y314510D01*
X367455Y314397D01*
X367445Y314284D01*
X367431Y314171D01*
X367414Y314059D01*
X367392Y313948D01*
X367367Y313838D01*
X367337Y313728D01*
X367304Y313620D01*
X367267Y313513D01*
X367227Y313407D01*
X367182Y313303D01*
X367134Y313200D01*
X367083Y313099D01*
X367028Y313000D01*
X366970Y312903D01*
X366908Y312808D01*
X366843Y312715D01*
X366775Y312625D01*
X366704Y312537D01*
X366629Y312451D01*
X366552Y312368D01*
X366472Y312288D01*
X366389Y312211D01*
X366303Y312136D01*
X366215Y312065D01*
X366125Y311997D01*
X366032Y311932D01*
X365937Y311870D01*
X365840Y311812D01*
X365741Y311757D01*
X365640Y311706D01*
X365537Y311658D01*
X365433Y311613D01*
X365327Y311573D01*
X365220Y311536D01*
X365112Y311503D01*
X365002Y311473D01*
X364892Y311448D01*
X364781Y311426D01*
X364669Y311409D01*
X364556Y311395D01*
X364443Y311385D01*
X364330Y311379D01*
X364217Y311377D01*
X364104Y311379D01*
X363991Y311385D01*
X363878Y311395D01*
X363765Y311409D01*
X363653Y311426D01*
X363542Y311448D01*
X363432Y311473D01*
X363322Y311503D01*
X363214Y311536D01*
X363107Y311573D01*
X363001Y311613D01*
X362897Y311658D01*
X362794Y311706D01*
X362693Y311757D01*
X362594Y311812D01*
X362497Y311870D01*
X362402Y311932D01*
X362309Y311997D01*
X362219Y312065D01*
X362131Y312136D01*
X362045Y312211D01*
X361962Y312288D01*
X361882Y312368D01*
X361805Y312451D01*
X361730Y312537D01*
X361659Y312625D01*
X361591Y312715D01*
X361526Y312808D01*
X361464Y312903D01*
X361406Y313000D01*
X361351Y313099D01*
X361300Y313200D01*
X361252Y313303D01*
X361207Y313407D01*
X361167Y313513D01*
X361130Y313620D01*
X361097Y313728D01*
X361067Y313838D01*
X361042Y313948D01*
X361020Y314059D01*
X361003Y314171D01*
X360989Y314284D01*
X360979Y314397D01*
X360973Y314510D01*
X360971Y314623D01*
X360971Y317868D01*
X360973Y318011D01*
X360979Y318154D01*
X360989Y318297D01*
X361003Y318439D01*
X361020Y318581D01*
X361042Y318723D01*
X361067Y318864D01*
X361097Y319004D01*
X361130Y319143D01*
X361167Y319281D01*
X361208Y319418D01*
X361252Y319554D01*
X361301Y319689D01*
X361353Y319822D01*
X361408Y319954D01*
X361468Y320084D01*
X361531Y320213D01*
X361597Y320340D01*
X361667Y320464D01*
X361740Y320587D01*
X361817Y320708D01*
X361897Y320827D01*
X361980Y320943D01*
X362066Y321058D01*
X362155Y321169D01*
X362248Y321279D01*
X362343Y321385D01*
X362442Y321489D01*
X362543Y321590D01*
X362647Y321689D01*
X362753Y321784D01*
X362863Y321877D01*
X362974Y321966D01*
X363089Y322052D01*
X363205Y322135D01*
X363324Y322215D01*
X363445Y322292D01*
X363567Y322365D01*
X363692Y322435D01*
X363819Y322501D01*
X363948Y322564D01*
X364078Y322624D01*
X364210Y322679D01*
X364343Y322731D01*
X364478Y322780D01*
X364614Y322824D01*
X364751Y322865D01*
X364889Y322902D01*
X365028Y322935D01*
X365168Y322965D01*
X365309Y322990D01*
X365451Y323012D01*
X365593Y323029D01*
X365735Y323043D01*
X365878Y323053D01*
X366021Y323059D01*
X366164Y323061D01*
D13*
X299893Y370231D02*
X265893Y370231D01*
X299893Y370231D02*
X299893Y359731D01*
X299893Y337731D02*
X299893Y327231D01*
X265893Y327231D01*
X256893Y336231D02*
X256893Y337731D01*
X256893Y359231D02*
X256893Y361231D01*
X265893Y370231D01*
X256893Y336231D02*
X265893Y327231D01*
X261893Y358231D02*
X262130Y358630D01*
X262376Y359024D01*
X262632Y359411D01*
X262897Y359792D01*
X263171Y360167D01*
X263454Y360534D01*
X263747Y360895D01*
X264047Y361249D01*
X264357Y361595D01*
X264675Y361933D01*
X265001Y362263D01*
X265334Y362586D01*
X265676Y362900D01*
X266025Y363206D01*
X266382Y363503D01*
X266746Y363792D01*
X267116Y364071D01*
X267494Y364341D01*
X267877Y364602D01*
X268267Y364854D01*
X268663Y365096D01*
X269065Y365329D01*
X269473Y365551D01*
X269885Y365763D01*
X270303Y365966D01*
X270726Y366158D01*
X271153Y366340D01*
X271584Y366511D01*
X272020Y366672D01*
X272459Y366822D01*
X272902Y366961D01*
X273348Y367089D01*
X273797Y367207D01*
X274249Y367313D01*
X274703Y367409D01*
X275159Y367493D01*
X275618Y367567D01*
X276078Y367629D01*
X276539Y367680D01*
X277002Y367719D01*
X277465Y367747D01*
X277929Y367764D01*
X278393Y367770D01*
X278857Y367764D01*
X279321Y367747D01*
X279784Y367719D01*
X280247Y367680D01*
X280708Y367629D01*
X281168Y367567D01*
X281627Y367493D01*
X282083Y367409D01*
X282537Y367313D01*
X282989Y367207D01*
X283438Y367089D01*
X283884Y366961D01*
X284327Y366822D01*
X284766Y366672D01*
X285202Y366511D01*
X285633Y366340D01*
X286060Y366158D01*
X286483Y365966D01*
X286901Y365763D01*
X287313Y365551D01*
X287721Y365329D01*
X288123Y365096D01*
X288519Y364854D01*
X288909Y364602D01*
X289292Y364341D01*
X289670Y364071D01*
X290040Y363792D01*
X290404Y363503D01*
X290761Y363206D01*
X291110Y362900D01*
X291452Y362586D01*
X291785Y362263D01*
X292111Y361933D01*
X292429Y361595D01*
X292739Y361249D01*
X293039Y360895D01*
X293332Y360534D01*
X293615Y360167D01*
X293889Y359792D01*
X294154Y359411D01*
X294410Y359024D01*
X294656Y358630D01*
X294893Y358231D01*
X294893Y339231D02*
X294656Y338832D01*
X294410Y338438D01*
X294154Y338051D01*
X293889Y337670D01*
X293615Y337295D01*
X293332Y336928D01*
X293039Y336567D01*
X292739Y336213D01*
X292429Y335867D01*
X292111Y335529D01*
X291785Y335199D01*
X291452Y334876D01*
X291110Y334562D01*
X290761Y334256D01*
X290404Y333959D01*
X290040Y333670D01*
X289670Y333391D01*
X289292Y333121D01*
X288909Y332860D01*
X288519Y332608D01*
X288123Y332366D01*
X287721Y332133D01*
X287313Y331911D01*
X286901Y331699D01*
X286483Y331496D01*
X286060Y331304D01*
X285633Y331122D01*
X285202Y330951D01*
X284766Y330790D01*
X284327Y330640D01*
X283884Y330501D01*
X283438Y330373D01*
X282989Y330255D01*
X282537Y330149D01*
X282083Y330053D01*
X281627Y329969D01*
X281168Y329895D01*
X280708Y329833D01*
X280247Y329782D01*
X279784Y329743D01*
X279321Y329715D01*
X278857Y329698D01*
X278393Y329692D01*
X277929Y329698D01*
X277465Y329715D01*
X277002Y329743D01*
X276539Y329782D01*
X276078Y329833D01*
X275618Y329895D01*
X275159Y329969D01*
X274703Y330053D01*
X274249Y330149D01*
X273797Y330255D01*
X273348Y330373D01*
X272902Y330501D01*
X272459Y330640D01*
X272020Y330790D01*
X271584Y330951D01*
X271153Y331122D01*
X270726Y331304D01*
X270303Y331496D01*
X269885Y331699D01*
X269473Y331911D01*
X269065Y332133D01*
X268663Y332366D01*
X268267Y332608D01*
X267877Y332860D01*
X267494Y333121D01*
X267116Y333391D01*
X266746Y333670D01*
X266382Y333959D01*
X266025Y334256D01*
X265676Y334562D01*
X265334Y334876D01*
X265001Y335199D01*
X264675Y335529D01*
X264357Y335867D01*
X264047Y336213D01*
X263747Y336567D01*
X263454Y336928D01*
X263171Y337295D01*
X262897Y337670D01*
X262632Y338051D01*
X262376Y338438D01*
X262130Y338832D01*
X261893Y339231D01*
D12*
X275402Y311739D02*
X277998Y311739D01*
X275402Y311739D02*
X275303Y311741D01*
X275203Y311747D01*
X275104Y311756D01*
X275006Y311769D01*
X274908Y311786D01*
X274810Y311807D01*
X274714Y311832D01*
X274619Y311860D01*
X274525Y311892D01*
X274432Y311927D01*
X274340Y311966D01*
X274250Y312009D01*
X274162Y312054D01*
X274075Y312104D01*
X273991Y312156D01*
X273908Y312212D01*
X273828Y312270D01*
X273750Y312332D01*
X273675Y312397D01*
X273602Y312465D01*
X273532Y312535D01*
X273464Y312608D01*
X273399Y312683D01*
X273337Y312761D01*
X273279Y312841D01*
X273223Y312924D01*
X273171Y313008D01*
X273121Y313095D01*
X273076Y313183D01*
X273033Y313273D01*
X272994Y313365D01*
X272959Y313458D01*
X272927Y313552D01*
X272899Y313647D01*
X272874Y313743D01*
X272853Y313841D01*
X272836Y313939D01*
X272823Y314037D01*
X272814Y314136D01*
X272808Y314236D01*
X272806Y314335D01*
X272805Y314335D02*
X272805Y320826D01*
X272806Y320826D02*
X272808Y320925D01*
X272814Y321025D01*
X272823Y321124D01*
X272836Y321222D01*
X272853Y321320D01*
X272874Y321418D01*
X272899Y321514D01*
X272927Y321609D01*
X272959Y321703D01*
X272994Y321796D01*
X273033Y321888D01*
X273076Y321978D01*
X273121Y322066D01*
X273171Y322153D01*
X273223Y322237D01*
X273279Y322320D01*
X273337Y322400D01*
X273399Y322478D01*
X273464Y322553D01*
X273532Y322626D01*
X273602Y322696D01*
X273675Y322764D01*
X273750Y322829D01*
X273828Y322891D01*
X273908Y322949D01*
X273991Y323005D01*
X274075Y323057D01*
X274162Y323107D01*
X274250Y323152D01*
X274340Y323195D01*
X274432Y323234D01*
X274524Y323269D01*
X274619Y323301D01*
X274714Y323329D01*
X274810Y323354D01*
X274908Y323375D01*
X275006Y323392D01*
X275104Y323405D01*
X275203Y323414D01*
X275303Y323420D01*
X275402Y323422D01*
X275402Y323423D02*
X277998Y323423D01*
X282363Y320826D02*
X285609Y323423D01*
X285609Y311739D01*
X282363Y311739D02*
X288855Y311739D01*
X293793Y314984D02*
X293795Y315097D01*
X293801Y315210D01*
X293811Y315323D01*
X293825Y315436D01*
X293842Y315548D01*
X293864Y315659D01*
X293889Y315769D01*
X293919Y315879D01*
X293952Y315987D01*
X293989Y316094D01*
X294029Y316200D01*
X294074Y316304D01*
X294122Y316407D01*
X294173Y316508D01*
X294228Y316607D01*
X294286Y316704D01*
X294348Y316799D01*
X294413Y316892D01*
X294481Y316982D01*
X294552Y317070D01*
X294627Y317156D01*
X294704Y317239D01*
X294784Y317319D01*
X294867Y317396D01*
X294953Y317471D01*
X295041Y317542D01*
X295131Y317610D01*
X295224Y317675D01*
X295319Y317737D01*
X295416Y317795D01*
X295515Y317850D01*
X295616Y317901D01*
X295719Y317949D01*
X295823Y317994D01*
X295929Y318034D01*
X296036Y318071D01*
X296144Y318104D01*
X296254Y318134D01*
X296364Y318159D01*
X296475Y318181D01*
X296587Y318198D01*
X296700Y318212D01*
X296813Y318222D01*
X296926Y318228D01*
X297039Y318230D01*
X297152Y318228D01*
X297265Y318222D01*
X297378Y318212D01*
X297491Y318198D01*
X297603Y318181D01*
X297714Y318159D01*
X297824Y318134D01*
X297934Y318104D01*
X298042Y318071D01*
X298149Y318034D01*
X298255Y317994D01*
X298359Y317949D01*
X298462Y317901D01*
X298563Y317850D01*
X298662Y317795D01*
X298759Y317737D01*
X298854Y317675D01*
X298947Y317610D01*
X299037Y317542D01*
X299125Y317471D01*
X299211Y317396D01*
X299294Y317319D01*
X299374Y317239D01*
X299451Y317156D01*
X299526Y317070D01*
X299597Y316982D01*
X299665Y316892D01*
X299730Y316799D01*
X299792Y316704D01*
X299850Y316607D01*
X299905Y316508D01*
X299956Y316407D01*
X300004Y316304D01*
X300049Y316200D01*
X300089Y316094D01*
X300126Y315987D01*
X300159Y315879D01*
X300189Y315769D01*
X300214Y315659D01*
X300236Y315548D01*
X300253Y315436D01*
X300267Y315323D01*
X300277Y315210D01*
X300283Y315097D01*
X300285Y314984D01*
X300283Y314871D01*
X300277Y314758D01*
X300267Y314645D01*
X300253Y314532D01*
X300236Y314420D01*
X300214Y314309D01*
X300189Y314199D01*
X300159Y314089D01*
X300126Y313981D01*
X300089Y313874D01*
X300049Y313768D01*
X300004Y313664D01*
X299956Y313561D01*
X299905Y313460D01*
X299850Y313361D01*
X299792Y313264D01*
X299730Y313169D01*
X299665Y313076D01*
X299597Y312986D01*
X299526Y312898D01*
X299451Y312812D01*
X299374Y312729D01*
X299294Y312649D01*
X299211Y312572D01*
X299125Y312497D01*
X299037Y312426D01*
X298947Y312358D01*
X298854Y312293D01*
X298759Y312231D01*
X298662Y312173D01*
X298563Y312118D01*
X298462Y312067D01*
X298359Y312019D01*
X298255Y311974D01*
X298149Y311934D01*
X298042Y311897D01*
X297934Y311864D01*
X297824Y311834D01*
X297714Y311809D01*
X297603Y311787D01*
X297491Y311770D01*
X297378Y311756D01*
X297265Y311746D01*
X297152Y311740D01*
X297039Y311738D01*
X296926Y311740D01*
X296813Y311746D01*
X296700Y311756D01*
X296587Y311770D01*
X296475Y311787D01*
X296364Y311809D01*
X296254Y311834D01*
X296144Y311864D01*
X296036Y311897D01*
X295929Y311934D01*
X295823Y311974D01*
X295719Y312019D01*
X295616Y312067D01*
X295515Y312118D01*
X295416Y312173D01*
X295319Y312231D01*
X295224Y312293D01*
X295131Y312358D01*
X295041Y312426D01*
X294953Y312497D01*
X294867Y312572D01*
X294784Y312649D01*
X294704Y312729D01*
X294627Y312812D01*
X294552Y312898D01*
X294481Y312986D01*
X294413Y313076D01*
X294348Y313169D01*
X294286Y313264D01*
X294228Y313361D01*
X294173Y313460D01*
X294122Y313561D01*
X294074Y313664D01*
X294029Y313768D01*
X293989Y313874D01*
X293952Y313981D01*
X293919Y314089D01*
X293889Y314199D01*
X293864Y314309D01*
X293842Y314420D01*
X293825Y314532D01*
X293811Y314645D01*
X293801Y314758D01*
X293795Y314871D01*
X293793Y314984D01*
X294443Y320826D02*
X294445Y320927D01*
X294451Y321027D01*
X294461Y321127D01*
X294474Y321227D01*
X294492Y321326D01*
X294513Y321425D01*
X294538Y321522D01*
X294567Y321619D01*
X294600Y321714D01*
X294636Y321808D01*
X294676Y321900D01*
X294719Y321991D01*
X294766Y322080D01*
X294816Y322167D01*
X294870Y322253D01*
X294927Y322336D01*
X294987Y322416D01*
X295050Y322495D01*
X295117Y322571D01*
X295186Y322644D01*
X295258Y322714D01*
X295332Y322782D01*
X295409Y322847D01*
X295489Y322908D01*
X295571Y322967D01*
X295655Y323022D01*
X295741Y323074D01*
X295829Y323123D01*
X295919Y323168D01*
X296011Y323210D01*
X296104Y323248D01*
X296199Y323282D01*
X296294Y323313D01*
X296391Y323340D01*
X296489Y323363D01*
X296588Y323383D01*
X296688Y323398D01*
X296788Y323410D01*
X296888Y323418D01*
X296989Y323422D01*
X297089Y323422D01*
X297190Y323418D01*
X297290Y323410D01*
X297390Y323398D01*
X297490Y323383D01*
X297589Y323363D01*
X297687Y323340D01*
X297784Y323313D01*
X297879Y323282D01*
X297974Y323248D01*
X298067Y323210D01*
X298159Y323168D01*
X298249Y323123D01*
X298337Y323074D01*
X298423Y323022D01*
X298507Y322967D01*
X298589Y322908D01*
X298669Y322847D01*
X298746Y322782D01*
X298820Y322714D01*
X298892Y322644D01*
X298961Y322571D01*
X299028Y322495D01*
X299091Y322416D01*
X299151Y322336D01*
X299208Y322253D01*
X299262Y322167D01*
X299312Y322080D01*
X299359Y321991D01*
X299402Y321900D01*
X299442Y321808D01*
X299478Y321714D01*
X299511Y321619D01*
X299540Y321522D01*
X299565Y321425D01*
X299586Y321326D01*
X299604Y321227D01*
X299617Y321127D01*
X299627Y321027D01*
X299633Y320927D01*
X299635Y320826D01*
X299633Y320725D01*
X299627Y320625D01*
X299617Y320525D01*
X299604Y320425D01*
X299586Y320326D01*
X299565Y320227D01*
X299540Y320130D01*
X299511Y320033D01*
X299478Y319938D01*
X299442Y319844D01*
X299402Y319752D01*
X299359Y319661D01*
X299312Y319572D01*
X299262Y319485D01*
X299208Y319399D01*
X299151Y319316D01*
X299091Y319236D01*
X299028Y319157D01*
X298961Y319081D01*
X298892Y319008D01*
X298820Y318938D01*
X298746Y318870D01*
X298669Y318805D01*
X298589Y318744D01*
X298507Y318685D01*
X298423Y318630D01*
X298337Y318578D01*
X298249Y318529D01*
X298159Y318484D01*
X298067Y318442D01*
X297974Y318404D01*
X297879Y318370D01*
X297784Y318339D01*
X297687Y318312D01*
X297589Y318289D01*
X297490Y318269D01*
X297390Y318254D01*
X297290Y318242D01*
X297190Y318234D01*
X297089Y318230D01*
X296989Y318230D01*
X296888Y318234D01*
X296788Y318242D01*
X296688Y318254D01*
X296588Y318269D01*
X296489Y318289D01*
X296391Y318312D01*
X296294Y318339D01*
X296199Y318370D01*
X296104Y318404D01*
X296011Y318442D01*
X295919Y318484D01*
X295829Y318529D01*
X295741Y318578D01*
X295655Y318630D01*
X295571Y318685D01*
X295489Y318744D01*
X295409Y318805D01*
X295332Y318870D01*
X295258Y318938D01*
X295186Y319008D01*
X295117Y319081D01*
X295050Y319157D01*
X294987Y319236D01*
X294927Y319316D01*
X294870Y319399D01*
X294816Y319485D01*
X294766Y319572D01*
X294719Y319661D01*
X294676Y319752D01*
X294636Y319844D01*
X294600Y319938D01*
X294567Y320033D01*
X294538Y320130D01*
X294513Y320227D01*
X294492Y320326D01*
X294474Y320425D01*
X294461Y320525D01*
X294451Y320625D01*
X294445Y320725D01*
X294443Y320826D01*
X103905Y535079D02*
X101309Y535079D01*
X101210Y535081D01*
X101110Y535087D01*
X101011Y535096D01*
X100913Y535109D01*
X100815Y535126D01*
X100717Y535147D01*
X100621Y535172D01*
X100526Y535200D01*
X100432Y535232D01*
X100339Y535267D01*
X100247Y535306D01*
X100157Y535349D01*
X100069Y535394D01*
X99982Y535444D01*
X99898Y535496D01*
X99815Y535552D01*
X99735Y535610D01*
X99657Y535672D01*
X99582Y535737D01*
X99509Y535805D01*
X99439Y535875D01*
X99371Y535948D01*
X99306Y536023D01*
X99244Y536101D01*
X99186Y536181D01*
X99130Y536264D01*
X99078Y536348D01*
X99028Y536435D01*
X98983Y536523D01*
X98940Y536613D01*
X98901Y536705D01*
X98866Y536798D01*
X98834Y536892D01*
X98806Y536987D01*
X98781Y537083D01*
X98760Y537181D01*
X98743Y537279D01*
X98730Y537377D01*
X98721Y537476D01*
X98715Y537576D01*
X98713Y537675D01*
X98712Y537675D02*
X98712Y544166D01*
X98713Y544166D02*
X98715Y544265D01*
X98721Y544365D01*
X98730Y544464D01*
X98743Y544562D01*
X98760Y544660D01*
X98781Y544758D01*
X98806Y544854D01*
X98834Y544949D01*
X98866Y545043D01*
X98901Y545136D01*
X98940Y545228D01*
X98983Y545318D01*
X99028Y545406D01*
X99078Y545493D01*
X99130Y545577D01*
X99186Y545660D01*
X99244Y545740D01*
X99306Y545818D01*
X99371Y545893D01*
X99439Y545966D01*
X99509Y546036D01*
X99582Y546104D01*
X99657Y546169D01*
X99735Y546231D01*
X99815Y546289D01*
X99898Y546345D01*
X99982Y546397D01*
X100069Y546447D01*
X100157Y546492D01*
X100247Y546535D01*
X100339Y546574D01*
X100431Y546609D01*
X100526Y546641D01*
X100621Y546669D01*
X100717Y546694D01*
X100815Y546715D01*
X100913Y546732D01*
X101011Y546745D01*
X101110Y546754D01*
X101210Y546760D01*
X101309Y546762D01*
X101309Y546763D02*
X103905Y546763D01*
X111841Y546763D02*
X111948Y546761D01*
X112054Y546755D01*
X112160Y546745D01*
X112266Y546732D01*
X112372Y546714D01*
X112476Y546693D01*
X112580Y546668D01*
X112683Y546639D01*
X112784Y546607D01*
X112884Y546570D01*
X112983Y546530D01*
X113081Y546487D01*
X113177Y546440D01*
X113271Y546389D01*
X113363Y546335D01*
X113453Y546278D01*
X113541Y546218D01*
X113626Y546154D01*
X113709Y546087D01*
X113790Y546017D01*
X113868Y545945D01*
X113944Y545869D01*
X114016Y545791D01*
X114086Y545710D01*
X114153Y545627D01*
X114217Y545542D01*
X114277Y545454D01*
X114334Y545364D01*
X114388Y545272D01*
X114439Y545178D01*
X114486Y545082D01*
X114529Y544984D01*
X114569Y544885D01*
X114606Y544785D01*
X114638Y544684D01*
X114667Y544581D01*
X114692Y544477D01*
X114713Y544373D01*
X114731Y544267D01*
X114744Y544161D01*
X114754Y544055D01*
X114760Y543949D01*
X114762Y543842D01*
X111841Y546763D02*
X111720Y546761D01*
X111599Y546755D01*
X111479Y546745D01*
X111358Y546732D01*
X111239Y546714D01*
X111119Y546693D01*
X111001Y546668D01*
X110884Y546639D01*
X110767Y546606D01*
X110652Y546570D01*
X110538Y546529D01*
X110425Y546486D01*
X110313Y546438D01*
X110204Y546387D01*
X110096Y546332D01*
X109989Y546274D01*
X109885Y546213D01*
X109783Y546148D01*
X109683Y546080D01*
X109585Y546009D01*
X109489Y545935D01*
X109396Y545858D01*
X109306Y545777D01*
X109218Y545694D01*
X109133Y545608D01*
X109050Y545519D01*
X108971Y545428D01*
X108894Y545334D01*
X108821Y545238D01*
X108751Y545140D01*
X108684Y545039D01*
X108620Y544936D01*
X108560Y544831D01*
X108503Y544724D01*
X108449Y544616D01*
X108399Y544506D01*
X108353Y544394D01*
X108310Y544281D01*
X108271Y544166D01*
X113788Y541570D02*
X113867Y541647D01*
X113943Y541728D01*
X114016Y541811D01*
X114086Y541896D01*
X114153Y541984D01*
X114217Y542074D01*
X114277Y542166D01*
X114334Y542261D01*
X114388Y542357D01*
X114439Y542455D01*
X114486Y542555D01*
X114530Y542657D01*
X114570Y542760D01*
X114606Y542864D01*
X114638Y542970D01*
X114667Y543076D01*
X114692Y543184D01*
X114714Y543292D01*
X114731Y543402D01*
X114745Y543511D01*
X114754Y543621D01*
X114760Y543732D01*
X114762Y543842D01*
X113788Y541570D02*
X108270Y535079D01*
X114762Y535079D01*
X97569Y441553D02*
X94972Y441553D01*
X94972Y441554D02*
X94873Y441556D01*
X94773Y441562D01*
X94674Y441571D01*
X94576Y441584D01*
X94478Y441601D01*
X94380Y441622D01*
X94284Y441647D01*
X94189Y441675D01*
X94095Y441707D01*
X94002Y441742D01*
X93910Y441781D01*
X93820Y441824D01*
X93732Y441869D01*
X93645Y441919D01*
X93561Y441971D01*
X93478Y442027D01*
X93398Y442085D01*
X93320Y442147D01*
X93245Y442212D01*
X93172Y442280D01*
X93102Y442350D01*
X93034Y442423D01*
X92969Y442498D01*
X92907Y442576D01*
X92849Y442656D01*
X92793Y442739D01*
X92741Y442823D01*
X92691Y442910D01*
X92646Y442998D01*
X92603Y443088D01*
X92564Y443180D01*
X92529Y443273D01*
X92497Y443367D01*
X92469Y443462D01*
X92444Y443558D01*
X92423Y443656D01*
X92406Y443754D01*
X92393Y443852D01*
X92384Y443951D01*
X92378Y444051D01*
X92376Y444150D01*
X92376Y450641D01*
X92378Y450740D01*
X92384Y450840D01*
X92393Y450939D01*
X92406Y451037D01*
X92423Y451135D01*
X92444Y451233D01*
X92469Y451329D01*
X92497Y451424D01*
X92529Y451518D01*
X92564Y451611D01*
X92603Y451703D01*
X92646Y451793D01*
X92691Y451881D01*
X92741Y451968D01*
X92793Y452052D01*
X92849Y452135D01*
X92907Y452215D01*
X92969Y452293D01*
X93034Y452368D01*
X93102Y452441D01*
X93172Y452511D01*
X93245Y452579D01*
X93320Y452644D01*
X93398Y452706D01*
X93478Y452764D01*
X93561Y452820D01*
X93645Y452872D01*
X93732Y452922D01*
X93820Y452967D01*
X93910Y453010D01*
X94002Y453049D01*
X94094Y453084D01*
X94189Y453116D01*
X94284Y453144D01*
X94380Y453169D01*
X94478Y453190D01*
X94576Y453207D01*
X94674Y453220D01*
X94773Y453229D01*
X94873Y453235D01*
X94972Y453237D01*
X97569Y453237D01*
X105504Y453237D02*
X105611Y453235D01*
X105717Y453229D01*
X105823Y453219D01*
X105929Y453206D01*
X106035Y453188D01*
X106139Y453167D01*
X106243Y453142D01*
X106346Y453113D01*
X106447Y453081D01*
X106547Y453044D01*
X106646Y453004D01*
X106744Y452961D01*
X106840Y452914D01*
X106934Y452863D01*
X107026Y452809D01*
X107116Y452752D01*
X107204Y452692D01*
X107289Y452628D01*
X107372Y452561D01*
X107453Y452491D01*
X107531Y452419D01*
X107607Y452343D01*
X107679Y452265D01*
X107749Y452184D01*
X107816Y452101D01*
X107880Y452016D01*
X107940Y451928D01*
X107997Y451838D01*
X108051Y451746D01*
X108102Y451652D01*
X108149Y451556D01*
X108192Y451458D01*
X108232Y451359D01*
X108269Y451259D01*
X108301Y451158D01*
X108330Y451055D01*
X108355Y450951D01*
X108376Y450847D01*
X108394Y450741D01*
X108407Y450635D01*
X108417Y450529D01*
X108423Y450423D01*
X108425Y450316D01*
X105504Y453238D02*
X105383Y453236D01*
X105262Y453230D01*
X105142Y453220D01*
X105021Y453207D01*
X104902Y453189D01*
X104782Y453168D01*
X104664Y453143D01*
X104547Y453114D01*
X104430Y453081D01*
X104315Y453045D01*
X104201Y453004D01*
X104088Y452961D01*
X103976Y452913D01*
X103867Y452862D01*
X103759Y452807D01*
X103652Y452749D01*
X103548Y452688D01*
X103446Y452623D01*
X103346Y452555D01*
X103248Y452484D01*
X103152Y452410D01*
X103059Y452333D01*
X102969Y452252D01*
X102881Y452169D01*
X102796Y452083D01*
X102713Y451994D01*
X102634Y451903D01*
X102557Y451809D01*
X102484Y451713D01*
X102414Y451615D01*
X102347Y451514D01*
X102283Y451411D01*
X102223Y451306D01*
X102166Y451199D01*
X102112Y451091D01*
X102062Y450981D01*
X102016Y450869D01*
X101973Y450756D01*
X101934Y450641D01*
X107452Y448044D02*
X107531Y448121D01*
X107607Y448202D01*
X107680Y448285D01*
X107750Y448370D01*
X107817Y448458D01*
X107881Y448548D01*
X107941Y448640D01*
X107998Y448735D01*
X108052Y448831D01*
X108103Y448929D01*
X108150Y449029D01*
X108194Y449131D01*
X108234Y449234D01*
X108270Y449338D01*
X108302Y449444D01*
X108331Y449550D01*
X108356Y449658D01*
X108378Y449766D01*
X108395Y449876D01*
X108409Y449985D01*
X108418Y450095D01*
X108424Y450206D01*
X108426Y450316D01*
X107451Y448045D02*
X101934Y441553D01*
X108425Y441553D01*
X113364Y447395D02*
X113367Y447625D01*
X113375Y447855D01*
X113389Y448084D01*
X113408Y448313D01*
X113433Y448542D01*
X113463Y448769D01*
X113498Y448997D01*
X113539Y449223D01*
X113585Y449448D01*
X113637Y449672D01*
X113694Y449894D01*
X113756Y450116D01*
X113824Y450335D01*
X113897Y450553D01*
X113975Y450770D01*
X114058Y450984D01*
X114146Y451196D01*
X114239Y451406D01*
X114338Y451614D01*
X114337Y451615D02*
X114370Y451705D01*
X114406Y451794D01*
X114446Y451882D01*
X114490Y451967D01*
X114537Y452051D01*
X114587Y452133D01*
X114641Y452213D01*
X114697Y452290D01*
X114757Y452366D01*
X114820Y452439D01*
X114885Y452509D01*
X114954Y452577D01*
X115025Y452641D01*
X115098Y452703D01*
X115174Y452762D01*
X115252Y452818D01*
X115333Y452871D01*
X115415Y452920D01*
X115499Y452966D01*
X115586Y453009D01*
X115673Y453048D01*
X115763Y453084D01*
X115853Y453116D01*
X115945Y453144D01*
X116038Y453169D01*
X116132Y453190D01*
X116226Y453207D01*
X116321Y453221D01*
X116417Y453230D01*
X116513Y453236D01*
X116609Y453238D01*
X116705Y453236D01*
X116801Y453230D01*
X116897Y453221D01*
X116992Y453207D01*
X117086Y453190D01*
X117180Y453169D01*
X117273Y453144D01*
X117365Y453116D01*
X117455Y453084D01*
X117545Y453048D01*
X117632Y453009D01*
X117719Y452966D01*
X117803Y452920D01*
X117885Y452871D01*
X117966Y452818D01*
X118044Y452762D01*
X118120Y452703D01*
X118193Y452641D01*
X118264Y452577D01*
X118333Y452509D01*
X118398Y452439D01*
X118461Y452366D01*
X118521Y452290D01*
X118577Y452213D01*
X118631Y452133D01*
X118681Y452051D01*
X118728Y451967D01*
X118772Y451882D01*
X118812Y451794D01*
X118848Y451705D01*
X118881Y451615D01*
X118881Y451614D02*
X118980Y451407D01*
X119073Y451197D01*
X119161Y450984D01*
X119244Y450770D01*
X119322Y450554D01*
X119395Y450336D01*
X119463Y450116D01*
X119525Y449895D01*
X119582Y449672D01*
X119634Y449448D01*
X119680Y449223D01*
X119721Y448997D01*
X119756Y448770D01*
X119786Y448542D01*
X119811Y448313D01*
X119830Y448084D01*
X119844Y447855D01*
X119852Y447625D01*
X119855Y447395D01*
X113364Y447395D02*
X113367Y447165D01*
X113375Y446935D01*
X113389Y446706D01*
X113408Y446477D01*
X113433Y446248D01*
X113463Y446020D01*
X113498Y445793D01*
X113539Y445567D01*
X113585Y445342D01*
X113637Y445118D01*
X113694Y444895D01*
X113756Y444674D01*
X113824Y444454D01*
X113897Y444236D01*
X113975Y444020D01*
X114058Y443806D01*
X114146Y443594D01*
X114239Y443383D01*
X114338Y443176D01*
X114337Y443176D02*
X114370Y443086D01*
X114406Y442997D01*
X114447Y442909D01*
X114490Y442824D01*
X114537Y442740D01*
X114587Y442658D01*
X114641Y442578D01*
X114697Y442501D01*
X114757Y442425D01*
X114820Y442352D01*
X114885Y442282D01*
X114954Y442214D01*
X115025Y442150D01*
X115098Y442088D01*
X115174Y442029D01*
X115252Y441973D01*
X115333Y441920D01*
X115415Y441871D01*
X115499Y441825D01*
X115586Y441782D01*
X115673Y441743D01*
X115763Y441707D01*
X115853Y441675D01*
X115945Y441647D01*
X116038Y441622D01*
X116132Y441601D01*
X116226Y441584D01*
X116321Y441570D01*
X116417Y441561D01*
X116513Y441555D01*
X116609Y441553D01*
X118881Y443176D02*
X118980Y443383D01*
X119073Y443594D01*
X119161Y443806D01*
X119244Y444020D01*
X119322Y444236D01*
X119395Y444454D01*
X119463Y444674D01*
X119525Y444895D01*
X119582Y445118D01*
X119634Y445342D01*
X119680Y445567D01*
X119721Y445793D01*
X119756Y446020D01*
X119786Y446248D01*
X119811Y446477D01*
X119830Y446706D01*
X119844Y446935D01*
X119852Y447165D01*
X119855Y447395D01*
X118881Y443176D02*
X118848Y443086D01*
X118812Y442997D01*
X118772Y442909D01*
X118728Y442824D01*
X118681Y442740D01*
X118631Y442658D01*
X118577Y442578D01*
X118521Y442501D01*
X118461Y442425D01*
X118398Y442352D01*
X118333Y442282D01*
X118264Y442214D01*
X118193Y442150D01*
X118120Y442088D01*
X118044Y442029D01*
X117966Y441973D01*
X117885Y441920D01*
X117803Y441871D01*
X117719Y441825D01*
X117632Y441782D01*
X117545Y441743D01*
X117455Y441707D01*
X117365Y441675D01*
X117273Y441647D01*
X117180Y441622D01*
X117086Y441601D01*
X116992Y441584D01*
X116897Y441570D01*
X116801Y441561D01*
X116705Y441555D01*
X116609Y441553D01*
X114013Y444150D02*
X119206Y450641D01*
X258522Y395920D02*
X261118Y395920D01*
X258522Y395921D02*
X258423Y395923D01*
X258323Y395929D01*
X258224Y395938D01*
X258126Y395951D01*
X258028Y395968D01*
X257930Y395989D01*
X257834Y396014D01*
X257739Y396042D01*
X257645Y396074D01*
X257552Y396109D01*
X257460Y396148D01*
X257370Y396191D01*
X257282Y396236D01*
X257195Y396286D01*
X257111Y396338D01*
X257028Y396394D01*
X256948Y396452D01*
X256870Y396514D01*
X256795Y396579D01*
X256722Y396647D01*
X256652Y396717D01*
X256584Y396790D01*
X256519Y396865D01*
X256457Y396943D01*
X256399Y397023D01*
X256343Y397106D01*
X256291Y397190D01*
X256241Y397277D01*
X256196Y397365D01*
X256153Y397455D01*
X256114Y397547D01*
X256079Y397640D01*
X256047Y397734D01*
X256019Y397829D01*
X255994Y397925D01*
X255973Y398023D01*
X255956Y398121D01*
X255943Y398219D01*
X255934Y398318D01*
X255928Y398418D01*
X255926Y398517D01*
X255925Y398517D02*
X255925Y405008D01*
X255926Y405008D02*
X255928Y405107D01*
X255934Y405207D01*
X255943Y405306D01*
X255956Y405404D01*
X255973Y405502D01*
X255994Y405600D01*
X256019Y405696D01*
X256047Y405791D01*
X256079Y405885D01*
X256114Y405978D01*
X256153Y406070D01*
X256196Y406160D01*
X256241Y406248D01*
X256291Y406335D01*
X256343Y406419D01*
X256399Y406502D01*
X256457Y406582D01*
X256519Y406660D01*
X256584Y406735D01*
X256652Y406808D01*
X256722Y406878D01*
X256795Y406946D01*
X256870Y407011D01*
X256948Y407073D01*
X257028Y407131D01*
X257111Y407187D01*
X257195Y407239D01*
X257282Y407289D01*
X257370Y407334D01*
X257460Y407377D01*
X257552Y407416D01*
X257644Y407451D01*
X257739Y407483D01*
X257834Y407511D01*
X257930Y407536D01*
X258028Y407557D01*
X258126Y407574D01*
X258224Y407587D01*
X258323Y407596D01*
X258423Y407602D01*
X258522Y407604D01*
X261118Y407604D01*
X269054Y407604D02*
X269161Y407602D01*
X269267Y407596D01*
X269373Y407586D01*
X269479Y407573D01*
X269585Y407555D01*
X269689Y407534D01*
X269793Y407509D01*
X269896Y407480D01*
X269997Y407448D01*
X270097Y407411D01*
X270196Y407371D01*
X270294Y407328D01*
X270390Y407281D01*
X270484Y407230D01*
X270576Y407176D01*
X270666Y407119D01*
X270754Y407059D01*
X270839Y406995D01*
X270922Y406928D01*
X271003Y406858D01*
X271081Y406786D01*
X271157Y406710D01*
X271229Y406632D01*
X271299Y406551D01*
X271366Y406468D01*
X271430Y406383D01*
X271490Y406295D01*
X271547Y406205D01*
X271601Y406113D01*
X271652Y406019D01*
X271699Y405923D01*
X271742Y405825D01*
X271782Y405726D01*
X271819Y405626D01*
X271851Y405525D01*
X271880Y405422D01*
X271905Y405318D01*
X271926Y405214D01*
X271944Y405108D01*
X271957Y405002D01*
X271967Y404896D01*
X271973Y404790D01*
X271975Y404683D01*
X269054Y407605D02*
X268933Y407603D01*
X268812Y407597D01*
X268692Y407587D01*
X268571Y407574D01*
X268452Y407556D01*
X268332Y407535D01*
X268214Y407510D01*
X268097Y407481D01*
X267980Y407448D01*
X267865Y407412D01*
X267751Y407371D01*
X267638Y407328D01*
X267526Y407280D01*
X267417Y407229D01*
X267309Y407174D01*
X267202Y407116D01*
X267098Y407055D01*
X266996Y406990D01*
X266896Y406922D01*
X266798Y406851D01*
X266702Y406777D01*
X266609Y406700D01*
X266519Y406619D01*
X266431Y406536D01*
X266346Y406450D01*
X266263Y406361D01*
X266184Y406270D01*
X266107Y406176D01*
X266034Y406080D01*
X265964Y405982D01*
X265897Y405881D01*
X265833Y405778D01*
X265773Y405673D01*
X265716Y405566D01*
X265662Y405458D01*
X265612Y405348D01*
X265566Y405236D01*
X265523Y405123D01*
X265484Y405008D01*
X271001Y402411D02*
X271080Y402488D01*
X271156Y402569D01*
X271229Y402652D01*
X271299Y402737D01*
X271366Y402825D01*
X271430Y402915D01*
X271490Y403007D01*
X271547Y403102D01*
X271601Y403198D01*
X271652Y403296D01*
X271699Y403396D01*
X271743Y403498D01*
X271783Y403601D01*
X271819Y403705D01*
X271851Y403811D01*
X271880Y403917D01*
X271905Y404025D01*
X271927Y404133D01*
X271944Y404243D01*
X271958Y404352D01*
X271967Y404462D01*
X271973Y404573D01*
X271975Y404683D01*
X271001Y402412D02*
X265484Y395920D01*
X271975Y395920D01*
X276914Y405008D02*
X280159Y407604D01*
X280159Y395920D01*
X276914Y395920D02*
X283405Y395920D01*
X97625Y472554D02*
X95028Y472554D01*
X94929Y472556D01*
X94829Y472562D01*
X94730Y472571D01*
X94632Y472584D01*
X94534Y472601D01*
X94436Y472622D01*
X94340Y472647D01*
X94245Y472675D01*
X94151Y472707D01*
X94058Y472742D01*
X93966Y472781D01*
X93876Y472824D01*
X93788Y472869D01*
X93701Y472919D01*
X93617Y472971D01*
X93534Y473027D01*
X93454Y473085D01*
X93376Y473147D01*
X93301Y473212D01*
X93228Y473280D01*
X93158Y473350D01*
X93090Y473423D01*
X93025Y473498D01*
X92963Y473576D01*
X92905Y473656D01*
X92849Y473739D01*
X92797Y473823D01*
X92747Y473910D01*
X92702Y473998D01*
X92659Y474088D01*
X92620Y474180D01*
X92585Y474273D01*
X92553Y474367D01*
X92525Y474462D01*
X92500Y474558D01*
X92479Y474656D01*
X92462Y474754D01*
X92449Y474852D01*
X92440Y474951D01*
X92434Y475051D01*
X92432Y475150D01*
X92432Y481641D01*
X92434Y481740D01*
X92440Y481840D01*
X92449Y481939D01*
X92462Y482037D01*
X92479Y482135D01*
X92500Y482233D01*
X92525Y482329D01*
X92553Y482424D01*
X92585Y482518D01*
X92620Y482611D01*
X92659Y482703D01*
X92702Y482793D01*
X92747Y482881D01*
X92797Y482968D01*
X92849Y483052D01*
X92905Y483135D01*
X92963Y483215D01*
X93025Y483293D01*
X93090Y483368D01*
X93158Y483441D01*
X93228Y483511D01*
X93301Y483579D01*
X93376Y483644D01*
X93454Y483706D01*
X93534Y483764D01*
X93617Y483820D01*
X93701Y483872D01*
X93788Y483922D01*
X93876Y483967D01*
X93966Y484010D01*
X94058Y484049D01*
X94150Y484084D01*
X94245Y484116D01*
X94340Y484144D01*
X94436Y484169D01*
X94534Y484190D01*
X94632Y484207D01*
X94730Y484220D01*
X94829Y484229D01*
X94929Y484235D01*
X95028Y484237D01*
X95028Y484238D02*
X97625Y484238D01*
X105560Y484238D02*
X105667Y484236D01*
X105773Y484230D01*
X105879Y484220D01*
X105985Y484207D01*
X106091Y484189D01*
X106195Y484168D01*
X106299Y484143D01*
X106402Y484114D01*
X106503Y484082D01*
X106603Y484045D01*
X106702Y484005D01*
X106800Y483962D01*
X106896Y483915D01*
X106990Y483864D01*
X107082Y483810D01*
X107172Y483753D01*
X107260Y483693D01*
X107345Y483629D01*
X107428Y483562D01*
X107509Y483492D01*
X107587Y483420D01*
X107663Y483344D01*
X107735Y483266D01*
X107805Y483185D01*
X107872Y483102D01*
X107936Y483017D01*
X107996Y482929D01*
X108053Y482839D01*
X108107Y482747D01*
X108158Y482653D01*
X108205Y482557D01*
X108248Y482459D01*
X108288Y482360D01*
X108325Y482260D01*
X108357Y482159D01*
X108386Y482056D01*
X108411Y481952D01*
X108432Y481848D01*
X108450Y481742D01*
X108463Y481636D01*
X108473Y481530D01*
X108479Y481424D01*
X108481Y481317D01*
X105560Y484238D02*
X105439Y484236D01*
X105318Y484230D01*
X105198Y484220D01*
X105077Y484207D01*
X104958Y484189D01*
X104838Y484168D01*
X104720Y484143D01*
X104603Y484114D01*
X104486Y484081D01*
X104371Y484045D01*
X104257Y484004D01*
X104144Y483961D01*
X104032Y483913D01*
X103923Y483862D01*
X103815Y483807D01*
X103708Y483749D01*
X103604Y483688D01*
X103502Y483623D01*
X103402Y483555D01*
X103304Y483484D01*
X103208Y483410D01*
X103115Y483333D01*
X103025Y483252D01*
X102937Y483169D01*
X102852Y483083D01*
X102769Y482994D01*
X102690Y482903D01*
X102613Y482809D01*
X102540Y482713D01*
X102470Y482615D01*
X102403Y482514D01*
X102339Y482411D01*
X102279Y482306D01*
X102222Y482199D01*
X102168Y482091D01*
X102118Y481981D01*
X102072Y481869D01*
X102029Y481756D01*
X101990Y481641D01*
X107508Y479045D02*
X107587Y479122D01*
X107663Y479203D01*
X107736Y479286D01*
X107806Y479371D01*
X107873Y479459D01*
X107937Y479549D01*
X107997Y479641D01*
X108054Y479736D01*
X108108Y479832D01*
X108159Y479930D01*
X108206Y480030D01*
X108250Y480132D01*
X108290Y480235D01*
X108326Y480339D01*
X108358Y480445D01*
X108387Y480551D01*
X108412Y480659D01*
X108434Y480767D01*
X108451Y480877D01*
X108465Y480986D01*
X108474Y481096D01*
X108480Y481207D01*
X108482Y481317D01*
X107508Y479045D02*
X101990Y472554D01*
X108481Y472554D01*
X119911Y481317D02*
X119909Y481424D01*
X119903Y481530D01*
X119893Y481636D01*
X119880Y481742D01*
X119862Y481848D01*
X119841Y481952D01*
X119816Y482056D01*
X119787Y482159D01*
X119755Y482260D01*
X119718Y482360D01*
X119678Y482459D01*
X119635Y482557D01*
X119588Y482653D01*
X119537Y482747D01*
X119483Y482839D01*
X119426Y482929D01*
X119366Y483017D01*
X119302Y483102D01*
X119235Y483185D01*
X119165Y483266D01*
X119093Y483344D01*
X119017Y483420D01*
X118939Y483492D01*
X118858Y483562D01*
X118775Y483629D01*
X118690Y483693D01*
X118602Y483753D01*
X118512Y483810D01*
X118420Y483864D01*
X118326Y483915D01*
X118230Y483962D01*
X118132Y484005D01*
X118033Y484045D01*
X117933Y484082D01*
X117832Y484114D01*
X117729Y484143D01*
X117625Y484168D01*
X117521Y484189D01*
X117415Y484207D01*
X117309Y484220D01*
X117203Y484230D01*
X117097Y484236D01*
X116990Y484238D01*
X116869Y484236D01*
X116748Y484230D01*
X116628Y484220D01*
X116507Y484207D01*
X116388Y484189D01*
X116268Y484168D01*
X116150Y484143D01*
X116033Y484114D01*
X115916Y484081D01*
X115801Y484045D01*
X115687Y484004D01*
X115574Y483961D01*
X115462Y483913D01*
X115353Y483862D01*
X115245Y483807D01*
X115138Y483749D01*
X115034Y483688D01*
X114932Y483623D01*
X114832Y483555D01*
X114734Y483484D01*
X114638Y483410D01*
X114545Y483333D01*
X114455Y483252D01*
X114367Y483169D01*
X114282Y483083D01*
X114199Y482994D01*
X114120Y482903D01*
X114043Y482809D01*
X113970Y482713D01*
X113900Y482615D01*
X113833Y482514D01*
X113769Y482411D01*
X113709Y482306D01*
X113652Y482199D01*
X113598Y482091D01*
X113548Y481981D01*
X113502Y481869D01*
X113459Y481756D01*
X113420Y481641D01*
X118938Y479045D02*
X119017Y479122D01*
X119093Y479203D01*
X119166Y479286D01*
X119236Y479371D01*
X119303Y479459D01*
X119367Y479549D01*
X119427Y479641D01*
X119484Y479736D01*
X119538Y479832D01*
X119589Y479930D01*
X119636Y480030D01*
X119680Y480132D01*
X119720Y480235D01*
X119756Y480339D01*
X119788Y480445D01*
X119817Y480551D01*
X119842Y480659D01*
X119864Y480767D01*
X119881Y480877D01*
X119895Y480986D01*
X119904Y481096D01*
X119910Y481207D01*
X119912Y481317D01*
X118938Y479045D02*
X113420Y472554D01*
X119911Y472554D01*
D13*
X55658Y337003D02*
X21658Y337003D01*
X21658Y347503D01*
X21658Y369503D02*
X21658Y380003D01*
X55658Y380003D01*
X64658Y371003D02*
X64658Y369503D01*
X64658Y348003D02*
X64658Y346003D01*
X55658Y337003D01*
X64658Y371003D02*
X55658Y380003D01*
X59658Y349003D02*
X59421Y348604D01*
X59175Y348210D01*
X58919Y347823D01*
X58654Y347442D01*
X58380Y347067D01*
X58097Y346700D01*
X57804Y346339D01*
X57504Y345985D01*
X57194Y345639D01*
X56876Y345301D01*
X56550Y344971D01*
X56217Y344648D01*
X55875Y344334D01*
X55526Y344028D01*
X55169Y343731D01*
X54805Y343442D01*
X54435Y343163D01*
X54057Y342893D01*
X53674Y342632D01*
X53284Y342380D01*
X52888Y342138D01*
X52486Y341905D01*
X52078Y341683D01*
X51666Y341471D01*
X51248Y341268D01*
X50825Y341076D01*
X50398Y340894D01*
X49967Y340723D01*
X49531Y340562D01*
X49092Y340412D01*
X48649Y340273D01*
X48203Y340145D01*
X47754Y340027D01*
X47302Y339921D01*
X46848Y339825D01*
X46392Y339741D01*
X45933Y339667D01*
X45473Y339605D01*
X45012Y339554D01*
X44549Y339515D01*
X44086Y339487D01*
X43622Y339470D01*
X43158Y339464D01*
X42694Y339470D01*
X42230Y339487D01*
X41767Y339515D01*
X41304Y339554D01*
X40843Y339605D01*
X40383Y339667D01*
X39924Y339741D01*
X39468Y339825D01*
X39014Y339921D01*
X38562Y340027D01*
X38113Y340145D01*
X37667Y340273D01*
X37224Y340412D01*
X36785Y340562D01*
X36349Y340723D01*
X35918Y340894D01*
X35491Y341076D01*
X35068Y341268D01*
X34650Y341471D01*
X34238Y341683D01*
X33830Y341905D01*
X33428Y342138D01*
X33032Y342380D01*
X32642Y342632D01*
X32259Y342893D01*
X31881Y343163D01*
X31511Y343442D01*
X31147Y343731D01*
X30790Y344028D01*
X30441Y344334D01*
X30099Y344648D01*
X29766Y344971D01*
X29440Y345301D01*
X29122Y345639D01*
X28812Y345985D01*
X28512Y346339D01*
X28219Y346700D01*
X27936Y347067D01*
X27662Y347442D01*
X27397Y347823D01*
X27141Y348210D01*
X26895Y348604D01*
X26658Y349003D01*
X26658Y368003D02*
X26895Y368402D01*
X27141Y368796D01*
X27397Y369183D01*
X27662Y369564D01*
X27936Y369939D01*
X28219Y370306D01*
X28512Y370667D01*
X28812Y371021D01*
X29122Y371367D01*
X29440Y371705D01*
X29766Y372035D01*
X30099Y372358D01*
X30441Y372672D01*
X30790Y372978D01*
X31147Y373275D01*
X31511Y373564D01*
X31881Y373843D01*
X32259Y374113D01*
X32642Y374374D01*
X33032Y374626D01*
X33428Y374868D01*
X33830Y375101D01*
X34238Y375323D01*
X34650Y375535D01*
X35068Y375738D01*
X35491Y375930D01*
X35918Y376112D01*
X36349Y376283D01*
X36785Y376444D01*
X37224Y376594D01*
X37667Y376733D01*
X38113Y376861D01*
X38562Y376979D01*
X39014Y377085D01*
X39468Y377181D01*
X39924Y377265D01*
X40383Y377339D01*
X40843Y377401D01*
X41304Y377452D01*
X41767Y377491D01*
X42230Y377519D01*
X42694Y377536D01*
X43158Y377542D01*
X43622Y377536D01*
X44086Y377519D01*
X44549Y377491D01*
X45012Y377452D01*
X45473Y377401D01*
X45933Y377339D01*
X46392Y377265D01*
X46848Y377181D01*
X47302Y377085D01*
X47754Y376979D01*
X48203Y376861D01*
X48649Y376733D01*
X49092Y376594D01*
X49531Y376444D01*
X49967Y376283D01*
X50398Y376112D01*
X50825Y375930D01*
X51248Y375738D01*
X51666Y375535D01*
X52078Y375323D01*
X52486Y375101D01*
X52888Y374868D01*
X53284Y374626D01*
X53674Y374374D01*
X54057Y374113D01*
X54435Y373843D01*
X54805Y373564D01*
X55169Y373275D01*
X55526Y372978D01*
X55875Y372672D01*
X56217Y372358D01*
X56550Y372035D01*
X56876Y371705D01*
X57194Y371367D01*
X57504Y371021D01*
X57804Y370667D01*
X58097Y370306D01*
X58380Y369939D01*
X58654Y369564D01*
X58919Y369183D01*
X59175Y368796D01*
X59421Y368402D01*
X59658Y368003D01*
D12*
X26458Y383811D02*
X23862Y383811D01*
X23763Y383813D01*
X23663Y383819D01*
X23564Y383828D01*
X23466Y383841D01*
X23368Y383858D01*
X23270Y383879D01*
X23174Y383904D01*
X23079Y383932D01*
X22985Y383964D01*
X22892Y383999D01*
X22800Y384038D01*
X22710Y384081D01*
X22622Y384126D01*
X22535Y384176D01*
X22451Y384228D01*
X22368Y384284D01*
X22288Y384342D01*
X22210Y384404D01*
X22135Y384469D01*
X22062Y384537D01*
X21992Y384607D01*
X21924Y384680D01*
X21859Y384755D01*
X21797Y384833D01*
X21739Y384913D01*
X21683Y384996D01*
X21631Y385080D01*
X21581Y385167D01*
X21536Y385255D01*
X21493Y385345D01*
X21454Y385437D01*
X21419Y385530D01*
X21387Y385624D01*
X21359Y385719D01*
X21334Y385815D01*
X21313Y385913D01*
X21296Y386011D01*
X21283Y386109D01*
X21274Y386208D01*
X21268Y386308D01*
X21266Y386407D01*
X21266Y392898D01*
X21268Y392997D01*
X21274Y393097D01*
X21283Y393196D01*
X21296Y393294D01*
X21313Y393392D01*
X21334Y393490D01*
X21359Y393586D01*
X21387Y393681D01*
X21419Y393775D01*
X21454Y393868D01*
X21493Y393960D01*
X21536Y394050D01*
X21581Y394138D01*
X21631Y394225D01*
X21683Y394309D01*
X21739Y394392D01*
X21797Y394472D01*
X21859Y394550D01*
X21924Y394625D01*
X21992Y394698D01*
X22062Y394768D01*
X22135Y394836D01*
X22210Y394901D01*
X22288Y394963D01*
X22368Y395021D01*
X22451Y395077D01*
X22535Y395129D01*
X22622Y395179D01*
X22710Y395224D01*
X22800Y395267D01*
X22892Y395306D01*
X22984Y395341D01*
X23079Y395373D01*
X23174Y395401D01*
X23270Y395426D01*
X23368Y395447D01*
X23466Y395464D01*
X23564Y395477D01*
X23663Y395486D01*
X23763Y395492D01*
X23862Y395494D01*
X23862Y395495D02*
X26458Y395495D01*
X34394Y395495D02*
X34501Y395493D01*
X34607Y395487D01*
X34713Y395477D01*
X34819Y395464D01*
X34925Y395446D01*
X35029Y395425D01*
X35133Y395400D01*
X35236Y395371D01*
X35337Y395339D01*
X35437Y395302D01*
X35536Y395262D01*
X35634Y395219D01*
X35730Y395172D01*
X35824Y395121D01*
X35916Y395067D01*
X36006Y395010D01*
X36094Y394950D01*
X36179Y394886D01*
X36262Y394819D01*
X36343Y394749D01*
X36421Y394677D01*
X36497Y394601D01*
X36569Y394523D01*
X36639Y394442D01*
X36706Y394359D01*
X36770Y394274D01*
X36830Y394186D01*
X36887Y394096D01*
X36941Y394004D01*
X36992Y393910D01*
X37039Y393814D01*
X37082Y393716D01*
X37122Y393617D01*
X37159Y393517D01*
X37191Y393416D01*
X37220Y393313D01*
X37245Y393209D01*
X37266Y393105D01*
X37284Y392999D01*
X37297Y392893D01*
X37307Y392787D01*
X37313Y392681D01*
X37315Y392574D01*
X34394Y395495D02*
X34273Y395493D01*
X34152Y395487D01*
X34032Y395477D01*
X33911Y395464D01*
X33792Y395446D01*
X33672Y395425D01*
X33554Y395400D01*
X33437Y395371D01*
X33320Y395338D01*
X33205Y395302D01*
X33091Y395261D01*
X32978Y395218D01*
X32866Y395170D01*
X32757Y395119D01*
X32649Y395064D01*
X32542Y395006D01*
X32438Y394945D01*
X32336Y394880D01*
X32236Y394812D01*
X32138Y394741D01*
X32042Y394667D01*
X31949Y394590D01*
X31859Y394509D01*
X31771Y394426D01*
X31686Y394340D01*
X31603Y394251D01*
X31524Y394160D01*
X31447Y394066D01*
X31374Y393970D01*
X31304Y393872D01*
X31237Y393771D01*
X31173Y393668D01*
X31113Y393563D01*
X31056Y393456D01*
X31002Y393348D01*
X30952Y393238D01*
X30906Y393126D01*
X30863Y393013D01*
X30824Y392898D01*
X36341Y390302D02*
X36420Y390379D01*
X36496Y390460D01*
X36569Y390543D01*
X36639Y390628D01*
X36706Y390716D01*
X36770Y390806D01*
X36830Y390898D01*
X36887Y390993D01*
X36941Y391089D01*
X36992Y391187D01*
X37039Y391287D01*
X37083Y391389D01*
X37123Y391492D01*
X37159Y391596D01*
X37191Y391702D01*
X37220Y391808D01*
X37245Y391916D01*
X37267Y392024D01*
X37284Y392134D01*
X37298Y392243D01*
X37307Y392353D01*
X37313Y392464D01*
X37315Y392574D01*
X36341Y390302D02*
X30824Y383811D01*
X37315Y383811D01*
X42254Y383811D02*
X45499Y383811D01*
X45499Y383810D02*
X45612Y383812D01*
X45725Y383818D01*
X45838Y383828D01*
X45951Y383842D01*
X46063Y383859D01*
X46174Y383881D01*
X46284Y383906D01*
X46394Y383936D01*
X46502Y383969D01*
X46609Y384006D01*
X46715Y384046D01*
X46819Y384091D01*
X46922Y384139D01*
X47023Y384190D01*
X47122Y384245D01*
X47219Y384303D01*
X47314Y384365D01*
X47407Y384430D01*
X47497Y384498D01*
X47585Y384569D01*
X47671Y384644D01*
X47754Y384721D01*
X47834Y384801D01*
X47911Y384884D01*
X47986Y384970D01*
X48057Y385058D01*
X48125Y385148D01*
X48190Y385241D01*
X48252Y385336D01*
X48310Y385433D01*
X48365Y385532D01*
X48416Y385633D01*
X48464Y385736D01*
X48509Y385840D01*
X48549Y385946D01*
X48586Y386053D01*
X48619Y386161D01*
X48649Y386271D01*
X48674Y386381D01*
X48696Y386492D01*
X48713Y386604D01*
X48727Y386717D01*
X48737Y386830D01*
X48743Y386943D01*
X48745Y387056D01*
X48743Y387169D01*
X48737Y387282D01*
X48727Y387395D01*
X48713Y387508D01*
X48696Y387620D01*
X48674Y387731D01*
X48649Y387841D01*
X48619Y387951D01*
X48586Y388059D01*
X48549Y388166D01*
X48509Y388272D01*
X48464Y388376D01*
X48416Y388479D01*
X48365Y388580D01*
X48310Y388679D01*
X48252Y388776D01*
X48190Y388871D01*
X48125Y388964D01*
X48057Y389054D01*
X47986Y389142D01*
X47911Y389228D01*
X47834Y389311D01*
X47754Y389391D01*
X47671Y389468D01*
X47585Y389543D01*
X47497Y389614D01*
X47407Y389682D01*
X47314Y389747D01*
X47219Y389809D01*
X47122Y389867D01*
X47023Y389922D01*
X46922Y389973D01*
X46819Y390021D01*
X46715Y390066D01*
X46609Y390106D01*
X46502Y390143D01*
X46394Y390176D01*
X46284Y390206D01*
X46174Y390231D01*
X46063Y390253D01*
X45951Y390270D01*
X45838Y390284D01*
X45725Y390294D01*
X45612Y390300D01*
X45499Y390302D01*
X46148Y395495D02*
X42254Y395495D01*
X46148Y395494D02*
X46249Y395492D01*
X46349Y395486D01*
X46449Y395476D01*
X46549Y395463D01*
X46648Y395445D01*
X46747Y395424D01*
X46844Y395399D01*
X46941Y395370D01*
X47036Y395337D01*
X47130Y395301D01*
X47222Y395261D01*
X47313Y395218D01*
X47402Y395171D01*
X47489Y395121D01*
X47575Y395067D01*
X47658Y395010D01*
X47738Y394950D01*
X47817Y394887D01*
X47893Y394820D01*
X47966Y394751D01*
X48036Y394679D01*
X48104Y394605D01*
X48169Y394528D01*
X48230Y394448D01*
X48289Y394366D01*
X48344Y394282D01*
X48396Y394196D01*
X48445Y394108D01*
X48490Y394018D01*
X48532Y393926D01*
X48570Y393833D01*
X48604Y393738D01*
X48635Y393643D01*
X48662Y393546D01*
X48685Y393448D01*
X48705Y393349D01*
X48720Y393249D01*
X48732Y393149D01*
X48740Y393049D01*
X48744Y392948D01*
X48744Y392848D01*
X48740Y392747D01*
X48732Y392647D01*
X48720Y392547D01*
X48705Y392447D01*
X48685Y392348D01*
X48662Y392250D01*
X48635Y392153D01*
X48604Y392058D01*
X48570Y391963D01*
X48532Y391870D01*
X48490Y391778D01*
X48445Y391688D01*
X48396Y391600D01*
X48344Y391514D01*
X48289Y391430D01*
X48230Y391348D01*
X48169Y391268D01*
X48104Y391191D01*
X48036Y391117D01*
X47966Y391045D01*
X47893Y390976D01*
X47817Y390909D01*
X47738Y390846D01*
X47658Y390786D01*
X47575Y390729D01*
X47489Y390675D01*
X47402Y390625D01*
X47313Y390578D01*
X47222Y390535D01*
X47130Y390495D01*
X47036Y390459D01*
X46941Y390426D01*
X46844Y390397D01*
X46747Y390372D01*
X46648Y390351D01*
X46549Y390333D01*
X46449Y390320D01*
X46349Y390310D01*
X46249Y390304D01*
X46148Y390302D01*
X43552Y390302D01*
X117269Y430650D02*
X117269Y433247D01*
X117268Y430650D02*
X117266Y430551D01*
X117260Y430451D01*
X117251Y430352D01*
X117238Y430254D01*
X117221Y430156D01*
X117200Y430058D01*
X117175Y429962D01*
X117147Y429867D01*
X117115Y429773D01*
X117080Y429680D01*
X117041Y429588D01*
X116998Y429498D01*
X116953Y429410D01*
X116903Y429323D01*
X116851Y429239D01*
X116795Y429156D01*
X116737Y429076D01*
X116675Y428998D01*
X116610Y428923D01*
X116542Y428850D01*
X116472Y428780D01*
X116399Y428712D01*
X116324Y428647D01*
X116246Y428585D01*
X116166Y428527D01*
X116083Y428471D01*
X115999Y428419D01*
X115912Y428369D01*
X115824Y428324D01*
X115734Y428281D01*
X115642Y428242D01*
X115549Y428207D01*
X115455Y428175D01*
X115360Y428147D01*
X115264Y428122D01*
X115166Y428101D01*
X115068Y428084D01*
X114970Y428071D01*
X114871Y428062D01*
X114771Y428056D01*
X114672Y428054D01*
X108181Y428054D01*
X108181Y428053D02*
X108082Y428055D01*
X107982Y428061D01*
X107883Y428070D01*
X107785Y428083D01*
X107687Y428101D01*
X107589Y428121D01*
X107493Y428146D01*
X107397Y428174D01*
X107303Y428206D01*
X107210Y428241D01*
X107119Y428280D01*
X107029Y428323D01*
X106940Y428368D01*
X106854Y428418D01*
X106769Y428470D01*
X106687Y428526D01*
X106607Y428585D01*
X106529Y428646D01*
X106453Y428711D01*
X106380Y428779D01*
X106310Y428849D01*
X106242Y428922D01*
X106177Y428998D01*
X106116Y429076D01*
X106057Y429156D01*
X106001Y429238D01*
X105949Y429323D01*
X105900Y429409D01*
X105854Y429498D01*
X105811Y429588D01*
X105772Y429679D01*
X105737Y429772D01*
X105705Y429866D01*
X105677Y429962D01*
X105652Y430058D01*
X105632Y430156D01*
X105614Y430254D01*
X105601Y430352D01*
X105592Y430451D01*
X105586Y430550D01*
X105584Y430650D01*
X105585Y430650D02*
X105585Y433247D01*
X105585Y441182D02*
X105587Y441289D01*
X105593Y441395D01*
X105603Y441501D01*
X105616Y441607D01*
X105634Y441713D01*
X105655Y441817D01*
X105680Y441921D01*
X105709Y442024D01*
X105741Y442125D01*
X105778Y442225D01*
X105818Y442324D01*
X105861Y442422D01*
X105908Y442518D01*
X105959Y442612D01*
X106013Y442704D01*
X106070Y442794D01*
X106130Y442882D01*
X106194Y442967D01*
X106261Y443050D01*
X106331Y443131D01*
X106403Y443209D01*
X106479Y443285D01*
X106557Y443357D01*
X106638Y443427D01*
X106721Y443494D01*
X106806Y443558D01*
X106894Y443618D01*
X106984Y443675D01*
X107076Y443729D01*
X107170Y443780D01*
X107266Y443827D01*
X107364Y443870D01*
X107463Y443910D01*
X107563Y443947D01*
X107664Y443979D01*
X107767Y444008D01*
X107871Y444033D01*
X107975Y444054D01*
X108081Y444072D01*
X108187Y444085D01*
X108293Y444095D01*
X108399Y444101D01*
X108506Y444103D01*
X105585Y441182D02*
X105587Y441061D01*
X105593Y440940D01*
X105603Y440820D01*
X105616Y440699D01*
X105634Y440580D01*
X105655Y440460D01*
X105680Y440342D01*
X105709Y440225D01*
X105742Y440108D01*
X105778Y439993D01*
X105819Y439879D01*
X105862Y439766D01*
X105910Y439654D01*
X105961Y439545D01*
X106016Y439437D01*
X106074Y439330D01*
X106135Y439226D01*
X106200Y439124D01*
X106268Y439024D01*
X106339Y438926D01*
X106413Y438830D01*
X106490Y438737D01*
X106571Y438647D01*
X106654Y438559D01*
X106740Y438474D01*
X106829Y438391D01*
X106920Y438312D01*
X107014Y438235D01*
X107110Y438162D01*
X107208Y438092D01*
X107309Y438025D01*
X107412Y437961D01*
X107517Y437901D01*
X107624Y437843D01*
X107732Y437790D01*
X107842Y437740D01*
X107954Y437694D01*
X108067Y437651D01*
X108182Y437612D01*
X110778Y443129D02*
X110700Y443208D01*
X110620Y443284D01*
X110537Y443357D01*
X110451Y443427D01*
X110364Y443494D01*
X110273Y443558D01*
X110181Y443618D01*
X110087Y443676D01*
X109990Y443730D01*
X109892Y443780D01*
X109792Y443827D01*
X109691Y443871D01*
X109588Y443911D01*
X109483Y443947D01*
X109378Y443979D01*
X109271Y444008D01*
X109164Y444033D01*
X109055Y444055D01*
X108946Y444072D01*
X108837Y444086D01*
X108727Y444095D01*
X108616Y444101D01*
X108506Y444103D01*
X110778Y443129D02*
X117269Y437612D01*
X117269Y444103D01*
X117269Y449042D02*
X117269Y452936D01*
X117268Y452936D02*
X117266Y453035D01*
X117260Y453135D01*
X117251Y453234D01*
X117238Y453332D01*
X117221Y453430D01*
X117200Y453528D01*
X117175Y453624D01*
X117147Y453719D01*
X117115Y453813D01*
X117080Y453906D01*
X117041Y453998D01*
X116998Y454088D01*
X116953Y454176D01*
X116903Y454263D01*
X116851Y454347D01*
X116795Y454430D01*
X116737Y454510D01*
X116675Y454588D01*
X116610Y454663D01*
X116542Y454736D01*
X116472Y454806D01*
X116399Y454874D01*
X116324Y454939D01*
X116246Y455001D01*
X116166Y455059D01*
X116083Y455115D01*
X115999Y455167D01*
X115912Y455217D01*
X115824Y455262D01*
X115734Y455305D01*
X115642Y455344D01*
X115549Y455379D01*
X115455Y455411D01*
X115360Y455439D01*
X115264Y455464D01*
X115166Y455485D01*
X115068Y455502D01*
X114970Y455515D01*
X114871Y455524D01*
X114771Y455530D01*
X114672Y455532D01*
X114672Y455533D02*
X113374Y455533D01*
X113374Y455532D02*
X113275Y455530D01*
X113175Y455524D01*
X113076Y455515D01*
X112978Y455502D01*
X112880Y455485D01*
X112782Y455464D01*
X112686Y455439D01*
X112591Y455411D01*
X112497Y455379D01*
X112404Y455344D01*
X112312Y455305D01*
X112222Y455262D01*
X112134Y455217D01*
X112047Y455167D01*
X111963Y455115D01*
X111880Y455059D01*
X111800Y455001D01*
X111722Y454939D01*
X111647Y454874D01*
X111574Y454806D01*
X111504Y454736D01*
X111436Y454663D01*
X111371Y454588D01*
X111309Y454510D01*
X111251Y454430D01*
X111195Y454347D01*
X111143Y454263D01*
X111093Y454176D01*
X111048Y454088D01*
X111005Y453998D01*
X110966Y453906D01*
X110931Y453813D01*
X110899Y453719D01*
X110871Y453624D01*
X110846Y453528D01*
X110825Y453430D01*
X110808Y453332D01*
X110795Y453234D01*
X110786Y453135D01*
X110780Y453035D01*
X110778Y452936D01*
X110778Y449042D01*
X105585Y449042D01*
X105585Y455533D01*
X153709Y598698D02*
X153709Y601294D01*
X153708Y598698D02*
X153706Y598599D01*
X153700Y598499D01*
X153691Y598400D01*
X153678Y598302D01*
X153661Y598204D01*
X153640Y598106D01*
X153615Y598010D01*
X153587Y597915D01*
X153555Y597821D01*
X153520Y597728D01*
X153481Y597636D01*
X153438Y597546D01*
X153393Y597458D01*
X153343Y597371D01*
X153291Y597287D01*
X153235Y597204D01*
X153177Y597124D01*
X153115Y597046D01*
X153050Y596971D01*
X152982Y596898D01*
X152912Y596828D01*
X152839Y596760D01*
X152764Y596695D01*
X152686Y596633D01*
X152606Y596575D01*
X152523Y596519D01*
X152439Y596467D01*
X152352Y596417D01*
X152264Y596372D01*
X152174Y596329D01*
X152082Y596290D01*
X151989Y596255D01*
X151895Y596223D01*
X151800Y596195D01*
X151704Y596170D01*
X151606Y596149D01*
X151508Y596132D01*
X151410Y596119D01*
X151311Y596110D01*
X151211Y596104D01*
X151112Y596102D01*
X151112Y596101D02*
X144621Y596101D01*
X144522Y596103D01*
X144422Y596109D01*
X144323Y596118D01*
X144225Y596131D01*
X144127Y596149D01*
X144029Y596169D01*
X143933Y596194D01*
X143837Y596222D01*
X143743Y596254D01*
X143650Y596289D01*
X143559Y596328D01*
X143469Y596371D01*
X143380Y596416D01*
X143294Y596466D01*
X143209Y596518D01*
X143127Y596574D01*
X143047Y596633D01*
X142969Y596694D01*
X142893Y596759D01*
X142820Y596827D01*
X142750Y596897D01*
X142682Y596970D01*
X142617Y597046D01*
X142556Y597124D01*
X142497Y597204D01*
X142441Y597286D01*
X142389Y597371D01*
X142340Y597457D01*
X142294Y597546D01*
X142251Y597636D01*
X142212Y597727D01*
X142177Y597820D01*
X142145Y597914D01*
X142117Y598010D01*
X142092Y598106D01*
X142072Y598204D01*
X142054Y598302D01*
X142041Y598400D01*
X142032Y598499D01*
X142026Y598598D01*
X142024Y598698D01*
X142025Y598698D02*
X142025Y601294D01*
X153709Y605659D02*
X153709Y609554D01*
X153708Y609554D02*
X153706Y609653D01*
X153700Y609753D01*
X153691Y609852D01*
X153678Y609950D01*
X153661Y610048D01*
X153640Y610146D01*
X153615Y610242D01*
X153587Y610337D01*
X153555Y610431D01*
X153520Y610524D01*
X153481Y610616D01*
X153438Y610706D01*
X153393Y610794D01*
X153343Y610881D01*
X153291Y610965D01*
X153235Y611048D01*
X153177Y611128D01*
X153115Y611206D01*
X153050Y611281D01*
X152982Y611354D01*
X152912Y611424D01*
X152839Y611492D01*
X152764Y611557D01*
X152686Y611619D01*
X152606Y611677D01*
X152523Y611733D01*
X152439Y611785D01*
X152352Y611835D01*
X152264Y611880D01*
X152174Y611923D01*
X152082Y611962D01*
X151989Y611997D01*
X151895Y612029D01*
X151800Y612057D01*
X151704Y612082D01*
X151606Y612103D01*
X151508Y612120D01*
X151410Y612133D01*
X151311Y612142D01*
X151211Y612148D01*
X151112Y612150D01*
X149814Y612150D01*
X149715Y612148D01*
X149615Y612142D01*
X149516Y612133D01*
X149418Y612120D01*
X149320Y612103D01*
X149222Y612082D01*
X149126Y612057D01*
X149031Y612029D01*
X148937Y611997D01*
X148844Y611962D01*
X148752Y611923D01*
X148662Y611880D01*
X148574Y611835D01*
X148487Y611785D01*
X148403Y611733D01*
X148320Y611677D01*
X148240Y611619D01*
X148162Y611557D01*
X148087Y611492D01*
X148014Y611424D01*
X147944Y611354D01*
X147876Y611281D01*
X147811Y611206D01*
X147749Y611128D01*
X147691Y611048D01*
X147635Y610965D01*
X147583Y610881D01*
X147533Y610794D01*
X147488Y610706D01*
X147445Y610616D01*
X147406Y610524D01*
X147371Y610431D01*
X147339Y610337D01*
X147311Y610242D01*
X147286Y610146D01*
X147265Y610048D01*
X147248Y609950D01*
X147235Y609852D01*
X147226Y609753D01*
X147220Y609653D01*
X147218Y609554D01*
X147218Y605659D01*
X142025Y605659D01*
X142025Y612150D01*
X155336Y562571D02*
X157933Y562571D01*
X155336Y562572D02*
X155237Y562574D01*
X155137Y562580D01*
X155038Y562589D01*
X154940Y562602D01*
X154842Y562619D01*
X154744Y562640D01*
X154648Y562665D01*
X154553Y562693D01*
X154459Y562725D01*
X154366Y562760D01*
X154274Y562799D01*
X154184Y562842D01*
X154096Y562887D01*
X154009Y562937D01*
X153925Y562989D01*
X153842Y563045D01*
X153762Y563103D01*
X153684Y563165D01*
X153609Y563230D01*
X153536Y563298D01*
X153466Y563368D01*
X153398Y563441D01*
X153333Y563516D01*
X153271Y563594D01*
X153213Y563674D01*
X153157Y563757D01*
X153105Y563841D01*
X153055Y563928D01*
X153010Y564016D01*
X152967Y564106D01*
X152928Y564198D01*
X152893Y564291D01*
X152861Y564385D01*
X152833Y564480D01*
X152808Y564576D01*
X152787Y564674D01*
X152770Y564772D01*
X152757Y564870D01*
X152748Y564969D01*
X152742Y565069D01*
X152740Y565168D01*
X152740Y571659D01*
X152742Y571758D01*
X152748Y571858D01*
X152757Y571957D01*
X152770Y572055D01*
X152787Y572153D01*
X152808Y572251D01*
X152833Y572347D01*
X152861Y572442D01*
X152893Y572536D01*
X152928Y572629D01*
X152967Y572721D01*
X153010Y572811D01*
X153055Y572899D01*
X153105Y572986D01*
X153157Y573070D01*
X153213Y573153D01*
X153271Y573233D01*
X153333Y573311D01*
X153398Y573386D01*
X153466Y573459D01*
X153536Y573529D01*
X153609Y573597D01*
X153684Y573662D01*
X153762Y573724D01*
X153842Y573782D01*
X153925Y573838D01*
X154009Y573890D01*
X154096Y573940D01*
X154184Y573985D01*
X154274Y574028D01*
X154366Y574067D01*
X154458Y574102D01*
X154553Y574134D01*
X154648Y574162D01*
X154744Y574187D01*
X154842Y574208D01*
X154940Y574225D01*
X155038Y574238D01*
X155137Y574247D01*
X155237Y574253D01*
X155336Y574255D01*
X157933Y574255D01*
X162297Y565817D02*
X162299Y565930D01*
X162305Y566043D01*
X162315Y566156D01*
X162329Y566269D01*
X162346Y566381D01*
X162368Y566492D01*
X162393Y566602D01*
X162423Y566712D01*
X162456Y566820D01*
X162493Y566927D01*
X162533Y567033D01*
X162578Y567137D01*
X162626Y567240D01*
X162677Y567341D01*
X162732Y567440D01*
X162790Y567537D01*
X162852Y567632D01*
X162917Y567725D01*
X162985Y567815D01*
X163056Y567903D01*
X163131Y567989D01*
X163208Y568072D01*
X163288Y568152D01*
X163371Y568229D01*
X163457Y568304D01*
X163545Y568375D01*
X163635Y568443D01*
X163728Y568508D01*
X163823Y568570D01*
X163920Y568628D01*
X164019Y568683D01*
X164120Y568734D01*
X164223Y568782D01*
X164327Y568827D01*
X164433Y568867D01*
X164540Y568904D01*
X164648Y568937D01*
X164758Y568967D01*
X164868Y568992D01*
X164979Y569014D01*
X165091Y569031D01*
X165204Y569045D01*
X165317Y569055D01*
X165430Y569061D01*
X165543Y569063D01*
X165656Y569061D01*
X165769Y569055D01*
X165882Y569045D01*
X165995Y569031D01*
X166107Y569014D01*
X166218Y568992D01*
X166328Y568967D01*
X166438Y568937D01*
X166546Y568904D01*
X166653Y568867D01*
X166759Y568827D01*
X166863Y568782D01*
X166966Y568734D01*
X167067Y568683D01*
X167166Y568628D01*
X167263Y568570D01*
X167358Y568508D01*
X167451Y568443D01*
X167541Y568375D01*
X167629Y568304D01*
X167715Y568229D01*
X167798Y568152D01*
X167878Y568072D01*
X167955Y567989D01*
X168030Y567903D01*
X168101Y567815D01*
X168169Y567725D01*
X168234Y567632D01*
X168296Y567537D01*
X168354Y567440D01*
X168409Y567341D01*
X168460Y567240D01*
X168508Y567137D01*
X168553Y567033D01*
X168593Y566927D01*
X168630Y566820D01*
X168663Y566712D01*
X168693Y566602D01*
X168718Y566492D01*
X168740Y566381D01*
X168757Y566269D01*
X168771Y566156D01*
X168781Y566043D01*
X168787Y565930D01*
X168789Y565817D01*
X168787Y565704D01*
X168781Y565591D01*
X168771Y565478D01*
X168757Y565365D01*
X168740Y565253D01*
X168718Y565142D01*
X168693Y565032D01*
X168663Y564922D01*
X168630Y564814D01*
X168593Y564707D01*
X168553Y564601D01*
X168508Y564497D01*
X168460Y564394D01*
X168409Y564293D01*
X168354Y564194D01*
X168296Y564097D01*
X168234Y564002D01*
X168169Y563909D01*
X168101Y563819D01*
X168030Y563731D01*
X167955Y563645D01*
X167878Y563562D01*
X167798Y563482D01*
X167715Y563405D01*
X167629Y563330D01*
X167541Y563259D01*
X167451Y563191D01*
X167358Y563126D01*
X167263Y563064D01*
X167166Y563006D01*
X167067Y562951D01*
X166966Y562900D01*
X166863Y562852D01*
X166759Y562807D01*
X166653Y562767D01*
X166546Y562730D01*
X166438Y562697D01*
X166328Y562667D01*
X166218Y562642D01*
X166107Y562620D01*
X165995Y562603D01*
X165882Y562589D01*
X165769Y562579D01*
X165656Y562573D01*
X165543Y562571D01*
X165430Y562573D01*
X165317Y562579D01*
X165204Y562589D01*
X165091Y562603D01*
X164979Y562620D01*
X164868Y562642D01*
X164758Y562667D01*
X164648Y562697D01*
X164540Y562730D01*
X164433Y562767D01*
X164327Y562807D01*
X164223Y562852D01*
X164120Y562900D01*
X164019Y562951D01*
X163920Y563006D01*
X163823Y563064D01*
X163728Y563126D01*
X163635Y563191D01*
X163545Y563259D01*
X163457Y563330D01*
X163371Y563405D01*
X163288Y563482D01*
X163208Y563562D01*
X163131Y563645D01*
X163056Y563731D01*
X162985Y563819D01*
X162917Y563909D01*
X162852Y564002D01*
X162790Y564097D01*
X162732Y564194D01*
X162677Y564293D01*
X162626Y564394D01*
X162578Y564497D01*
X162533Y564601D01*
X162493Y564707D01*
X162456Y564814D01*
X162423Y564922D01*
X162393Y565032D01*
X162368Y565142D01*
X162346Y565253D01*
X162329Y565365D01*
X162315Y565478D01*
X162305Y565591D01*
X162299Y565704D01*
X162297Y565817D01*
X162947Y571659D02*
X162949Y571760D01*
X162955Y571860D01*
X162965Y571960D01*
X162978Y572060D01*
X162996Y572159D01*
X163017Y572258D01*
X163042Y572355D01*
X163071Y572452D01*
X163104Y572547D01*
X163140Y572641D01*
X163180Y572733D01*
X163223Y572824D01*
X163270Y572913D01*
X163320Y573000D01*
X163374Y573086D01*
X163431Y573169D01*
X163491Y573249D01*
X163554Y573328D01*
X163621Y573404D01*
X163690Y573477D01*
X163762Y573547D01*
X163836Y573615D01*
X163913Y573680D01*
X163993Y573741D01*
X164075Y573800D01*
X164159Y573855D01*
X164245Y573907D01*
X164333Y573956D01*
X164423Y574001D01*
X164515Y574043D01*
X164608Y574081D01*
X164703Y574115D01*
X164798Y574146D01*
X164895Y574173D01*
X164993Y574196D01*
X165092Y574216D01*
X165192Y574231D01*
X165292Y574243D01*
X165392Y574251D01*
X165493Y574255D01*
X165593Y574255D01*
X165694Y574251D01*
X165794Y574243D01*
X165894Y574231D01*
X165994Y574216D01*
X166093Y574196D01*
X166191Y574173D01*
X166288Y574146D01*
X166383Y574115D01*
X166478Y574081D01*
X166571Y574043D01*
X166663Y574001D01*
X166753Y573956D01*
X166841Y573907D01*
X166927Y573855D01*
X167011Y573800D01*
X167093Y573741D01*
X167173Y573680D01*
X167250Y573615D01*
X167324Y573547D01*
X167396Y573477D01*
X167465Y573404D01*
X167532Y573328D01*
X167595Y573249D01*
X167655Y573169D01*
X167712Y573086D01*
X167766Y573000D01*
X167816Y572913D01*
X167863Y572824D01*
X167906Y572733D01*
X167946Y572641D01*
X167982Y572547D01*
X168015Y572452D01*
X168044Y572355D01*
X168069Y572258D01*
X168090Y572159D01*
X168108Y572060D01*
X168121Y571960D01*
X168131Y571860D01*
X168137Y571760D01*
X168139Y571659D01*
X168137Y571558D01*
X168131Y571458D01*
X168121Y571358D01*
X168108Y571258D01*
X168090Y571159D01*
X168069Y571060D01*
X168044Y570963D01*
X168015Y570866D01*
X167982Y570771D01*
X167946Y570677D01*
X167906Y570585D01*
X167863Y570494D01*
X167816Y570405D01*
X167766Y570318D01*
X167712Y570232D01*
X167655Y570149D01*
X167595Y570069D01*
X167532Y569990D01*
X167465Y569914D01*
X167396Y569841D01*
X167324Y569771D01*
X167250Y569703D01*
X167173Y569638D01*
X167093Y569577D01*
X167011Y569518D01*
X166927Y569463D01*
X166841Y569411D01*
X166753Y569362D01*
X166663Y569317D01*
X166571Y569275D01*
X166478Y569237D01*
X166383Y569203D01*
X166288Y569172D01*
X166191Y569145D01*
X166093Y569122D01*
X165994Y569102D01*
X165894Y569087D01*
X165794Y569075D01*
X165694Y569067D01*
X165593Y569063D01*
X165493Y569063D01*
X165392Y569067D01*
X165292Y569075D01*
X165192Y569087D01*
X165092Y569102D01*
X164993Y569122D01*
X164895Y569145D01*
X164798Y569172D01*
X164703Y569203D01*
X164608Y569237D01*
X164515Y569275D01*
X164423Y569317D01*
X164333Y569362D01*
X164245Y569411D01*
X164159Y569463D01*
X164075Y569518D01*
X163993Y569577D01*
X163913Y569638D01*
X163836Y569703D01*
X163762Y569771D01*
X163690Y569841D01*
X163621Y569914D01*
X163554Y569990D01*
X163491Y570069D01*
X163431Y570149D01*
X163374Y570232D01*
X163320Y570318D01*
X163270Y570405D01*
X163223Y570494D01*
X163180Y570585D01*
X163140Y570677D01*
X163104Y570771D01*
X163071Y570866D01*
X163042Y570963D01*
X163017Y571060D01*
X162996Y571159D01*
X162978Y571258D01*
X162965Y571358D01*
X162955Y571458D01*
X162949Y571558D01*
X162947Y571659D01*
X189374Y623823D02*
X191971Y623823D01*
X189374Y623824D02*
X189275Y623826D01*
X189175Y623832D01*
X189076Y623841D01*
X188978Y623854D01*
X188880Y623871D01*
X188782Y623892D01*
X188686Y623917D01*
X188591Y623945D01*
X188497Y623977D01*
X188404Y624012D01*
X188312Y624051D01*
X188222Y624094D01*
X188134Y624139D01*
X188047Y624189D01*
X187963Y624241D01*
X187880Y624297D01*
X187800Y624355D01*
X187722Y624417D01*
X187647Y624482D01*
X187574Y624550D01*
X187504Y624620D01*
X187436Y624693D01*
X187371Y624768D01*
X187309Y624846D01*
X187251Y624926D01*
X187195Y625009D01*
X187143Y625093D01*
X187093Y625180D01*
X187048Y625268D01*
X187005Y625358D01*
X186966Y625450D01*
X186931Y625543D01*
X186899Y625637D01*
X186871Y625732D01*
X186846Y625828D01*
X186825Y625926D01*
X186808Y626024D01*
X186795Y626122D01*
X186786Y626221D01*
X186780Y626321D01*
X186778Y626420D01*
X186778Y632911D01*
X186780Y633010D01*
X186786Y633110D01*
X186795Y633209D01*
X186808Y633307D01*
X186825Y633405D01*
X186846Y633503D01*
X186871Y633599D01*
X186899Y633694D01*
X186931Y633788D01*
X186966Y633881D01*
X187005Y633973D01*
X187048Y634063D01*
X187093Y634151D01*
X187143Y634238D01*
X187195Y634322D01*
X187251Y634405D01*
X187309Y634485D01*
X187371Y634563D01*
X187436Y634638D01*
X187504Y634711D01*
X187574Y634781D01*
X187647Y634849D01*
X187722Y634914D01*
X187800Y634976D01*
X187880Y635034D01*
X187963Y635090D01*
X188047Y635142D01*
X188134Y635192D01*
X188222Y635237D01*
X188312Y635280D01*
X188404Y635319D01*
X188496Y635354D01*
X188591Y635386D01*
X188686Y635414D01*
X188782Y635439D01*
X188880Y635460D01*
X188978Y635477D01*
X189076Y635490D01*
X189175Y635499D01*
X189275Y635505D01*
X189374Y635507D01*
X191971Y635507D01*
X198932Y629016D02*
X202827Y629016D01*
X198932Y629016D02*
X198833Y629018D01*
X198733Y629024D01*
X198634Y629033D01*
X198536Y629046D01*
X198438Y629063D01*
X198340Y629084D01*
X198244Y629109D01*
X198149Y629137D01*
X198055Y629169D01*
X197962Y629204D01*
X197870Y629243D01*
X197780Y629286D01*
X197692Y629331D01*
X197605Y629381D01*
X197521Y629433D01*
X197438Y629489D01*
X197358Y629547D01*
X197280Y629609D01*
X197205Y629674D01*
X197132Y629742D01*
X197062Y629812D01*
X196994Y629885D01*
X196929Y629960D01*
X196867Y630038D01*
X196809Y630118D01*
X196753Y630201D01*
X196701Y630285D01*
X196651Y630372D01*
X196606Y630460D01*
X196563Y630550D01*
X196524Y630642D01*
X196489Y630735D01*
X196457Y630829D01*
X196429Y630924D01*
X196404Y631020D01*
X196383Y631118D01*
X196366Y631216D01*
X196353Y631314D01*
X196344Y631413D01*
X196338Y631513D01*
X196336Y631612D01*
X196336Y632262D01*
X196335Y632262D02*
X196337Y632375D01*
X196343Y632488D01*
X196353Y632601D01*
X196367Y632714D01*
X196384Y632826D01*
X196406Y632937D01*
X196431Y633047D01*
X196461Y633157D01*
X196494Y633265D01*
X196531Y633372D01*
X196571Y633478D01*
X196616Y633582D01*
X196664Y633685D01*
X196715Y633786D01*
X196770Y633885D01*
X196828Y633982D01*
X196890Y634077D01*
X196955Y634170D01*
X197023Y634260D01*
X197094Y634348D01*
X197169Y634434D01*
X197246Y634517D01*
X197326Y634597D01*
X197409Y634674D01*
X197495Y634749D01*
X197583Y634820D01*
X197673Y634888D01*
X197766Y634953D01*
X197861Y635015D01*
X197958Y635073D01*
X198057Y635128D01*
X198158Y635179D01*
X198261Y635227D01*
X198365Y635272D01*
X198471Y635312D01*
X198578Y635349D01*
X198686Y635382D01*
X198796Y635412D01*
X198906Y635437D01*
X199017Y635459D01*
X199129Y635476D01*
X199242Y635490D01*
X199355Y635500D01*
X199468Y635506D01*
X199581Y635508D01*
X199694Y635506D01*
X199807Y635500D01*
X199920Y635490D01*
X200033Y635476D01*
X200145Y635459D01*
X200256Y635437D01*
X200366Y635412D01*
X200476Y635382D01*
X200584Y635349D01*
X200691Y635312D01*
X200797Y635272D01*
X200901Y635227D01*
X201004Y635179D01*
X201105Y635128D01*
X201204Y635073D01*
X201301Y635015D01*
X201396Y634953D01*
X201489Y634888D01*
X201579Y634820D01*
X201667Y634749D01*
X201753Y634674D01*
X201836Y634597D01*
X201916Y634517D01*
X201993Y634434D01*
X202068Y634348D01*
X202139Y634260D01*
X202207Y634170D01*
X202272Y634077D01*
X202334Y633982D01*
X202392Y633885D01*
X202447Y633786D01*
X202498Y633685D01*
X202546Y633582D01*
X202591Y633478D01*
X202631Y633372D01*
X202668Y633265D01*
X202701Y633157D01*
X202731Y633047D01*
X202756Y632937D01*
X202778Y632826D01*
X202795Y632714D01*
X202809Y632601D01*
X202819Y632488D01*
X202825Y632375D01*
X202827Y632262D01*
X202827Y629016D01*
X202825Y628873D01*
X202819Y628730D01*
X202809Y628587D01*
X202795Y628445D01*
X202778Y628303D01*
X202756Y628161D01*
X202731Y628020D01*
X202701Y627880D01*
X202668Y627741D01*
X202631Y627603D01*
X202590Y627466D01*
X202546Y627330D01*
X202497Y627195D01*
X202445Y627062D01*
X202390Y626930D01*
X202330Y626800D01*
X202267Y626671D01*
X202201Y626544D01*
X202131Y626420D01*
X202058Y626297D01*
X201981Y626176D01*
X201901Y626057D01*
X201818Y625941D01*
X201732Y625826D01*
X201643Y625715D01*
X201550Y625605D01*
X201455Y625499D01*
X201356Y625395D01*
X201255Y625294D01*
X201151Y625195D01*
X201045Y625100D01*
X200935Y625007D01*
X200824Y624918D01*
X200709Y624832D01*
X200593Y624749D01*
X200474Y624669D01*
X200353Y624592D01*
X200230Y624519D01*
X200106Y624449D01*
X199979Y624383D01*
X199850Y624320D01*
X199720Y624260D01*
X199588Y624205D01*
X199455Y624153D01*
X199320Y624104D01*
X199184Y624060D01*
X199047Y624019D01*
X198909Y623982D01*
X198770Y623949D01*
X198630Y623919D01*
X198489Y623894D01*
X198347Y623872D01*
X198205Y623855D01*
X198063Y623841D01*
X197920Y623831D01*
X197777Y623825D01*
X197634Y623823D01*
D14*
X380501Y515403D02*
X380501Y502703D01*
X374151Y496353D01*
X361451Y496353D01*
X355101Y502703D01*
X361451Y521753D02*
X374151Y521753D01*
X380501Y515403D01*
X361451Y521753D02*
X355101Y515403D01*
X355101Y502703D01*
D15*
X349672Y518973D02*
X340782Y518973D01*
X349672Y518973D02*
X349772Y518971D01*
X349871Y518965D01*
X349971Y518955D01*
X350069Y518942D01*
X350168Y518924D01*
X350265Y518903D01*
X350361Y518878D01*
X350457Y518849D01*
X350551Y518816D01*
X350644Y518780D01*
X350735Y518740D01*
X350825Y518696D01*
X350913Y518649D01*
X350999Y518599D01*
X351083Y518545D01*
X351165Y518488D01*
X351244Y518428D01*
X351322Y518364D01*
X351396Y518298D01*
X351468Y518229D01*
X351537Y518157D01*
X351603Y518083D01*
X351667Y518005D01*
X351727Y517926D01*
X351784Y517844D01*
X351838Y517760D01*
X351888Y517674D01*
X351935Y517586D01*
X351979Y517496D01*
X352019Y517405D01*
X352055Y517312D01*
X352088Y517218D01*
X352117Y517122D01*
X352142Y517026D01*
X352163Y516929D01*
X352181Y516830D01*
X352194Y516732D01*
X352204Y516632D01*
X352210Y516533D01*
X352212Y516433D01*
X352212Y515163D01*
X352212Y524953D02*
X340782Y524953D01*
X340782Y528128D01*
X340784Y528239D01*
X340790Y528349D01*
X340799Y528460D01*
X340813Y528570D01*
X340830Y528679D01*
X340851Y528788D01*
X340876Y528896D01*
X340905Y529003D01*
X340937Y529109D01*
X340973Y529214D01*
X341013Y529317D01*
X341056Y529419D01*
X341103Y529520D01*
X341154Y529619D01*
X341207Y529716D01*
X341264Y529810D01*
X341325Y529903D01*
X341388Y529994D01*
X341455Y530083D01*
X341525Y530169D01*
X341598Y530252D01*
X341673Y530334D01*
X341751Y530412D01*
X341833Y530487D01*
X341916Y530560D01*
X342002Y530630D01*
X342091Y530697D01*
X342182Y530760D01*
X342275Y530821D01*
X342370Y530878D01*
X342466Y530931D01*
X342565Y530982D01*
X342666Y531029D01*
X342768Y531072D01*
X342871Y531112D01*
X342976Y531148D01*
X343082Y531180D01*
X343189Y531209D01*
X343297Y531234D01*
X343406Y531255D01*
X343515Y531272D01*
X343625Y531286D01*
X343736Y531295D01*
X343846Y531301D01*
X343957Y531303D01*
X344068Y531301D01*
X344178Y531295D01*
X344289Y531286D01*
X344399Y531272D01*
X344508Y531255D01*
X344617Y531234D01*
X344725Y531209D01*
X344832Y531180D01*
X344938Y531148D01*
X345043Y531112D01*
X345146Y531072D01*
X345248Y531029D01*
X345349Y530982D01*
X345448Y530931D01*
X345545Y530878D01*
X345639Y530821D01*
X345732Y530760D01*
X345823Y530697D01*
X345912Y530630D01*
X345998Y530560D01*
X346081Y530487D01*
X346163Y530412D01*
X346241Y530334D01*
X346316Y530252D01*
X346389Y530169D01*
X346459Y530083D01*
X346526Y529994D01*
X346589Y529903D01*
X346650Y529810D01*
X346707Y529716D01*
X346760Y529619D01*
X346811Y529520D01*
X346858Y529419D01*
X346901Y529317D01*
X346941Y529214D01*
X346977Y529109D01*
X347009Y529003D01*
X347038Y528896D01*
X347063Y528788D01*
X347084Y528679D01*
X347101Y528570D01*
X347115Y528460D01*
X347124Y528349D01*
X347130Y528239D01*
X347132Y528128D01*
X347132Y524953D01*
X343322Y535811D02*
X340782Y538986D01*
X352212Y538986D01*
X352212Y535811D02*
X352212Y542161D01*
D14*
X280793Y616854D02*
X268093Y616854D01*
X280793Y616854D02*
X287143Y610504D01*
X287143Y597804D01*
X280793Y591454D01*
X261743Y597804D02*
X261743Y610504D01*
X268093Y616854D01*
X261743Y597804D02*
X268093Y591454D01*
X280793Y591454D01*
D15*
X265426Y625617D02*
X265426Y634507D01*
X265426Y625617D02*
X265424Y625517D01*
X265418Y625418D01*
X265408Y625318D01*
X265395Y625220D01*
X265377Y625121D01*
X265356Y625024D01*
X265331Y624928D01*
X265302Y624832D01*
X265269Y624738D01*
X265233Y624645D01*
X265193Y624554D01*
X265149Y624464D01*
X265102Y624376D01*
X265052Y624290D01*
X264998Y624206D01*
X264941Y624124D01*
X264881Y624045D01*
X264817Y623967D01*
X264751Y623893D01*
X264682Y623821D01*
X264610Y623752D01*
X264536Y623686D01*
X264458Y623622D01*
X264379Y623562D01*
X264297Y623505D01*
X264213Y623451D01*
X264127Y623401D01*
X264039Y623354D01*
X263949Y623310D01*
X263858Y623270D01*
X263765Y623234D01*
X263671Y623201D01*
X263575Y623172D01*
X263479Y623147D01*
X263382Y623126D01*
X263283Y623108D01*
X263185Y623095D01*
X263085Y623085D01*
X262986Y623079D01*
X262886Y623077D01*
X261616Y623077D01*
X271406Y623077D02*
X271406Y634507D01*
X274581Y634507D01*
X274692Y634505D01*
X274802Y634499D01*
X274913Y634490D01*
X275023Y634476D01*
X275132Y634459D01*
X275241Y634438D01*
X275349Y634413D01*
X275456Y634384D01*
X275562Y634352D01*
X275667Y634316D01*
X275770Y634276D01*
X275872Y634233D01*
X275973Y634186D01*
X276072Y634135D01*
X276169Y634082D01*
X276263Y634025D01*
X276356Y633964D01*
X276447Y633901D01*
X276536Y633834D01*
X276622Y633764D01*
X276705Y633691D01*
X276787Y633616D01*
X276865Y633538D01*
X276940Y633456D01*
X277013Y633373D01*
X277083Y633287D01*
X277150Y633198D01*
X277213Y633107D01*
X277274Y633014D01*
X277331Y632919D01*
X277384Y632823D01*
X277435Y632724D01*
X277482Y632623D01*
X277525Y632521D01*
X277565Y632418D01*
X277601Y632313D01*
X277633Y632207D01*
X277662Y632100D01*
X277687Y631992D01*
X277708Y631883D01*
X277725Y631774D01*
X277739Y631664D01*
X277748Y631553D01*
X277754Y631443D01*
X277756Y631332D01*
X277754Y631221D01*
X277748Y631111D01*
X277739Y631000D01*
X277725Y630890D01*
X277708Y630781D01*
X277687Y630672D01*
X277662Y630564D01*
X277633Y630457D01*
X277601Y630351D01*
X277565Y630246D01*
X277525Y630143D01*
X277482Y630041D01*
X277435Y629940D01*
X277384Y629841D01*
X277331Y629745D01*
X277274Y629650D01*
X277213Y629557D01*
X277150Y629466D01*
X277083Y629377D01*
X277013Y629291D01*
X276940Y629208D01*
X276865Y629126D01*
X276787Y629048D01*
X276705Y628973D01*
X276622Y628900D01*
X276536Y628830D01*
X276447Y628763D01*
X276356Y628700D01*
X276263Y628639D01*
X276169Y628582D01*
X276072Y628529D01*
X275973Y628478D01*
X275872Y628431D01*
X275770Y628388D01*
X275667Y628348D01*
X275562Y628312D01*
X275456Y628280D01*
X275349Y628251D01*
X275241Y628226D01*
X275132Y628205D01*
X275023Y628188D01*
X274913Y628174D01*
X274802Y628165D01*
X274692Y628159D01*
X274581Y628157D01*
X271406Y628157D01*
X285757Y634508D02*
X285861Y634506D01*
X285966Y634500D01*
X286070Y634491D01*
X286173Y634478D01*
X286276Y634460D01*
X286378Y634440D01*
X286480Y634415D01*
X286580Y634387D01*
X286680Y634355D01*
X286778Y634319D01*
X286875Y634280D01*
X286970Y634238D01*
X287064Y634192D01*
X287156Y634142D01*
X287246Y634090D01*
X287334Y634034D01*
X287420Y633974D01*
X287504Y633912D01*
X287585Y633847D01*
X287664Y633779D01*
X287741Y633707D01*
X287814Y633634D01*
X287886Y633557D01*
X287954Y633478D01*
X288019Y633397D01*
X288081Y633313D01*
X288141Y633227D01*
X288197Y633139D01*
X288249Y633049D01*
X288299Y632957D01*
X288345Y632863D01*
X288387Y632768D01*
X288426Y632671D01*
X288462Y632573D01*
X288494Y632473D01*
X288522Y632373D01*
X288547Y632271D01*
X288567Y632169D01*
X288585Y632066D01*
X288598Y631963D01*
X288607Y631859D01*
X288613Y631754D01*
X288615Y631650D01*
X285757Y634507D02*
X285639Y634505D01*
X285520Y634499D01*
X285402Y634490D01*
X285285Y634477D01*
X285168Y634459D01*
X285051Y634439D01*
X284935Y634414D01*
X284820Y634386D01*
X284707Y634353D01*
X284594Y634318D01*
X284482Y634278D01*
X284372Y634236D01*
X284263Y634189D01*
X284155Y634139D01*
X284050Y634086D01*
X283946Y634029D01*
X283844Y633969D01*
X283744Y633906D01*
X283646Y633839D01*
X283550Y633770D01*
X283457Y633697D01*
X283366Y633621D01*
X283277Y633543D01*
X283191Y633461D01*
X283108Y633377D01*
X283027Y633291D01*
X282950Y633201D01*
X282875Y633110D01*
X282803Y633016D01*
X282734Y632919D01*
X282669Y632821D01*
X282606Y632720D01*
X282547Y632617D01*
X282491Y632513D01*
X282439Y632407D01*
X282390Y632299D01*
X282345Y632190D01*
X282303Y632079D01*
X282265Y631967D01*
X287662Y629428D02*
X287738Y629503D01*
X287813Y629582D01*
X287884Y629663D01*
X287953Y629747D01*
X288018Y629833D01*
X288080Y629921D01*
X288140Y630011D01*
X288196Y630103D01*
X288249Y630198D01*
X288298Y630294D01*
X288344Y630392D01*
X288387Y630491D01*
X288426Y630592D01*
X288461Y630694D01*
X288493Y630797D01*
X288521Y630901D01*
X288546Y631006D01*
X288567Y631113D01*
X288584Y631219D01*
X288597Y631326D01*
X288606Y631434D01*
X288612Y631542D01*
X288614Y631650D01*
X287662Y629427D02*
X282265Y623077D01*
X288615Y623077D01*
D14*
X230578Y341277D02*
X205178Y341277D01*
X205178Y315877D01*
X230578Y315877D01*
X230578Y341277D01*
D16*
X217878Y309527D02*
X217878Y252377D01*
D14*
X205178Y341277D02*
X179778Y341277D01*
X179778Y315877D01*
X205178Y315877D01*
D16*
X192478Y309527D02*
X192478Y252377D01*
D14*
X179778Y341277D02*
X154378Y341277D01*
X154378Y315877D01*
X179778Y315877D01*
D16*
X167078Y309527D02*
X167078Y252377D01*
D14*
X154378Y341277D02*
X128978Y341277D01*
X128978Y315877D01*
X154378Y315877D01*
D16*
X141678Y309527D02*
X141678Y252377D01*
D14*
X128978Y341277D02*
X103578Y341277D01*
X103578Y315877D01*
X128978Y315877D01*
D16*
X116278Y309527D02*
X116278Y252377D01*
D14*
X103578Y341277D02*
X78178Y341277D01*
X78178Y315877D01*
X103578Y315877D01*
D16*
X90878Y309527D02*
X90878Y252377D01*
D17*
X217878Y313337D03*
X192478Y313337D03*
X167078Y313337D03*
X141678Y313337D03*
X116278Y313337D03*
X90878Y313337D03*
D18*
X217878Y346357D03*
X192478Y346357D03*
D19*
X217878Y373027D03*
X192478Y373027D03*
D18*
X167078Y346357D03*
X141678Y346357D03*
D19*
X167078Y373027D03*
X141678Y373027D03*
D18*
X116278Y346357D03*
X90878Y346357D03*
D19*
X116278Y373027D03*
X90878Y373027D03*
D15*
X241382Y406891D02*
X241382Y415781D01*
X241382Y406891D02*
X241380Y406791D01*
X241374Y406692D01*
X241364Y406592D01*
X241351Y406494D01*
X241333Y406395D01*
X241312Y406298D01*
X241287Y406202D01*
X241258Y406106D01*
X241225Y406012D01*
X241189Y405919D01*
X241149Y405828D01*
X241105Y405738D01*
X241058Y405650D01*
X241008Y405564D01*
X240954Y405480D01*
X240897Y405398D01*
X240837Y405319D01*
X240773Y405241D01*
X240707Y405167D01*
X240638Y405095D01*
X240566Y405026D01*
X240492Y404960D01*
X240414Y404896D01*
X240335Y404836D01*
X240253Y404779D01*
X240169Y404725D01*
X240083Y404675D01*
X239995Y404628D01*
X239905Y404584D01*
X239814Y404544D01*
X239721Y404508D01*
X239627Y404475D01*
X239531Y404446D01*
X239435Y404421D01*
X239338Y404400D01*
X239239Y404382D01*
X239141Y404369D01*
X239041Y404359D01*
X238942Y404353D01*
X238842Y404351D01*
X237572Y404351D01*
X247362Y404351D02*
X247362Y415781D01*
X250537Y415781D01*
X250648Y415779D01*
X250758Y415773D01*
X250869Y415764D01*
X250979Y415750D01*
X251088Y415733D01*
X251197Y415712D01*
X251305Y415687D01*
X251412Y415658D01*
X251518Y415626D01*
X251623Y415590D01*
X251726Y415550D01*
X251828Y415507D01*
X251929Y415460D01*
X252028Y415409D01*
X252125Y415356D01*
X252219Y415299D01*
X252312Y415238D01*
X252403Y415175D01*
X252492Y415108D01*
X252578Y415038D01*
X252661Y414965D01*
X252743Y414890D01*
X252821Y414812D01*
X252896Y414730D01*
X252969Y414647D01*
X253039Y414561D01*
X253106Y414472D01*
X253169Y414381D01*
X253230Y414288D01*
X253287Y414193D01*
X253340Y414097D01*
X253391Y413998D01*
X253438Y413897D01*
X253481Y413795D01*
X253521Y413692D01*
X253557Y413587D01*
X253589Y413481D01*
X253618Y413374D01*
X253643Y413266D01*
X253664Y413157D01*
X253681Y413048D01*
X253695Y412938D01*
X253704Y412827D01*
X253710Y412717D01*
X253712Y412606D01*
X253710Y412495D01*
X253704Y412385D01*
X253695Y412274D01*
X253681Y412164D01*
X253664Y412055D01*
X253643Y411946D01*
X253618Y411838D01*
X253589Y411731D01*
X253557Y411625D01*
X253521Y411520D01*
X253481Y411417D01*
X253438Y411315D01*
X253391Y411214D01*
X253340Y411115D01*
X253287Y411018D01*
X253230Y410924D01*
X253169Y410831D01*
X253106Y410740D01*
X253039Y410651D01*
X252969Y410565D01*
X252896Y410482D01*
X252821Y410400D01*
X252743Y410322D01*
X252661Y410247D01*
X252578Y410174D01*
X252492Y410104D01*
X252403Y410037D01*
X252312Y409974D01*
X252219Y409913D01*
X252124Y409856D01*
X252028Y409803D01*
X251929Y409752D01*
X251828Y409705D01*
X251726Y409662D01*
X251623Y409622D01*
X251518Y409586D01*
X251412Y409554D01*
X251305Y409525D01*
X251197Y409500D01*
X251088Y409479D01*
X250979Y409462D01*
X250869Y409448D01*
X250758Y409439D01*
X250648Y409433D01*
X250537Y409431D01*
X247362Y409431D01*
X258221Y406891D02*
X260761Y415781D01*
X258221Y406891D02*
X264571Y406891D01*
X262666Y409431D02*
X262666Y404351D01*
D12*
X185238Y478076D02*
X185238Y489760D01*
X188484Y489760D01*
X188484Y489761D02*
X188597Y489759D01*
X188710Y489753D01*
X188823Y489743D01*
X188936Y489729D01*
X189048Y489712D01*
X189159Y489690D01*
X189269Y489665D01*
X189379Y489635D01*
X189487Y489602D01*
X189594Y489565D01*
X189700Y489525D01*
X189804Y489480D01*
X189907Y489432D01*
X190008Y489381D01*
X190107Y489326D01*
X190204Y489268D01*
X190299Y489206D01*
X190392Y489141D01*
X190482Y489073D01*
X190570Y489002D01*
X190656Y488927D01*
X190739Y488850D01*
X190819Y488770D01*
X190896Y488687D01*
X190971Y488601D01*
X191042Y488513D01*
X191110Y488423D01*
X191175Y488330D01*
X191237Y488235D01*
X191295Y488138D01*
X191350Y488039D01*
X191401Y487938D01*
X191449Y487835D01*
X191494Y487731D01*
X191534Y487625D01*
X191571Y487518D01*
X191604Y487410D01*
X191634Y487300D01*
X191659Y487190D01*
X191681Y487079D01*
X191698Y486967D01*
X191712Y486854D01*
X191722Y486741D01*
X191728Y486628D01*
X191730Y486515D01*
X191728Y486402D01*
X191722Y486289D01*
X191712Y486176D01*
X191698Y486063D01*
X191681Y485951D01*
X191659Y485840D01*
X191634Y485730D01*
X191604Y485620D01*
X191571Y485512D01*
X191534Y485405D01*
X191494Y485299D01*
X191449Y485195D01*
X191401Y485092D01*
X191350Y484991D01*
X191295Y484892D01*
X191237Y484795D01*
X191175Y484700D01*
X191110Y484607D01*
X191042Y484517D01*
X190971Y484429D01*
X190896Y484343D01*
X190819Y484260D01*
X190739Y484180D01*
X190656Y484103D01*
X190570Y484028D01*
X190482Y483957D01*
X190392Y483889D01*
X190299Y483824D01*
X190204Y483762D01*
X190107Y483704D01*
X190008Y483649D01*
X189907Y483598D01*
X189804Y483550D01*
X189700Y483505D01*
X189594Y483465D01*
X189487Y483428D01*
X189379Y483395D01*
X189269Y483365D01*
X189159Y483340D01*
X189048Y483318D01*
X188936Y483301D01*
X188823Y483287D01*
X188710Y483277D01*
X188597Y483271D01*
X188484Y483269D01*
X185238Y483269D01*
X189133Y483269D02*
X191729Y478076D01*
X196595Y478076D02*
X200489Y478076D01*
X200489Y478077D02*
X200588Y478079D01*
X200688Y478085D01*
X200787Y478094D01*
X200885Y478107D01*
X200983Y478124D01*
X201081Y478145D01*
X201177Y478170D01*
X201272Y478198D01*
X201366Y478230D01*
X201459Y478265D01*
X201551Y478304D01*
X201641Y478347D01*
X201729Y478392D01*
X201816Y478442D01*
X201900Y478494D01*
X201983Y478550D01*
X202063Y478608D01*
X202141Y478670D01*
X202216Y478735D01*
X202289Y478803D01*
X202359Y478873D01*
X202427Y478946D01*
X202492Y479021D01*
X202554Y479099D01*
X202612Y479179D01*
X202668Y479262D01*
X202720Y479346D01*
X202770Y479433D01*
X202815Y479521D01*
X202858Y479611D01*
X202897Y479703D01*
X202932Y479796D01*
X202964Y479890D01*
X202992Y479985D01*
X203017Y480081D01*
X203038Y480179D01*
X203055Y480277D01*
X203068Y480375D01*
X203077Y480474D01*
X203083Y480574D01*
X203085Y480673D01*
X203086Y480673D02*
X203086Y481971D01*
X203085Y481971D02*
X203083Y482070D01*
X203077Y482170D01*
X203068Y482269D01*
X203055Y482367D01*
X203038Y482465D01*
X203017Y482563D01*
X202992Y482659D01*
X202964Y482754D01*
X202932Y482848D01*
X202897Y482941D01*
X202858Y483033D01*
X202815Y483123D01*
X202770Y483211D01*
X202720Y483298D01*
X202668Y483382D01*
X202612Y483465D01*
X202554Y483545D01*
X202492Y483623D01*
X202427Y483698D01*
X202359Y483771D01*
X202289Y483841D01*
X202216Y483909D01*
X202141Y483974D01*
X202063Y484036D01*
X201983Y484094D01*
X201900Y484150D01*
X201816Y484202D01*
X201729Y484252D01*
X201641Y484297D01*
X201551Y484340D01*
X201459Y484379D01*
X201366Y484414D01*
X201272Y484446D01*
X201177Y484474D01*
X201081Y484499D01*
X200983Y484520D01*
X200885Y484537D01*
X200787Y484550D01*
X200688Y484559D01*
X200588Y484565D01*
X200489Y484567D01*
X200489Y484568D02*
X196595Y484568D01*
X196595Y489760D01*
X203086Y489760D01*
X216127Y404606D02*
X227811Y404606D01*
X216127Y404606D02*
X216127Y407851D01*
X216126Y407851D02*
X216128Y407964D01*
X216134Y408077D01*
X216144Y408190D01*
X216158Y408303D01*
X216175Y408415D01*
X216197Y408526D01*
X216222Y408636D01*
X216252Y408746D01*
X216285Y408854D01*
X216322Y408961D01*
X216362Y409067D01*
X216407Y409171D01*
X216455Y409274D01*
X216506Y409375D01*
X216561Y409474D01*
X216619Y409571D01*
X216681Y409666D01*
X216746Y409759D01*
X216814Y409849D01*
X216885Y409937D01*
X216960Y410023D01*
X217037Y410106D01*
X217117Y410186D01*
X217200Y410263D01*
X217286Y410338D01*
X217374Y410409D01*
X217464Y410477D01*
X217557Y410542D01*
X217652Y410604D01*
X217749Y410662D01*
X217848Y410717D01*
X217949Y410768D01*
X218052Y410816D01*
X218156Y410861D01*
X218262Y410901D01*
X218369Y410938D01*
X218477Y410971D01*
X218587Y411001D01*
X218697Y411026D01*
X218808Y411048D01*
X218920Y411065D01*
X219033Y411079D01*
X219146Y411089D01*
X219259Y411095D01*
X219372Y411097D01*
X219485Y411095D01*
X219598Y411089D01*
X219711Y411079D01*
X219824Y411065D01*
X219936Y411048D01*
X220047Y411026D01*
X220157Y411001D01*
X220267Y410971D01*
X220375Y410938D01*
X220482Y410901D01*
X220588Y410861D01*
X220692Y410816D01*
X220795Y410768D01*
X220896Y410717D01*
X220995Y410662D01*
X221092Y410604D01*
X221187Y410542D01*
X221280Y410477D01*
X221370Y410409D01*
X221458Y410338D01*
X221544Y410263D01*
X221627Y410186D01*
X221707Y410106D01*
X221784Y410023D01*
X221859Y409937D01*
X221930Y409849D01*
X221998Y409759D01*
X222063Y409666D01*
X222125Y409571D01*
X222183Y409474D01*
X222238Y409375D01*
X222289Y409274D01*
X222337Y409171D01*
X222382Y409067D01*
X222422Y408961D01*
X222459Y408854D01*
X222492Y408746D01*
X222522Y408636D01*
X222547Y408526D01*
X222569Y408415D01*
X222586Y408303D01*
X222600Y408190D01*
X222610Y408077D01*
X222616Y407964D01*
X222618Y407851D01*
X222618Y404606D01*
X222618Y408500D02*
X227811Y411097D01*
X221320Y415962D02*
X221320Y419857D01*
X221322Y419956D01*
X221328Y420056D01*
X221337Y420155D01*
X221350Y420253D01*
X221367Y420351D01*
X221388Y420449D01*
X221413Y420545D01*
X221441Y420640D01*
X221473Y420734D01*
X221508Y420827D01*
X221547Y420919D01*
X221590Y421009D01*
X221635Y421097D01*
X221685Y421184D01*
X221737Y421268D01*
X221793Y421351D01*
X221851Y421431D01*
X221913Y421509D01*
X221978Y421584D01*
X222046Y421657D01*
X222116Y421727D01*
X222189Y421795D01*
X222264Y421860D01*
X222342Y421922D01*
X222422Y421980D01*
X222505Y422036D01*
X222589Y422088D01*
X222676Y422138D01*
X222764Y422183D01*
X222854Y422226D01*
X222946Y422265D01*
X223039Y422300D01*
X223133Y422332D01*
X223228Y422360D01*
X223324Y422385D01*
X223422Y422406D01*
X223520Y422423D01*
X223618Y422436D01*
X223717Y422445D01*
X223817Y422451D01*
X223916Y422453D01*
X224565Y422453D01*
X224565Y422454D02*
X224678Y422452D01*
X224791Y422446D01*
X224904Y422436D01*
X225017Y422422D01*
X225129Y422405D01*
X225240Y422383D01*
X225350Y422358D01*
X225460Y422328D01*
X225568Y422295D01*
X225675Y422258D01*
X225781Y422218D01*
X225885Y422173D01*
X225988Y422125D01*
X226089Y422074D01*
X226188Y422019D01*
X226285Y421961D01*
X226380Y421899D01*
X226473Y421834D01*
X226563Y421766D01*
X226651Y421695D01*
X226737Y421620D01*
X226820Y421543D01*
X226900Y421463D01*
X226977Y421380D01*
X227052Y421294D01*
X227123Y421206D01*
X227191Y421116D01*
X227256Y421023D01*
X227318Y420928D01*
X227376Y420831D01*
X227431Y420732D01*
X227482Y420631D01*
X227530Y420528D01*
X227575Y420424D01*
X227615Y420318D01*
X227652Y420211D01*
X227685Y420103D01*
X227715Y419993D01*
X227740Y419883D01*
X227762Y419772D01*
X227779Y419660D01*
X227793Y419547D01*
X227803Y419434D01*
X227809Y419321D01*
X227811Y419208D01*
X227809Y419095D01*
X227803Y418982D01*
X227793Y418869D01*
X227779Y418756D01*
X227762Y418644D01*
X227740Y418533D01*
X227715Y418423D01*
X227685Y418313D01*
X227652Y418205D01*
X227615Y418098D01*
X227575Y417992D01*
X227530Y417888D01*
X227482Y417785D01*
X227431Y417684D01*
X227376Y417585D01*
X227318Y417488D01*
X227256Y417393D01*
X227191Y417300D01*
X227123Y417210D01*
X227052Y417122D01*
X226977Y417036D01*
X226900Y416953D01*
X226820Y416873D01*
X226737Y416796D01*
X226651Y416721D01*
X226563Y416650D01*
X226473Y416582D01*
X226380Y416517D01*
X226285Y416455D01*
X226188Y416397D01*
X226089Y416342D01*
X225988Y416291D01*
X225885Y416243D01*
X225781Y416198D01*
X225675Y416158D01*
X225568Y416121D01*
X225460Y416088D01*
X225350Y416058D01*
X225240Y416033D01*
X225129Y416011D01*
X225017Y415994D01*
X224904Y415980D01*
X224791Y415970D01*
X224678Y415964D01*
X224565Y415962D01*
X221320Y415962D01*
X221177Y415964D01*
X221034Y415970D01*
X220891Y415980D01*
X220749Y415994D01*
X220607Y416011D01*
X220465Y416033D01*
X220324Y416058D01*
X220184Y416088D01*
X220045Y416121D01*
X219907Y416158D01*
X219770Y416199D01*
X219634Y416243D01*
X219499Y416292D01*
X219366Y416344D01*
X219234Y416399D01*
X219104Y416459D01*
X218975Y416522D01*
X218848Y416588D01*
X218724Y416658D01*
X218601Y416731D01*
X218480Y416808D01*
X218361Y416887D01*
X218245Y416971D01*
X218130Y417057D01*
X218019Y417146D01*
X217910Y417239D01*
X217803Y417334D01*
X217699Y417433D01*
X217598Y417534D01*
X217499Y417638D01*
X217404Y417744D01*
X217311Y417854D01*
X217222Y417965D01*
X217136Y418079D01*
X217053Y418196D01*
X216973Y418315D01*
X216896Y418436D01*
X216823Y418558D01*
X216753Y418683D01*
X216687Y418810D01*
X216624Y418939D01*
X216564Y419069D01*
X216509Y419201D01*
X216457Y419334D01*
X216408Y419469D01*
X216364Y419605D01*
X216323Y419742D01*
X216286Y419880D01*
X216253Y420019D01*
X216223Y420159D01*
X216198Y420300D01*
X216176Y420442D01*
X216159Y420584D01*
X216145Y420726D01*
X216135Y420869D01*
X216129Y421012D01*
X216127Y421155D01*
D13*
X398163Y535391D02*
X398163Y628391D01*
X368663Y628391D01*
X368663Y535391D02*
X398163Y535391D01*
X305163Y554441D02*
X305163Y609341D01*
X337464Y581891D02*
X337468Y582239D01*
X337481Y582588D01*
X337502Y582936D01*
X337532Y583283D01*
X337571Y583629D01*
X337618Y583974D01*
X337673Y584318D01*
X337737Y584661D01*
X337809Y585002D01*
X337890Y585341D01*
X337978Y585678D01*
X338075Y586013D01*
X338181Y586345D01*
X338294Y586674D01*
X338415Y587001D01*
X338545Y587325D01*
X338682Y587645D01*
X338827Y587962D01*
X338980Y588275D01*
X339141Y588584D01*
X339309Y588890D01*
X339484Y589191D01*
X339667Y589487D01*
X339857Y589780D01*
X340054Y590067D01*
X340258Y590349D01*
X340469Y590627D01*
X340687Y590899D01*
X340911Y591165D01*
X341142Y591426D01*
X341379Y591682D01*
X341623Y591931D01*
X341872Y592175D01*
X342128Y592412D01*
X342389Y592643D01*
X342655Y592867D01*
X342927Y593085D01*
X343205Y593296D01*
X343487Y593500D01*
X343774Y593697D01*
X344067Y593887D01*
X344363Y594070D01*
X344664Y594245D01*
X344970Y594413D01*
X345279Y594574D01*
X345592Y594727D01*
X345909Y594872D01*
X346229Y595009D01*
X346553Y595139D01*
X346880Y595260D01*
X347209Y595373D01*
X347541Y595479D01*
X347876Y595576D01*
X348213Y595664D01*
X348552Y595745D01*
X348893Y595817D01*
X349236Y595881D01*
X349580Y595936D01*
X349925Y595983D01*
X350271Y596022D01*
X350618Y596052D01*
X350966Y596073D01*
X351315Y596086D01*
X351663Y596090D01*
X352011Y596086D01*
X352360Y596073D01*
X352708Y596052D01*
X353055Y596022D01*
X353401Y595983D01*
X353746Y595936D01*
X354090Y595881D01*
X354433Y595817D01*
X354774Y595745D01*
X355113Y595664D01*
X355450Y595576D01*
X355785Y595479D01*
X356117Y595373D01*
X356446Y595260D01*
X356773Y595139D01*
X357097Y595009D01*
X357417Y594872D01*
X357734Y594727D01*
X358047Y594574D01*
X358356Y594413D01*
X358662Y594245D01*
X358963Y594070D01*
X359259Y593887D01*
X359552Y593697D01*
X359839Y593500D01*
X360121Y593296D01*
X360399Y593085D01*
X360671Y592867D01*
X360937Y592643D01*
X361198Y592412D01*
X361454Y592175D01*
X361703Y591931D01*
X361947Y591682D01*
X362184Y591426D01*
X362415Y591165D01*
X362639Y590899D01*
X362857Y590627D01*
X363068Y590349D01*
X363272Y590067D01*
X363469Y589780D01*
X363659Y589487D01*
X363842Y589191D01*
X364017Y588890D01*
X364185Y588584D01*
X364346Y588275D01*
X364499Y587962D01*
X364644Y587645D01*
X364781Y587325D01*
X364911Y587001D01*
X365032Y586674D01*
X365145Y586345D01*
X365251Y586013D01*
X365348Y585678D01*
X365436Y585341D01*
X365517Y585002D01*
X365589Y584661D01*
X365653Y584318D01*
X365708Y583974D01*
X365755Y583629D01*
X365794Y583283D01*
X365824Y582936D01*
X365845Y582588D01*
X365858Y582239D01*
X365862Y581891D01*
X365858Y581543D01*
X365845Y581194D01*
X365824Y580846D01*
X365794Y580499D01*
X365755Y580153D01*
X365708Y579808D01*
X365653Y579464D01*
X365589Y579121D01*
X365517Y578780D01*
X365436Y578441D01*
X365348Y578104D01*
X365251Y577769D01*
X365145Y577437D01*
X365032Y577108D01*
X364911Y576781D01*
X364781Y576457D01*
X364644Y576137D01*
X364499Y575820D01*
X364346Y575507D01*
X364185Y575198D01*
X364017Y574892D01*
X363842Y574591D01*
X363659Y574295D01*
X363469Y574002D01*
X363272Y573715D01*
X363068Y573433D01*
X362857Y573155D01*
X362639Y572883D01*
X362415Y572617D01*
X362184Y572356D01*
X361947Y572100D01*
X361703Y571851D01*
X361454Y571607D01*
X361198Y571370D01*
X360937Y571139D01*
X360671Y570915D01*
X360399Y570697D01*
X360121Y570486D01*
X359839Y570282D01*
X359552Y570085D01*
X359259Y569895D01*
X358963Y569712D01*
X358662Y569537D01*
X358356Y569369D01*
X358047Y569208D01*
X357734Y569055D01*
X357417Y568910D01*
X357097Y568773D01*
X356773Y568643D01*
X356446Y568522D01*
X356117Y568409D01*
X355785Y568303D01*
X355450Y568206D01*
X355113Y568118D01*
X354774Y568037D01*
X354433Y567965D01*
X354090Y567901D01*
X353746Y567846D01*
X353401Y567799D01*
X353055Y567760D01*
X352708Y567730D01*
X352360Y567709D01*
X352011Y567696D01*
X351663Y567692D01*
X351315Y567696D01*
X350966Y567709D01*
X350618Y567730D01*
X350271Y567760D01*
X349925Y567799D01*
X349580Y567846D01*
X349236Y567901D01*
X348893Y567965D01*
X348552Y568037D01*
X348213Y568118D01*
X347876Y568206D01*
X347541Y568303D01*
X347209Y568409D01*
X346880Y568522D01*
X346553Y568643D01*
X346229Y568773D01*
X345909Y568910D01*
X345592Y569055D01*
X345279Y569208D01*
X344970Y569369D01*
X344664Y569537D01*
X344363Y569712D01*
X344067Y569895D01*
X343774Y570085D01*
X343487Y570282D01*
X343205Y570486D01*
X342927Y570697D01*
X342655Y570915D01*
X342389Y571139D01*
X342128Y571370D01*
X341872Y571607D01*
X341623Y571851D01*
X341379Y572100D01*
X341142Y572356D01*
X340911Y572617D01*
X340687Y572883D01*
X340469Y573155D01*
X340258Y573433D01*
X340054Y573715D01*
X339857Y574002D01*
X339667Y574295D01*
X339484Y574591D01*
X339309Y574892D01*
X339141Y575198D01*
X338980Y575507D01*
X338827Y575820D01*
X338682Y576137D01*
X338545Y576457D01*
X338415Y576781D01*
X338294Y577108D01*
X338181Y577437D01*
X338075Y577769D01*
X337978Y578104D01*
X337890Y578441D01*
X337809Y578780D01*
X337737Y579121D01*
X337673Y579464D01*
X337618Y579808D01*
X337571Y580153D01*
X337532Y580499D01*
X337502Y580846D01*
X337481Y581194D01*
X337468Y581543D01*
X337464Y581891D01*
D12*
X381638Y611173D02*
X393322Y603384D01*
X393322Y611173D02*
X381638Y603384D01*
X384235Y615463D02*
X381638Y618708D01*
X393322Y618708D01*
X393322Y615463D02*
X393322Y621954D01*
D13*
X-21162Y504872D02*
X-21162Y411872D01*
X8338Y411872D01*
X8338Y504872D02*
X-21162Y504872D01*
X71838Y485822D02*
X71838Y430922D01*
X11139Y458372D02*
X11143Y458720D01*
X11156Y459069D01*
X11177Y459417D01*
X11207Y459764D01*
X11246Y460110D01*
X11293Y460455D01*
X11348Y460799D01*
X11412Y461142D01*
X11484Y461483D01*
X11565Y461822D01*
X11653Y462159D01*
X11750Y462494D01*
X11856Y462826D01*
X11969Y463155D01*
X12090Y463482D01*
X12220Y463806D01*
X12357Y464126D01*
X12502Y464443D01*
X12655Y464756D01*
X12816Y465065D01*
X12984Y465371D01*
X13159Y465672D01*
X13342Y465968D01*
X13532Y466261D01*
X13729Y466548D01*
X13933Y466830D01*
X14144Y467108D01*
X14362Y467380D01*
X14586Y467646D01*
X14817Y467907D01*
X15054Y468163D01*
X15298Y468412D01*
X15547Y468656D01*
X15803Y468893D01*
X16064Y469124D01*
X16330Y469348D01*
X16602Y469566D01*
X16880Y469777D01*
X17162Y469981D01*
X17449Y470178D01*
X17742Y470368D01*
X18038Y470551D01*
X18339Y470726D01*
X18645Y470894D01*
X18954Y471055D01*
X19267Y471208D01*
X19584Y471353D01*
X19904Y471490D01*
X20228Y471620D01*
X20555Y471741D01*
X20884Y471854D01*
X21216Y471960D01*
X21551Y472057D01*
X21888Y472145D01*
X22227Y472226D01*
X22568Y472298D01*
X22911Y472362D01*
X23255Y472417D01*
X23600Y472464D01*
X23946Y472503D01*
X24293Y472533D01*
X24641Y472554D01*
X24990Y472567D01*
X25338Y472571D01*
X25686Y472567D01*
X26035Y472554D01*
X26383Y472533D01*
X26730Y472503D01*
X27076Y472464D01*
X27421Y472417D01*
X27765Y472362D01*
X28108Y472298D01*
X28449Y472226D01*
X28788Y472145D01*
X29125Y472057D01*
X29460Y471960D01*
X29792Y471854D01*
X30121Y471741D01*
X30448Y471620D01*
X30772Y471490D01*
X31092Y471353D01*
X31409Y471208D01*
X31722Y471055D01*
X32031Y470894D01*
X32337Y470726D01*
X32638Y470551D01*
X32934Y470368D01*
X33227Y470178D01*
X33514Y469981D01*
X33796Y469777D01*
X34074Y469566D01*
X34346Y469348D01*
X34612Y469124D01*
X34873Y468893D01*
X35129Y468656D01*
X35378Y468412D01*
X35622Y468163D01*
X35859Y467907D01*
X36090Y467646D01*
X36314Y467380D01*
X36532Y467108D01*
X36743Y466830D01*
X36947Y466548D01*
X37144Y466261D01*
X37334Y465968D01*
X37517Y465672D01*
X37692Y465371D01*
X37860Y465065D01*
X38021Y464756D01*
X38174Y464443D01*
X38319Y464126D01*
X38456Y463806D01*
X38586Y463482D01*
X38707Y463155D01*
X38820Y462826D01*
X38926Y462494D01*
X39023Y462159D01*
X39111Y461822D01*
X39192Y461483D01*
X39264Y461142D01*
X39328Y460799D01*
X39383Y460455D01*
X39430Y460110D01*
X39469Y459764D01*
X39499Y459417D01*
X39520Y459069D01*
X39533Y458720D01*
X39537Y458372D01*
X39533Y458024D01*
X39520Y457675D01*
X39499Y457327D01*
X39469Y456980D01*
X39430Y456634D01*
X39383Y456289D01*
X39328Y455945D01*
X39264Y455602D01*
X39192Y455261D01*
X39111Y454922D01*
X39023Y454585D01*
X38926Y454250D01*
X38820Y453918D01*
X38707Y453589D01*
X38586Y453262D01*
X38456Y452938D01*
X38319Y452618D01*
X38174Y452301D01*
X38021Y451988D01*
X37860Y451679D01*
X37692Y451373D01*
X37517Y451072D01*
X37334Y450776D01*
X37144Y450483D01*
X36947Y450196D01*
X36743Y449914D01*
X36532Y449636D01*
X36314Y449364D01*
X36090Y449098D01*
X35859Y448837D01*
X35622Y448581D01*
X35378Y448332D01*
X35129Y448088D01*
X34873Y447851D01*
X34612Y447620D01*
X34346Y447396D01*
X34074Y447178D01*
X33796Y446967D01*
X33514Y446763D01*
X33227Y446566D01*
X32934Y446376D01*
X32638Y446193D01*
X32337Y446018D01*
X32031Y445850D01*
X31722Y445689D01*
X31409Y445536D01*
X31092Y445391D01*
X30772Y445254D01*
X30448Y445124D01*
X30121Y445003D01*
X29792Y444890D01*
X29460Y444784D01*
X29125Y444687D01*
X28788Y444599D01*
X28449Y444518D01*
X28108Y444446D01*
X27765Y444382D01*
X27421Y444327D01*
X27076Y444280D01*
X26730Y444241D01*
X26383Y444211D01*
X26035Y444190D01*
X25686Y444177D01*
X25338Y444173D01*
X24990Y444177D01*
X24641Y444190D01*
X24293Y444211D01*
X23946Y444241D01*
X23600Y444280D01*
X23255Y444327D01*
X22911Y444382D01*
X22568Y444446D01*
X22227Y444518D01*
X21888Y444599D01*
X21551Y444687D01*
X21216Y444784D01*
X20884Y444890D01*
X20555Y445003D01*
X20228Y445124D01*
X19904Y445254D01*
X19584Y445391D01*
X19267Y445536D01*
X18954Y445689D01*
X18645Y445850D01*
X18339Y446018D01*
X18038Y446193D01*
X17742Y446376D01*
X17449Y446566D01*
X17162Y446763D01*
X16880Y446967D01*
X16602Y447178D01*
X16330Y447396D01*
X16064Y447620D01*
X15803Y447851D01*
X15547Y448088D01*
X15298Y448332D01*
X15054Y448581D01*
X14817Y448837D01*
X14586Y449098D01*
X14362Y449364D01*
X14144Y449636D01*
X13933Y449914D01*
X13729Y450196D01*
X13532Y450483D01*
X13342Y450776D01*
X13159Y451072D01*
X12984Y451373D01*
X12816Y451679D01*
X12655Y451988D01*
X12502Y452301D01*
X12357Y452618D01*
X12220Y452938D01*
X12090Y453262D01*
X11969Y453589D01*
X11856Y453918D01*
X11750Y454250D01*
X11653Y454585D01*
X11565Y454922D01*
X11484Y455261D01*
X11412Y455602D01*
X11348Y455945D01*
X11293Y456289D01*
X11246Y456634D01*
X11207Y456980D01*
X11177Y457327D01*
X11156Y457675D01*
X11143Y458024D01*
X11139Y458372D01*
D12*
X27228Y387257D02*
X38912Y379468D01*
X38912Y387257D02*
X27228Y379468D01*
X27228Y395117D02*
X27230Y395224D01*
X27236Y395330D01*
X27246Y395436D01*
X27259Y395542D01*
X27277Y395648D01*
X27298Y395752D01*
X27323Y395856D01*
X27352Y395959D01*
X27384Y396060D01*
X27421Y396160D01*
X27461Y396259D01*
X27504Y396357D01*
X27551Y396453D01*
X27602Y396547D01*
X27656Y396639D01*
X27713Y396729D01*
X27773Y396817D01*
X27837Y396902D01*
X27904Y396985D01*
X27974Y397066D01*
X28046Y397144D01*
X28122Y397220D01*
X28200Y397292D01*
X28281Y397362D01*
X28364Y397429D01*
X28449Y397493D01*
X28537Y397553D01*
X28627Y397610D01*
X28719Y397664D01*
X28813Y397715D01*
X28909Y397762D01*
X29007Y397805D01*
X29106Y397845D01*
X29206Y397882D01*
X29307Y397914D01*
X29410Y397943D01*
X29514Y397968D01*
X29618Y397989D01*
X29724Y398007D01*
X29830Y398020D01*
X29936Y398030D01*
X30042Y398036D01*
X30149Y398038D01*
X27228Y395117D02*
X27230Y394996D01*
X27236Y394875D01*
X27246Y394755D01*
X27259Y394634D01*
X27277Y394515D01*
X27298Y394395D01*
X27323Y394277D01*
X27352Y394160D01*
X27385Y394043D01*
X27421Y393928D01*
X27462Y393814D01*
X27505Y393701D01*
X27553Y393589D01*
X27604Y393480D01*
X27659Y393372D01*
X27717Y393265D01*
X27778Y393161D01*
X27843Y393059D01*
X27911Y392959D01*
X27982Y392861D01*
X28056Y392765D01*
X28133Y392672D01*
X28214Y392582D01*
X28297Y392494D01*
X28383Y392409D01*
X28472Y392326D01*
X28563Y392247D01*
X28657Y392170D01*
X28753Y392097D01*
X28851Y392027D01*
X28952Y391960D01*
X29055Y391896D01*
X29160Y391836D01*
X29267Y391778D01*
X29375Y391725D01*
X29485Y391675D01*
X29597Y391629D01*
X29710Y391586D01*
X29825Y391547D01*
X32421Y397064D02*
X32343Y397143D01*
X32263Y397219D01*
X32180Y397292D01*
X32094Y397362D01*
X32007Y397429D01*
X31916Y397493D01*
X31824Y397553D01*
X31730Y397611D01*
X31633Y397665D01*
X31535Y397715D01*
X31435Y397762D01*
X31334Y397806D01*
X31231Y397846D01*
X31126Y397882D01*
X31021Y397914D01*
X30914Y397943D01*
X30807Y397968D01*
X30698Y397990D01*
X30589Y398007D01*
X30480Y398021D01*
X30370Y398030D01*
X30259Y398036D01*
X30149Y398038D01*
X32421Y397065D02*
X38912Y391547D01*
X38912Y398038D01*
D13*
X397176Y388914D02*
X397176Y481914D01*
X367676Y481914D01*
X367676Y388914D02*
X397176Y388914D01*
X304176Y407964D02*
X304176Y462864D01*
X336477Y435414D02*
X336481Y435762D01*
X336494Y436111D01*
X336515Y436459D01*
X336545Y436806D01*
X336584Y437152D01*
X336631Y437497D01*
X336686Y437841D01*
X336750Y438184D01*
X336822Y438525D01*
X336903Y438864D01*
X336991Y439201D01*
X337088Y439536D01*
X337194Y439868D01*
X337307Y440197D01*
X337428Y440524D01*
X337558Y440848D01*
X337695Y441168D01*
X337840Y441485D01*
X337993Y441798D01*
X338154Y442107D01*
X338322Y442413D01*
X338497Y442714D01*
X338680Y443010D01*
X338870Y443303D01*
X339067Y443590D01*
X339271Y443872D01*
X339482Y444150D01*
X339700Y444422D01*
X339924Y444688D01*
X340155Y444949D01*
X340392Y445205D01*
X340636Y445454D01*
X340885Y445698D01*
X341141Y445935D01*
X341402Y446166D01*
X341668Y446390D01*
X341940Y446608D01*
X342218Y446819D01*
X342500Y447023D01*
X342787Y447220D01*
X343080Y447410D01*
X343376Y447593D01*
X343677Y447768D01*
X343983Y447936D01*
X344292Y448097D01*
X344605Y448250D01*
X344922Y448395D01*
X345242Y448532D01*
X345566Y448662D01*
X345893Y448783D01*
X346222Y448896D01*
X346554Y449002D01*
X346889Y449099D01*
X347226Y449187D01*
X347565Y449268D01*
X347906Y449340D01*
X348249Y449404D01*
X348593Y449459D01*
X348938Y449506D01*
X349284Y449545D01*
X349631Y449575D01*
X349979Y449596D01*
X350328Y449609D01*
X350676Y449613D01*
X351024Y449609D01*
X351373Y449596D01*
X351721Y449575D01*
X352068Y449545D01*
X352414Y449506D01*
X352759Y449459D01*
X353103Y449404D01*
X353446Y449340D01*
X353787Y449268D01*
X354126Y449187D01*
X354463Y449099D01*
X354798Y449002D01*
X355130Y448896D01*
X355459Y448783D01*
X355786Y448662D01*
X356110Y448532D01*
X356430Y448395D01*
X356747Y448250D01*
X357060Y448097D01*
X357369Y447936D01*
X357675Y447768D01*
X357976Y447593D01*
X358272Y447410D01*
X358565Y447220D01*
X358852Y447023D01*
X359134Y446819D01*
X359412Y446608D01*
X359684Y446390D01*
X359950Y446166D01*
X360211Y445935D01*
X360467Y445698D01*
X360716Y445454D01*
X360960Y445205D01*
X361197Y444949D01*
X361428Y444688D01*
X361652Y444422D01*
X361870Y444150D01*
X362081Y443872D01*
X362285Y443590D01*
X362482Y443303D01*
X362672Y443010D01*
X362855Y442714D01*
X363030Y442413D01*
X363198Y442107D01*
X363359Y441798D01*
X363512Y441485D01*
X363657Y441168D01*
X363794Y440848D01*
X363924Y440524D01*
X364045Y440197D01*
X364158Y439868D01*
X364264Y439536D01*
X364361Y439201D01*
X364449Y438864D01*
X364530Y438525D01*
X364602Y438184D01*
X364666Y437841D01*
X364721Y437497D01*
X364768Y437152D01*
X364807Y436806D01*
X364837Y436459D01*
X364858Y436111D01*
X364871Y435762D01*
X364875Y435414D01*
X364871Y435066D01*
X364858Y434717D01*
X364837Y434369D01*
X364807Y434022D01*
X364768Y433676D01*
X364721Y433331D01*
X364666Y432987D01*
X364602Y432644D01*
X364530Y432303D01*
X364449Y431964D01*
X364361Y431627D01*
X364264Y431292D01*
X364158Y430960D01*
X364045Y430631D01*
X363924Y430304D01*
X363794Y429980D01*
X363657Y429660D01*
X363512Y429343D01*
X363359Y429030D01*
X363198Y428721D01*
X363030Y428415D01*
X362855Y428114D01*
X362672Y427818D01*
X362482Y427525D01*
X362285Y427238D01*
X362081Y426956D01*
X361870Y426678D01*
X361652Y426406D01*
X361428Y426140D01*
X361197Y425879D01*
X360960Y425623D01*
X360716Y425374D01*
X360467Y425130D01*
X360211Y424893D01*
X359950Y424662D01*
X359684Y424438D01*
X359412Y424220D01*
X359134Y424009D01*
X358852Y423805D01*
X358565Y423608D01*
X358272Y423418D01*
X357976Y423235D01*
X357675Y423060D01*
X357369Y422892D01*
X357060Y422731D01*
X356747Y422578D01*
X356430Y422433D01*
X356110Y422296D01*
X355786Y422166D01*
X355459Y422045D01*
X355130Y421932D01*
X354798Y421826D01*
X354463Y421729D01*
X354126Y421641D01*
X353787Y421560D01*
X353446Y421488D01*
X353103Y421424D01*
X352759Y421369D01*
X352414Y421322D01*
X352068Y421283D01*
X351721Y421253D01*
X351373Y421232D01*
X351024Y421219D01*
X350676Y421215D01*
X350328Y421219D01*
X349979Y421232D01*
X349631Y421253D01*
X349284Y421283D01*
X348938Y421322D01*
X348593Y421369D01*
X348249Y421424D01*
X347906Y421488D01*
X347565Y421560D01*
X347226Y421641D01*
X346889Y421729D01*
X346554Y421826D01*
X346222Y421932D01*
X345893Y422045D01*
X345566Y422166D01*
X345242Y422296D01*
X344922Y422433D01*
X344605Y422578D01*
X344292Y422731D01*
X343983Y422892D01*
X343677Y423060D01*
X343376Y423235D01*
X343080Y423418D01*
X342787Y423608D01*
X342500Y423805D01*
X342218Y424009D01*
X341940Y424220D01*
X341668Y424438D01*
X341402Y424662D01*
X341141Y424893D01*
X340885Y425130D01*
X340636Y425374D01*
X340392Y425623D01*
X340155Y425879D01*
X339924Y426140D01*
X339700Y426406D01*
X339482Y426678D01*
X339271Y426956D01*
X339067Y427238D01*
X338870Y427525D01*
X338680Y427818D01*
X338497Y428114D01*
X338322Y428415D01*
X338154Y428721D01*
X337993Y429030D01*
X337840Y429343D01*
X337695Y429660D01*
X337558Y429980D01*
X337428Y430304D01*
X337307Y430631D01*
X337194Y430960D01*
X337088Y431292D01*
X336991Y431627D01*
X336903Y431964D01*
X336822Y432303D01*
X336750Y432644D01*
X336686Y432987D01*
X336631Y433331D01*
X336584Y433676D01*
X336545Y434022D01*
X336515Y434369D01*
X336494Y434717D01*
X336481Y435066D01*
X336477Y435414D01*
D12*
X382128Y464298D02*
X393812Y456509D01*
X393812Y464298D02*
X382128Y456509D01*
X393812Y468588D02*
X393812Y471834D01*
X393810Y471947D01*
X393804Y472060D01*
X393794Y472173D01*
X393780Y472286D01*
X393763Y472398D01*
X393741Y472509D01*
X393716Y472619D01*
X393686Y472729D01*
X393653Y472837D01*
X393616Y472944D01*
X393576Y473050D01*
X393531Y473154D01*
X393483Y473257D01*
X393432Y473358D01*
X393377Y473457D01*
X393319Y473554D01*
X393257Y473649D01*
X393192Y473742D01*
X393124Y473832D01*
X393053Y473920D01*
X392978Y474006D01*
X392901Y474089D01*
X392821Y474169D01*
X392738Y474246D01*
X392652Y474321D01*
X392564Y474392D01*
X392474Y474460D01*
X392381Y474525D01*
X392286Y474587D01*
X392189Y474645D01*
X392090Y474700D01*
X391989Y474751D01*
X391886Y474799D01*
X391782Y474844D01*
X391676Y474884D01*
X391569Y474921D01*
X391461Y474954D01*
X391351Y474984D01*
X391241Y475009D01*
X391130Y475031D01*
X391018Y475048D01*
X390905Y475062D01*
X390792Y475072D01*
X390679Y475078D01*
X390566Y475080D01*
X390453Y475078D01*
X390340Y475072D01*
X390227Y475062D01*
X390114Y475048D01*
X390002Y475031D01*
X389891Y475009D01*
X389781Y474984D01*
X389671Y474954D01*
X389563Y474921D01*
X389456Y474884D01*
X389350Y474844D01*
X389246Y474799D01*
X389143Y474751D01*
X389042Y474700D01*
X388943Y474645D01*
X388846Y474587D01*
X388751Y474525D01*
X388658Y474460D01*
X388568Y474392D01*
X388480Y474321D01*
X388394Y474246D01*
X388311Y474169D01*
X388231Y474089D01*
X388154Y474006D01*
X388079Y473920D01*
X388008Y473832D01*
X387940Y473742D01*
X387875Y473649D01*
X387813Y473554D01*
X387755Y473457D01*
X387700Y473358D01*
X387649Y473257D01*
X387601Y473154D01*
X387556Y473050D01*
X387516Y472944D01*
X387479Y472837D01*
X387446Y472729D01*
X387416Y472619D01*
X387391Y472509D01*
X387369Y472398D01*
X387352Y472286D01*
X387338Y472173D01*
X387328Y472060D01*
X387322Y471947D01*
X387320Y471834D01*
X382128Y472483D02*
X382128Y468588D01*
X382128Y472483D02*
X382130Y472584D01*
X382136Y472684D01*
X382146Y472784D01*
X382159Y472884D01*
X382177Y472983D01*
X382198Y473082D01*
X382223Y473179D01*
X382252Y473276D01*
X382285Y473371D01*
X382321Y473465D01*
X382361Y473557D01*
X382404Y473648D01*
X382451Y473737D01*
X382501Y473824D01*
X382555Y473910D01*
X382612Y473993D01*
X382672Y474073D01*
X382735Y474152D01*
X382802Y474228D01*
X382871Y474301D01*
X382943Y474371D01*
X383017Y474439D01*
X383094Y474504D01*
X383174Y474565D01*
X383256Y474624D01*
X383340Y474679D01*
X383426Y474731D01*
X383514Y474780D01*
X383604Y474825D01*
X383696Y474867D01*
X383789Y474905D01*
X383884Y474939D01*
X383979Y474970D01*
X384076Y474997D01*
X384174Y475020D01*
X384273Y475040D01*
X384373Y475055D01*
X384473Y475067D01*
X384573Y475075D01*
X384674Y475079D01*
X384774Y475079D01*
X384875Y475075D01*
X384975Y475067D01*
X385075Y475055D01*
X385175Y475040D01*
X385274Y475020D01*
X385372Y474997D01*
X385469Y474970D01*
X385564Y474939D01*
X385659Y474905D01*
X385752Y474867D01*
X385844Y474825D01*
X385934Y474780D01*
X386022Y474731D01*
X386108Y474679D01*
X386192Y474624D01*
X386274Y474565D01*
X386354Y474504D01*
X386431Y474439D01*
X386505Y474371D01*
X386577Y474301D01*
X386646Y474228D01*
X386713Y474152D01*
X386776Y474073D01*
X386836Y473993D01*
X386893Y473910D01*
X386947Y473824D01*
X386997Y473737D01*
X387044Y473648D01*
X387087Y473557D01*
X387127Y473465D01*
X387163Y473371D01*
X387196Y473276D01*
X387225Y473179D01*
X387250Y473082D01*
X387271Y472983D01*
X387289Y472884D01*
X387302Y472784D01*
X387312Y472684D01*
X387318Y472584D01*
X387320Y472483D01*
X387321Y472483D02*
X387321Y469886D01*
D13*
X-21583Y533414D02*
X-21583Y626414D01*
X-21583Y533414D02*
X7917Y533414D01*
X7917Y626414D02*
X-21583Y626414D01*
X71417Y607364D02*
X71417Y552464D01*
X10718Y579914D02*
X10722Y580262D01*
X10735Y580611D01*
X10756Y580959D01*
X10786Y581306D01*
X10825Y581652D01*
X10872Y581997D01*
X10927Y582341D01*
X10991Y582684D01*
X11063Y583025D01*
X11144Y583364D01*
X11232Y583701D01*
X11329Y584036D01*
X11435Y584368D01*
X11548Y584697D01*
X11669Y585024D01*
X11799Y585348D01*
X11936Y585668D01*
X12081Y585985D01*
X12234Y586298D01*
X12395Y586607D01*
X12563Y586913D01*
X12738Y587214D01*
X12921Y587510D01*
X13111Y587803D01*
X13308Y588090D01*
X13512Y588372D01*
X13723Y588650D01*
X13941Y588922D01*
X14165Y589188D01*
X14396Y589449D01*
X14633Y589705D01*
X14877Y589954D01*
X15126Y590198D01*
X15382Y590435D01*
X15643Y590666D01*
X15909Y590890D01*
X16181Y591108D01*
X16459Y591319D01*
X16741Y591523D01*
X17028Y591720D01*
X17321Y591910D01*
X17617Y592093D01*
X17918Y592268D01*
X18224Y592436D01*
X18533Y592597D01*
X18846Y592750D01*
X19163Y592895D01*
X19483Y593032D01*
X19807Y593162D01*
X20134Y593283D01*
X20463Y593396D01*
X20795Y593502D01*
X21130Y593599D01*
X21467Y593687D01*
X21806Y593768D01*
X22147Y593840D01*
X22490Y593904D01*
X22834Y593959D01*
X23179Y594006D01*
X23525Y594045D01*
X23872Y594075D01*
X24220Y594096D01*
X24569Y594109D01*
X24917Y594113D01*
X25265Y594109D01*
X25614Y594096D01*
X25962Y594075D01*
X26309Y594045D01*
X26655Y594006D01*
X27000Y593959D01*
X27344Y593904D01*
X27687Y593840D01*
X28028Y593768D01*
X28367Y593687D01*
X28704Y593599D01*
X29039Y593502D01*
X29371Y593396D01*
X29700Y593283D01*
X30027Y593162D01*
X30351Y593032D01*
X30671Y592895D01*
X30988Y592750D01*
X31301Y592597D01*
X31610Y592436D01*
X31916Y592268D01*
X32217Y592093D01*
X32513Y591910D01*
X32806Y591720D01*
X33093Y591523D01*
X33375Y591319D01*
X33653Y591108D01*
X33925Y590890D01*
X34191Y590666D01*
X34452Y590435D01*
X34708Y590198D01*
X34957Y589954D01*
X35201Y589705D01*
X35438Y589449D01*
X35669Y589188D01*
X35893Y588922D01*
X36111Y588650D01*
X36322Y588372D01*
X36526Y588090D01*
X36723Y587803D01*
X36913Y587510D01*
X37096Y587214D01*
X37271Y586913D01*
X37439Y586607D01*
X37600Y586298D01*
X37753Y585985D01*
X37898Y585668D01*
X38035Y585348D01*
X38165Y585024D01*
X38286Y584697D01*
X38399Y584368D01*
X38505Y584036D01*
X38602Y583701D01*
X38690Y583364D01*
X38771Y583025D01*
X38843Y582684D01*
X38907Y582341D01*
X38962Y581997D01*
X39009Y581652D01*
X39048Y581306D01*
X39078Y580959D01*
X39099Y580611D01*
X39112Y580262D01*
X39116Y579914D01*
X39112Y579566D01*
X39099Y579217D01*
X39078Y578869D01*
X39048Y578522D01*
X39009Y578176D01*
X38962Y577831D01*
X38907Y577487D01*
X38843Y577144D01*
X38771Y576803D01*
X38690Y576464D01*
X38602Y576127D01*
X38505Y575792D01*
X38399Y575460D01*
X38286Y575131D01*
X38165Y574804D01*
X38035Y574480D01*
X37898Y574160D01*
X37753Y573843D01*
X37600Y573530D01*
X37439Y573221D01*
X37271Y572915D01*
X37096Y572614D01*
X36913Y572318D01*
X36723Y572025D01*
X36526Y571738D01*
X36322Y571456D01*
X36111Y571178D01*
X35893Y570906D01*
X35669Y570640D01*
X35438Y570379D01*
X35201Y570123D01*
X34957Y569874D01*
X34708Y569630D01*
X34452Y569393D01*
X34191Y569162D01*
X33925Y568938D01*
X33653Y568720D01*
X33375Y568509D01*
X33093Y568305D01*
X32806Y568108D01*
X32513Y567918D01*
X32217Y567735D01*
X31916Y567560D01*
X31610Y567392D01*
X31301Y567231D01*
X30988Y567078D01*
X30671Y566933D01*
X30351Y566796D01*
X30027Y566666D01*
X29700Y566545D01*
X29371Y566432D01*
X29039Y566326D01*
X28704Y566229D01*
X28367Y566141D01*
X28028Y566060D01*
X27687Y565988D01*
X27344Y565924D01*
X27000Y565869D01*
X26655Y565822D01*
X26309Y565783D01*
X25962Y565753D01*
X25614Y565732D01*
X25265Y565719D01*
X24917Y565715D01*
X24569Y565719D01*
X24220Y565732D01*
X23872Y565753D01*
X23525Y565783D01*
X23179Y565822D01*
X22834Y565869D01*
X22490Y565924D01*
X22147Y565988D01*
X21806Y566060D01*
X21467Y566141D01*
X21130Y566229D01*
X20795Y566326D01*
X20463Y566432D01*
X20134Y566545D01*
X19807Y566666D01*
X19483Y566796D01*
X19163Y566933D01*
X18846Y567078D01*
X18533Y567231D01*
X18224Y567392D01*
X17918Y567560D01*
X17617Y567735D01*
X17321Y567918D01*
X17028Y568108D01*
X16741Y568305D01*
X16459Y568509D01*
X16181Y568720D01*
X15909Y568938D01*
X15643Y569162D01*
X15382Y569393D01*
X15126Y569630D01*
X14877Y569874D01*
X14633Y570123D01*
X14396Y570379D01*
X14165Y570640D01*
X13941Y570906D01*
X13723Y571178D01*
X13512Y571456D01*
X13308Y571738D01*
X13111Y572025D01*
X12921Y572318D01*
X12738Y572614D01*
X12563Y572915D01*
X12395Y573221D01*
X12234Y573530D01*
X12081Y573843D01*
X11936Y574160D01*
X11799Y574480D01*
X11669Y574804D01*
X11548Y575131D01*
X11435Y575460D01*
X11329Y575792D01*
X11232Y576127D01*
X11144Y576464D01*
X11063Y576803D01*
X10991Y577144D01*
X10927Y577487D01*
X10872Y577831D01*
X10825Y578176D01*
X10786Y578522D01*
X10756Y578869D01*
X10735Y579217D01*
X10722Y579566D01*
X10718Y579914D01*
D12*
X-6827Y516837D02*
X4857Y509047D01*
X4857Y516837D02*
X-6827Y509047D01*
X-6827Y523723D02*
X2261Y521126D01*
X2261Y527617D01*
X-336Y525670D02*
X4857Y525670D01*
M02*
