G04 EAGLE Gerber X2 export*
%TF.Part,Single*%
%TF.FileFunction,Paste,Top*%
%TF.FilePolarity,Positive*%
%TF.GenerationSoftware,Autodesk,EAGLE,9.1.0*%
%TF.CreationDate,2018-08-06T08:45:11Z*%
G75*
%MOMM*%
%FSLAX34Y34*%
%LPD*%
%AMOC8*
5,1,8,0,0,1.08239X$1,22.5*%
G01*
%ADD10R,0.297100X1.549800*%
%ADD11R,1.186400X0.597100*%
%ADD12R,0.599100X1.968500*%
%ADD13R,1.100000X1.000000*%
%ADD14R,1.500000X1.300000*%
%ADD15R,2.200000X1.600000*%
%ADD16R,2.700000X1.600000*%
%ADD17R,2.600000X1.600000*%
%ADD18R,1.000000X1.100000*%
%ADD19R,1.800000X1.600000*%
%ADD20R,1.300000X1.500000*%


D10*
X168420Y445857D03*
X163420Y445857D03*
X158420Y445857D03*
X153420Y445857D03*
X148420Y445857D03*
X148420Y402731D03*
X153420Y402731D03*
X158420Y402731D03*
X163420Y402731D03*
X168420Y402731D03*
D11*
X347350Y499075D03*
X347350Y508575D03*
X347350Y518075D03*
X322062Y518075D03*
X322062Y499075D03*
D12*
X239130Y417475D03*
X251830Y417475D03*
X264530Y417475D03*
X277230Y417475D03*
X277230Y466943D03*
X264530Y466943D03*
X251830Y466943D03*
X239130Y466943D03*
D13*
X138070Y465801D03*
X155070Y465801D03*
D14*
X163547Y610916D03*
X163547Y591916D03*
D15*
X232817Y613866D03*
X232817Y574866D03*
D13*
X284965Y567667D03*
X267965Y567667D03*
D16*
X87917Y612361D03*
X87917Y584361D03*
D17*
X327570Y348369D03*
X363570Y348369D03*
X260393Y348731D03*
X296393Y348731D03*
D13*
X117420Y553621D03*
X100420Y553621D03*
X89718Y434695D03*
X106718Y434695D03*
X253267Y389062D03*
X270267Y389062D03*
X89774Y465696D03*
X106774Y465696D03*
D17*
X61158Y358503D03*
X25158Y358503D03*
D18*
X124127Y425396D03*
X124127Y442396D03*
D19*
X128817Y613958D03*
X128817Y585958D03*
D13*
X150082Y555713D03*
X167082Y555713D03*
D16*
X197277Y610503D03*
X197277Y582503D03*
D20*
X181580Y464868D03*
X200580Y464868D03*
D14*
X202919Y426111D03*
X202919Y407111D03*
M02*
