G04 EAGLE Gerber RS-274X export*
G04 #@! %TF.Part,Single*
G04 #@! %TF.FileFunction,Copper,L2,Bot,Mixed*
G04 #@! %TF.FilePolarity,Positive*
G04 #@! %TF.GenerationSoftware,Autodesk,EAGLE,9.1.0*
G04 #@! %TF.CreationDate,2018-07-26T08:16:40Z*
G75*
%MOMM*%
%FSLAX34Y34*%
%LPD*%
%AMOC8*
5,1,8,0,0,1.08239X$1,22.5*%
G01*
%ADD10R,0.297100X1.549800*%
%ADD11R,1.186400X0.597100*%
%ADD12R,1.100000X1.000000*%
%ADD13R,1.600000X2.200000*%
%ADD14R,1.000000X1.100000*%
%ADD15R,1.800000X1.600000*%
%ADD16R,1.500000X1.300000*%
%ADD17R,2.200000X1.600000*%
%ADD18P,1.649562X8X202.500000*%
%ADD19P,1.649562X8X22.500000*%
%ADD20P,1.649562X8X112.500000*%
%ADD21R,0.270000X1.458700*%
%ADD22R,1.458700X0.270000*%
%ADD23R,1.300000X1.500000*%
%ADD24R,0.809800X0.250000*%
%ADD25R,0.250000X0.809800*%
%ADD26R,0.956400X0.472500*%
%ADD27C,1.524000*%
%ADD28C,2.540000*%
%ADD29C,3.175000*%
%ADD30C,0.304800*%
%ADD31C,0.254000*%
%ADD32C,0.756400*%
%ADD33C,0.508000*%
%ADD34C,0.812800*%


D10*
X234201Y258825D03*
X229201Y258825D03*
X224201Y258825D03*
X219201Y258825D03*
X214201Y258825D03*
X214201Y301951D03*
X219201Y301951D03*
X224201Y301951D03*
X229201Y301951D03*
X234201Y301951D03*
D11*
X313050Y403218D03*
X313050Y393718D03*
X313050Y384218D03*
X287762Y384218D03*
X287762Y403218D03*
D12*
X138422Y465037D03*
X155422Y465037D03*
D13*
X329954Y593732D03*
X290954Y593732D03*
D14*
X265993Y605189D03*
X265993Y622189D03*
X53145Y652816D03*
X53145Y635816D03*
D12*
X326582Y225119D03*
X343582Y225119D03*
D14*
X150787Y427898D03*
X150787Y410898D03*
X20481Y231310D03*
X20481Y248310D03*
X190440Y427991D03*
X190440Y410991D03*
D12*
X160786Y312991D03*
X177786Y312991D03*
D15*
X337932Y474049D03*
X337932Y446049D03*
D12*
X289294Y547186D03*
X272294Y547186D03*
D16*
X300338Y179606D03*
X300338Y160606D03*
D17*
X339994Y196238D03*
X339994Y157238D03*
D18*
X253531Y361032D03*
D19*
X313223Y546662D03*
X320969Y636427D03*
D20*
X69519Y313352D03*
X69519Y338752D03*
X69519Y364152D03*
X69519Y389552D03*
X69519Y414952D03*
X69519Y440352D03*
X94919Y313352D03*
X94919Y338752D03*
X94919Y364152D03*
X94919Y389552D03*
X94919Y414952D03*
X94919Y440352D03*
D21*
X308373Y520834D03*
X313373Y520834D03*
D22*
X321611Y510096D03*
X321611Y505096D03*
X321611Y500096D03*
D21*
X313373Y489358D03*
X308373Y489358D03*
D22*
X300135Y500096D03*
X300135Y505096D03*
X300135Y510096D03*
D12*
X292388Y616087D03*
X292388Y633087D03*
D23*
X118203Y313399D03*
X137203Y313399D03*
X215104Y362735D03*
X196104Y362735D03*
X189853Y464807D03*
X208853Y464807D03*
D24*
X94717Y492690D03*
X94717Y497690D03*
X94717Y502690D03*
X94717Y507690D03*
D25*
X101668Y514641D03*
X106668Y514641D03*
X111668Y514641D03*
X116668Y514641D03*
D24*
X123619Y507690D03*
X123619Y502690D03*
X123619Y497690D03*
X123619Y492690D03*
D25*
X116668Y485739D03*
X111668Y485739D03*
X106668Y485739D03*
X101668Y485739D03*
D26*
X286408Y474351D03*
X286408Y467851D03*
X286408Y461351D03*
X269680Y461351D03*
X269680Y467851D03*
X269680Y474351D03*
D27*
X70262Y577677D03*
D28*
X112807Y577677D03*
X27717Y577677D03*
D29*
X112807Y609173D03*
X27717Y609173D03*
D27*
X88293Y179683D03*
D28*
X45748Y179683D03*
X130838Y179683D03*
D29*
X45748Y148187D03*
X130838Y148187D03*
D27*
X190433Y578705D03*
D28*
X147888Y578705D03*
X232978Y578705D03*
D29*
X147888Y547209D03*
X232978Y547209D03*
D27*
X216814Y178725D03*
D28*
X174269Y178725D03*
X259359Y178725D03*
D29*
X174269Y147229D03*
X259359Y147229D03*
D30*
X229201Y287464D02*
X229201Y301951D01*
X224201Y282464D02*
X224201Y258825D01*
X227751Y286014D02*
X229201Y287464D01*
X227751Y286014D02*
X225211Y283474D01*
X224201Y282464D01*
X229201Y301951D02*
X229201Y362562D01*
X229028Y362735D02*
X215104Y362735D01*
X229028Y362735D02*
X229201Y362562D01*
D31*
X94919Y414952D02*
X69519Y414952D01*
X94919Y414952D02*
X116521Y414952D01*
D32*
X116722Y414751D03*
D31*
X116521Y414952D01*
X229201Y385816D02*
X229201Y362562D01*
X229201Y385816D02*
X229201Y395924D01*
X210850Y414646D01*
X208458Y414646D01*
X208069Y414665D01*
D32*
X208069Y414665D03*
D30*
X190440Y410991D02*
X190347Y410898D01*
X164444Y410898D01*
X150787Y410898D01*
X190440Y410991D02*
X190440Y398591D01*
X203482Y385549D01*
X203749Y385816D01*
X229201Y385816D01*
X177786Y312991D02*
X207303Y283474D01*
X225211Y283474D01*
X177786Y312991D02*
X164444Y326333D01*
X164444Y410898D01*
D32*
X205872Y242838D03*
D31*
X224266Y257930D02*
X224201Y258825D01*
X224266Y249744D02*
X216399Y242838D01*
X224266Y249744D02*
X224266Y257930D01*
X216399Y242838D02*
X205872Y242838D01*
D32*
X260149Y496524D03*
D31*
X296562Y496524D01*
X300135Y500096D01*
D32*
X282164Y513067D03*
D31*
X289434Y513067D01*
X292502Y509998D01*
X300036Y509998D01*
X300135Y510096D01*
D32*
X198767Y637194D03*
D31*
X272294Y563667D01*
X272294Y547186D01*
X116668Y485739D02*
X116668Y463647D01*
X118617Y461698D02*
X118619Y461698D01*
D32*
X118619Y461698D03*
D31*
X118617Y461698D02*
X116668Y463647D01*
D32*
X297365Y373760D03*
D31*
X301849Y378244D01*
X301849Y390161D01*
X305407Y393718D01*
X313050Y393718D01*
X243391Y286014D02*
X227751Y286014D01*
X243391Y286014D02*
X243676Y286299D01*
X243676Y286033D01*
D32*
X243676Y286033D03*
X34098Y240088D03*
D31*
X25877Y248310D01*
X20481Y248310D01*
D33*
X339994Y157238D02*
X339994Y154474D01*
X339994Y138443D01*
X337055Y135503D01*
X319239Y135503D02*
X319071Y135672D01*
D32*
X319071Y135672D03*
D33*
X319239Y135503D02*
X337055Y135503D01*
X336627Y160606D02*
X300338Y160606D01*
X336627Y160606D02*
X339994Y157238D01*
X360393Y208308D02*
X343582Y225119D01*
X360393Y174873D02*
X339994Y154474D01*
X360393Y174873D02*
X360393Y208308D01*
X337932Y433562D02*
X337932Y446049D01*
X337932Y433562D02*
X338410Y433084D01*
X337971Y432645D01*
X337971Y432346D01*
D32*
X337971Y432346D03*
X291183Y573259D03*
D31*
X291183Y593504D01*
X290954Y593732D01*
D34*
X272294Y547186D02*
X233001Y547186D01*
X232978Y547209D01*
X232978Y578705D01*
X232978Y547209D02*
X190203Y547209D01*
X147888Y547209D01*
X147888Y578705D01*
X27717Y577677D02*
X27717Y609173D01*
X53145Y634602D01*
X53145Y635816D01*
X86165Y635816D01*
X112807Y609173D01*
X112807Y577677D01*
X146861Y577677D01*
X147888Y578705D01*
D32*
X190530Y528574D03*
D31*
X190203Y528902D01*
X190203Y547209D01*
X289479Y547001D02*
X308329Y547001D01*
X289479Y547001D02*
X289294Y547186D01*
D32*
X263110Y532237D03*
D31*
X284193Y532237D01*
X289282Y537326D01*
X289282Y546804D01*
X289479Y547001D01*
X308668Y546662D02*
X313223Y546662D01*
X308668Y546662D02*
X308329Y547001D01*
X321611Y500096D02*
X331171Y500096D01*
X334556Y503482D01*
X334556Y540435D01*
X327913Y547078D01*
X327497Y546662D01*
X313223Y546662D01*
X308373Y489358D02*
X269681Y489358D01*
X147458Y489358D01*
X126951Y489358D01*
X123619Y492690D01*
D32*
X147829Y505814D03*
D31*
X147829Y489729D01*
X147458Y489358D01*
D32*
X240487Y651549D03*
D34*
X260947Y651549D01*
X265997Y646498D01*
X265997Y634167D01*
X265997Y628229D01*
X265997Y627693D01*
X265993Y622189D01*
X266126Y628101D02*
X265997Y628229D01*
D31*
X269680Y489357D02*
X269680Y474351D01*
X269680Y489357D02*
X269681Y489358D01*
D34*
X267077Y633087D02*
X292388Y633087D01*
X267077Y633087D02*
X265997Y634167D01*
D31*
X259602Y520834D02*
X308373Y520834D01*
X259602Y520834D02*
X136764Y520834D01*
X135708Y519779D01*
X123619Y507690D01*
X135708Y519779D02*
X135536Y519951D01*
X253344Y461351D02*
X269680Y461351D01*
X253344Y461351D02*
X239071Y475624D01*
X239071Y480826D01*
X239361Y481116D02*
X239361Y481123D01*
D32*
X239361Y481123D03*
X259424Y513741D03*
D31*
X259602Y513919D01*
X259602Y520834D01*
X239361Y481116D02*
X239071Y480826D01*
X136764Y520834D02*
X102968Y554630D01*
X75508Y554630D01*
X75508Y554867D01*
X75272Y555102D01*
D32*
X75272Y555102D03*
D31*
X71566Y492690D02*
X94717Y492690D01*
X71971Y492699D02*
X71626Y492647D01*
D32*
X71971Y492699D03*
D31*
X71626Y492647D02*
X71566Y492690D01*
X269680Y467851D02*
X286408Y467851D01*
X306762Y403218D02*
X287762Y384218D01*
X306762Y403218D02*
X313050Y403218D01*
X302346Y467851D02*
X286408Y467851D01*
X302346Y467851D02*
X302350Y467855D01*
X311671Y467855D01*
X313303Y466223D01*
X313303Y403471D01*
X313050Y403218D01*
X287762Y384218D02*
X287762Y364704D01*
X284076Y361018D01*
X282829Y361018D01*
X282706Y360896D01*
D32*
X282706Y360896D03*
D30*
X94919Y440352D02*
X69519Y440352D01*
X234201Y427915D02*
X234201Y301951D01*
X132668Y440352D02*
X117467Y440352D01*
X94919Y440352D01*
D31*
X132668Y440123D02*
X132668Y440352D01*
D30*
X221764Y440352D02*
X234201Y427915D01*
X190440Y427991D02*
X150880Y427991D01*
X150787Y427898D01*
X152547Y429658D01*
X191446Y440352D02*
X221764Y440352D01*
X191446Y440352D02*
X152239Y440352D01*
X139324Y440352D01*
X132897Y440352D01*
X132668Y440123D01*
X150787Y427898D02*
X152239Y429350D01*
X152239Y440352D01*
X190440Y427991D02*
X191446Y428997D01*
X191446Y440352D01*
X138422Y441254D02*
X138422Y465037D01*
X138422Y441254D02*
X139324Y440352D01*
D31*
X137203Y422953D02*
X137203Y313399D01*
X142148Y427898D02*
X150787Y427898D01*
X142148Y427898D02*
X137203Y422953D01*
D30*
X221764Y440352D02*
X251488Y440352D01*
X251717Y440123D01*
X251488Y440352D02*
X251412Y440427D01*
X251551Y440356D01*
D32*
X251551Y440356D03*
D30*
X160786Y312991D02*
X198939Y274838D01*
X213649Y274838D01*
X219201Y269286D01*
X219201Y258825D01*
D32*
X177949Y269526D03*
D30*
X193627Y269526D01*
X198939Y274838D01*
D31*
X313050Y384218D02*
X313671Y383597D01*
X313671Y248400D02*
X273811Y208539D01*
X236725Y208539D01*
X236356Y208170D01*
X229201Y215326D01*
X229201Y258825D01*
X313671Y248400D02*
X313671Y383597D01*
D33*
X118203Y313399D02*
X94967Y313399D01*
X94919Y313352D01*
D30*
X130496Y258825D02*
X214201Y258825D01*
X130496Y258825D02*
X117885Y271435D01*
X118203Y271753D01*
X118203Y313399D01*
X175925Y340227D02*
X214201Y301951D01*
X175925Y340227D02*
X175925Y389464D01*
X173374Y389464D01*
X173055Y389783D01*
D32*
X173055Y389783D03*
D30*
X219201Y323531D02*
X219201Y301951D01*
X219201Y323531D02*
X201118Y341615D01*
X200480Y341615D01*
X200161Y341934D01*
D32*
X200161Y341934D03*
D30*
X196991Y361848D02*
X196104Y362735D01*
X196991Y361848D02*
X224201Y334638D01*
X224201Y301951D01*
X191551Y380213D02*
X189318Y380213D01*
D32*
X189318Y380213D03*
X110232Y374152D03*
D30*
X110232Y343208D01*
X105767Y338744D01*
X94927Y338744D01*
X94919Y338752D01*
X189318Y380213D02*
X196991Y372541D01*
X196991Y361848D01*
X69519Y313352D02*
X31611Y313352D01*
X28160Y316802D01*
X28160Y475260D01*
X38061Y485161D01*
X38061Y485160D01*
X38340Y485439D01*
D32*
X38340Y485439D03*
X81792Y485499D03*
D31*
X101429Y485499D01*
X101668Y485739D01*
D30*
X85558Y469408D02*
X85336Y469187D01*
D32*
X85336Y469187D03*
X37953Y464757D03*
D30*
X37953Y357748D01*
X56452Y339250D01*
X69021Y339250D01*
X69519Y338752D01*
D31*
X85336Y469187D02*
X99542Y469187D01*
X106676Y476321D01*
X106693Y476676D01*
X106668Y485739D01*
X94717Y497690D02*
X81871Y497690D01*
X73132Y506429D01*
X68862Y506429D01*
X68648Y506215D01*
D32*
X68648Y506215D03*
X17299Y196411D03*
D31*
X181403Y196411D02*
X201748Y176066D01*
X214155Y176066D01*
X216814Y178725D01*
X181403Y196411D02*
X17299Y196411D01*
D32*
X56891Y456674D03*
D31*
X57218Y457002D01*
X89699Y502690D02*
X94717Y502690D01*
X68170Y517760D02*
X57034Y517760D01*
X57218Y457002D01*
X89699Y502690D02*
X68170Y517760D01*
X69519Y389552D02*
X57563Y389552D01*
X94717Y507690D02*
X94636Y507771D01*
X94717Y507690D02*
X76064Y526343D01*
X55804Y526343D01*
X47725Y521212D01*
X47645Y521212D01*
X47645Y399469D01*
X57563Y389552D01*
D30*
X155422Y465037D02*
X189623Y465037D01*
X189853Y464807D01*
D31*
X116668Y514641D02*
X111668Y514641D01*
X111668Y485739D01*
X111668Y456094D01*
X119336Y448426D01*
X124781Y448426D01*
X129167Y448222D01*
D32*
X129167Y448222D03*
X204413Y448518D03*
D31*
X208853Y452957D01*
X208853Y464807D01*
X234201Y258825D02*
X234326Y258700D01*
X234201Y258825D02*
X245973Y258825D01*
X252922Y251876D02*
X252922Y237114D01*
X247079Y231271D01*
X239253Y231271D02*
X239240Y231257D01*
D32*
X239240Y231257D03*
X166458Y231249D03*
D31*
X165402Y231249D01*
X51818Y231249D01*
X48702Y231249D01*
X44467Y235484D01*
X44467Y246372D01*
X44651Y246556D01*
D32*
X44651Y246556D03*
D31*
X245973Y258825D02*
X252922Y251876D01*
X247079Y231271D02*
X239253Y231271D01*
X300135Y505096D02*
X301354Y505096D01*
X304583Y505096D01*
X321611Y505096D01*
X321611Y510096D01*
X302526Y504982D02*
X301354Y505096D01*
D32*
X231551Y505135D03*
D31*
X304544Y505135D01*
X304583Y505096D01*
D32*
X259570Y448973D03*
D31*
X204868Y448973D01*
X204413Y448518D01*
D32*
X272144Y435948D03*
D31*
X272144Y403765D01*
X272144Y284997D01*
X245973Y258825D01*
X272691Y403218D02*
X287762Y403218D01*
X272691Y403218D02*
X272144Y403765D01*
X51818Y231249D02*
X51757Y231310D01*
X20481Y231310D01*
D33*
X329954Y627442D02*
X320969Y636427D01*
X329954Y627442D02*
X329954Y594430D01*
X329954Y593732D01*
D32*
X343702Y591108D03*
D31*
X333276Y591108D01*
X332108Y592276D01*
X329954Y594430D01*
D33*
X63037Y662707D02*
X53145Y652816D01*
X63037Y662707D02*
X296946Y662707D01*
X320969Y638684D01*
X320969Y636427D01*
X339994Y196238D02*
X300841Y196238D01*
X200412Y196238D01*
X165402Y231249D01*
X300338Y179606D02*
X300841Y180110D01*
X300841Y196238D01*
X326582Y209650D02*
X339994Y196238D01*
X326582Y209650D02*
X326582Y225119D01*
X337932Y474049D02*
X337932Y492496D01*
X345139Y499702D01*
X345139Y552543D01*
X330470Y567211D01*
X330470Y590639D01*
X332108Y592276D01*
D31*
X309165Y474351D02*
X286408Y474351D01*
X309165Y474351D02*
X313373Y478559D01*
X313373Y489358D01*
X327251Y489358D01*
X339805Y501912D01*
X339805Y542881D01*
X320667Y562019D02*
X281257Y562019D01*
X265993Y577282D01*
X265993Y605189D01*
X320667Y562019D02*
X339805Y542881D01*
D34*
X271632Y605189D02*
X265993Y605189D01*
X282531Y616087D02*
X292388Y616087D01*
X282531Y616087D02*
X271632Y605189D01*
D31*
X313373Y520834D02*
X322840Y520834D01*
X322861Y520855D01*
X322840Y520834D02*
X322824Y520818D01*
X322475Y520818D01*
D32*
X322475Y520818D03*
X305073Y461279D03*
D31*
X286480Y461279D01*
X286408Y461351D01*
X313373Y520834D02*
X323353Y530815D01*
X327827Y530815D01*
X327980Y530969D01*
D32*
X327980Y530969D03*
M02*
