M48
;GenerationSoftware,Autodesk,EAGLE,9.1.0*%
;CreationDate,2018-08-06T08:45:09Z*%
FMAT,2
ICI,OFF
METRIC,TZ,000.000
T5C0.350
T4C0.762
T3C1.016
T2C1.524
T1C2.159
%
G90
M71
T1
X5683Y41583
X5641Y62246
X32017Y53935
X32017Y62444
X5641Y53737
X31918Y39287
X31918Y47796
X5683Y50092
T2
X2534Y50092
X2534Y41583
X35166Y62444
X35068Y39287
X35166Y53935
X2492Y62246
X2492Y53737
X35068Y47796
T3
X14168Y36033
X11628Y36033
X9088Y36033
X21788Y38573
X19248Y38573
X16708Y38573
X11628Y38573
X9088Y38573
X16708Y36033
X36780Y50905
X27444Y60415
X21788Y36033
X19248Y36033
X14168Y38573
T4
X35166Y58189
X35068Y43541
X2492Y57991
X2534Y45837
T5
X12270Y45864
X19259Y43884
X15877Y50161
X17535Y41107
X13672Y48016
X33611Y52127
X22696Y58884
X28665Y50718
X16389Y48174
X14321Y48683
X21395Y51527
X18142Y44605
X25255Y63003
X23708Y37159
X14146Y53589
X14156Y50580
X16918Y46583
X8523Y52738
X6523Y44283
X12419Y48011
X8306Y50400
X17974Y40260
X6002Y38243
X21381Y45087
X28665Y54818
M30