G04 EAGLE Gerber RS-274X export*
G04 #@! %TF.Part,Single*
G04 #@! %TF.FileFunction,Soldermask,Top,1*
G04 #@! %TF.FilePolarity,Negative*
G04 #@! %TF.GenerationSoftware,Autodesk,EAGLE,9.1.0*
G04 #@! %TF.CreationDate,2018-07-26T08:16:40Z*
G75*
%MOMM*%
%FSLAX34Y34*%
%LPD*%
%AMOC8*
5,1,8,0,0,1.08239X$1,22.5*%
G01*
%ADD10R,2.171700X0.802300*%
%ADD11R,1.803200X2.903200*%
%ADD12R,1.703200X1.503200*%
%ADD13R,1.303200X1.203200*%
%ADD14R,1.203200X1.303200*%
%ADD15R,2.803200X1.803200*%
%ADD16R,2.003200X1.803200*%
%ADD17P,1.869504X8X202.500000*%
%ADD18P,1.869504X8X22.500000*%
%ADD19P,1.869504X8X112.500000*%
%ADD20C,1.727200*%
%ADD21C,2.743200*%
%ADD22C,3.378200*%
%ADD23C,0.959600*%


D10*
X105889Y294804D03*
X105889Y282104D03*
X105889Y269404D03*
X105889Y256704D03*
X155357Y256704D03*
X155357Y269404D03*
X155357Y282104D03*
X155357Y294804D03*
D11*
X288625Y321501D03*
X260625Y321501D03*
D12*
X321064Y340392D03*
X321064Y359392D03*
D13*
X314894Y152742D03*
X297894Y152742D03*
D11*
X288911Y256934D03*
X260911Y256934D03*
D14*
X128800Y657385D03*
X128800Y640385D03*
D15*
X304414Y414406D03*
X340414Y414406D03*
X44226Y265617D03*
X80226Y265617D03*
D14*
X321749Y263527D03*
X321749Y280527D03*
D15*
X263730Y413378D03*
X227730Y413378D03*
D13*
X232227Y464612D03*
X249227Y464612D03*
D16*
X345869Y262940D03*
X345869Y234940D03*
D14*
X322089Y300171D03*
X322089Y317171D03*
D11*
X315170Y188514D03*
X287170Y188514D03*
D17*
X253531Y361032D03*
D18*
X313223Y546662D03*
X320969Y636427D03*
D19*
X69519Y313352D03*
X69519Y338752D03*
X69519Y364152D03*
X69519Y389552D03*
X69519Y414952D03*
X69519Y440352D03*
X94919Y313352D03*
X94919Y338752D03*
X94919Y364152D03*
X94919Y389552D03*
X94919Y414952D03*
X94919Y440352D03*
D14*
X198600Y508792D03*
X215600Y508792D03*
X163585Y508848D03*
X180585Y508848D03*
D13*
X27273Y652480D03*
X27273Y635480D03*
D20*
X70262Y577677D03*
D21*
X112807Y577677D03*
X27717Y577677D03*
D22*
X112807Y609173D03*
X27717Y609173D03*
D20*
X88293Y179683D03*
D21*
X45748Y179683D03*
X130838Y179683D03*
D22*
X45748Y148187D03*
X130838Y148187D03*
D20*
X190433Y578705D03*
D21*
X147888Y578705D03*
X232978Y578705D03*
D22*
X147888Y547209D03*
X232978Y547209D03*
D20*
X216814Y178725D03*
D21*
X174269Y178725D03*
X259359Y178725D03*
D22*
X174269Y147229D03*
X259359Y147229D03*
D23*
X116722Y414751D03*
X208069Y414665D03*
X205872Y242838D03*
X260149Y496524D03*
X282164Y513067D03*
X198767Y637194D03*
X118619Y461698D03*
X297365Y373760D03*
X243676Y286033D03*
X34098Y240088D03*
X319071Y135672D03*
X337971Y432346D03*
X291183Y573259D03*
X190530Y528574D03*
X263110Y532237D03*
X147829Y505814D03*
X240487Y651549D03*
X239361Y481123D03*
X259424Y513741D03*
X75272Y555102D03*
X71971Y492699D03*
X282706Y360896D03*
X251551Y440356D03*
X177949Y269526D03*
X173055Y389783D03*
X200161Y341934D03*
X189318Y380213D03*
X110232Y374152D03*
X38340Y485439D03*
X81792Y485499D03*
X85336Y469187D03*
X37953Y464757D03*
X68648Y506215D03*
X17299Y196411D03*
X56891Y456674D03*
X129167Y448222D03*
X204413Y448518D03*
X239240Y231257D03*
X166458Y231249D03*
X44651Y246556D03*
X231551Y505135D03*
X259570Y448973D03*
X272144Y435948D03*
X343702Y591108D03*
X322475Y520818D03*
X305073Y461279D03*
X327980Y530969D03*
M02*
